%FSLAX46Y46*%
G04 Gerber Fmt 4.6, Leading zero omitted, Abs format (unit mm)*
G04 Created by KiCad (PCBNEW (2014-09-22 BZR 5144)-product) date Fri 26 Dec 2014 12:55:59 AM CET*
%MOMM*%
G01*
G04 APERTURE LIST*
%ADD10C,0.100000*%
%ADD11O,1.360000X1.600000*%
%ADD12R,1.360000X1.600000*%
%ADD13R,1.000000X2.000000*%
%ADD14R,1.727200X1.727200*%
%ADD15O,1.727200X1.727200*%
%ADD16R,0.889000X1.397000*%
%ADD17R,1.397000X0.889000*%
%ADD18R,1.600200X3.599180*%
%ADD19R,1.524000X2.032000*%
%ADD20C,2.500000*%
%ADD21C,2.600000*%
%ADD22R,2.032000X2.032000*%
%ADD23O,2.032000X2.032000*%
%ADD24R,1.727200X2.032000*%
%ADD25O,1.727200X2.032000*%
%ADD26C,1.778000*%
%ADD27R,2.032000X1.524000*%
%ADD28R,0.508000X1.143000*%
%ADD29R,0.800000X0.300000*%
%ADD30R,0.300000X0.800000*%
%ADD31R,0.800000X0.350000*%
%ADD32R,0.350000X0.850000*%
%ADD33R,1.143000X0.635000*%
%ADD34C,0.508000*%
%ADD35C,0.889000*%
%ADD36C,0.154000*%
%ADD37C,0.508000*%
%ADD38C,0.762000*%
%ADD39C,0.254000*%
%ADD40C,0.204000*%
G04 APERTURE END LIST*
D10*
D11*
X166309000Y-111330000D03*
X168309000Y-111330000D03*
X170309000Y-111330000D03*
X172309000Y-111330000D03*
X174309000Y-111330000D03*
X176309000Y-111330000D03*
X178309000Y-111330000D03*
X180309000Y-111330000D03*
X182309000Y-111330000D03*
D12*
X184309000Y-111330000D03*
X184309000Y-89330000D03*
D11*
X182309000Y-89330000D03*
X180309000Y-89330000D03*
X178309000Y-89330000D03*
X176309000Y-89330000D03*
X174309000Y-89330000D03*
X172309000Y-89330000D03*
X170309000Y-89330000D03*
X168309000Y-89330000D03*
X166309000Y-89330000D03*
D13*
X144252000Y-91694000D03*
X145752000Y-91694000D03*
X147252000Y-91694000D03*
X148752000Y-91694000D03*
X150252000Y-91694000D03*
X151752000Y-91694000D03*
X153252000Y-91694000D03*
X154752000Y-91694000D03*
X156252000Y-91694000D03*
X157752000Y-91694000D03*
X144252000Y-75694000D03*
X145752000Y-75694000D03*
X147252000Y-75694000D03*
X148752000Y-75694000D03*
X150252000Y-75694000D03*
X151752000Y-75694000D03*
X153252000Y-75694000D03*
X154752000Y-75694000D03*
X156252000Y-75694000D03*
X157752000Y-75694000D03*
D14*
X121920000Y-120015000D03*
D15*
X121920000Y-117475000D03*
X124460000Y-120015000D03*
X124460000Y-117475000D03*
X127000000Y-120015000D03*
X127000000Y-117475000D03*
X129540000Y-120015000D03*
X129540000Y-117475000D03*
X132080000Y-120015000D03*
X132080000Y-117475000D03*
X134620000Y-120015000D03*
X134620000Y-117475000D03*
X137160000Y-120015000D03*
X137160000Y-117475000D03*
X139700000Y-120015000D03*
X139700000Y-117475000D03*
X142240000Y-120015000D03*
X142240000Y-117475000D03*
X144780000Y-120015000D03*
X144780000Y-117475000D03*
X147320000Y-120015000D03*
X147320000Y-117475000D03*
X149860000Y-120015000D03*
X149860000Y-117475000D03*
X152400000Y-120015000D03*
X152400000Y-117475000D03*
X154940000Y-120015000D03*
X154940000Y-117475000D03*
X157480000Y-120015000D03*
X157480000Y-117475000D03*
X160020000Y-120015000D03*
X160020000Y-117475000D03*
X162560000Y-120015000D03*
X162560000Y-117475000D03*
X165100000Y-120015000D03*
X165100000Y-117475000D03*
X167640000Y-120015000D03*
X167640000Y-117475000D03*
X170180000Y-120015000D03*
X170180000Y-117475000D03*
X172720000Y-120015000D03*
X172720000Y-117475000D03*
X175260000Y-120015000D03*
X175260000Y-117475000D03*
X177800000Y-120015000D03*
X177800000Y-117475000D03*
D14*
X121920000Y-71755000D03*
D15*
X121920000Y-69215000D03*
X124460000Y-71755000D03*
X124460000Y-69215000D03*
X127000000Y-71755000D03*
X127000000Y-69215000D03*
X129540000Y-71755000D03*
X129540000Y-69215000D03*
X132080000Y-71755000D03*
X132080000Y-69215000D03*
X134620000Y-71755000D03*
X134620000Y-69215000D03*
X137160000Y-71755000D03*
X137160000Y-69215000D03*
X139700000Y-71755000D03*
X139700000Y-69215000D03*
X142240000Y-71755000D03*
X142240000Y-69215000D03*
X144780000Y-71755000D03*
X144780000Y-69215000D03*
X147320000Y-71755000D03*
X147320000Y-69215000D03*
X149860000Y-71755000D03*
X149860000Y-69215000D03*
X152400000Y-71755000D03*
X152400000Y-69215000D03*
X154940000Y-71755000D03*
X154940000Y-69215000D03*
X157480000Y-71755000D03*
X157480000Y-69215000D03*
X160020000Y-71755000D03*
X160020000Y-69215000D03*
X162560000Y-71755000D03*
X162560000Y-69215000D03*
X165100000Y-71755000D03*
X165100000Y-69215000D03*
X167640000Y-71755000D03*
X167640000Y-69215000D03*
X170180000Y-71755000D03*
X170180000Y-69215000D03*
X172720000Y-71755000D03*
X172720000Y-69215000D03*
X175260000Y-71755000D03*
X175260000Y-69215000D03*
X177800000Y-71755000D03*
X177800000Y-69215000D03*
D16*
X134556500Y-102870000D03*
X132651500Y-102870000D03*
X134556500Y-104902000D03*
X132651500Y-104902000D03*
D17*
X114554000Y-70548500D03*
X114554000Y-68643500D03*
D16*
X134556500Y-106934000D03*
X132651500Y-106934000D03*
X134556500Y-108966000D03*
X132651500Y-108966000D03*
D17*
X144526000Y-94043500D03*
X144526000Y-95948500D03*
D16*
X136207500Y-108966000D03*
X138112500Y-108966000D03*
D17*
X109982000Y-108648500D03*
X109982000Y-106743500D03*
D18*
X105664000Y-108668820D03*
X105664000Y-103167180D03*
D17*
X109982000Y-103187500D03*
X109982000Y-105092500D03*
D18*
X121158000Y-108668820D03*
X121158000Y-103167180D03*
X114300000Y-108668820D03*
X114300000Y-103167180D03*
D19*
X147193000Y-94996000D03*
X150495000Y-94996000D03*
D20*
X183238000Y-78774000D03*
D21*
X185778000Y-81314000D03*
X185778000Y-76234000D03*
X180698000Y-76234000D03*
X180698000Y-81314000D03*
D22*
X108204000Y-80518000D03*
D23*
X110744000Y-80518000D03*
D22*
X127000000Y-111252000D03*
D23*
X127000000Y-108712000D03*
D22*
X129540000Y-111252000D03*
D23*
X129540000Y-108712000D03*
D24*
X185420000Y-106426000D03*
D25*
X182880000Y-106426000D03*
X180340000Y-106426000D03*
X177800000Y-106426000D03*
X175260000Y-106426000D03*
X172720000Y-106426000D03*
X170180000Y-106426000D03*
X167640000Y-106426000D03*
X165100000Y-106426000D03*
D14*
X115697000Y-115062000D03*
D15*
X115697000Y-112522000D03*
X118237000Y-115062000D03*
X118237000Y-112522000D03*
D22*
X103886000Y-115570000D03*
D23*
X103886000Y-113030000D03*
D17*
X116840000Y-70548500D03*
X116840000Y-68643500D03*
X118872000Y-70548500D03*
X118872000Y-68643500D03*
D16*
X117665500Y-81280000D03*
X119570500Y-81280000D03*
X116014500Y-81280000D03*
X114109500Y-81280000D03*
D17*
X185674000Y-94170500D03*
X185674000Y-92265500D03*
X155448000Y-94043500D03*
X155448000Y-95948500D03*
X157734000Y-94043500D03*
X157734000Y-95948500D03*
X181610000Y-94170500D03*
X181610000Y-92265500D03*
X179324000Y-94170500D03*
X179324000Y-92265500D03*
X152908000Y-95948500D03*
X152908000Y-94043500D03*
D16*
X139763500Y-108966000D03*
X141668500Y-108966000D03*
X141668500Y-113538000D03*
X139763500Y-113538000D03*
X141668500Y-111252000D03*
X139763500Y-111252000D03*
D26*
X108204000Y-76454000D03*
X110744000Y-76454000D03*
X110744000Y-68834000D03*
X108204000Y-68834000D03*
D27*
X184912000Y-101854000D03*
X177292000Y-101854000D03*
X184912000Y-98044000D03*
X177292000Y-98044000D03*
D17*
X120904000Y-112839500D03*
X120904000Y-114744500D03*
D28*
X114935000Y-72771000D03*
X116205000Y-72771000D03*
X117475000Y-72771000D03*
X118745000Y-72771000D03*
X118745000Y-79121000D03*
X117475000Y-79121000D03*
X116205000Y-79121000D03*
X114935000Y-79121000D03*
D29*
X134670000Y-111498000D03*
X134670000Y-111998000D03*
X134670000Y-112498000D03*
X134670000Y-112998000D03*
X134670000Y-113498000D03*
X137570000Y-113498000D03*
X137570000Y-112998000D03*
X137570000Y-112498000D03*
X137570000Y-111998000D03*
X137570000Y-111498000D03*
D30*
X135620000Y-113948000D03*
X136120000Y-113948000D03*
X136620000Y-113948000D03*
X136620000Y-111048000D03*
X136120000Y-111048000D03*
X135620000Y-111048000D03*
D31*
X141478000Y-105930000D03*
X141478000Y-105430000D03*
X141478000Y-104930000D03*
X141478000Y-104430000D03*
X141478000Y-103930000D03*
X141478000Y-103430000D03*
D32*
X140728000Y-102705000D03*
X140228000Y-102705000D03*
X139728000Y-102705000D03*
X139228000Y-102705000D03*
X138728000Y-102705000D03*
X138228000Y-102705000D03*
X140728000Y-106655000D03*
X140228000Y-106655000D03*
X139728000Y-106655000D03*
X139228000Y-106655000D03*
X138728000Y-106655000D03*
X138228000Y-106655000D03*
D31*
X137478000Y-105930000D03*
X137478000Y-105430000D03*
X137478000Y-104930000D03*
X137478000Y-104430000D03*
X137478000Y-103930000D03*
X137478000Y-103430000D03*
D24*
X129286000Y-82042000D03*
D25*
X126746000Y-82042000D03*
X124206000Y-82042000D03*
D24*
X129286000Y-84582000D03*
D25*
X126746000Y-84582000D03*
X124206000Y-84582000D03*
D24*
X129286000Y-87122000D03*
D25*
X126746000Y-87122000D03*
X124206000Y-87122000D03*
D24*
X129286000Y-89662000D03*
D25*
X126746000Y-89662000D03*
X124206000Y-89662000D03*
D24*
X129286000Y-92202000D03*
D25*
X126746000Y-92202000D03*
X124206000Y-92202000D03*
D24*
X129286000Y-94742000D03*
D25*
X126746000Y-94742000D03*
X124206000Y-94742000D03*
D24*
X129286000Y-97282000D03*
D25*
X126746000Y-97282000D03*
X124206000Y-97282000D03*
D24*
X129286000Y-99822000D03*
D25*
X126746000Y-99822000D03*
X124206000Y-99822000D03*
D14*
X152146000Y-114300000D03*
D15*
X149606000Y-114300000D03*
X152146000Y-111760000D03*
X149606000Y-111760000D03*
X152146000Y-109220000D03*
X149606000Y-109220000D03*
X152146000Y-106680000D03*
X149606000Y-106680000D03*
X152146000Y-104140000D03*
X149606000Y-104140000D03*
X152146000Y-101600000D03*
X149606000Y-101600000D03*
X152146000Y-99060000D03*
X149606000Y-99060000D03*
D33*
X158242000Y-115062000D03*
X158242000Y-113538000D03*
X158242000Y-112522000D03*
X158242000Y-110998000D03*
X158242000Y-109982000D03*
X158242000Y-108458000D03*
X158242000Y-107442000D03*
X158242000Y-105918000D03*
X158242000Y-104902000D03*
X158242000Y-103378000D03*
X158242000Y-102362000D03*
X158242000Y-100838000D03*
X158242000Y-99822000D03*
X158242000Y-98298000D03*
X154686000Y-115062000D03*
X154686000Y-113538000D03*
X156464000Y-115062000D03*
X156464000Y-113538000D03*
X154686000Y-112522000D03*
X154686000Y-110998000D03*
X156464000Y-112522000D03*
X156464000Y-110998000D03*
X154686000Y-109982000D03*
X154686000Y-108458000D03*
X156464000Y-109982000D03*
X156464000Y-108458000D03*
X154686000Y-107442000D03*
X154686000Y-105918000D03*
X156464000Y-107442000D03*
X156464000Y-105918000D03*
X154686000Y-104902000D03*
X154686000Y-103378000D03*
X156464000Y-104902000D03*
X156464000Y-103378000D03*
X154686000Y-102362000D03*
X154686000Y-100838000D03*
X156464000Y-102362000D03*
X156464000Y-100838000D03*
X154686000Y-99822000D03*
X154686000Y-98298000D03*
X156464000Y-99822000D03*
X156464000Y-98298000D03*
D34*
X150876000Y-86868000D03*
X135155010Y-110775020D03*
X137922000Y-110744000D03*
X137160000Y-107696000D03*
X181132468Y-101854000D03*
X136144000Y-113284000D03*
D35*
X117602000Y-103124000D03*
X107696000Y-104140000D03*
D34*
X146558000Y-93218000D03*
X153924000Y-94996000D03*
X143764000Y-94996000D03*
X159004000Y-99060000D03*
X159004000Y-101600000D03*
X159004000Y-104140000D03*
X159004000Y-106680000D03*
X159004000Y-109220000D03*
X159004000Y-111760000D03*
X159004000Y-114300000D03*
X139446000Y-104902000D03*
X128016000Y-74676000D03*
X132080000Y-74676000D03*
X135128000Y-100330000D03*
X140208000Y-100330000D03*
X138430000Y-101854000D03*
X139781942Y-101897559D03*
X142494000Y-90932000D03*
X137160000Y-110744000D03*
X137160000Y-109496980D03*
X134112000Y-110744000D03*
X134112000Y-103886000D03*
X114046000Y-80010000D03*
X119634000Y-80010000D03*
X128016000Y-78740000D03*
X132080000Y-78740000D03*
X135128000Y-99568000D03*
X140208000Y-99568000D03*
X136906000Y-99568000D03*
X140208000Y-107696000D03*
X139167468Y-112329330D03*
X137668000Y-99568000D03*
X142748000Y-111252000D03*
X138430000Y-100330000D03*
X137668000Y-101854000D03*
X148082000Y-93218000D03*
X163576000Y-87376000D03*
X164592000Y-87376000D03*
X179324000Y-90932000D03*
X181356000Y-90932000D03*
X138684000Y-110744000D03*
X138938000Y-107696000D03*
D36*
X154752000Y-91694000D02*
X154752000Y-90236000D01*
X154752000Y-90236000D02*
X151384000Y-86868000D01*
X151384000Y-86868000D02*
X150876000Y-86868000D01*
X147252000Y-91694000D02*
X147252000Y-90238000D01*
X147252000Y-90238000D02*
X150622000Y-86868000D01*
X150622000Y-86868000D02*
X150876000Y-86868000D01*
X132651500Y-106934000D02*
X132651500Y-104902000D01*
X132651500Y-108966000D02*
X132651500Y-106934000D01*
X135620000Y-111048000D02*
X135427990Y-111048000D01*
X135427990Y-111048000D02*
X135155010Y-110775020D01*
X137922000Y-111146000D02*
X137570000Y-111498000D01*
X137922000Y-110744000D02*
X137922000Y-111146000D01*
X137922000Y-108966000D02*
X137922000Y-108458000D01*
X137922000Y-108458000D02*
X137160000Y-107696000D01*
D37*
X175260000Y-120015000D02*
X175260000Y-117475000D01*
X177800000Y-120015000D02*
X175260000Y-120015000D01*
X177800000Y-117475000D02*
X177800000Y-120015000D01*
X175260000Y-117475000D02*
X177800000Y-117475000D01*
D36*
X118745000Y-79121000D02*
X118745000Y-81759302D01*
X118745000Y-81759302D02*
X117954302Y-82550000D01*
X117954302Y-82550000D02*
X112776000Y-82550000D01*
X112776000Y-82550000D02*
X110744000Y-80518000D01*
X181132468Y-101854000D02*
X177292000Y-101854000D01*
X184912000Y-101854000D02*
X181132468Y-101854000D01*
X132651500Y-104902000D02*
X132651500Y-102870000D01*
X136120000Y-113948000D02*
X136120000Y-113308000D01*
X136120000Y-113308000D02*
X136144000Y-113284000D01*
D37*
X121158000Y-103167180D02*
X122466100Y-103167180D01*
X122466100Y-103167180D02*
X124206000Y-101427280D01*
X124206000Y-101427280D02*
X124206000Y-99822000D01*
X124206000Y-87122000D02*
X124206000Y-82042000D01*
X124206000Y-87122000D02*
X124206000Y-84582000D01*
X124206000Y-89662000D02*
X124206000Y-87122000D01*
X124206000Y-92202000D02*
X124206000Y-89662000D01*
X124206000Y-94742000D02*
X124206000Y-92202000D01*
X124206000Y-97282000D02*
X124206000Y-94742000D01*
X124206000Y-99822000D02*
X124206000Y-97282000D01*
X121158000Y-103167180D02*
X117645180Y-103167180D01*
X117645180Y-103167180D02*
X117602000Y-103124000D01*
X114300000Y-103167180D02*
X117558820Y-103167180D01*
X117558820Y-103167180D02*
X117602000Y-103124000D01*
X109982000Y-105092500D02*
X109982000Y-106743500D01*
X109982000Y-105092500D02*
X108648500Y-105092500D01*
X108648500Y-105092500D02*
X107696000Y-104140000D01*
X105664000Y-103167180D02*
X106723180Y-103167180D01*
X106723180Y-103167180D02*
X107696000Y-104140000D01*
D36*
X147252000Y-91694000D02*
X147252000Y-92524000D01*
X147252000Y-92524000D02*
X146558000Y-93218000D01*
X152908000Y-94043500D02*
X153098500Y-94043500D01*
X153098500Y-94043500D02*
X154752000Y-92390000D01*
X154752000Y-92390000D02*
X154752000Y-91694000D01*
X152908000Y-94043500D02*
X152971500Y-94043500D01*
X152971500Y-94043500D02*
X153924000Y-94996000D01*
X144526000Y-95948500D02*
X144526000Y-95758000D01*
X144526000Y-95758000D02*
X143764000Y-94996000D01*
X158242000Y-98298000D02*
X159004000Y-99060000D01*
X158242000Y-100838000D02*
X159004000Y-101600000D01*
X158242000Y-103378000D02*
X159004000Y-104140000D01*
X158242000Y-105918000D02*
X159004000Y-106680000D01*
X158242000Y-108458000D02*
X159004000Y-109220000D01*
X158242000Y-110998000D02*
X159004000Y-111760000D01*
X158242000Y-113538000D02*
X159004000Y-114300000D01*
X149606000Y-101600000D02*
X149606000Y-99060000D01*
X149606000Y-104140000D02*
X149606000Y-101600000D01*
X149606000Y-106680000D02*
X149606000Y-104140000D01*
X149606000Y-109220000D02*
X149606000Y-106680000D01*
X149606000Y-111760000D02*
X149606000Y-109220000D01*
X149606000Y-114300000D02*
X149606000Y-111760000D01*
X156464000Y-113538000D02*
X158242000Y-113538000D01*
X156464000Y-110998000D02*
X156718000Y-110998000D01*
X156718000Y-110998000D02*
X158242000Y-110998000D01*
X156464000Y-108458000D02*
X158242000Y-108458000D01*
X156464000Y-105918000D02*
X158242000Y-105918000D01*
X156464000Y-103378000D02*
X158242000Y-103378000D01*
X156464000Y-98298000D02*
X158242000Y-98298000D01*
X156464000Y-100838000D02*
X158242000Y-100838000D01*
D37*
X185778000Y-81314000D02*
X180698000Y-81314000D01*
X185778000Y-76234000D02*
X185778000Y-81314000D01*
X180698000Y-76234000D02*
X185778000Y-76234000D01*
D38*
X121920000Y-69215000D02*
X121920000Y-71755000D01*
X121920000Y-117475000D02*
X121920000Y-120015000D01*
D39*
X121920000Y-71755000D02*
X121602500Y-72072500D01*
D36*
X140474000Y-105930000D02*
X139446000Y-104902000D01*
X141478000Y-105930000D02*
X140474000Y-105930000D01*
X138974000Y-104430000D02*
X139446000Y-104902000D01*
X137478000Y-104430000D02*
X138974000Y-104430000D01*
X138918000Y-105430000D02*
X139446000Y-104902000D01*
X137478000Y-105430000D02*
X138918000Y-105430000D01*
X138032000Y-105930000D02*
X138044000Y-105918000D01*
X137478000Y-105930000D02*
X138032000Y-105930000D01*
X138430000Y-105918000D02*
X139446000Y-104902000D01*
X138044000Y-105918000D02*
X138430000Y-105918000D01*
X132651500Y-112331500D02*
X132651500Y-108966000D01*
X133818000Y-113498000D02*
X132651500Y-112331500D01*
X134670000Y-113498000D02*
X133818000Y-113498000D01*
X137586000Y-112014000D02*
X137570000Y-111998000D01*
X137570000Y-111498000D02*
X137578000Y-111506000D01*
X138124000Y-112998000D02*
X137570000Y-112998000D01*
X138201001Y-112920999D02*
X138124000Y-112998000D01*
X138124000Y-111498000D02*
X138201001Y-111575001D01*
X137570000Y-111498000D02*
X138124000Y-111498000D01*
X138192856Y-111998000D02*
X138201001Y-111989855D01*
X138201001Y-111989855D02*
X138201001Y-112920999D01*
X137570000Y-111998000D02*
X138192856Y-111998000D01*
X138201001Y-111575001D02*
X138201001Y-111989855D01*
X128016000Y-74676000D02*
X132080000Y-74676000D01*
X132651500Y-102870000D02*
X132651500Y-102616000D01*
X134937500Y-100330000D02*
X135128000Y-100330000D01*
X132651500Y-102616000D02*
X134937500Y-100330000D01*
X135128000Y-100330000D02*
X135636000Y-100838000D01*
X135636000Y-100838000D02*
X139700000Y-100838000D01*
X139700000Y-100838000D02*
X140208000Y-100330000D01*
X138728000Y-102152000D02*
X138430000Y-101854000D01*
X138728000Y-102705000D02*
X138728000Y-102152000D01*
X139728000Y-101951501D02*
X139781942Y-101897559D01*
X139728000Y-102705000D02*
X139728000Y-101951501D01*
D37*
X110934500Y-68643500D02*
X110744000Y-68834000D01*
X114554000Y-68643500D02*
X110934500Y-68643500D01*
X108204000Y-68834000D02*
X110744000Y-68834000D01*
D36*
X147252000Y-91118000D02*
X147252000Y-91694000D01*
X145752000Y-75694000D02*
X145752000Y-76244000D01*
X156252000Y-75694000D02*
X156252000Y-76242000D01*
X154752000Y-91120000D02*
X154752000Y-91694000D01*
D37*
X124460000Y-120015000D02*
X125731601Y-121286601D01*
X187452000Y-112268000D02*
X187452000Y-96901000D01*
X125731601Y-121286601D02*
X178433399Y-121286601D01*
X178433399Y-121286601D02*
X187452000Y-112268000D01*
X187452000Y-96901000D02*
X185674000Y-95123000D01*
X185674000Y-95123000D02*
X185674000Y-94170500D01*
X143002000Y-91694000D02*
X143002000Y-92710000D01*
X142494000Y-91694000D02*
X141986000Y-92202000D01*
X144252000Y-91694000D02*
X142494000Y-91694000D01*
X144252000Y-91694000D02*
X144252000Y-93769500D01*
X144252000Y-93769500D02*
X144526000Y-94043500D01*
D36*
X144252000Y-91694000D02*
X143002000Y-91694000D01*
X143002000Y-91694000D02*
X142494000Y-91186000D01*
X142494000Y-91186000D02*
X142494000Y-90932000D01*
X135128000Y-99568000D02*
X133350000Y-99568000D01*
X133350000Y-99568000D02*
X131318000Y-101600000D01*
X131318000Y-101600000D02*
X131318000Y-114300000D01*
X131318000Y-114300000D02*
X130302000Y-115316000D01*
X130302000Y-115316000D02*
X128778000Y-115316000D01*
X139763500Y-113538000D02*
X139763500Y-114390500D01*
X139763500Y-114390500D02*
X138838000Y-115316000D01*
X138838000Y-115316000D02*
X128778000Y-115316000D01*
X134555785Y-103886000D02*
X134556500Y-103885285D01*
X134556500Y-103885285D02*
X134556500Y-102870000D01*
X134670000Y-111302000D02*
X134112000Y-110744000D01*
X134670000Y-111498000D02*
X134670000Y-111302000D01*
X136706010Y-110290010D02*
X137160000Y-110744000D01*
X134819990Y-110290010D02*
X136706010Y-110290010D01*
X134670000Y-110440000D02*
X134819990Y-110290010D01*
X134670000Y-111498000D02*
X134670000Y-110440000D01*
X137160000Y-110812000D02*
X137160000Y-110744000D01*
X136924000Y-111048000D02*
X137160000Y-110812000D01*
X136620000Y-111048000D02*
X136924000Y-111048000D01*
X136207500Y-108966000D02*
X136629020Y-108966000D01*
X136629020Y-108966000D02*
X137160000Y-109496980D01*
X141478000Y-104930000D02*
X142522000Y-104930000D01*
X142522000Y-104930000D02*
X142748000Y-105156000D01*
X142748000Y-105156000D02*
X142748000Y-108712000D01*
X142494000Y-108966000D02*
X141668500Y-108966000D01*
X142748000Y-108712000D02*
X142494000Y-108966000D01*
D39*
X116840000Y-68643500D02*
X116586000Y-68643500D01*
X114681000Y-70548500D02*
X114554000Y-70548500D01*
X116840000Y-68643500D02*
X118872000Y-68643500D01*
X116713000Y-68643500D02*
X116840000Y-68643500D01*
X114808000Y-70548500D02*
X116713000Y-68643500D01*
X114554000Y-70548500D02*
X114808000Y-70548500D01*
X114935000Y-70929500D02*
X114554000Y-70548500D01*
X114935000Y-72771000D02*
X114935000Y-70929500D01*
D36*
X140018802Y-103430000D02*
X137478000Y-103430000D01*
X140228000Y-103220802D02*
X140018802Y-103430000D01*
X140228000Y-102705000D02*
X140228000Y-103220802D01*
X140924000Y-104930000D02*
X141478000Y-104930000D01*
X140228000Y-104234000D02*
X140924000Y-104930000D01*
X140228000Y-102705000D02*
X140228000Y-104234000D01*
X137478000Y-103430000D02*
X136450000Y-103430000D01*
X135890000Y-102870000D02*
X134556500Y-102870000D01*
X136450000Y-103430000D02*
X135890000Y-102870000D01*
X136120000Y-111048000D02*
X136620000Y-111048000D01*
X134112000Y-103886000D02*
X134555785Y-103886000D01*
D40*
X134556500Y-104902000D02*
X134556500Y-103885285D01*
D36*
X114109500Y-80073500D02*
X114046000Y-80010000D01*
X114109500Y-81280000D02*
X114109500Y-80073500D01*
X119634000Y-81216500D02*
X119570500Y-81280000D01*
X119634000Y-80010000D02*
X119634000Y-81216500D01*
X128016000Y-78740000D02*
X132080000Y-78740000D01*
X124460000Y-116078000D02*
X124460000Y-117475000D01*
X125222000Y-115316000D02*
X124460000Y-116078000D01*
X128778000Y-115316000D02*
X125222000Y-115316000D01*
X144526000Y-94043500D02*
X143673500Y-94043500D01*
X140208000Y-97509000D02*
X140208000Y-99568000D01*
X143673500Y-94043500D02*
X140208000Y-97509000D01*
X140228000Y-102705000D02*
X140228000Y-102088000D01*
X140716000Y-101600000D02*
X140716000Y-100076000D01*
X140228000Y-102088000D02*
X140716000Y-101600000D01*
X140716000Y-100076000D02*
X140208000Y-99568000D01*
X139763500Y-113538000D02*
X139763500Y-111252000D01*
D37*
X123654820Y-108668820D02*
X126746000Y-108668820D01*
X126746000Y-108668820D02*
X126746000Y-99822000D01*
X114300000Y-108668820D02*
X114300000Y-107251500D01*
X114300000Y-107251500D02*
X110236000Y-103187500D01*
X110236000Y-103187500D02*
X109982000Y-103187500D01*
X126746000Y-84582000D02*
X126746000Y-82042000D01*
X126746000Y-87122000D02*
X126746000Y-84582000D01*
X126746000Y-92202000D02*
X126746000Y-87122000D01*
X126746000Y-92202000D02*
X126746000Y-89662000D01*
X126746000Y-94742000D02*
X126746000Y-92202000D01*
X126746000Y-97282000D02*
X126746000Y-94742000D01*
X126746000Y-99822000D02*
X126746000Y-97282000D01*
X127000000Y-108712000D02*
X123654820Y-108668820D01*
X123654820Y-108668820D02*
X121158000Y-108668820D01*
X121158000Y-108668820D02*
X114300000Y-108668820D01*
X127000000Y-108712000D02*
X129540000Y-108712000D01*
D36*
X134670000Y-112998000D02*
X134116000Y-112998000D01*
X134116000Y-112998000D02*
X133604000Y-112486000D01*
X133604000Y-112486000D02*
X133604000Y-110490000D01*
X133604000Y-110490000D02*
X134112000Y-109982000D01*
X134112000Y-109982000D02*
X140453039Y-109982000D01*
X140453039Y-109982000D02*
X140661990Y-110190951D01*
X140228000Y-107716000D02*
X140208000Y-107696000D01*
X141668500Y-113284000D02*
X141668500Y-113538000D01*
X140661990Y-112277490D02*
X141668500Y-113284000D01*
X140228000Y-107716000D02*
X140661990Y-108149990D01*
X140228000Y-106655000D02*
X140228000Y-107716000D01*
X143510000Y-118745000D02*
X144780000Y-120015000D01*
X143510000Y-114300000D02*
X143510000Y-118745000D01*
X142748000Y-113538000D02*
X143510000Y-114300000D01*
X141668500Y-113538000D02*
X142748000Y-113538000D01*
X140661990Y-110190951D02*
X140661990Y-112277490D01*
X140661990Y-108149990D02*
X140661990Y-110190951D01*
X117475000Y-73533000D02*
X117475000Y-72771000D01*
X123952000Y-80010000D02*
X117475000Y-73533000D01*
X130048000Y-80010000D02*
X123952000Y-80010000D01*
X136906000Y-86868000D02*
X130048000Y-80010000D01*
X136906000Y-99568000D02*
X136906000Y-86868000D01*
X135620000Y-113948000D02*
X135620000Y-114502000D01*
X135620000Y-114502000D02*
X135926000Y-114808000D01*
X139087999Y-113642001D02*
X139087999Y-112408799D01*
X135926000Y-114808000D02*
X137922000Y-114808000D01*
X137922000Y-114808000D02*
X139087999Y-113642001D01*
X139087999Y-112408799D02*
X139167468Y-112329330D01*
D40*
X140728000Y-106655000D02*
X140728000Y-107009500D01*
D36*
X141668500Y-110934500D02*
X141668500Y-111252000D01*
X140970000Y-110236000D02*
X141668500Y-110934500D01*
X140970000Y-107696000D02*
X140970000Y-110236000D01*
X140716000Y-107442000D02*
X140970000Y-107696000D01*
X140716000Y-106667000D02*
X140716000Y-107442000D01*
X140728000Y-106655000D02*
X140716000Y-106667000D01*
X144018000Y-112522000D02*
X142748000Y-111252000D01*
X144018000Y-116713000D02*
X144018000Y-112522000D01*
X144780000Y-117475000D02*
X144018000Y-116713000D01*
X142748000Y-111252000D02*
X141668500Y-111252000D01*
X118745000Y-73533000D02*
X118745000Y-72771000D01*
X124714000Y-79502000D02*
X118745000Y-73533000D01*
X130302000Y-79502000D02*
X124714000Y-79502000D01*
X137668000Y-86868000D02*
X130302000Y-79502000D01*
X137668000Y-99568000D02*
X137668000Y-86868000D01*
X157734000Y-95948500D02*
X157480000Y-95948500D01*
X157480000Y-95948500D02*
X156527500Y-94996000D01*
X150723599Y-115976401D02*
X149860000Y-116840000D01*
X156527500Y-94996000D02*
X154841698Y-94996000D01*
X154841698Y-94996000D02*
X154178000Y-95659698D01*
X153747009Y-96950991D02*
X152199408Y-96950991D01*
X154178000Y-95659698D02*
X154178000Y-96520000D01*
X154178000Y-96520000D02*
X153747009Y-96950991D01*
X152199408Y-96950991D02*
X150723599Y-98426800D01*
X150723599Y-98426800D02*
X150723599Y-115976401D01*
X149860000Y-116840000D02*
X149860000Y-117475000D01*
X155448000Y-95948500D02*
X155194000Y-95948500D01*
X155194000Y-95948500D02*
X153883499Y-97259001D01*
X153883499Y-97259001D02*
X152326989Y-97259001D01*
X152326989Y-97259001D02*
X151051399Y-98534591D01*
X151051399Y-98534591D02*
X151051399Y-115999399D01*
X151051399Y-115999399D02*
X152400000Y-117348000D01*
X152400000Y-117348000D02*
X152400000Y-117475000D01*
D39*
X152400000Y-116840000D02*
X152400000Y-117475000D01*
D36*
X139700000Y-69215000D02*
X138430000Y-70485000D01*
X138430000Y-70485000D02*
X138430000Y-100330000D01*
X137668000Y-101895000D02*
X137668000Y-101854000D01*
X138228000Y-102668000D02*
X138228000Y-102414000D01*
X138228000Y-102705000D02*
X138228000Y-102455000D01*
X138228000Y-102414000D02*
X137668000Y-101854000D01*
X138228000Y-102455000D02*
X137668000Y-101895000D01*
X148752000Y-91694000D02*
X148752000Y-92848000D01*
X148752000Y-92848000D02*
X148382000Y-93218000D01*
X148382000Y-93218000D02*
X148082000Y-93218000D01*
X133604000Y-105918000D02*
X134556500Y-106870500D01*
X133604000Y-102108000D02*
X133604000Y-105918000D01*
X134366000Y-101346000D02*
X133604000Y-102108000D01*
X138684000Y-101346000D02*
X134366000Y-101346000D01*
X134556500Y-106870500D02*
X134556500Y-106934000D01*
X139228000Y-101890000D02*
X138684000Y-101346000D01*
X139228000Y-102705000D02*
X139228000Y-101890000D01*
X137392801Y-107210999D02*
X136057501Y-107210999D01*
X134556500Y-108712000D02*
X134556500Y-108966000D01*
X138728000Y-107210999D02*
X138475800Y-107463199D01*
X138728000Y-106655000D02*
X138728000Y-107210999D01*
X136057501Y-107210999D02*
X134556500Y-108712000D01*
X137645001Y-107463199D02*
X137392801Y-107210999D01*
X138475800Y-107463199D02*
X137645001Y-107463199D01*
X147193000Y-94996000D02*
X147574000Y-94996000D01*
X147574000Y-94996000D02*
X150114000Y-92456000D01*
X150114000Y-92456000D02*
X150114000Y-91832000D01*
X150114000Y-91832000D02*
X150252000Y-91694000D01*
X150495000Y-94996000D02*
X151384000Y-94996000D01*
X151384000Y-94996000D02*
X152336500Y-95948500D01*
X152336500Y-95948500D02*
X152908000Y-95948500D01*
D37*
X183238000Y-78774000D02*
X176564000Y-78774000D01*
X176564000Y-78774000D02*
X173484000Y-75694000D01*
X173484000Y-75694000D02*
X157752000Y-75694000D01*
D36*
X115125500Y-74168000D02*
X116205000Y-73088500D01*
X108458000Y-74168000D02*
X115125500Y-74168000D01*
X106934000Y-75692000D02*
X108458000Y-74168000D01*
X106934000Y-78078000D02*
X106934000Y-75692000D01*
X108204000Y-79348000D02*
X106934000Y-78078000D01*
X116205000Y-73088500D02*
X116205000Y-72771000D01*
X108204000Y-80518000D02*
X108204000Y-79348000D01*
X116205000Y-71782000D02*
X116205000Y-72771000D01*
X116840000Y-71147000D02*
X116205000Y-71782000D01*
X116840000Y-70548500D02*
X116840000Y-71147000D01*
D37*
X127000000Y-117475000D02*
X127000000Y-120015000D01*
X129540000Y-117475000D02*
X129540000Y-120015000D01*
D36*
X168309000Y-109635000D02*
X165100000Y-106426000D01*
X168309000Y-111330000D02*
X168309000Y-109635000D01*
X163576000Y-104749600D02*
X163576000Y-87376000D01*
X165100000Y-106273600D02*
X163576000Y-104749600D01*
X165100000Y-106426000D02*
X165100000Y-106273600D01*
X160401000Y-69215000D02*
X160020000Y-69215000D01*
X169164000Y-104902000D02*
X167640000Y-106426000D01*
X173228000Y-104902000D02*
X169164000Y-104902000D01*
X173990000Y-107442000D02*
X173990000Y-105664000D01*
X173990000Y-105664000D02*
X173228000Y-104902000D01*
X176309000Y-109761000D02*
X173990000Y-107442000D01*
X176309000Y-111330000D02*
X176309000Y-109761000D01*
X166470000Y-105256000D02*
X167640000Y-106426000D01*
X164592000Y-103378000D02*
X166470000Y-105256000D01*
X164592000Y-87376000D02*
X164592000Y-103378000D01*
X179324000Y-92265500D02*
X179324000Y-90932000D01*
X181610000Y-91186000D02*
X181356000Y-90932000D01*
X181610000Y-92265500D02*
X181610000Y-91186000D01*
X184309000Y-107855000D02*
X182880000Y-106426000D01*
X184309000Y-111330000D02*
X184309000Y-107855000D01*
X182309000Y-108395000D02*
X180340000Y-106426000D01*
X182309000Y-111330000D02*
X182309000Y-108395000D01*
X180309000Y-108935000D02*
X177800000Y-106426000D01*
X180309000Y-111330000D02*
X180309000Y-108935000D01*
X178309000Y-109475000D02*
X175260000Y-106426000D01*
X178309000Y-111330000D02*
X178309000Y-109475000D01*
X172720000Y-107442000D02*
X172720000Y-106426000D01*
X175220010Y-109942010D02*
X172720000Y-107442000D01*
X175260000Y-112014000D02*
X175260000Y-109982000D01*
X174752000Y-112522000D02*
X175260000Y-112014000D01*
X175260000Y-109982000D02*
X175220010Y-109942010D01*
X167640000Y-112522000D02*
X174752000Y-112522000D01*
X166448000Y-111330000D02*
X167640000Y-112522000D01*
X166309000Y-111330000D02*
X166448000Y-111330000D01*
X174309000Y-110555000D02*
X170180000Y-106426000D01*
X174309000Y-111330000D02*
X174309000Y-110555000D01*
X120904000Y-114744500D02*
X118554500Y-114744500D01*
X118554500Y-114744500D02*
X118237000Y-115062000D01*
D37*
X103886000Y-115570000D02*
X105410000Y-115570000D01*
X105410000Y-115570000D02*
X107035601Y-117195601D01*
X107035601Y-117195601D02*
X117324713Y-117195601D01*
X117324713Y-117195601D02*
X118237000Y-116283314D01*
X118237000Y-116283314D02*
X118237000Y-115062000D01*
D36*
X118554500Y-112839500D02*
X118237000Y-112522000D01*
X120904000Y-112839500D02*
X118554500Y-112839500D01*
X117348000Y-71628000D02*
X118364000Y-71628000D01*
X118872000Y-71120000D02*
X118872000Y-70548500D01*
X116840000Y-72136000D02*
X117348000Y-71628000D01*
X116840000Y-77760500D02*
X116840000Y-72136000D01*
X117475000Y-78395500D02*
X116840000Y-77760500D01*
X118364000Y-71628000D02*
X118872000Y-71120000D01*
X117475000Y-79121000D02*
X117475000Y-78395500D01*
D40*
X116205000Y-78803500D02*
X116205000Y-79121000D01*
D36*
X116205000Y-78613000D02*
X116205000Y-79121000D01*
X114046000Y-76454000D02*
X116205000Y-78613000D01*
X110744000Y-76454000D02*
X114046000Y-76454000D01*
X117665500Y-81089500D02*
X116205000Y-79629000D01*
X116205000Y-79629000D02*
X116205000Y-79121000D01*
X117665500Y-81280000D02*
X117665500Y-81089500D01*
X114935000Y-78613000D02*
X114935000Y-79121000D01*
X114046000Y-77724000D02*
X114935000Y-78613000D01*
X109474000Y-77724000D02*
X114046000Y-77724000D01*
X108204000Y-76454000D02*
X109474000Y-77724000D01*
X116014500Y-80708500D02*
X116014500Y-81280000D01*
X114935000Y-79629000D02*
X116014500Y-80708500D01*
X114935000Y-79121000D02*
X114935000Y-79629000D01*
X184912000Y-98044000D02*
X177292000Y-98044000D01*
X177292000Y-90424000D02*
X177292000Y-98044000D01*
X176309000Y-89441000D02*
X177292000Y-90424000D01*
X176309000Y-89330000D02*
X176309000Y-89441000D01*
X185356500Y-92265500D02*
X185674000Y-92265500D01*
X184404000Y-93218000D02*
X185356500Y-92265500D01*
X184404000Y-97536000D02*
X184404000Y-93218000D01*
X184912000Y-98044000D02*
X184404000Y-97536000D01*
X155448000Y-94043500D02*
X155448000Y-93726000D01*
X155448000Y-93726000D02*
X156252000Y-92922000D01*
X156252000Y-92922000D02*
X156252000Y-91694000D01*
X157734000Y-94043500D02*
X157734000Y-91712000D01*
X157734000Y-91712000D02*
X157752000Y-91694000D01*
X181864000Y-94170500D02*
X181610000Y-94170500D01*
X182880000Y-93154500D02*
X181864000Y-94170500D01*
X182880000Y-89916000D02*
X182880000Y-93154500D01*
X182309000Y-89345000D02*
X182880000Y-89916000D01*
X182309000Y-89330000D02*
X182309000Y-89345000D01*
X180499000Y-89567000D02*
X180499000Y-89379000D01*
X180499000Y-89379000D02*
X180499000Y-89226600D01*
X180309000Y-90284000D02*
X180309000Y-89330000D01*
X180340000Y-90315000D02*
X180309000Y-90284000D01*
X180340000Y-93408500D02*
X180340000Y-90315000D01*
X179578000Y-94170500D02*
X180340000Y-93408500D01*
X179324000Y-94170500D02*
X179578000Y-94170500D01*
X138682467Y-111104743D02*
X138684000Y-111103210D01*
X138682467Y-113351335D02*
X138682467Y-111104743D01*
X138684000Y-111103210D02*
X138684000Y-110744000D01*
X138085802Y-113948000D02*
X138682467Y-113351335D01*
X136620000Y-113948000D02*
X138085802Y-113948000D01*
X139763500Y-108966000D02*
X139763500Y-108521500D01*
X139763500Y-108521500D02*
X138938000Y-107696000D01*
D37*
X115697000Y-112522000D02*
X104394000Y-112522000D01*
X104394000Y-112522000D02*
X103886000Y-113030000D01*
X115697000Y-115062000D02*
X115697000Y-112522000D01*
D36*
X158242000Y-102362000D02*
X156464000Y-102362000D01*
X154940000Y-100838000D02*
X156464000Y-102362000D01*
X154686000Y-100838000D02*
X154940000Y-100838000D01*
X158496000Y-102362000D02*
X158242000Y-102362000D01*
X161036000Y-104902000D02*
X158496000Y-102362000D01*
X161036000Y-112014000D02*
X161036000Y-104902000D01*
X162814000Y-113792000D02*
X161036000Y-112014000D01*
X168910000Y-116840000D02*
X165862000Y-113792000D01*
X168910000Y-118618000D02*
X168910000Y-116840000D01*
X170180000Y-119888000D02*
X168910000Y-118618000D01*
X165862000Y-113792000D02*
X162814000Y-113792000D01*
X170180000Y-120015000D02*
X170180000Y-119888000D01*
X158242000Y-99822000D02*
X158967500Y-99822000D01*
X158967500Y-99822000D02*
X161544000Y-102398500D01*
X161544000Y-102398500D02*
X161544000Y-111760000D01*
X161544000Y-111760000D02*
X163068000Y-113284000D01*
X163068000Y-113284000D02*
X165989000Y-113284000D01*
X165989000Y-113284000D02*
X170180000Y-117475000D01*
X156464000Y-99822000D02*
X158242000Y-99822000D01*
X154686000Y-98298000D02*
X154940000Y-98298000D01*
X154940000Y-98298000D02*
X156464000Y-99822000D01*
X158242000Y-107442000D02*
X156464000Y-107442000D01*
X154940000Y-105918000D02*
X156464000Y-107442000D01*
X154686000Y-105918000D02*
X154940000Y-105918000D01*
X158496000Y-107442000D02*
X158242000Y-107442000D01*
X160020000Y-108966000D02*
X158496000Y-107442000D01*
X162306000Y-114808000D02*
X160020000Y-112522000D01*
X164053010Y-114808000D02*
X162306000Y-114808000D01*
X166370000Y-117124990D02*
X164053010Y-114808000D01*
X166370000Y-118618000D02*
X166370000Y-117124990D01*
X167640000Y-119888000D02*
X166370000Y-118618000D01*
X160020000Y-112522000D02*
X160020000Y-108966000D01*
X167640000Y-120015000D02*
X167640000Y-119888000D01*
X158242000Y-104902000D02*
X158530802Y-104902000D01*
X158530802Y-104902000D02*
X160528000Y-106899198D01*
X160528000Y-106899198D02*
X160528000Y-112268000D01*
X160528000Y-112268000D02*
X162560000Y-114300000D01*
X162560000Y-114300000D02*
X164465000Y-114300000D01*
X164465000Y-114300000D02*
X167640000Y-117475000D01*
X156464000Y-104902000D02*
X156972000Y-104902000D01*
X156972000Y-104902000D02*
X158242000Y-104902000D01*
X154940000Y-103378000D02*
X156464000Y-104902000D01*
X154686000Y-103378000D02*
X154940000Y-103378000D01*
X158242000Y-112522000D02*
X156464000Y-112522000D01*
X154940000Y-110998000D02*
X156464000Y-112522000D01*
X154686000Y-110998000D02*
X154940000Y-110998000D01*
X165100000Y-119888000D02*
X165100000Y-120015000D01*
X163830000Y-118618000D02*
X165100000Y-119888000D01*
X163830000Y-116840000D02*
X163830000Y-118618000D01*
X162814000Y-115824000D02*
X163830000Y-116840000D01*
X161798000Y-115824000D02*
X162814000Y-115824000D01*
X158496000Y-112522000D02*
X161798000Y-115824000D01*
X158242000Y-112522000D02*
X158496000Y-112522000D01*
X158242000Y-109982000D02*
X158530802Y-109982000D01*
X158530802Y-109982000D02*
X159512000Y-110963198D01*
X162052000Y-115316000D02*
X163068000Y-115316000D01*
X159512000Y-110963198D02*
X159512000Y-112776000D01*
X159512000Y-112776000D02*
X162052000Y-115316000D01*
X163068000Y-115316000D02*
X165100000Y-117348000D01*
X165100000Y-117348000D02*
X165100000Y-117475000D01*
X156464000Y-109982000D02*
X158242000Y-109982000D01*
X154940000Y-108458000D02*
X156464000Y-109982000D01*
X154686000Y-108458000D02*
X154940000Y-108458000D01*
X156464000Y-115062000D02*
X158242000Y-115062000D01*
X154940000Y-113538000D02*
X156464000Y-115062000D01*
X154686000Y-113538000D02*
X154940000Y-113538000D01*
X161290000Y-118618000D02*
X162560000Y-119888000D01*
X161290000Y-116840000D02*
X161290000Y-118618000D01*
X162560000Y-119888000D02*
X162560000Y-120015000D01*
X159512000Y-115062000D02*
X161290000Y-116840000D01*
X158242000Y-115062000D02*
X159512000Y-115062000D01*
X154686000Y-102362000D02*
X152908000Y-102362000D01*
X152908000Y-102362000D02*
X152146000Y-101600000D01*
X154686000Y-99822000D02*
X152908000Y-99822000D01*
X152908000Y-99822000D02*
X152146000Y-99060000D01*
X154686000Y-107442000D02*
X152908000Y-107442000D01*
X152908000Y-107442000D02*
X152146000Y-106680000D01*
X154686000Y-104902000D02*
X152908000Y-104902000D01*
X152908000Y-104902000D02*
X152146000Y-104140000D01*
X154686000Y-112522000D02*
X152908000Y-112522000D01*
X152908000Y-112522000D02*
X152146000Y-111760000D01*
X154686000Y-109982000D02*
X152908000Y-109982000D01*
X152908000Y-109982000D02*
X152146000Y-109220000D01*
X154686000Y-115062000D02*
X152908000Y-115062000D01*
X152908000Y-115062000D02*
X152146000Y-114300000D01*
D39*
G36*
X158623000Y-90166974D02*
X158611699Y-90155673D01*
X158378310Y-90059000D01*
X158125691Y-90059000D01*
X157125691Y-90059000D01*
X157002000Y-90110234D01*
X156878310Y-90059000D01*
X156625691Y-90059000D01*
X155625691Y-90059000D01*
X155502000Y-90110234D01*
X155378310Y-90059000D01*
X155125691Y-90059000D01*
X155037750Y-90059000D01*
X154879000Y-90217750D01*
X154879000Y-91313000D01*
X154625000Y-91313000D01*
X154625000Y-90217750D01*
X154466250Y-90059000D01*
X154378309Y-90059000D01*
X154125690Y-90059000D01*
X154002000Y-90110234D01*
X153878310Y-90059000D01*
X153625691Y-90059000D01*
X152625691Y-90059000D01*
X152502000Y-90110234D01*
X152378310Y-90059000D01*
X152125691Y-90059000D01*
X151125691Y-90059000D01*
X151002000Y-90110234D01*
X150878310Y-90059000D01*
X150625691Y-90059000D01*
X149625691Y-90059000D01*
X149502000Y-90110234D01*
X149378310Y-90059000D01*
X149125691Y-90059000D01*
X148125691Y-90059000D01*
X148002000Y-90110234D01*
X147878310Y-90059000D01*
X147625691Y-90059000D01*
X147537750Y-90059000D01*
X147379000Y-90217750D01*
X147379000Y-91313000D01*
X147125000Y-91313000D01*
X147125000Y-90217750D01*
X146966250Y-90059000D01*
X146878309Y-90059000D01*
X146625690Y-90059000D01*
X146502000Y-90110234D01*
X146378310Y-90059000D01*
X146125691Y-90059000D01*
X145125691Y-90059000D01*
X145002000Y-90110234D01*
X144878310Y-90059000D01*
X144625691Y-90059000D01*
X143625691Y-90059000D01*
X143392302Y-90155673D01*
X143383000Y-90164974D01*
X143383000Y-77223025D01*
X143392301Y-77232327D01*
X143625690Y-77329000D01*
X143878309Y-77329000D01*
X144878309Y-77329000D01*
X145001999Y-77277765D01*
X145125690Y-77329000D01*
X145378309Y-77329000D01*
X145466250Y-77329000D01*
X145625000Y-77170250D01*
X145625000Y-76073000D01*
X145879000Y-76073000D01*
X145879000Y-77170250D01*
X146037750Y-77329000D01*
X146125691Y-77329000D01*
X146378310Y-77329000D01*
X146502000Y-77277765D01*
X146625690Y-77329000D01*
X146878309Y-77329000D01*
X147878309Y-77329000D01*
X148001999Y-77277765D01*
X148125690Y-77329000D01*
X148378309Y-77329000D01*
X149378309Y-77329000D01*
X149501999Y-77277765D01*
X149625690Y-77329000D01*
X149878309Y-77329000D01*
X150878309Y-77329000D01*
X151001999Y-77277765D01*
X151125690Y-77329000D01*
X151378309Y-77329000D01*
X152378309Y-77329000D01*
X152501999Y-77277765D01*
X152625690Y-77329000D01*
X152878309Y-77329000D01*
X153878309Y-77329000D01*
X154001999Y-77277765D01*
X154125690Y-77329000D01*
X154378309Y-77329000D01*
X155378309Y-77329000D01*
X155501999Y-77277765D01*
X155625690Y-77329000D01*
X155878309Y-77329000D01*
X155966250Y-77329000D01*
X156125000Y-77170250D01*
X156125000Y-76073000D01*
X156379000Y-76073000D01*
X156379000Y-77170250D01*
X156537750Y-77329000D01*
X156625691Y-77329000D01*
X156878310Y-77329000D01*
X157002000Y-77277765D01*
X157125690Y-77329000D01*
X157378309Y-77329000D01*
X158378309Y-77329000D01*
X158611698Y-77232327D01*
X158623000Y-77221025D01*
X158623000Y-90166974D01*
X158623000Y-90166974D01*
G37*
X158623000Y-90166974D02*
X158611699Y-90155673D01*
X158378310Y-90059000D01*
X158125691Y-90059000D01*
X157125691Y-90059000D01*
X157002000Y-90110234D01*
X156878310Y-90059000D01*
X156625691Y-90059000D01*
X155625691Y-90059000D01*
X155502000Y-90110234D01*
X155378310Y-90059000D01*
X155125691Y-90059000D01*
X155037750Y-90059000D01*
X154879000Y-90217750D01*
X154879000Y-91313000D01*
X154625000Y-91313000D01*
X154625000Y-90217750D01*
X154466250Y-90059000D01*
X154378309Y-90059000D01*
X154125690Y-90059000D01*
X154002000Y-90110234D01*
X153878310Y-90059000D01*
X153625691Y-90059000D01*
X152625691Y-90059000D01*
X152502000Y-90110234D01*
X152378310Y-90059000D01*
X152125691Y-90059000D01*
X151125691Y-90059000D01*
X151002000Y-90110234D01*
X150878310Y-90059000D01*
X150625691Y-90059000D01*
X149625691Y-90059000D01*
X149502000Y-90110234D01*
X149378310Y-90059000D01*
X149125691Y-90059000D01*
X148125691Y-90059000D01*
X148002000Y-90110234D01*
X147878310Y-90059000D01*
X147625691Y-90059000D01*
X147537750Y-90059000D01*
X147379000Y-90217750D01*
X147379000Y-91313000D01*
X147125000Y-91313000D01*
X147125000Y-90217750D01*
X146966250Y-90059000D01*
X146878309Y-90059000D01*
X146625690Y-90059000D01*
X146502000Y-90110234D01*
X146378310Y-90059000D01*
X146125691Y-90059000D01*
X145125691Y-90059000D01*
X145002000Y-90110234D01*
X144878310Y-90059000D01*
X144625691Y-90059000D01*
X143625691Y-90059000D01*
X143392302Y-90155673D01*
X143383000Y-90164974D01*
X143383000Y-77223025D01*
X143392301Y-77232327D01*
X143625690Y-77329000D01*
X143878309Y-77329000D01*
X144878309Y-77329000D01*
X145001999Y-77277765D01*
X145125690Y-77329000D01*
X145378309Y-77329000D01*
X145466250Y-77329000D01*
X145625000Y-77170250D01*
X145625000Y-76073000D01*
X145879000Y-76073000D01*
X145879000Y-77170250D01*
X146037750Y-77329000D01*
X146125691Y-77329000D01*
X146378310Y-77329000D01*
X146502000Y-77277765D01*
X146625690Y-77329000D01*
X146878309Y-77329000D01*
X147878309Y-77329000D01*
X148001999Y-77277765D01*
X148125690Y-77329000D01*
X148378309Y-77329000D01*
X149378309Y-77329000D01*
X149501999Y-77277765D01*
X149625690Y-77329000D01*
X149878309Y-77329000D01*
X150878309Y-77329000D01*
X151001999Y-77277765D01*
X151125690Y-77329000D01*
X151378309Y-77329000D01*
X152378309Y-77329000D01*
X152501999Y-77277765D01*
X152625690Y-77329000D01*
X152878309Y-77329000D01*
X153878309Y-77329000D01*
X154001999Y-77277765D01*
X154125690Y-77329000D01*
X154378309Y-77329000D01*
X155378309Y-77329000D01*
X155501999Y-77277765D01*
X155625690Y-77329000D01*
X155878309Y-77329000D01*
X155966250Y-77329000D01*
X156125000Y-77170250D01*
X156125000Y-76073000D01*
X156379000Y-76073000D01*
X156379000Y-77170250D01*
X156537750Y-77329000D01*
X156625691Y-77329000D01*
X156878310Y-77329000D01*
X157002000Y-77277765D01*
X157125690Y-77329000D01*
X157378309Y-77329000D01*
X158378309Y-77329000D01*
X158611698Y-77232327D01*
X158623000Y-77221025D01*
X158623000Y-90166974D01*
G36*
X114256500Y-81407000D02*
X114236500Y-81407000D01*
X114236500Y-81427000D01*
X113982500Y-81427000D01*
X113982500Y-81407000D01*
X113188750Y-81407000D01*
X113030000Y-81565750D01*
X113030000Y-81797080D01*
X112315118Y-81082198D01*
X112427345Y-80518000D01*
X112301670Y-79886190D01*
X111943778Y-79350567D01*
X111408155Y-78992675D01*
X110776345Y-78867000D01*
X110711655Y-78867000D01*
X110079845Y-78992675D01*
X109779480Y-79193371D01*
X109758327Y-79142302D01*
X109579699Y-78963673D01*
X109346310Y-78867000D01*
X109093691Y-78867000D01*
X108722467Y-78867000D01*
X108707460Y-78844540D01*
X107798849Y-77935929D01*
X107899528Y-77977735D01*
X108505812Y-77978264D01*
X108658326Y-77915246D01*
X108970540Y-78227460D01*
X109201529Y-78381802D01*
X109201530Y-78381802D01*
X109474000Y-78436000D01*
X113751080Y-78436000D01*
X114046000Y-78730920D01*
X114046000Y-79818809D01*
X114098891Y-79946500D01*
X113982498Y-79946500D01*
X113982498Y-80105248D01*
X113823750Y-79946500D01*
X113538691Y-79946500D01*
X113305302Y-80043173D01*
X113126673Y-80221801D01*
X113030000Y-80455190D01*
X113030000Y-80707809D01*
X113030000Y-80994250D01*
X113188750Y-81153000D01*
X113982500Y-81153000D01*
X113982500Y-81133000D01*
X114236500Y-81133000D01*
X114236500Y-81153000D01*
X114256500Y-81153000D01*
X114256500Y-81407000D01*
X114256500Y-81407000D01*
G37*
X114256500Y-81407000D02*
X114236500Y-81407000D01*
X114236500Y-81427000D01*
X113982500Y-81427000D01*
X113982500Y-81407000D01*
X113188750Y-81407000D01*
X113030000Y-81565750D01*
X113030000Y-81797080D01*
X112315118Y-81082198D01*
X112427345Y-80518000D01*
X112301670Y-79886190D01*
X111943778Y-79350567D01*
X111408155Y-78992675D01*
X110776345Y-78867000D01*
X110711655Y-78867000D01*
X110079845Y-78992675D01*
X109779480Y-79193371D01*
X109758327Y-79142302D01*
X109579699Y-78963673D01*
X109346310Y-78867000D01*
X109093691Y-78867000D01*
X108722467Y-78867000D01*
X108707460Y-78844540D01*
X107798849Y-77935929D01*
X107899528Y-77977735D01*
X108505812Y-77978264D01*
X108658326Y-77915246D01*
X108970540Y-78227460D01*
X109201529Y-78381802D01*
X109201530Y-78381802D01*
X109474000Y-78436000D01*
X113751080Y-78436000D01*
X114046000Y-78730920D01*
X114046000Y-79818809D01*
X114098891Y-79946500D01*
X113982498Y-79946500D01*
X113982498Y-80105248D01*
X113823750Y-79946500D01*
X113538691Y-79946500D01*
X113305302Y-80043173D01*
X113126673Y-80221801D01*
X113030000Y-80455190D01*
X113030000Y-80707809D01*
X113030000Y-80994250D01*
X113188750Y-81153000D01*
X113982500Y-81153000D01*
X113982500Y-81133000D01*
X114236500Y-81133000D01*
X114236500Y-81153000D01*
X114256500Y-81153000D01*
X114256500Y-81407000D01*
G36*
X115082000Y-72898000D02*
X115062000Y-72898000D01*
X115062000Y-72918000D01*
X114808000Y-72918000D01*
X114808000Y-72898000D01*
X114204750Y-72898000D01*
X114046000Y-73056750D01*
X114046000Y-73216191D01*
X114046000Y-73456000D01*
X108458000Y-73456000D01*
X108185529Y-73510198D01*
X107954540Y-73664540D01*
X106730000Y-74889080D01*
X106730000Y-69257460D01*
X106911262Y-69696149D01*
X107339596Y-70125231D01*
X107899528Y-70357735D01*
X108505812Y-70358264D01*
X109066149Y-70126738D01*
X109470592Y-69723000D01*
X109478066Y-69723000D01*
X109879596Y-70125231D01*
X110439528Y-70357735D01*
X111045812Y-70358264D01*
X111606149Y-70126738D01*
X112035231Y-69698404D01*
X112104120Y-69532500D01*
X113401974Y-69532500D01*
X113465474Y-69596000D01*
X113317173Y-69744302D01*
X113220500Y-69977691D01*
X113220500Y-70262750D01*
X113379250Y-70421500D01*
X114427000Y-70421500D01*
X114427000Y-70401500D01*
X114681000Y-70401500D01*
X114681000Y-70421500D01*
X114701000Y-70421500D01*
X114701000Y-70675500D01*
X114681000Y-70675500D01*
X114681000Y-70695500D01*
X114427000Y-70695500D01*
X114427000Y-70675500D01*
X113379250Y-70675500D01*
X113220500Y-70834250D01*
X113220500Y-71119309D01*
X113317173Y-71352698D01*
X113495801Y-71531327D01*
X113729190Y-71628000D01*
X113981809Y-71628000D01*
X114268250Y-71628000D01*
X114426998Y-71469252D01*
X114426998Y-71617391D01*
X114321302Y-71661173D01*
X114142673Y-71839801D01*
X114046000Y-72073190D01*
X114046000Y-72325809D01*
X114046000Y-72485250D01*
X114204750Y-72644000D01*
X114808000Y-72644000D01*
X114808000Y-72624000D01*
X115062000Y-72624000D01*
X115062000Y-72644000D01*
X115082000Y-72644000D01*
X115082000Y-72898000D01*
X115082000Y-72898000D01*
G37*
X115082000Y-72898000D02*
X115062000Y-72898000D01*
X115062000Y-72918000D01*
X114808000Y-72918000D01*
X114808000Y-72898000D01*
X114204750Y-72898000D01*
X114046000Y-73056750D01*
X114046000Y-73216191D01*
X114046000Y-73456000D01*
X108458000Y-73456000D01*
X108185529Y-73510198D01*
X107954540Y-73664540D01*
X106730000Y-74889080D01*
X106730000Y-69257460D01*
X106911262Y-69696149D01*
X107339596Y-70125231D01*
X107899528Y-70357735D01*
X108505812Y-70358264D01*
X109066149Y-70126738D01*
X109470592Y-69723000D01*
X109478066Y-69723000D01*
X109879596Y-70125231D01*
X110439528Y-70357735D01*
X111045812Y-70358264D01*
X111606149Y-70126738D01*
X112035231Y-69698404D01*
X112104120Y-69532500D01*
X113401974Y-69532500D01*
X113465474Y-69596000D01*
X113317173Y-69744302D01*
X113220500Y-69977691D01*
X113220500Y-70262750D01*
X113379250Y-70421500D01*
X114427000Y-70421500D01*
X114427000Y-70401500D01*
X114681000Y-70401500D01*
X114681000Y-70421500D01*
X114701000Y-70421500D01*
X114701000Y-70675500D01*
X114681000Y-70675500D01*
X114681000Y-70695500D01*
X114427000Y-70695500D01*
X114427000Y-70675500D01*
X113379250Y-70675500D01*
X113220500Y-70834250D01*
X113220500Y-71119309D01*
X113317173Y-71352698D01*
X113495801Y-71531327D01*
X113729190Y-71628000D01*
X113981809Y-71628000D01*
X114268250Y-71628000D01*
X114426998Y-71469252D01*
X114426998Y-71617391D01*
X114321302Y-71661173D01*
X114142673Y-71839801D01*
X114046000Y-72073190D01*
X114046000Y-72325809D01*
X114046000Y-72485250D01*
X114204750Y-72644000D01*
X114808000Y-72644000D01*
X114808000Y-72624000D01*
X115062000Y-72624000D01*
X115062000Y-72644000D01*
X115082000Y-72644000D01*
X115082000Y-72898000D01*
G36*
X123510046Y-80554557D02*
X123146330Y-80797585D01*
X122821474Y-81283766D01*
X122707400Y-81857255D01*
X122707400Y-82226745D01*
X122770271Y-82542820D01*
X122555000Y-82500000D01*
X120391525Y-82500000D01*
X120553327Y-82338199D01*
X120650000Y-82104810D01*
X120650000Y-81852191D01*
X120650000Y-81565750D01*
X120491250Y-81407000D01*
X119697500Y-81407000D01*
X119697500Y-81427000D01*
X119457000Y-81427000D01*
X119457000Y-81133000D01*
X119697500Y-81133000D01*
X119697500Y-81153000D01*
X120491250Y-81153000D01*
X120650000Y-80994250D01*
X120650000Y-80707809D01*
X120650000Y-80455190D01*
X120553327Y-80221801D01*
X120374698Y-80043173D01*
X120141309Y-79946500D01*
X119856250Y-79946500D01*
X119697502Y-80105248D01*
X119697502Y-79946500D01*
X119581109Y-79946500D01*
X119634000Y-79818810D01*
X119634000Y-79566191D01*
X119634000Y-78423191D01*
X119537327Y-78189802D01*
X119358699Y-78011173D01*
X119125310Y-77914500D01*
X118872691Y-77914500D01*
X118364691Y-77914500D01*
X118131302Y-78011173D01*
X118110000Y-78032474D01*
X118088699Y-78011173D01*
X118046338Y-77993626D01*
X118046337Y-77993626D01*
X117978460Y-77892040D01*
X117552000Y-77465580D01*
X117552000Y-74616920D01*
X123448540Y-80513460D01*
X123510046Y-80554557D01*
X123510046Y-80554557D01*
G37*
X123510046Y-80554557D02*
X123146330Y-80797585D01*
X122821474Y-81283766D01*
X122707400Y-81857255D01*
X122707400Y-82226745D01*
X122770271Y-82542820D01*
X122555000Y-82500000D01*
X120391525Y-82500000D01*
X120553327Y-82338199D01*
X120650000Y-82104810D01*
X120650000Y-81852191D01*
X120650000Y-81565750D01*
X120491250Y-81407000D01*
X119697500Y-81407000D01*
X119697500Y-81427000D01*
X119457000Y-81427000D01*
X119457000Y-81133000D01*
X119697500Y-81133000D01*
X119697500Y-81153000D01*
X120491250Y-81153000D01*
X120650000Y-80994250D01*
X120650000Y-80707809D01*
X120650000Y-80455190D01*
X120553327Y-80221801D01*
X120374698Y-80043173D01*
X120141309Y-79946500D01*
X119856250Y-79946500D01*
X119697502Y-80105248D01*
X119697502Y-79946500D01*
X119581109Y-79946500D01*
X119634000Y-79818810D01*
X119634000Y-79566191D01*
X119634000Y-78423191D01*
X119537327Y-78189802D01*
X119358699Y-78011173D01*
X119125310Y-77914500D01*
X118872691Y-77914500D01*
X118364691Y-77914500D01*
X118131302Y-78011173D01*
X118110000Y-78032474D01*
X118088699Y-78011173D01*
X118046338Y-77993626D01*
X118046337Y-77993626D01*
X117978460Y-77892040D01*
X117552000Y-77465580D01*
X117552000Y-74616920D01*
X123448540Y-80513460D01*
X123510046Y-80554557D01*
G36*
X136354500Y-109093000D02*
X136334500Y-109093000D01*
X136334500Y-109113000D01*
X136080500Y-109113000D01*
X136080500Y-109093000D01*
X136060500Y-109093000D01*
X136060500Y-108839000D01*
X136080500Y-108839000D01*
X136080500Y-108819000D01*
X136334500Y-108819000D01*
X136334500Y-108839000D01*
X136354500Y-108839000D01*
X136354500Y-109093000D01*
X136354500Y-109093000D01*
G37*
X136354500Y-109093000D02*
X136334500Y-109093000D01*
X136334500Y-109113000D01*
X136080500Y-109113000D01*
X136080500Y-109093000D01*
X136060500Y-109093000D01*
X136060500Y-108839000D01*
X136080500Y-108839000D01*
X136080500Y-108819000D01*
X136334500Y-108819000D01*
X136334500Y-108839000D01*
X136354500Y-108839000D01*
X136354500Y-109093000D01*
G36*
X137350998Y-102778748D02*
X137192250Y-102620000D01*
X136951691Y-102620000D01*
X136718302Y-102716673D01*
X136539673Y-102895301D01*
X136443000Y-103128690D01*
X136443000Y-103183750D01*
X136597112Y-103337862D01*
X136539673Y-103395301D01*
X136443000Y-103628690D01*
X136443000Y-103676250D01*
X136443000Y-103731310D01*
X136443000Y-103881309D01*
X136443000Y-104128690D01*
X136443000Y-104231309D01*
X136443000Y-104381309D01*
X136443000Y-104628690D01*
X136443000Y-104731309D01*
X136443000Y-104881309D01*
X136443000Y-105128690D01*
X136443000Y-105231309D01*
X136443000Y-105381309D01*
X136443000Y-105628690D01*
X136443000Y-105731309D01*
X136443000Y-105881309D01*
X136443000Y-106231309D01*
X136539673Y-106464698D01*
X136573973Y-106498999D01*
X136057501Y-106498999D01*
X135785030Y-106553197D01*
X135636000Y-106652775D01*
X135636000Y-106109191D01*
X135556806Y-105918000D01*
X135636000Y-105726810D01*
X135636000Y-105474191D01*
X135636000Y-105187750D01*
X135636000Y-104616250D01*
X135636000Y-104329809D01*
X135636000Y-104077190D01*
X135556806Y-103886000D01*
X135636000Y-103694810D01*
X135636000Y-103442191D01*
X135636000Y-103155750D01*
X135477250Y-102997000D01*
X134683500Y-102997000D01*
X134683500Y-103727250D01*
X134683500Y-104044750D01*
X134683500Y-104775000D01*
X135477250Y-104775000D01*
X135636000Y-104616250D01*
X135636000Y-105187750D01*
X135477250Y-105029000D01*
X134683500Y-105029000D01*
X134683500Y-105049000D01*
X134429500Y-105049000D01*
X134429500Y-105029000D01*
X134409500Y-105029000D01*
X134409500Y-104775000D01*
X134429500Y-104775000D01*
X134429500Y-104044750D01*
X134429500Y-103727250D01*
X134429500Y-102997000D01*
X134409500Y-102997000D01*
X134409500Y-102743000D01*
X134429500Y-102743000D01*
X134429500Y-102723000D01*
X134683500Y-102723000D01*
X134683500Y-102743000D01*
X135477250Y-102743000D01*
X135636000Y-102584250D01*
X135636000Y-102297809D01*
X135636000Y-102058000D01*
X136790391Y-102058000D01*
X136913903Y-102356920D01*
X137163764Y-102607218D01*
X137350998Y-102684964D01*
X137350998Y-102778748D01*
X137350998Y-102778748D01*
G37*
X137350998Y-102778748D02*
X137192250Y-102620000D01*
X136951691Y-102620000D01*
X136718302Y-102716673D01*
X136539673Y-102895301D01*
X136443000Y-103128690D01*
X136443000Y-103183750D01*
X136597112Y-103337862D01*
X136539673Y-103395301D01*
X136443000Y-103628690D01*
X136443000Y-103676250D01*
X136443000Y-103731310D01*
X136443000Y-103881309D01*
X136443000Y-104128690D01*
X136443000Y-104231309D01*
X136443000Y-104381309D01*
X136443000Y-104628690D01*
X136443000Y-104731309D01*
X136443000Y-104881309D01*
X136443000Y-105128690D01*
X136443000Y-105231309D01*
X136443000Y-105381309D01*
X136443000Y-105628690D01*
X136443000Y-105731309D01*
X136443000Y-105881309D01*
X136443000Y-106231309D01*
X136539673Y-106464698D01*
X136573973Y-106498999D01*
X136057501Y-106498999D01*
X135785030Y-106553197D01*
X135636000Y-106652775D01*
X135636000Y-106109191D01*
X135556806Y-105918000D01*
X135636000Y-105726810D01*
X135636000Y-105474191D01*
X135636000Y-105187750D01*
X135636000Y-104616250D01*
X135636000Y-104329809D01*
X135636000Y-104077190D01*
X135556806Y-103886000D01*
X135636000Y-103694810D01*
X135636000Y-103442191D01*
X135636000Y-103155750D01*
X135477250Y-102997000D01*
X134683500Y-102997000D01*
X134683500Y-103727250D01*
X134683500Y-104044750D01*
X134683500Y-104775000D01*
X135477250Y-104775000D01*
X135636000Y-104616250D01*
X135636000Y-105187750D01*
X135477250Y-105029000D01*
X134683500Y-105029000D01*
X134683500Y-105049000D01*
X134429500Y-105049000D01*
X134429500Y-105029000D01*
X134409500Y-105029000D01*
X134409500Y-104775000D01*
X134429500Y-104775000D01*
X134429500Y-104044750D01*
X134429500Y-103727250D01*
X134429500Y-102997000D01*
X134409500Y-102997000D01*
X134409500Y-102743000D01*
X134429500Y-102743000D01*
X134429500Y-102723000D01*
X134683500Y-102723000D01*
X134683500Y-102743000D01*
X135477250Y-102743000D01*
X135636000Y-102584250D01*
X135636000Y-102297809D01*
X135636000Y-102058000D01*
X136790391Y-102058000D01*
X136913903Y-102356920D01*
X137163764Y-102607218D01*
X137350998Y-102684964D01*
X137350998Y-102778748D01*
G36*
X137718000Y-85911080D02*
X132969154Y-81162234D01*
X132969154Y-74499943D01*
X132834097Y-74173080D01*
X132584236Y-73922782D01*
X132257609Y-73787154D01*
X131903943Y-73786846D01*
X131577080Y-73921903D01*
X131534909Y-73964000D01*
X128561382Y-73964000D01*
X128520236Y-73922782D01*
X128193609Y-73787154D01*
X127839943Y-73786846D01*
X127513080Y-73921903D01*
X127262782Y-74171764D01*
X127127154Y-74498391D01*
X127126846Y-74852057D01*
X127261903Y-75178920D01*
X127511764Y-75429218D01*
X127838391Y-75564846D01*
X128192057Y-75565154D01*
X128518920Y-75430097D01*
X128561090Y-75388000D01*
X131534617Y-75388000D01*
X131575764Y-75429218D01*
X131902391Y-75564846D01*
X132256057Y-75565154D01*
X132582920Y-75430097D01*
X132833218Y-75180236D01*
X132968846Y-74853609D01*
X132969154Y-74499943D01*
X132969154Y-81162234D01*
X130805460Y-78998540D01*
X130574471Y-78844198D01*
X130302000Y-78790000D01*
X125008920Y-78790000D01*
X119634000Y-73415080D01*
X119634000Y-73216191D01*
X119634000Y-72073191D01*
X119537327Y-71839802D01*
X119358699Y-71661173D01*
X119343883Y-71655036D01*
X119370920Y-71628000D01*
X119696809Y-71628000D01*
X119930198Y-71531327D01*
X120108827Y-71352699D01*
X120205500Y-71119310D01*
X120205500Y-70866691D01*
X120205500Y-69977691D01*
X120108827Y-69744302D01*
X119960525Y-69596000D01*
X120108827Y-69447698D01*
X120205500Y-69214309D01*
X120205500Y-68929250D01*
X120046750Y-68770500D01*
X118999000Y-68770500D01*
X118999000Y-68790500D01*
X118745000Y-68790500D01*
X118745000Y-68770500D01*
X118014750Y-68770500D01*
X117697250Y-68770500D01*
X116967000Y-68770500D01*
X116967000Y-68790500D01*
X116713000Y-68790500D01*
X116713000Y-68770500D01*
X116693000Y-68770500D01*
X116693000Y-68516500D01*
X116713000Y-68516500D01*
X116713000Y-68496500D01*
X116967000Y-68496500D01*
X116967000Y-68516500D01*
X117697250Y-68516500D01*
X118014750Y-68516500D01*
X118745000Y-68516500D01*
X118745000Y-68496500D01*
X118999000Y-68496500D01*
X118999000Y-68516500D01*
X120046750Y-68516500D01*
X120205500Y-68357750D01*
X120205500Y-68072691D01*
X120173319Y-67995000D01*
X121070921Y-67995000D01*
X120830971Y-68155330D01*
X120506115Y-68641511D01*
X120392041Y-69215000D01*
X120506115Y-69788489D01*
X120830971Y-70274670D01*
X120852023Y-70288736D01*
X120696702Y-70353073D01*
X120518073Y-70531701D01*
X120421400Y-70765090D01*
X120421400Y-71017709D01*
X120421400Y-72744909D01*
X120518073Y-72978298D01*
X120696701Y-73156927D01*
X120930090Y-73253600D01*
X121182709Y-73253600D01*
X122909909Y-73253600D01*
X123143298Y-73156927D01*
X123321927Y-72978299D01*
X123385643Y-72824473D01*
X123857152Y-73139526D01*
X124430641Y-73253600D01*
X124489359Y-73253600D01*
X125062848Y-73139526D01*
X125549029Y-72814670D01*
X125730000Y-72543827D01*
X125910971Y-72814670D01*
X126397152Y-73139526D01*
X126970641Y-73253600D01*
X127029359Y-73253600D01*
X127602848Y-73139526D01*
X128089029Y-72814670D01*
X128270000Y-72543827D01*
X128450971Y-72814670D01*
X128937152Y-73139526D01*
X129510641Y-73253600D01*
X129569359Y-73253600D01*
X130142848Y-73139526D01*
X130629029Y-72814670D01*
X130810000Y-72543827D01*
X130990971Y-72814670D01*
X131477152Y-73139526D01*
X132050641Y-73253600D01*
X132109359Y-73253600D01*
X132682848Y-73139526D01*
X133169029Y-72814670D01*
X133350000Y-72543827D01*
X133530971Y-72814670D01*
X134017152Y-73139526D01*
X134590641Y-73253600D01*
X134649359Y-73253600D01*
X135222848Y-73139526D01*
X135709029Y-72814670D01*
X135890000Y-72543827D01*
X136070971Y-72814670D01*
X136557152Y-73139526D01*
X137130641Y-73253600D01*
X137189359Y-73253600D01*
X137718000Y-73148446D01*
X137718000Y-85911080D01*
X137718000Y-85911080D01*
G37*
X137718000Y-85911080D02*
X132969154Y-81162234D01*
X132969154Y-74499943D01*
X132834097Y-74173080D01*
X132584236Y-73922782D01*
X132257609Y-73787154D01*
X131903943Y-73786846D01*
X131577080Y-73921903D01*
X131534909Y-73964000D01*
X128561382Y-73964000D01*
X128520236Y-73922782D01*
X128193609Y-73787154D01*
X127839943Y-73786846D01*
X127513080Y-73921903D01*
X127262782Y-74171764D01*
X127127154Y-74498391D01*
X127126846Y-74852057D01*
X127261903Y-75178920D01*
X127511764Y-75429218D01*
X127838391Y-75564846D01*
X128192057Y-75565154D01*
X128518920Y-75430097D01*
X128561090Y-75388000D01*
X131534617Y-75388000D01*
X131575764Y-75429218D01*
X131902391Y-75564846D01*
X132256057Y-75565154D01*
X132582920Y-75430097D01*
X132833218Y-75180236D01*
X132968846Y-74853609D01*
X132969154Y-74499943D01*
X132969154Y-81162234D01*
X130805460Y-78998540D01*
X130574471Y-78844198D01*
X130302000Y-78790000D01*
X125008920Y-78790000D01*
X119634000Y-73415080D01*
X119634000Y-73216191D01*
X119634000Y-72073191D01*
X119537327Y-71839802D01*
X119358699Y-71661173D01*
X119343883Y-71655036D01*
X119370920Y-71628000D01*
X119696809Y-71628000D01*
X119930198Y-71531327D01*
X120108827Y-71352699D01*
X120205500Y-71119310D01*
X120205500Y-70866691D01*
X120205500Y-69977691D01*
X120108827Y-69744302D01*
X119960525Y-69596000D01*
X120108827Y-69447698D01*
X120205500Y-69214309D01*
X120205500Y-68929250D01*
X120046750Y-68770500D01*
X118999000Y-68770500D01*
X118999000Y-68790500D01*
X118745000Y-68790500D01*
X118745000Y-68770500D01*
X118014750Y-68770500D01*
X117697250Y-68770500D01*
X116967000Y-68770500D01*
X116967000Y-68790500D01*
X116713000Y-68790500D01*
X116713000Y-68770500D01*
X116693000Y-68770500D01*
X116693000Y-68516500D01*
X116713000Y-68516500D01*
X116713000Y-68496500D01*
X116967000Y-68496500D01*
X116967000Y-68516500D01*
X117697250Y-68516500D01*
X118014750Y-68516500D01*
X118745000Y-68516500D01*
X118745000Y-68496500D01*
X118999000Y-68496500D01*
X118999000Y-68516500D01*
X120046750Y-68516500D01*
X120205500Y-68357750D01*
X120205500Y-68072691D01*
X120173319Y-67995000D01*
X121070921Y-67995000D01*
X120830971Y-68155330D01*
X120506115Y-68641511D01*
X120392041Y-69215000D01*
X120506115Y-69788489D01*
X120830971Y-70274670D01*
X120852023Y-70288736D01*
X120696702Y-70353073D01*
X120518073Y-70531701D01*
X120421400Y-70765090D01*
X120421400Y-71017709D01*
X120421400Y-72744909D01*
X120518073Y-72978298D01*
X120696701Y-73156927D01*
X120930090Y-73253600D01*
X121182709Y-73253600D01*
X122909909Y-73253600D01*
X123143298Y-73156927D01*
X123321927Y-72978299D01*
X123385643Y-72824473D01*
X123857152Y-73139526D01*
X124430641Y-73253600D01*
X124489359Y-73253600D01*
X125062848Y-73139526D01*
X125549029Y-72814670D01*
X125730000Y-72543827D01*
X125910971Y-72814670D01*
X126397152Y-73139526D01*
X126970641Y-73253600D01*
X127029359Y-73253600D01*
X127602848Y-73139526D01*
X128089029Y-72814670D01*
X128270000Y-72543827D01*
X128450971Y-72814670D01*
X128937152Y-73139526D01*
X129510641Y-73253600D01*
X129569359Y-73253600D01*
X130142848Y-73139526D01*
X130629029Y-72814670D01*
X130810000Y-72543827D01*
X130990971Y-72814670D01*
X131477152Y-73139526D01*
X132050641Y-73253600D01*
X132109359Y-73253600D01*
X132682848Y-73139526D01*
X133169029Y-72814670D01*
X133350000Y-72543827D01*
X133530971Y-72814670D01*
X134017152Y-73139526D01*
X134590641Y-73253600D01*
X134649359Y-73253600D01*
X135222848Y-73139526D01*
X135709029Y-72814670D01*
X135890000Y-72543827D01*
X136070971Y-72814670D01*
X136557152Y-73139526D01*
X137130641Y-73253600D01*
X137189359Y-73253600D01*
X137718000Y-73148446D01*
X137718000Y-85911080D01*
G36*
X139910500Y-111379000D02*
X139890500Y-111379000D01*
X139890500Y-111399000D01*
X139636500Y-111399000D01*
X139636500Y-111379000D01*
X139616500Y-111379000D01*
X139616500Y-111125000D01*
X139636500Y-111125000D01*
X139636500Y-111105000D01*
X139890500Y-111105000D01*
X139890500Y-111125000D01*
X139910500Y-111125000D01*
X139910500Y-111379000D01*
X139910500Y-111379000D01*
G37*
X139910500Y-111379000D02*
X139890500Y-111379000D01*
X139890500Y-111399000D01*
X139636500Y-111399000D01*
X139636500Y-111379000D01*
X139616500Y-111379000D01*
X139616500Y-111125000D01*
X139636500Y-111125000D01*
X139636500Y-111105000D01*
X139890500Y-111105000D01*
X139890500Y-111125000D01*
X139910500Y-111125000D01*
X139910500Y-111379000D01*
G36*
X140472694Y-104802998D02*
X140443000Y-104802998D01*
X140443000Y-104892080D01*
X140335103Y-104784183D01*
X140335154Y-104725943D01*
X140200097Y-104399080D01*
X139950236Y-104148782D01*
X139623609Y-104013154D01*
X139564022Y-104013102D01*
X139477460Y-103926540D01*
X139246471Y-103772198D01*
X139210284Y-103765000D01*
X139426690Y-103765000D01*
X139529309Y-103765000D01*
X139679309Y-103765000D01*
X139926691Y-103765000D01*
X139981750Y-103765000D01*
X140029309Y-103765000D01*
X140227999Y-103682699D01*
X140426690Y-103765000D01*
X140443000Y-103765000D01*
X140443000Y-103881309D01*
X140443000Y-104128690D01*
X140443000Y-104231309D01*
X140443000Y-104381309D01*
X140443000Y-104628690D01*
X140443000Y-104683750D01*
X140443000Y-104731309D01*
X140472694Y-104802998D01*
X140472694Y-104802998D01*
G37*
X140472694Y-104802998D02*
X140443000Y-104802998D01*
X140443000Y-104892080D01*
X140335103Y-104784183D01*
X140335154Y-104725943D01*
X140200097Y-104399080D01*
X139950236Y-104148782D01*
X139623609Y-104013154D01*
X139564022Y-104013102D01*
X139477460Y-103926540D01*
X139246471Y-103772198D01*
X139210284Y-103765000D01*
X139426690Y-103765000D01*
X139529309Y-103765000D01*
X139679309Y-103765000D01*
X139926691Y-103765000D01*
X139981750Y-103765000D01*
X140029309Y-103765000D01*
X140227999Y-103682699D01*
X140426690Y-103765000D01*
X140443000Y-103765000D01*
X140443000Y-103881309D01*
X140443000Y-104128690D01*
X140443000Y-104231309D01*
X140443000Y-104381309D01*
X140443000Y-104628690D01*
X140443000Y-104683750D01*
X140443000Y-104731309D01*
X140472694Y-104802998D01*
G36*
X142798000Y-116081553D02*
X142269359Y-115976400D01*
X142210641Y-115976400D01*
X141637152Y-116090474D01*
X141150971Y-116415330D01*
X140970000Y-116686172D01*
X140789029Y-116415330D01*
X140302848Y-116090474D01*
X139729359Y-115976400D01*
X139670641Y-115976400D01*
X139097152Y-116090474D01*
X138610971Y-116415330D01*
X138430000Y-116686172D01*
X138249029Y-116415330D01*
X137762848Y-116090474D01*
X137189359Y-115976400D01*
X137130641Y-115976400D01*
X136557152Y-116090474D01*
X136070971Y-116415330D01*
X135890000Y-116686172D01*
X135709029Y-116415330D01*
X135222848Y-116090474D01*
X134649359Y-115976400D01*
X134590641Y-115976400D01*
X134017152Y-116090474D01*
X133530971Y-116415330D01*
X133350000Y-116686172D01*
X133169029Y-116415330D01*
X132682848Y-116090474D01*
X132109359Y-115976400D01*
X132050641Y-115976400D01*
X131477152Y-116090474D01*
X130990971Y-116415330D01*
X130810000Y-116686172D01*
X130629029Y-116415330D01*
X130142848Y-116090474D01*
X129569359Y-115976400D01*
X129510641Y-115976400D01*
X128937152Y-116090474D01*
X128450971Y-116415330D01*
X128270000Y-116686172D01*
X128089029Y-116415330D01*
X127602848Y-116090474D01*
X127029359Y-115976400D01*
X126970641Y-115976400D01*
X126397152Y-116090474D01*
X125910971Y-116415330D01*
X125730007Y-116686160D01*
X125348490Y-116268179D01*
X124819027Y-116020032D01*
X124587000Y-116140531D01*
X124587000Y-117348000D01*
X124607000Y-117348000D01*
X124607000Y-117602000D01*
X124587000Y-117602000D01*
X124587000Y-118680531D01*
X124587000Y-118809469D01*
X124587000Y-119888000D01*
X124607000Y-119888000D01*
X124607000Y-120142000D01*
X124587000Y-120142000D01*
X124587000Y-120162000D01*
X124333000Y-120162000D01*
X124333000Y-120142000D01*
X124313000Y-120142000D01*
X124313000Y-119888000D01*
X124333000Y-119888000D01*
X124333000Y-118809469D01*
X124333000Y-118680531D01*
X124333000Y-117602000D01*
X124313000Y-117602000D01*
X124313000Y-117348000D01*
X124333000Y-117348000D01*
X124333000Y-116140531D01*
X124100973Y-116020032D01*
X123571510Y-116268179D01*
X123189992Y-116686160D01*
X123009029Y-116415330D01*
X122522848Y-116090474D01*
X121949359Y-115976400D01*
X121890641Y-115976400D01*
X121317152Y-116090474D01*
X120830971Y-116415330D01*
X120506115Y-116901511D01*
X120392041Y-117475000D01*
X120506115Y-118048489D01*
X120830971Y-118534670D01*
X120852023Y-118548736D01*
X120696702Y-118613073D01*
X120518073Y-118791701D01*
X120421400Y-119025090D01*
X120421400Y-119277709D01*
X120421400Y-121004909D01*
X120516706Y-121235000D01*
X108652467Y-121235000D01*
X106422234Y-120791379D01*
X104588729Y-119566270D01*
X103363620Y-117732765D01*
X103261824Y-117221000D01*
X105028309Y-117221000D01*
X105261698Y-117124327D01*
X105440327Y-116945699D01*
X105466141Y-116883377D01*
X106406983Y-117824219D01*
X106695395Y-118016930D01*
X106695396Y-118016930D01*
X107035601Y-118084601D01*
X117324713Y-118084601D01*
X117664918Y-118016930D01*
X117664919Y-118016930D01*
X117953331Y-117824219D01*
X118865618Y-116911932D01*
X119058329Y-116623520D01*
X119058330Y-116623519D01*
X119126000Y-116283314D01*
X119126000Y-116255325D01*
X119326029Y-116121670D01*
X119650885Y-115635489D01*
X119667986Y-115549511D01*
X119845801Y-115727327D01*
X120079190Y-115824000D01*
X120331809Y-115824000D01*
X121728809Y-115824000D01*
X121962198Y-115727327D01*
X122140827Y-115548699D01*
X122237500Y-115315310D01*
X122237500Y-115062691D01*
X122237500Y-114173691D01*
X122140827Y-113940302D01*
X121992525Y-113791999D01*
X122140827Y-113643699D01*
X122237500Y-113410310D01*
X122237500Y-113157691D01*
X122237500Y-112268691D01*
X122140827Y-112035302D01*
X121962199Y-111856673D01*
X121728810Y-111760000D01*
X121476191Y-111760000D01*
X120079191Y-111760000D01*
X119845802Y-111856673D01*
X119667986Y-112034487D01*
X119650885Y-111948511D01*
X119326029Y-111462330D01*
X118839848Y-111137474D01*
X118266359Y-111023400D01*
X118207641Y-111023400D01*
X117634152Y-111137474D01*
X117147971Y-111462330D01*
X116967000Y-111733172D01*
X116786029Y-111462330D01*
X116299848Y-111137474D01*
X115726359Y-111023400D01*
X115667641Y-111023400D01*
X115094152Y-111137474D01*
X114607971Y-111462330D01*
X114493932Y-111633000D01*
X111315500Y-111633000D01*
X111315500Y-109219309D01*
X111315500Y-108934250D01*
X111156750Y-108775500D01*
X110109000Y-108775500D01*
X110109000Y-109569250D01*
X110267750Y-109728000D01*
X110554191Y-109728000D01*
X110806810Y-109728000D01*
X111040199Y-109631327D01*
X111218827Y-109452698D01*
X111315500Y-109219309D01*
X111315500Y-111633000D01*
X109855000Y-111633000D01*
X109855000Y-109569250D01*
X109855000Y-108775500D01*
X108807250Y-108775500D01*
X108648500Y-108934250D01*
X108648500Y-109219309D01*
X108745173Y-109452698D01*
X108923801Y-109631327D01*
X109157190Y-109728000D01*
X109409809Y-109728000D01*
X109696250Y-109728000D01*
X109855000Y-109569250D01*
X109855000Y-111633000D01*
X107099100Y-111633000D01*
X107099100Y-110594719D01*
X107099100Y-108954570D01*
X107099100Y-108383070D01*
X107099100Y-106742921D01*
X107002427Y-106509532D01*
X106823799Y-106330903D01*
X106590410Y-106234230D01*
X106337791Y-106234230D01*
X105949750Y-106234230D01*
X105791000Y-106392980D01*
X105791000Y-108541820D01*
X106940350Y-108541820D01*
X107099100Y-108383070D01*
X107099100Y-108954570D01*
X106940350Y-108795820D01*
X105791000Y-108795820D01*
X105791000Y-110944660D01*
X105949750Y-111103410D01*
X106337791Y-111103410D01*
X106590410Y-111103410D01*
X106823799Y-111006737D01*
X107002427Y-110828108D01*
X107099100Y-110594719D01*
X107099100Y-111633000D01*
X105537000Y-111633000D01*
X105537000Y-110944660D01*
X105537000Y-108795820D01*
X105537000Y-108541820D01*
X105537000Y-106392980D01*
X105378250Y-106234230D01*
X104990209Y-106234230D01*
X104737590Y-106234230D01*
X104504201Y-106330903D01*
X104325573Y-106509532D01*
X104228900Y-106742921D01*
X104228900Y-108383070D01*
X104387650Y-108541820D01*
X105537000Y-108541820D01*
X105537000Y-108795820D01*
X104387650Y-108795820D01*
X104228900Y-108954570D01*
X104228900Y-110594719D01*
X104325573Y-110828108D01*
X104504201Y-111006737D01*
X104737590Y-111103410D01*
X104990209Y-111103410D01*
X105378250Y-111103410D01*
X105537000Y-110944660D01*
X105537000Y-111633000D01*
X104758269Y-111633000D01*
X104517810Y-111472330D01*
X103886000Y-111346655D01*
X103254190Y-111472330D01*
X102920000Y-111695628D01*
X102920000Y-101650000D01*
X104228900Y-101650000D01*
X104228900Y-105093079D01*
X104325573Y-105326468D01*
X104504201Y-105505097D01*
X104737590Y-105601770D01*
X104990209Y-105601770D01*
X106590409Y-105601770D01*
X106823798Y-105505097D01*
X107002427Y-105326469D01*
X107099100Y-105093080D01*
X107099100Y-105061010D01*
X107480332Y-105219313D01*
X107518109Y-105219345D01*
X108019882Y-105721118D01*
X108308294Y-105913829D01*
X108648500Y-105981500D01*
X108727693Y-105981500D01*
X108648500Y-106172690D01*
X108648500Y-106425309D01*
X108648500Y-107314309D01*
X108745173Y-107547698D01*
X108893474Y-107696000D01*
X108745173Y-107844302D01*
X108648500Y-108077691D01*
X108648500Y-108362750D01*
X108807250Y-108521500D01*
X109855000Y-108521500D01*
X109855000Y-108501500D01*
X110109000Y-108501500D01*
X110109000Y-108521500D01*
X111156750Y-108521500D01*
X111315500Y-108362750D01*
X111315500Y-108077691D01*
X111218827Y-107844302D01*
X111070525Y-107695999D01*
X111218827Y-107547699D01*
X111315500Y-107314310D01*
X111315500Y-107061691D01*
X111315500Y-106172691D01*
X111218827Y-105939302D01*
X111197525Y-105918000D01*
X111218827Y-105896699D01*
X111315500Y-105663310D01*
X111315500Y-105524236D01*
X112864900Y-107073636D01*
X112864900Y-110594719D01*
X112961573Y-110828108D01*
X113140201Y-111006737D01*
X113373590Y-111103410D01*
X113626209Y-111103410D01*
X115226409Y-111103410D01*
X115459798Y-111006737D01*
X115638427Y-110828109D01*
X115735100Y-110594720D01*
X115735100Y-110342101D01*
X115735100Y-109557820D01*
X119722900Y-109557820D01*
X119722900Y-110594719D01*
X119819573Y-110828108D01*
X119998201Y-111006737D01*
X120231590Y-111103410D01*
X120484209Y-111103410D01*
X122084409Y-111103410D01*
X122317798Y-111006737D01*
X122496427Y-110828109D01*
X122593100Y-110594720D01*
X122593100Y-110342101D01*
X122593100Y-109557820D01*
X123649078Y-109557820D01*
X125612998Y-109583170D01*
X125675371Y-109676519D01*
X125624302Y-109697673D01*
X125445673Y-109876301D01*
X125349000Y-110109690D01*
X125349000Y-110362309D01*
X125349000Y-112394309D01*
X125445673Y-112627698D01*
X125624301Y-112806327D01*
X125857690Y-112903000D01*
X126110309Y-112903000D01*
X128142309Y-112903000D01*
X128269999Y-112850108D01*
X128397690Y-112903000D01*
X128650309Y-112903000D01*
X130682309Y-112903000D01*
X130915698Y-112806327D01*
X131094327Y-112627699D01*
X131191000Y-112394310D01*
X131191000Y-112141691D01*
X131191000Y-110109691D01*
X131094327Y-109876302D01*
X130915699Y-109697673D01*
X130864628Y-109676518D01*
X131065325Y-109376155D01*
X131191000Y-108744345D01*
X131191000Y-108679655D01*
X131065325Y-108047845D01*
X130707433Y-107512222D01*
X130171810Y-107154330D01*
X129540000Y-107028655D01*
X128908190Y-107154330D01*
X128372567Y-107512222D01*
X128270000Y-107665724D01*
X128167433Y-107512222D01*
X127635000Y-107156461D01*
X127635000Y-101180453D01*
X127805670Y-101066415D01*
X127820500Y-101044219D01*
X127884073Y-101197698D01*
X128062701Y-101376327D01*
X128296090Y-101473000D01*
X128548709Y-101473000D01*
X130275909Y-101473000D01*
X130509298Y-101376327D01*
X130687927Y-101197699D01*
X130784600Y-100964310D01*
X130784600Y-100711691D01*
X130784600Y-98679691D01*
X130731708Y-98552000D01*
X130784600Y-98424310D01*
X130784600Y-98171691D01*
X130784600Y-96139691D01*
X130731708Y-96012000D01*
X130784600Y-95884310D01*
X130784600Y-95631691D01*
X130784600Y-93599691D01*
X130731708Y-93472000D01*
X130784600Y-93344310D01*
X130784600Y-93091691D01*
X130784600Y-91059691D01*
X130731708Y-90932000D01*
X130784600Y-90804310D01*
X130784600Y-90551691D01*
X130784600Y-88519691D01*
X130731708Y-88392000D01*
X130784600Y-88264310D01*
X130784600Y-88011691D01*
X130784600Y-85979691D01*
X130731708Y-85852000D01*
X130784600Y-85724310D01*
X130784600Y-85471691D01*
X130784600Y-83439691D01*
X130731708Y-83312000D01*
X130784600Y-83184310D01*
X130784600Y-82931691D01*
X130784600Y-81753520D01*
X136194000Y-87162920D01*
X136194000Y-99022617D01*
X136152782Y-99063764D01*
X136017154Y-99390391D01*
X136016846Y-99744057D01*
X136151903Y-100070920D01*
X136206886Y-100126000D01*
X136005608Y-100126000D01*
X135882097Y-99827080D01*
X135632236Y-99576782D01*
X135305609Y-99441154D01*
X134951943Y-99440846D01*
X134625080Y-99575903D01*
X134374782Y-99825764D01*
X134332151Y-99928428D01*
X132724080Y-101536500D01*
X132080691Y-101536500D01*
X131847302Y-101633173D01*
X131668673Y-101811801D01*
X131572000Y-102045190D01*
X131572000Y-102297809D01*
X131572000Y-103694809D01*
X131651193Y-103885999D01*
X131572000Y-104077190D01*
X131572000Y-104329809D01*
X131572000Y-105726809D01*
X131651193Y-105917999D01*
X131572000Y-106109190D01*
X131572000Y-106361809D01*
X131572000Y-107758809D01*
X131651193Y-107949999D01*
X131572000Y-108141190D01*
X131572000Y-108393809D01*
X131572000Y-109790809D01*
X131668673Y-110024198D01*
X131847301Y-110202827D01*
X131939500Y-110241017D01*
X131939500Y-112331500D01*
X131993698Y-112603971D01*
X132148040Y-112834960D01*
X133314540Y-114001460D01*
X133545529Y-114155802D01*
X133545530Y-114155802D01*
X133818000Y-114210000D01*
X133967452Y-114210000D01*
X134143690Y-114283000D01*
X134396309Y-114283000D01*
X134835000Y-114283000D01*
X134835000Y-114474309D01*
X134931673Y-114707698D01*
X134953197Y-114729222D01*
X134962198Y-114774471D01*
X135116540Y-115005460D01*
X135422540Y-115311460D01*
X135653529Y-115465802D01*
X135653530Y-115465802D01*
X135926000Y-115520000D01*
X137922000Y-115520000D01*
X138194470Y-115465802D01*
X138194471Y-115465802D01*
X138425460Y-115311460D01*
X138961275Y-114775644D01*
X139192691Y-114871500D01*
X139477750Y-114871500D01*
X139636500Y-114712750D01*
X139636500Y-114078052D01*
X139745801Y-113914472D01*
X139745802Y-113914471D01*
X139799999Y-113642001D01*
X139799999Y-113391000D01*
X139890500Y-113391000D01*
X139890500Y-113411000D01*
X139910500Y-113411000D01*
X139910500Y-113665000D01*
X139890500Y-113665000D01*
X139890500Y-114712750D01*
X140049250Y-114871500D01*
X140334309Y-114871500D01*
X140567698Y-114774827D01*
X140716000Y-114626525D01*
X140864301Y-114774827D01*
X141097690Y-114871500D01*
X141350309Y-114871500D01*
X142239309Y-114871500D01*
X142472698Y-114774827D01*
X142651327Y-114596199D01*
X142694661Y-114491581D01*
X142798000Y-114594920D01*
X142798000Y-116081553D01*
X142798000Y-116081553D01*
G37*
X142798000Y-116081553D02*
X142269359Y-115976400D01*
X142210641Y-115976400D01*
X141637152Y-116090474D01*
X141150971Y-116415330D01*
X140970000Y-116686172D01*
X140789029Y-116415330D01*
X140302848Y-116090474D01*
X139729359Y-115976400D01*
X139670641Y-115976400D01*
X139097152Y-116090474D01*
X138610971Y-116415330D01*
X138430000Y-116686172D01*
X138249029Y-116415330D01*
X137762848Y-116090474D01*
X137189359Y-115976400D01*
X137130641Y-115976400D01*
X136557152Y-116090474D01*
X136070971Y-116415330D01*
X135890000Y-116686172D01*
X135709029Y-116415330D01*
X135222848Y-116090474D01*
X134649359Y-115976400D01*
X134590641Y-115976400D01*
X134017152Y-116090474D01*
X133530971Y-116415330D01*
X133350000Y-116686172D01*
X133169029Y-116415330D01*
X132682848Y-116090474D01*
X132109359Y-115976400D01*
X132050641Y-115976400D01*
X131477152Y-116090474D01*
X130990971Y-116415330D01*
X130810000Y-116686172D01*
X130629029Y-116415330D01*
X130142848Y-116090474D01*
X129569359Y-115976400D01*
X129510641Y-115976400D01*
X128937152Y-116090474D01*
X128450971Y-116415330D01*
X128270000Y-116686172D01*
X128089029Y-116415330D01*
X127602848Y-116090474D01*
X127029359Y-115976400D01*
X126970641Y-115976400D01*
X126397152Y-116090474D01*
X125910971Y-116415330D01*
X125730007Y-116686160D01*
X125348490Y-116268179D01*
X124819027Y-116020032D01*
X124587000Y-116140531D01*
X124587000Y-117348000D01*
X124607000Y-117348000D01*
X124607000Y-117602000D01*
X124587000Y-117602000D01*
X124587000Y-118680531D01*
X124587000Y-118809469D01*
X124587000Y-119888000D01*
X124607000Y-119888000D01*
X124607000Y-120142000D01*
X124587000Y-120142000D01*
X124587000Y-120162000D01*
X124333000Y-120162000D01*
X124333000Y-120142000D01*
X124313000Y-120142000D01*
X124313000Y-119888000D01*
X124333000Y-119888000D01*
X124333000Y-118809469D01*
X124333000Y-118680531D01*
X124333000Y-117602000D01*
X124313000Y-117602000D01*
X124313000Y-117348000D01*
X124333000Y-117348000D01*
X124333000Y-116140531D01*
X124100973Y-116020032D01*
X123571510Y-116268179D01*
X123189992Y-116686160D01*
X123009029Y-116415330D01*
X122522848Y-116090474D01*
X121949359Y-115976400D01*
X121890641Y-115976400D01*
X121317152Y-116090474D01*
X120830971Y-116415330D01*
X120506115Y-116901511D01*
X120392041Y-117475000D01*
X120506115Y-118048489D01*
X120830971Y-118534670D01*
X120852023Y-118548736D01*
X120696702Y-118613073D01*
X120518073Y-118791701D01*
X120421400Y-119025090D01*
X120421400Y-119277709D01*
X120421400Y-121004909D01*
X120516706Y-121235000D01*
X108652467Y-121235000D01*
X106422234Y-120791379D01*
X104588729Y-119566270D01*
X103363620Y-117732765D01*
X103261824Y-117221000D01*
X105028309Y-117221000D01*
X105261698Y-117124327D01*
X105440327Y-116945699D01*
X105466141Y-116883377D01*
X106406983Y-117824219D01*
X106695395Y-118016930D01*
X106695396Y-118016930D01*
X107035601Y-118084601D01*
X117324713Y-118084601D01*
X117664918Y-118016930D01*
X117664919Y-118016930D01*
X117953331Y-117824219D01*
X118865618Y-116911932D01*
X119058329Y-116623520D01*
X119058330Y-116623519D01*
X119126000Y-116283314D01*
X119126000Y-116255325D01*
X119326029Y-116121670D01*
X119650885Y-115635489D01*
X119667986Y-115549511D01*
X119845801Y-115727327D01*
X120079190Y-115824000D01*
X120331809Y-115824000D01*
X121728809Y-115824000D01*
X121962198Y-115727327D01*
X122140827Y-115548699D01*
X122237500Y-115315310D01*
X122237500Y-115062691D01*
X122237500Y-114173691D01*
X122140827Y-113940302D01*
X121992525Y-113791999D01*
X122140827Y-113643699D01*
X122237500Y-113410310D01*
X122237500Y-113157691D01*
X122237500Y-112268691D01*
X122140827Y-112035302D01*
X121962199Y-111856673D01*
X121728810Y-111760000D01*
X121476191Y-111760000D01*
X120079191Y-111760000D01*
X119845802Y-111856673D01*
X119667986Y-112034487D01*
X119650885Y-111948511D01*
X119326029Y-111462330D01*
X118839848Y-111137474D01*
X118266359Y-111023400D01*
X118207641Y-111023400D01*
X117634152Y-111137474D01*
X117147971Y-111462330D01*
X116967000Y-111733172D01*
X116786029Y-111462330D01*
X116299848Y-111137474D01*
X115726359Y-111023400D01*
X115667641Y-111023400D01*
X115094152Y-111137474D01*
X114607971Y-111462330D01*
X114493932Y-111633000D01*
X111315500Y-111633000D01*
X111315500Y-109219309D01*
X111315500Y-108934250D01*
X111156750Y-108775500D01*
X110109000Y-108775500D01*
X110109000Y-109569250D01*
X110267750Y-109728000D01*
X110554191Y-109728000D01*
X110806810Y-109728000D01*
X111040199Y-109631327D01*
X111218827Y-109452698D01*
X111315500Y-109219309D01*
X111315500Y-111633000D01*
X109855000Y-111633000D01*
X109855000Y-109569250D01*
X109855000Y-108775500D01*
X108807250Y-108775500D01*
X108648500Y-108934250D01*
X108648500Y-109219309D01*
X108745173Y-109452698D01*
X108923801Y-109631327D01*
X109157190Y-109728000D01*
X109409809Y-109728000D01*
X109696250Y-109728000D01*
X109855000Y-109569250D01*
X109855000Y-111633000D01*
X107099100Y-111633000D01*
X107099100Y-110594719D01*
X107099100Y-108954570D01*
X107099100Y-108383070D01*
X107099100Y-106742921D01*
X107002427Y-106509532D01*
X106823799Y-106330903D01*
X106590410Y-106234230D01*
X106337791Y-106234230D01*
X105949750Y-106234230D01*
X105791000Y-106392980D01*
X105791000Y-108541820D01*
X106940350Y-108541820D01*
X107099100Y-108383070D01*
X107099100Y-108954570D01*
X106940350Y-108795820D01*
X105791000Y-108795820D01*
X105791000Y-110944660D01*
X105949750Y-111103410D01*
X106337791Y-111103410D01*
X106590410Y-111103410D01*
X106823799Y-111006737D01*
X107002427Y-110828108D01*
X107099100Y-110594719D01*
X107099100Y-111633000D01*
X105537000Y-111633000D01*
X105537000Y-110944660D01*
X105537000Y-108795820D01*
X105537000Y-108541820D01*
X105537000Y-106392980D01*
X105378250Y-106234230D01*
X104990209Y-106234230D01*
X104737590Y-106234230D01*
X104504201Y-106330903D01*
X104325573Y-106509532D01*
X104228900Y-106742921D01*
X104228900Y-108383070D01*
X104387650Y-108541820D01*
X105537000Y-108541820D01*
X105537000Y-108795820D01*
X104387650Y-108795820D01*
X104228900Y-108954570D01*
X104228900Y-110594719D01*
X104325573Y-110828108D01*
X104504201Y-111006737D01*
X104737590Y-111103410D01*
X104990209Y-111103410D01*
X105378250Y-111103410D01*
X105537000Y-110944660D01*
X105537000Y-111633000D01*
X104758269Y-111633000D01*
X104517810Y-111472330D01*
X103886000Y-111346655D01*
X103254190Y-111472330D01*
X102920000Y-111695628D01*
X102920000Y-101650000D01*
X104228900Y-101650000D01*
X104228900Y-105093079D01*
X104325573Y-105326468D01*
X104504201Y-105505097D01*
X104737590Y-105601770D01*
X104990209Y-105601770D01*
X106590409Y-105601770D01*
X106823798Y-105505097D01*
X107002427Y-105326469D01*
X107099100Y-105093080D01*
X107099100Y-105061010D01*
X107480332Y-105219313D01*
X107518109Y-105219345D01*
X108019882Y-105721118D01*
X108308294Y-105913829D01*
X108648500Y-105981500D01*
X108727693Y-105981500D01*
X108648500Y-106172690D01*
X108648500Y-106425309D01*
X108648500Y-107314309D01*
X108745173Y-107547698D01*
X108893474Y-107696000D01*
X108745173Y-107844302D01*
X108648500Y-108077691D01*
X108648500Y-108362750D01*
X108807250Y-108521500D01*
X109855000Y-108521500D01*
X109855000Y-108501500D01*
X110109000Y-108501500D01*
X110109000Y-108521500D01*
X111156750Y-108521500D01*
X111315500Y-108362750D01*
X111315500Y-108077691D01*
X111218827Y-107844302D01*
X111070525Y-107695999D01*
X111218827Y-107547699D01*
X111315500Y-107314310D01*
X111315500Y-107061691D01*
X111315500Y-106172691D01*
X111218827Y-105939302D01*
X111197525Y-105918000D01*
X111218827Y-105896699D01*
X111315500Y-105663310D01*
X111315500Y-105524236D01*
X112864900Y-107073636D01*
X112864900Y-110594719D01*
X112961573Y-110828108D01*
X113140201Y-111006737D01*
X113373590Y-111103410D01*
X113626209Y-111103410D01*
X115226409Y-111103410D01*
X115459798Y-111006737D01*
X115638427Y-110828109D01*
X115735100Y-110594720D01*
X115735100Y-110342101D01*
X115735100Y-109557820D01*
X119722900Y-109557820D01*
X119722900Y-110594719D01*
X119819573Y-110828108D01*
X119998201Y-111006737D01*
X120231590Y-111103410D01*
X120484209Y-111103410D01*
X122084409Y-111103410D01*
X122317798Y-111006737D01*
X122496427Y-110828109D01*
X122593100Y-110594720D01*
X122593100Y-110342101D01*
X122593100Y-109557820D01*
X123649078Y-109557820D01*
X125612998Y-109583170D01*
X125675371Y-109676519D01*
X125624302Y-109697673D01*
X125445673Y-109876301D01*
X125349000Y-110109690D01*
X125349000Y-110362309D01*
X125349000Y-112394309D01*
X125445673Y-112627698D01*
X125624301Y-112806327D01*
X125857690Y-112903000D01*
X126110309Y-112903000D01*
X128142309Y-112903000D01*
X128269999Y-112850108D01*
X128397690Y-112903000D01*
X128650309Y-112903000D01*
X130682309Y-112903000D01*
X130915698Y-112806327D01*
X131094327Y-112627699D01*
X131191000Y-112394310D01*
X131191000Y-112141691D01*
X131191000Y-110109691D01*
X131094327Y-109876302D01*
X130915699Y-109697673D01*
X130864628Y-109676518D01*
X131065325Y-109376155D01*
X131191000Y-108744345D01*
X131191000Y-108679655D01*
X131065325Y-108047845D01*
X130707433Y-107512222D01*
X130171810Y-107154330D01*
X129540000Y-107028655D01*
X128908190Y-107154330D01*
X128372567Y-107512222D01*
X128270000Y-107665724D01*
X128167433Y-107512222D01*
X127635000Y-107156461D01*
X127635000Y-101180453D01*
X127805670Y-101066415D01*
X127820500Y-101044219D01*
X127884073Y-101197698D01*
X128062701Y-101376327D01*
X128296090Y-101473000D01*
X128548709Y-101473000D01*
X130275909Y-101473000D01*
X130509298Y-101376327D01*
X130687927Y-101197699D01*
X130784600Y-100964310D01*
X130784600Y-100711691D01*
X130784600Y-98679691D01*
X130731708Y-98552000D01*
X130784600Y-98424310D01*
X130784600Y-98171691D01*
X130784600Y-96139691D01*
X130731708Y-96012000D01*
X130784600Y-95884310D01*
X130784600Y-95631691D01*
X130784600Y-93599691D01*
X130731708Y-93472000D01*
X130784600Y-93344310D01*
X130784600Y-93091691D01*
X130784600Y-91059691D01*
X130731708Y-90932000D01*
X130784600Y-90804310D01*
X130784600Y-90551691D01*
X130784600Y-88519691D01*
X130731708Y-88392000D01*
X130784600Y-88264310D01*
X130784600Y-88011691D01*
X130784600Y-85979691D01*
X130731708Y-85852000D01*
X130784600Y-85724310D01*
X130784600Y-85471691D01*
X130784600Y-83439691D01*
X130731708Y-83312000D01*
X130784600Y-83184310D01*
X130784600Y-82931691D01*
X130784600Y-81753520D01*
X136194000Y-87162920D01*
X136194000Y-99022617D01*
X136152782Y-99063764D01*
X136017154Y-99390391D01*
X136016846Y-99744057D01*
X136151903Y-100070920D01*
X136206886Y-100126000D01*
X136005608Y-100126000D01*
X135882097Y-99827080D01*
X135632236Y-99576782D01*
X135305609Y-99441154D01*
X134951943Y-99440846D01*
X134625080Y-99575903D01*
X134374782Y-99825764D01*
X134332151Y-99928428D01*
X132724080Y-101536500D01*
X132080691Y-101536500D01*
X131847302Y-101633173D01*
X131668673Y-101811801D01*
X131572000Y-102045190D01*
X131572000Y-102297809D01*
X131572000Y-103694809D01*
X131651193Y-103885999D01*
X131572000Y-104077190D01*
X131572000Y-104329809D01*
X131572000Y-105726809D01*
X131651193Y-105917999D01*
X131572000Y-106109190D01*
X131572000Y-106361809D01*
X131572000Y-107758809D01*
X131651193Y-107949999D01*
X131572000Y-108141190D01*
X131572000Y-108393809D01*
X131572000Y-109790809D01*
X131668673Y-110024198D01*
X131847301Y-110202827D01*
X131939500Y-110241017D01*
X131939500Y-112331500D01*
X131993698Y-112603971D01*
X132148040Y-112834960D01*
X133314540Y-114001460D01*
X133545529Y-114155802D01*
X133545530Y-114155802D01*
X133818000Y-114210000D01*
X133967452Y-114210000D01*
X134143690Y-114283000D01*
X134396309Y-114283000D01*
X134835000Y-114283000D01*
X134835000Y-114474309D01*
X134931673Y-114707698D01*
X134953197Y-114729222D01*
X134962198Y-114774471D01*
X135116540Y-115005460D01*
X135422540Y-115311460D01*
X135653529Y-115465802D01*
X135653530Y-115465802D01*
X135926000Y-115520000D01*
X137922000Y-115520000D01*
X138194470Y-115465802D01*
X138194471Y-115465802D01*
X138425460Y-115311460D01*
X138961275Y-114775644D01*
X139192691Y-114871500D01*
X139477750Y-114871500D01*
X139636500Y-114712750D01*
X139636500Y-114078052D01*
X139745801Y-113914472D01*
X139745802Y-113914471D01*
X139799999Y-113642001D01*
X139799999Y-113391000D01*
X139890500Y-113391000D01*
X139890500Y-113411000D01*
X139910500Y-113411000D01*
X139910500Y-113665000D01*
X139890500Y-113665000D01*
X139890500Y-114712750D01*
X140049250Y-114871500D01*
X140334309Y-114871500D01*
X140567698Y-114774827D01*
X140716000Y-114626525D01*
X140864301Y-114774827D01*
X141097690Y-114871500D01*
X141350309Y-114871500D01*
X142239309Y-114871500D01*
X142472698Y-114774827D01*
X142651327Y-114596199D01*
X142694661Y-114491581D01*
X142798000Y-114594920D01*
X142798000Y-116081553D01*
G36*
X186263541Y-74340427D02*
X186164584Y-74299337D01*
X185394793Y-74298665D01*
X184683342Y-74592630D01*
X184138543Y-75136479D01*
X184051957Y-75345000D01*
X182424345Y-75345000D01*
X182339370Y-75139342D01*
X181795521Y-74594543D01*
X181084584Y-74299337D01*
X180314793Y-74298665D01*
X179603342Y-74592630D01*
X179058543Y-75136479D01*
X178763337Y-75847416D01*
X178762665Y-76617207D01*
X179056630Y-77328658D01*
X179600479Y-77873457D01*
X179628277Y-77885000D01*
X176932236Y-77885000D01*
X174112618Y-75065382D01*
X173824206Y-74872671D01*
X173484000Y-74805000D01*
X158887000Y-74805000D01*
X158887000Y-74567691D01*
X158790327Y-74334302D01*
X158611699Y-74155673D01*
X158378310Y-74059000D01*
X158125691Y-74059000D01*
X157125691Y-74059000D01*
X157002000Y-74110234D01*
X156878310Y-74059000D01*
X156625691Y-74059000D01*
X155625691Y-74059000D01*
X155502000Y-74110234D01*
X155378310Y-74059000D01*
X155125691Y-74059000D01*
X154125691Y-74059000D01*
X154002000Y-74110234D01*
X153878310Y-74059000D01*
X153625691Y-74059000D01*
X152625691Y-74059000D01*
X152502000Y-74110234D01*
X152378310Y-74059000D01*
X152125691Y-74059000D01*
X151125691Y-74059000D01*
X151002000Y-74110234D01*
X150878310Y-74059000D01*
X150625691Y-74059000D01*
X149625691Y-74059000D01*
X149502000Y-74110234D01*
X149378310Y-74059000D01*
X149125691Y-74059000D01*
X148125691Y-74059000D01*
X148002000Y-74110234D01*
X147878310Y-74059000D01*
X147625691Y-74059000D01*
X146625691Y-74059000D01*
X146502000Y-74110234D01*
X146378310Y-74059000D01*
X146125691Y-74059000D01*
X145125691Y-74059000D01*
X145002000Y-74110234D01*
X144878310Y-74059000D01*
X144625691Y-74059000D01*
X143625691Y-74059000D01*
X143392302Y-74155673D01*
X143213673Y-74334301D01*
X143117000Y-74567690D01*
X143117000Y-74820309D01*
X143117000Y-75057000D01*
X142621000Y-75057000D01*
X142621000Y-92329000D01*
X143002000Y-92329000D01*
X143117000Y-92329000D01*
X143117000Y-92820309D01*
X143213673Y-93053698D01*
X143344224Y-93184250D01*
X143289173Y-93239302D01*
X143192500Y-93472691D01*
X143192500Y-93757750D01*
X143351250Y-93916500D01*
X144399000Y-93916500D01*
X144399000Y-93896500D01*
X144653000Y-93896500D01*
X144653000Y-93916500D01*
X144673000Y-93916500D01*
X144673000Y-94170500D01*
X144653000Y-94170500D01*
X144653000Y-94190500D01*
X144399000Y-94190500D01*
X144399000Y-94170500D01*
X144094162Y-94170500D01*
X143941609Y-94107154D01*
X143587943Y-94106846D01*
X143433888Y-94170500D01*
X143351250Y-94170500D01*
X143293061Y-94228688D01*
X143261080Y-94241903D01*
X143010782Y-94491764D01*
X142875154Y-94818391D01*
X142874846Y-95172057D01*
X143009903Y-95498920D01*
X143192500Y-95681836D01*
X143192500Y-96519309D01*
X143289173Y-96752698D01*
X143467801Y-96931327D01*
X143701190Y-97028000D01*
X143953809Y-97028000D01*
X145350809Y-97028000D01*
X145584198Y-96931327D01*
X145762827Y-96752699D01*
X145859500Y-96519310D01*
X145859500Y-96291611D01*
X145892673Y-96371698D01*
X146071301Y-96550327D01*
X146304690Y-96647000D01*
X146557309Y-96647000D01*
X148081309Y-96647000D01*
X148314698Y-96550327D01*
X148493327Y-96371699D01*
X148590000Y-96138310D01*
X148590000Y-95885691D01*
X148590000Y-94986920D01*
X149098000Y-94478920D01*
X149098000Y-96138309D01*
X149194673Y-96371698D01*
X149373301Y-96550327D01*
X149606690Y-96647000D01*
X149859309Y-96647000D01*
X151383309Y-96647000D01*
X151576502Y-96566976D01*
X150370041Y-97773437D01*
X150179489Y-97646115D01*
X149606000Y-97532041D01*
X149032511Y-97646115D01*
X148546330Y-97970971D01*
X148221474Y-98457152D01*
X148107400Y-99030641D01*
X148107400Y-99089359D01*
X148221474Y-99662848D01*
X148546330Y-100149029D01*
X148817172Y-100330000D01*
X148546330Y-100510971D01*
X148221474Y-100997152D01*
X148107400Y-101570641D01*
X148107400Y-101629359D01*
X148221474Y-102202848D01*
X148546330Y-102689029D01*
X148817172Y-102870000D01*
X148546330Y-103050971D01*
X148221474Y-103537152D01*
X148107400Y-104110641D01*
X148107400Y-104169359D01*
X148221474Y-104742848D01*
X148546330Y-105229029D01*
X148817172Y-105410000D01*
X148546330Y-105590971D01*
X148221474Y-106077152D01*
X148107400Y-106650641D01*
X148107400Y-106709359D01*
X148221474Y-107282848D01*
X148546330Y-107769029D01*
X148817172Y-107950000D01*
X148546330Y-108130971D01*
X148221474Y-108617152D01*
X148107400Y-109190641D01*
X148107400Y-109249359D01*
X148221474Y-109822848D01*
X148546330Y-110309029D01*
X148817172Y-110490000D01*
X148546330Y-110670971D01*
X148221474Y-111157152D01*
X148107400Y-111730641D01*
X148107400Y-111789359D01*
X148221474Y-112362848D01*
X148546330Y-112849029D01*
X148817172Y-113030000D01*
X148546330Y-113210971D01*
X148221474Y-113697152D01*
X148107400Y-114270641D01*
X148107400Y-114329359D01*
X148221474Y-114902848D01*
X148546330Y-115389029D01*
X149032511Y-115713885D01*
X149606000Y-115827959D01*
X149929461Y-115763618D01*
X149688383Y-116004696D01*
X149257152Y-116090474D01*
X148770971Y-116415330D01*
X148590000Y-116686172D01*
X148409029Y-116415330D01*
X147922848Y-116090474D01*
X147349359Y-115976400D01*
X147290641Y-115976400D01*
X146717152Y-116090474D01*
X146230971Y-116415330D01*
X146050000Y-116686172D01*
X145869029Y-116415330D01*
X145382848Y-116090474D01*
X144809359Y-115976400D01*
X144750641Y-115976400D01*
X144730000Y-115980505D01*
X144730000Y-112522000D01*
X144675802Y-112249530D01*
X144675802Y-112249529D01*
X144521460Y-112018540D01*
X143637103Y-111134183D01*
X143637154Y-111075943D01*
X143502097Y-110749080D01*
X143252236Y-110498782D01*
X142925609Y-110363154D01*
X142721401Y-110362976D01*
X142651327Y-110193802D01*
X142566525Y-110109000D01*
X142651327Y-110024199D01*
X142748000Y-109790810D01*
X142748000Y-109538191D01*
X142748000Y-109251750D01*
X142589250Y-109093000D01*
X141795500Y-109093000D01*
X141795500Y-109113000D01*
X141682000Y-109113000D01*
X141682000Y-108819000D01*
X141795500Y-108819000D01*
X141795500Y-108839000D01*
X142589250Y-108839000D01*
X142748000Y-108680250D01*
X142748000Y-108393809D01*
X142748000Y-108141190D01*
X142651327Y-107907801D01*
X142472698Y-107729173D01*
X142239309Y-107632500D01*
X141954250Y-107632500D01*
X141795502Y-107791248D01*
X141795502Y-107632500D01*
X141669368Y-107632500D01*
X141627802Y-107423530D01*
X141627802Y-107423529D01*
X141516822Y-107257436D01*
X141538000Y-107206310D01*
X141538000Y-106953691D01*
X141538000Y-106740000D01*
X142004309Y-106740000D01*
X142237698Y-106643327D01*
X142416327Y-106464699D01*
X142513000Y-106231310D01*
X142513000Y-105978691D01*
X142513000Y-105731310D01*
X142513000Y-105628691D01*
X142513000Y-105478691D01*
X142513000Y-105231310D01*
X142513000Y-105176250D01*
X142513000Y-105128691D01*
X142430699Y-104930000D01*
X142513000Y-104731310D01*
X142513000Y-104683750D01*
X142513000Y-104628690D01*
X142513000Y-104478691D01*
X142513000Y-104231310D01*
X142513000Y-104128691D01*
X142513000Y-103978691D01*
X142513000Y-103731310D01*
X142513000Y-103628691D01*
X142513000Y-103478691D01*
X142513000Y-103128691D01*
X142416327Y-102895302D01*
X142237699Y-102716673D01*
X142004310Y-102620000D01*
X141751691Y-102620000D01*
X141538000Y-102620000D01*
X141538000Y-102153691D01*
X141441327Y-101920302D01*
X141262699Y-101741673D01*
X141029310Y-101645000D01*
X140776691Y-101645000D01*
X140639486Y-101645000D01*
X140536039Y-101394639D01*
X140360840Y-101219133D01*
X140384057Y-101219154D01*
X140710920Y-101084097D01*
X140961218Y-100834236D01*
X141096846Y-100507609D01*
X141097154Y-100153943D01*
X140962097Y-99827080D01*
X140712236Y-99576782D01*
X140385609Y-99441154D01*
X140031943Y-99440846D01*
X139705080Y-99575903D01*
X139454782Y-99825764D01*
X139330112Y-100126000D01*
X139307608Y-100126000D01*
X139184097Y-99827080D01*
X139142000Y-99784909D01*
X139142000Y-73148446D01*
X139670641Y-73253600D01*
X139729359Y-73253600D01*
X140302848Y-73139526D01*
X140789029Y-72814670D01*
X140970000Y-72543827D01*
X141150971Y-72814670D01*
X141637152Y-73139526D01*
X142210641Y-73253600D01*
X142269359Y-73253600D01*
X142842848Y-73139526D01*
X143329029Y-72814670D01*
X143510000Y-72543827D01*
X143690971Y-72814670D01*
X144177152Y-73139526D01*
X144750641Y-73253600D01*
X144809359Y-73253600D01*
X145382848Y-73139526D01*
X145869029Y-72814670D01*
X146050000Y-72543827D01*
X146230971Y-72814670D01*
X146717152Y-73139526D01*
X147290641Y-73253600D01*
X147349359Y-73253600D01*
X147922848Y-73139526D01*
X148409029Y-72814670D01*
X148590000Y-72543827D01*
X148770971Y-72814670D01*
X149257152Y-73139526D01*
X149830641Y-73253600D01*
X149889359Y-73253600D01*
X150462848Y-73139526D01*
X150949029Y-72814670D01*
X151130000Y-72543827D01*
X151310971Y-72814670D01*
X151797152Y-73139526D01*
X152370641Y-73253600D01*
X152429359Y-73253600D01*
X153002848Y-73139526D01*
X153489029Y-72814670D01*
X153670000Y-72543827D01*
X153850971Y-72814670D01*
X154337152Y-73139526D01*
X154910641Y-73253600D01*
X154969359Y-73253600D01*
X155542848Y-73139526D01*
X156029029Y-72814670D01*
X156210000Y-72543827D01*
X156390971Y-72814670D01*
X156877152Y-73139526D01*
X157450641Y-73253600D01*
X157509359Y-73253600D01*
X158082848Y-73139526D01*
X158569029Y-72814670D01*
X158750000Y-72543827D01*
X158930971Y-72814670D01*
X159417152Y-73139526D01*
X159990641Y-73253600D01*
X160049359Y-73253600D01*
X160622848Y-73139526D01*
X161109029Y-72814670D01*
X161290000Y-72543827D01*
X161470971Y-72814670D01*
X161957152Y-73139526D01*
X162530641Y-73253600D01*
X162589359Y-73253600D01*
X163162848Y-73139526D01*
X163649029Y-72814670D01*
X163830000Y-72543827D01*
X164010971Y-72814670D01*
X164497152Y-73139526D01*
X165070641Y-73253600D01*
X165129359Y-73253600D01*
X165702848Y-73139526D01*
X166189029Y-72814670D01*
X166370000Y-72543827D01*
X166550971Y-72814670D01*
X167037152Y-73139526D01*
X167610641Y-73253600D01*
X167669359Y-73253600D01*
X168242848Y-73139526D01*
X168729029Y-72814670D01*
X168910000Y-72543827D01*
X169090971Y-72814670D01*
X169577152Y-73139526D01*
X170150641Y-73253600D01*
X170209359Y-73253600D01*
X170782848Y-73139526D01*
X171269029Y-72814670D01*
X171450000Y-72543827D01*
X171630971Y-72814670D01*
X172117152Y-73139526D01*
X172690641Y-73253600D01*
X172749359Y-73253600D01*
X173322848Y-73139526D01*
X173809029Y-72814670D01*
X173990000Y-72543827D01*
X174170971Y-72814670D01*
X174657152Y-73139526D01*
X175230641Y-73253600D01*
X175289359Y-73253600D01*
X175862848Y-73139526D01*
X176349029Y-72814670D01*
X176530000Y-72543827D01*
X176710971Y-72814670D01*
X177197152Y-73139526D01*
X177770641Y-73253600D01*
X177829359Y-73253600D01*
X178402848Y-73139526D01*
X178889029Y-72814670D01*
X179213885Y-72328489D01*
X179327959Y-71755000D01*
X179213885Y-71181511D01*
X178889029Y-70695330D01*
X178574248Y-70485000D01*
X178889029Y-70274670D01*
X179213885Y-69788489D01*
X179327959Y-69215000D01*
X179219492Y-68669702D01*
X180487804Y-68921985D01*
X184381397Y-71523600D01*
X186263541Y-74340427D01*
X186263541Y-74340427D01*
G37*
X186263541Y-74340427D02*
X186164584Y-74299337D01*
X185394793Y-74298665D01*
X184683342Y-74592630D01*
X184138543Y-75136479D01*
X184051957Y-75345000D01*
X182424345Y-75345000D01*
X182339370Y-75139342D01*
X181795521Y-74594543D01*
X181084584Y-74299337D01*
X180314793Y-74298665D01*
X179603342Y-74592630D01*
X179058543Y-75136479D01*
X178763337Y-75847416D01*
X178762665Y-76617207D01*
X179056630Y-77328658D01*
X179600479Y-77873457D01*
X179628277Y-77885000D01*
X176932236Y-77885000D01*
X174112618Y-75065382D01*
X173824206Y-74872671D01*
X173484000Y-74805000D01*
X158887000Y-74805000D01*
X158887000Y-74567691D01*
X158790327Y-74334302D01*
X158611699Y-74155673D01*
X158378310Y-74059000D01*
X158125691Y-74059000D01*
X157125691Y-74059000D01*
X157002000Y-74110234D01*
X156878310Y-74059000D01*
X156625691Y-74059000D01*
X155625691Y-74059000D01*
X155502000Y-74110234D01*
X155378310Y-74059000D01*
X155125691Y-74059000D01*
X154125691Y-74059000D01*
X154002000Y-74110234D01*
X153878310Y-74059000D01*
X153625691Y-74059000D01*
X152625691Y-74059000D01*
X152502000Y-74110234D01*
X152378310Y-74059000D01*
X152125691Y-74059000D01*
X151125691Y-74059000D01*
X151002000Y-74110234D01*
X150878310Y-74059000D01*
X150625691Y-74059000D01*
X149625691Y-74059000D01*
X149502000Y-74110234D01*
X149378310Y-74059000D01*
X149125691Y-74059000D01*
X148125691Y-74059000D01*
X148002000Y-74110234D01*
X147878310Y-74059000D01*
X147625691Y-74059000D01*
X146625691Y-74059000D01*
X146502000Y-74110234D01*
X146378310Y-74059000D01*
X146125691Y-74059000D01*
X145125691Y-74059000D01*
X145002000Y-74110234D01*
X144878310Y-74059000D01*
X144625691Y-74059000D01*
X143625691Y-74059000D01*
X143392302Y-74155673D01*
X143213673Y-74334301D01*
X143117000Y-74567690D01*
X143117000Y-74820309D01*
X143117000Y-75057000D01*
X142621000Y-75057000D01*
X142621000Y-92329000D01*
X143002000Y-92329000D01*
X143117000Y-92329000D01*
X143117000Y-92820309D01*
X143213673Y-93053698D01*
X143344224Y-93184250D01*
X143289173Y-93239302D01*
X143192500Y-93472691D01*
X143192500Y-93757750D01*
X143351250Y-93916500D01*
X144399000Y-93916500D01*
X144399000Y-93896500D01*
X144653000Y-93896500D01*
X144653000Y-93916500D01*
X144673000Y-93916500D01*
X144673000Y-94170500D01*
X144653000Y-94170500D01*
X144653000Y-94190500D01*
X144399000Y-94190500D01*
X144399000Y-94170500D01*
X144094162Y-94170500D01*
X143941609Y-94107154D01*
X143587943Y-94106846D01*
X143433888Y-94170500D01*
X143351250Y-94170500D01*
X143293061Y-94228688D01*
X143261080Y-94241903D01*
X143010782Y-94491764D01*
X142875154Y-94818391D01*
X142874846Y-95172057D01*
X143009903Y-95498920D01*
X143192500Y-95681836D01*
X143192500Y-96519309D01*
X143289173Y-96752698D01*
X143467801Y-96931327D01*
X143701190Y-97028000D01*
X143953809Y-97028000D01*
X145350809Y-97028000D01*
X145584198Y-96931327D01*
X145762827Y-96752699D01*
X145859500Y-96519310D01*
X145859500Y-96291611D01*
X145892673Y-96371698D01*
X146071301Y-96550327D01*
X146304690Y-96647000D01*
X146557309Y-96647000D01*
X148081309Y-96647000D01*
X148314698Y-96550327D01*
X148493327Y-96371699D01*
X148590000Y-96138310D01*
X148590000Y-95885691D01*
X148590000Y-94986920D01*
X149098000Y-94478920D01*
X149098000Y-96138309D01*
X149194673Y-96371698D01*
X149373301Y-96550327D01*
X149606690Y-96647000D01*
X149859309Y-96647000D01*
X151383309Y-96647000D01*
X151576502Y-96566976D01*
X150370041Y-97773437D01*
X150179489Y-97646115D01*
X149606000Y-97532041D01*
X149032511Y-97646115D01*
X148546330Y-97970971D01*
X148221474Y-98457152D01*
X148107400Y-99030641D01*
X148107400Y-99089359D01*
X148221474Y-99662848D01*
X148546330Y-100149029D01*
X148817172Y-100330000D01*
X148546330Y-100510971D01*
X148221474Y-100997152D01*
X148107400Y-101570641D01*
X148107400Y-101629359D01*
X148221474Y-102202848D01*
X148546330Y-102689029D01*
X148817172Y-102870000D01*
X148546330Y-103050971D01*
X148221474Y-103537152D01*
X148107400Y-104110641D01*
X148107400Y-104169359D01*
X148221474Y-104742848D01*
X148546330Y-105229029D01*
X148817172Y-105410000D01*
X148546330Y-105590971D01*
X148221474Y-106077152D01*
X148107400Y-106650641D01*
X148107400Y-106709359D01*
X148221474Y-107282848D01*
X148546330Y-107769029D01*
X148817172Y-107950000D01*
X148546330Y-108130971D01*
X148221474Y-108617152D01*
X148107400Y-109190641D01*
X148107400Y-109249359D01*
X148221474Y-109822848D01*
X148546330Y-110309029D01*
X148817172Y-110490000D01*
X148546330Y-110670971D01*
X148221474Y-111157152D01*
X148107400Y-111730641D01*
X148107400Y-111789359D01*
X148221474Y-112362848D01*
X148546330Y-112849029D01*
X148817172Y-113030000D01*
X148546330Y-113210971D01*
X148221474Y-113697152D01*
X148107400Y-114270641D01*
X148107400Y-114329359D01*
X148221474Y-114902848D01*
X148546330Y-115389029D01*
X149032511Y-115713885D01*
X149606000Y-115827959D01*
X149929461Y-115763618D01*
X149688383Y-116004696D01*
X149257152Y-116090474D01*
X148770971Y-116415330D01*
X148590000Y-116686172D01*
X148409029Y-116415330D01*
X147922848Y-116090474D01*
X147349359Y-115976400D01*
X147290641Y-115976400D01*
X146717152Y-116090474D01*
X146230971Y-116415330D01*
X146050000Y-116686172D01*
X145869029Y-116415330D01*
X145382848Y-116090474D01*
X144809359Y-115976400D01*
X144750641Y-115976400D01*
X144730000Y-115980505D01*
X144730000Y-112522000D01*
X144675802Y-112249530D01*
X144675802Y-112249529D01*
X144521460Y-112018540D01*
X143637103Y-111134183D01*
X143637154Y-111075943D01*
X143502097Y-110749080D01*
X143252236Y-110498782D01*
X142925609Y-110363154D01*
X142721401Y-110362976D01*
X142651327Y-110193802D01*
X142566525Y-110109000D01*
X142651327Y-110024199D01*
X142748000Y-109790810D01*
X142748000Y-109538191D01*
X142748000Y-109251750D01*
X142589250Y-109093000D01*
X141795500Y-109093000D01*
X141795500Y-109113000D01*
X141682000Y-109113000D01*
X141682000Y-108819000D01*
X141795500Y-108819000D01*
X141795500Y-108839000D01*
X142589250Y-108839000D01*
X142748000Y-108680250D01*
X142748000Y-108393809D01*
X142748000Y-108141190D01*
X142651327Y-107907801D01*
X142472698Y-107729173D01*
X142239309Y-107632500D01*
X141954250Y-107632500D01*
X141795502Y-107791248D01*
X141795502Y-107632500D01*
X141669368Y-107632500D01*
X141627802Y-107423530D01*
X141627802Y-107423529D01*
X141516822Y-107257436D01*
X141538000Y-107206310D01*
X141538000Y-106953691D01*
X141538000Y-106740000D01*
X142004309Y-106740000D01*
X142237698Y-106643327D01*
X142416327Y-106464699D01*
X142513000Y-106231310D01*
X142513000Y-105978691D01*
X142513000Y-105731310D01*
X142513000Y-105628691D01*
X142513000Y-105478691D01*
X142513000Y-105231310D01*
X142513000Y-105176250D01*
X142513000Y-105128691D01*
X142430699Y-104930000D01*
X142513000Y-104731310D01*
X142513000Y-104683750D01*
X142513000Y-104628690D01*
X142513000Y-104478691D01*
X142513000Y-104231310D01*
X142513000Y-104128691D01*
X142513000Y-103978691D01*
X142513000Y-103731310D01*
X142513000Y-103628691D01*
X142513000Y-103478691D01*
X142513000Y-103128691D01*
X142416327Y-102895302D01*
X142237699Y-102716673D01*
X142004310Y-102620000D01*
X141751691Y-102620000D01*
X141538000Y-102620000D01*
X141538000Y-102153691D01*
X141441327Y-101920302D01*
X141262699Y-101741673D01*
X141029310Y-101645000D01*
X140776691Y-101645000D01*
X140639486Y-101645000D01*
X140536039Y-101394639D01*
X140360840Y-101219133D01*
X140384057Y-101219154D01*
X140710920Y-101084097D01*
X140961218Y-100834236D01*
X141096846Y-100507609D01*
X141097154Y-100153943D01*
X140962097Y-99827080D01*
X140712236Y-99576782D01*
X140385609Y-99441154D01*
X140031943Y-99440846D01*
X139705080Y-99575903D01*
X139454782Y-99825764D01*
X139330112Y-100126000D01*
X139307608Y-100126000D01*
X139184097Y-99827080D01*
X139142000Y-99784909D01*
X139142000Y-73148446D01*
X139670641Y-73253600D01*
X139729359Y-73253600D01*
X140302848Y-73139526D01*
X140789029Y-72814670D01*
X140970000Y-72543827D01*
X141150971Y-72814670D01*
X141637152Y-73139526D01*
X142210641Y-73253600D01*
X142269359Y-73253600D01*
X142842848Y-73139526D01*
X143329029Y-72814670D01*
X143510000Y-72543827D01*
X143690971Y-72814670D01*
X144177152Y-73139526D01*
X144750641Y-73253600D01*
X144809359Y-73253600D01*
X145382848Y-73139526D01*
X145869029Y-72814670D01*
X146050000Y-72543827D01*
X146230971Y-72814670D01*
X146717152Y-73139526D01*
X147290641Y-73253600D01*
X147349359Y-73253600D01*
X147922848Y-73139526D01*
X148409029Y-72814670D01*
X148590000Y-72543827D01*
X148770971Y-72814670D01*
X149257152Y-73139526D01*
X149830641Y-73253600D01*
X149889359Y-73253600D01*
X150462848Y-73139526D01*
X150949029Y-72814670D01*
X151130000Y-72543827D01*
X151310971Y-72814670D01*
X151797152Y-73139526D01*
X152370641Y-73253600D01*
X152429359Y-73253600D01*
X153002848Y-73139526D01*
X153489029Y-72814670D01*
X153670000Y-72543827D01*
X153850971Y-72814670D01*
X154337152Y-73139526D01*
X154910641Y-73253600D01*
X154969359Y-73253600D01*
X155542848Y-73139526D01*
X156029029Y-72814670D01*
X156210000Y-72543827D01*
X156390971Y-72814670D01*
X156877152Y-73139526D01*
X157450641Y-73253600D01*
X157509359Y-73253600D01*
X158082848Y-73139526D01*
X158569029Y-72814670D01*
X158750000Y-72543827D01*
X158930971Y-72814670D01*
X159417152Y-73139526D01*
X159990641Y-73253600D01*
X160049359Y-73253600D01*
X160622848Y-73139526D01*
X161109029Y-72814670D01*
X161290000Y-72543827D01*
X161470971Y-72814670D01*
X161957152Y-73139526D01*
X162530641Y-73253600D01*
X162589359Y-73253600D01*
X163162848Y-73139526D01*
X163649029Y-72814670D01*
X163830000Y-72543827D01*
X164010971Y-72814670D01*
X164497152Y-73139526D01*
X165070641Y-73253600D01*
X165129359Y-73253600D01*
X165702848Y-73139526D01*
X166189029Y-72814670D01*
X166370000Y-72543827D01*
X166550971Y-72814670D01*
X167037152Y-73139526D01*
X167610641Y-73253600D01*
X167669359Y-73253600D01*
X168242848Y-73139526D01*
X168729029Y-72814670D01*
X168910000Y-72543827D01*
X169090971Y-72814670D01*
X169577152Y-73139526D01*
X170150641Y-73253600D01*
X170209359Y-73253600D01*
X170782848Y-73139526D01*
X171269029Y-72814670D01*
X171450000Y-72543827D01*
X171630971Y-72814670D01*
X172117152Y-73139526D01*
X172690641Y-73253600D01*
X172749359Y-73253600D01*
X173322848Y-73139526D01*
X173809029Y-72814670D01*
X173990000Y-72543827D01*
X174170971Y-72814670D01*
X174657152Y-73139526D01*
X175230641Y-73253600D01*
X175289359Y-73253600D01*
X175862848Y-73139526D01*
X176349029Y-72814670D01*
X176530000Y-72543827D01*
X176710971Y-72814670D01*
X177197152Y-73139526D01*
X177770641Y-73253600D01*
X177829359Y-73253600D01*
X178402848Y-73139526D01*
X178889029Y-72814670D01*
X179213885Y-72328489D01*
X179327959Y-71755000D01*
X179213885Y-71181511D01*
X178889029Y-70695330D01*
X178574248Y-70485000D01*
X178889029Y-70274670D01*
X179213885Y-69788489D01*
X179327959Y-69215000D01*
X179219492Y-68669702D01*
X180487804Y-68921985D01*
X184381397Y-71523600D01*
X186263541Y-74340427D01*
G36*
X187910000Y-109152532D02*
X187007500Y-113689705D01*
X187007500Y-94741309D01*
X187007500Y-94456250D01*
X186848750Y-94297500D01*
X185801000Y-94297500D01*
X185801000Y-95091250D01*
X185959750Y-95250000D01*
X186246191Y-95250000D01*
X186498810Y-95250000D01*
X186732199Y-95153327D01*
X186910827Y-94974698D01*
X187007500Y-94741309D01*
X187007500Y-113689705D01*
X186983014Y-113812805D01*
X184381397Y-117706399D01*
X180487804Y-120308014D01*
X179219492Y-120560297D01*
X179327959Y-120015000D01*
X179213885Y-119441511D01*
X178889029Y-118955330D01*
X178689000Y-118821674D01*
X178689000Y-118668325D01*
X178889029Y-118534670D01*
X179213885Y-118048489D01*
X179327959Y-117475000D01*
X179213885Y-116901511D01*
X178889029Y-116415330D01*
X178402848Y-116090474D01*
X177829359Y-115976400D01*
X177770641Y-115976400D01*
X177197152Y-116090474D01*
X176710971Y-116415330D01*
X176596932Y-116586000D01*
X176463067Y-116586000D01*
X176349029Y-116415330D01*
X175862848Y-116090474D01*
X175289359Y-115976400D01*
X175230641Y-115976400D01*
X174657152Y-116090474D01*
X174170971Y-116415330D01*
X173990000Y-116686172D01*
X173809029Y-116415330D01*
X173322848Y-116090474D01*
X172749359Y-115976400D01*
X172690641Y-115976400D01*
X172117152Y-116090474D01*
X171630971Y-116415330D01*
X171450000Y-116686172D01*
X171269029Y-116415330D01*
X170782848Y-116090474D01*
X170209359Y-115976400D01*
X170150641Y-115976400D01*
X169765023Y-116053103D01*
X166492460Y-112780540D01*
X166464874Y-112762107D01*
X166805444Y-112694364D01*
X167136540Y-113025460D01*
X167367529Y-113179802D01*
X167367530Y-113179803D01*
X167640000Y-113234000D01*
X174752000Y-113234000D01*
X175024470Y-113179802D01*
X175024471Y-113179802D01*
X175255460Y-113025460D01*
X175675170Y-112605749D01*
X175805771Y-112693015D01*
X176309000Y-112793113D01*
X176812229Y-112693015D01*
X177238845Y-112407958D01*
X177309000Y-112302964D01*
X177379155Y-112407958D01*
X177805771Y-112693015D01*
X178309000Y-112793113D01*
X178812229Y-112693015D01*
X179238845Y-112407958D01*
X179309000Y-112302964D01*
X179379155Y-112407958D01*
X179805771Y-112693015D01*
X180309000Y-112793113D01*
X180812229Y-112693015D01*
X181238845Y-112407958D01*
X181309000Y-112302964D01*
X181379155Y-112407958D01*
X181805771Y-112693015D01*
X182309000Y-112793113D01*
X182812229Y-112693015D01*
X183101023Y-112500048D01*
X183269301Y-112668327D01*
X183502690Y-112765000D01*
X183755309Y-112765000D01*
X185115309Y-112765000D01*
X185348698Y-112668327D01*
X185527327Y-112489699D01*
X185624000Y-112256310D01*
X185624000Y-112003691D01*
X185624000Y-110403691D01*
X185527327Y-110170302D01*
X185348699Y-109991673D01*
X185115310Y-109895000D01*
X185021000Y-109895000D01*
X185021000Y-108077000D01*
X186409909Y-108077000D01*
X186643298Y-107980327D01*
X186821927Y-107801699D01*
X186918600Y-107568310D01*
X186918600Y-107315691D01*
X186918600Y-105283691D01*
X186821927Y-105050302D01*
X186643299Y-104871673D01*
X186563000Y-104838412D01*
X186563000Y-102742310D01*
X186563000Y-102489691D01*
X186563000Y-100965691D01*
X186466327Y-100732302D01*
X186287699Y-100553673D01*
X186054310Y-100457000D01*
X185801691Y-100457000D01*
X183769691Y-100457000D01*
X183536302Y-100553673D01*
X183357673Y-100732301D01*
X183261000Y-100965690D01*
X183261000Y-101142000D01*
X181677850Y-101142000D01*
X181636704Y-101100782D01*
X181310077Y-100965154D01*
X180956411Y-100964846D01*
X180629548Y-101099903D01*
X180587377Y-101142000D01*
X178943000Y-101142000D01*
X178943000Y-100965691D01*
X178846327Y-100732302D01*
X178667699Y-100553673D01*
X178434310Y-100457000D01*
X178181691Y-100457000D01*
X176149691Y-100457000D01*
X175916302Y-100553673D01*
X175737673Y-100732301D01*
X175641000Y-100965690D01*
X175641000Y-101218309D01*
X175641000Y-102742309D01*
X175737673Y-102975698D01*
X175916301Y-103154327D01*
X176149690Y-103251000D01*
X176402309Y-103251000D01*
X178434309Y-103251000D01*
X178667698Y-103154327D01*
X178846327Y-102975699D01*
X178943000Y-102742310D01*
X178943000Y-102566000D01*
X180587085Y-102566000D01*
X180628232Y-102607218D01*
X180954859Y-102742846D01*
X181308525Y-102743154D01*
X181635388Y-102608097D01*
X181677558Y-102566000D01*
X183261000Y-102566000D01*
X183261000Y-102742309D01*
X183357673Y-102975698D01*
X183536301Y-103154327D01*
X183769690Y-103251000D01*
X184022309Y-103251000D01*
X186054309Y-103251000D01*
X186287698Y-103154327D01*
X186466327Y-102975699D01*
X186563000Y-102742310D01*
X186563000Y-104838412D01*
X186409910Y-104775000D01*
X186157291Y-104775000D01*
X184430091Y-104775000D01*
X184196702Y-104871673D01*
X184018073Y-105050301D01*
X183954499Y-105203779D01*
X183939670Y-105181585D01*
X183453489Y-104856729D01*
X182880000Y-104742655D01*
X182306511Y-104856729D01*
X181820330Y-105181585D01*
X181610000Y-105496365D01*
X181399670Y-105181585D01*
X180913489Y-104856729D01*
X180340000Y-104742655D01*
X179766511Y-104856729D01*
X179280330Y-105181585D01*
X179070000Y-105496365D01*
X178859670Y-105181585D01*
X178373489Y-104856729D01*
X177800000Y-104742655D01*
X177226511Y-104856729D01*
X176740330Y-105181585D01*
X176530000Y-105496365D01*
X176319670Y-105181585D01*
X175833489Y-104856729D01*
X175260000Y-104742655D01*
X174686511Y-104856729D01*
X174388664Y-105055744D01*
X173731460Y-104398540D01*
X173500471Y-104244198D01*
X173228000Y-104190000D01*
X169164000Y-104190000D01*
X168891529Y-104244198D01*
X168660540Y-104398540D01*
X168204198Y-104854881D01*
X167640000Y-104742655D01*
X167075801Y-104854881D01*
X166973460Y-104752540D01*
X165304000Y-103083080D01*
X165304000Y-90295481D01*
X165379155Y-90407958D01*
X165805771Y-90693015D01*
X166309000Y-90793113D01*
X166812229Y-90693015D01*
X167238845Y-90407958D01*
X167309000Y-90302964D01*
X167379155Y-90407958D01*
X167805771Y-90693015D01*
X168309000Y-90793113D01*
X168812229Y-90693015D01*
X169238845Y-90407958D01*
X169309000Y-90302964D01*
X169379155Y-90407958D01*
X169805771Y-90693015D01*
X170309000Y-90793113D01*
X170812229Y-90693015D01*
X171238845Y-90407958D01*
X171309000Y-90302964D01*
X171379155Y-90407958D01*
X171805771Y-90693015D01*
X172309000Y-90793113D01*
X172812229Y-90693015D01*
X173238845Y-90407958D01*
X173309000Y-90302964D01*
X173379155Y-90407958D01*
X173805771Y-90693015D01*
X174309000Y-90793113D01*
X174812229Y-90693015D01*
X175238845Y-90407958D01*
X175309000Y-90302964D01*
X175379155Y-90407958D01*
X175805771Y-90693015D01*
X176309000Y-90793113D01*
X176580000Y-90739208D01*
X176580000Y-96647000D01*
X176149691Y-96647000D01*
X175916302Y-96743673D01*
X175737673Y-96922301D01*
X175641000Y-97155690D01*
X175641000Y-97408309D01*
X175641000Y-98932309D01*
X175737673Y-99165698D01*
X175916301Y-99344327D01*
X176149690Y-99441000D01*
X176402309Y-99441000D01*
X178434309Y-99441000D01*
X178667698Y-99344327D01*
X178846327Y-99165699D01*
X178943000Y-98932310D01*
X178943000Y-98756000D01*
X183261000Y-98756000D01*
X183261000Y-98932309D01*
X183357673Y-99165698D01*
X183536301Y-99344327D01*
X183769690Y-99441000D01*
X184022309Y-99441000D01*
X186054309Y-99441000D01*
X186287698Y-99344327D01*
X186466327Y-99165699D01*
X186563000Y-98932310D01*
X186563000Y-98679691D01*
X186563000Y-97155691D01*
X186466327Y-96922302D01*
X186287699Y-96743673D01*
X186054310Y-96647000D01*
X185801691Y-96647000D01*
X185116000Y-96647000D01*
X185116000Y-95250000D01*
X185388250Y-95250000D01*
X185547000Y-95091250D01*
X185547000Y-94297500D01*
X185527000Y-94297500D01*
X185527000Y-94043500D01*
X185547000Y-94043500D01*
X185547000Y-94023500D01*
X185801000Y-94023500D01*
X185801000Y-94043500D01*
X186848750Y-94043500D01*
X187007500Y-93884750D01*
X187007500Y-93599691D01*
X186910827Y-93366302D01*
X186762525Y-93217999D01*
X186910827Y-93069699D01*
X187007500Y-92836310D01*
X187007500Y-92583691D01*
X187007500Y-91694691D01*
X186910827Y-91461302D01*
X186732199Y-91282673D01*
X186498810Y-91186000D01*
X186246191Y-91186000D01*
X185624000Y-91186000D01*
X185624000Y-90256310D01*
X185624000Y-90003691D01*
X185624000Y-89615750D01*
X185624000Y-89044250D01*
X185624000Y-88656309D01*
X185624000Y-88403690D01*
X185527327Y-88170301D01*
X185348698Y-87991673D01*
X185115309Y-87895000D01*
X184594750Y-87895000D01*
X184436000Y-88053750D01*
X184436000Y-89203000D01*
X185465250Y-89203000D01*
X185624000Y-89044250D01*
X185624000Y-89615750D01*
X185465250Y-89457000D01*
X184436000Y-89457000D01*
X184436000Y-90606250D01*
X184594750Y-90765000D01*
X185115309Y-90765000D01*
X185348698Y-90668327D01*
X185527327Y-90489699D01*
X185624000Y-90256310D01*
X185624000Y-91186000D01*
X184849191Y-91186000D01*
X184615802Y-91282673D01*
X184437173Y-91461301D01*
X184340500Y-91694690D01*
X184340500Y-91947309D01*
X184340500Y-92274580D01*
X183900540Y-92714540D01*
X183746198Y-92945529D01*
X183692000Y-93218000D01*
X183692000Y-96679180D01*
X183536302Y-96743673D01*
X183357673Y-96922301D01*
X183261000Y-97155690D01*
X183261000Y-97332000D01*
X178943000Y-97332000D01*
X178943000Y-97155691D01*
X178846327Y-96922302D01*
X178667699Y-96743673D01*
X178434310Y-96647000D01*
X178181691Y-96647000D01*
X178004000Y-96647000D01*
X178004000Y-94773900D01*
X178087173Y-94974698D01*
X178265801Y-95153327D01*
X178499190Y-95250000D01*
X178751809Y-95250000D01*
X180148809Y-95250000D01*
X180382198Y-95153327D01*
X180466999Y-95068525D01*
X180551801Y-95153327D01*
X180785190Y-95250000D01*
X181037809Y-95250000D01*
X182434809Y-95250000D01*
X182668198Y-95153327D01*
X182846827Y-94974699D01*
X182943500Y-94741310D01*
X182943500Y-94488691D01*
X182943500Y-94097920D01*
X183383460Y-93657960D01*
X183537802Y-93426971D01*
X183537802Y-93426970D01*
X183592000Y-93154500D01*
X183592000Y-90765000D01*
X184023250Y-90765000D01*
X184182000Y-90606250D01*
X184182000Y-89457000D01*
X184162000Y-89457000D01*
X184162000Y-89203000D01*
X184182000Y-89203000D01*
X184182000Y-88053750D01*
X184023250Y-87895000D01*
X183502691Y-87895000D01*
X183269302Y-87991673D01*
X183101022Y-88159951D01*
X182812229Y-87966985D01*
X182309000Y-87866887D01*
X181805771Y-87966985D01*
X181379155Y-88252042D01*
X181309000Y-88357035D01*
X181238845Y-88252042D01*
X180812229Y-87966985D01*
X180309000Y-87866887D01*
X179805771Y-87966985D01*
X179379155Y-88252042D01*
X179309000Y-88357035D01*
X179238845Y-88252042D01*
X178812229Y-87966985D01*
X178309000Y-87866887D01*
X177805771Y-87966985D01*
X177379155Y-88252042D01*
X177309000Y-88357035D01*
X177238845Y-88252042D01*
X176812229Y-87966985D01*
X176309000Y-87866887D01*
X175805771Y-87966985D01*
X175379155Y-88252042D01*
X175309000Y-88357035D01*
X175238845Y-88252042D01*
X174812229Y-87966985D01*
X174309000Y-87866887D01*
X173805771Y-87966985D01*
X173379155Y-88252042D01*
X173309000Y-88357035D01*
X173238845Y-88252042D01*
X172812229Y-87966985D01*
X172309000Y-87866887D01*
X171805771Y-87966985D01*
X171379155Y-88252042D01*
X171309000Y-88357035D01*
X171238845Y-88252042D01*
X170812229Y-87966985D01*
X170309000Y-87866887D01*
X169805771Y-87966985D01*
X169379155Y-88252042D01*
X169309000Y-88357035D01*
X169238845Y-88252042D01*
X168812229Y-87966985D01*
X168309000Y-87866887D01*
X167805771Y-87966985D01*
X167379155Y-88252042D01*
X167309000Y-88357035D01*
X167238845Y-88252042D01*
X166812229Y-87966985D01*
X166309000Y-87866887D01*
X165805771Y-87966985D01*
X165379155Y-88252042D01*
X165304000Y-88364518D01*
X165304000Y-87921382D01*
X165345218Y-87880236D01*
X165480846Y-87553609D01*
X165481154Y-87199943D01*
X165346097Y-86873080D01*
X165096236Y-86622782D01*
X164769609Y-86487154D01*
X164415943Y-86486846D01*
X164089080Y-86621903D01*
X164084210Y-86626763D01*
X164080236Y-86622782D01*
X163753609Y-86487154D01*
X163399943Y-86486846D01*
X163073080Y-86621903D01*
X162822782Y-86871764D01*
X162687154Y-87198391D01*
X162686846Y-87552057D01*
X162821903Y-87878920D01*
X162864000Y-87921090D01*
X162864000Y-104749600D01*
X162918198Y-105022071D01*
X163072540Y-105253060D01*
X163677608Y-105858128D01*
X163601400Y-106241255D01*
X163601400Y-106610745D01*
X163715474Y-107184234D01*
X164040330Y-107670415D01*
X164526511Y-107995271D01*
X165100000Y-108109345D01*
X165664198Y-107997118D01*
X167597000Y-109929920D01*
X167597000Y-110106481D01*
X167379155Y-110252042D01*
X167309000Y-110357035D01*
X167238845Y-110252042D01*
X166812229Y-109966985D01*
X166309000Y-109866887D01*
X165805771Y-109966985D01*
X165379155Y-110252042D01*
X165094098Y-110678658D01*
X164994000Y-111181887D01*
X164994000Y-111478113D01*
X165094098Y-111981342D01*
X165379155Y-112407958D01*
X165624660Y-112572000D01*
X163362920Y-112572000D01*
X162256000Y-111465080D01*
X162256000Y-102398500D01*
X162201802Y-102126030D01*
X162201802Y-102126029D01*
X162047460Y-101895040D01*
X159736919Y-99584499D01*
X159757218Y-99564236D01*
X159892846Y-99237609D01*
X159893154Y-98883943D01*
X159758097Y-98557080D01*
X159508236Y-98306782D01*
X159448500Y-98281977D01*
X159448500Y-97854191D01*
X159385000Y-97700888D01*
X159351827Y-97620802D01*
X159173199Y-97442173D01*
X158939810Y-97345500D01*
X158687191Y-97345500D01*
X157544191Y-97345500D01*
X157353000Y-97424693D01*
X157161810Y-97345500D01*
X156909191Y-97345500D01*
X155766191Y-97345500D01*
X155575000Y-97424693D01*
X155383810Y-97345500D01*
X155131191Y-97345500D01*
X154803920Y-97345500D01*
X155121420Y-97028000D01*
X156272809Y-97028000D01*
X156506198Y-96931327D01*
X156590999Y-96846525D01*
X156675801Y-96931327D01*
X156909190Y-97028000D01*
X157161809Y-97028000D01*
X158558809Y-97028000D01*
X158792198Y-96931327D01*
X158970827Y-96752699D01*
X159067500Y-96519310D01*
X159067500Y-96266691D01*
X159067500Y-95377691D01*
X158970827Y-95144302D01*
X158822525Y-94995999D01*
X158970827Y-94847699D01*
X159067500Y-94614310D01*
X159067500Y-94361691D01*
X159067500Y-93472691D01*
X158970827Y-93239302D01*
X158792199Y-93060673D01*
X158785943Y-93058082D01*
X158790327Y-93053699D01*
X158887000Y-92820310D01*
X158887000Y-92567691D01*
X158887000Y-92329000D01*
X159385000Y-92329000D01*
X159385000Y-76583000D01*
X173115764Y-76583000D01*
X175935382Y-79402618D01*
X176223794Y-79595329D01*
X176223795Y-79595329D01*
X176564000Y-79663000D01*
X179626648Y-79663000D01*
X179603342Y-79672630D01*
X179058543Y-80216479D01*
X178763337Y-80927416D01*
X178762665Y-81697207D01*
X179056630Y-82408658D01*
X179600479Y-82953457D01*
X180311416Y-83248663D01*
X181081207Y-83249335D01*
X181792658Y-82955370D01*
X182337457Y-82411521D01*
X182424042Y-82203000D01*
X184051654Y-82203000D01*
X184136630Y-82408658D01*
X184680479Y-82953457D01*
X185391416Y-83248663D01*
X186161207Y-83249335D01*
X186872658Y-82955370D01*
X187417457Y-82411521D01*
X187712663Y-81700584D01*
X187713335Y-80930793D01*
X187419370Y-80219342D01*
X186875521Y-79674543D01*
X186667000Y-79587957D01*
X186667000Y-77960345D01*
X186872658Y-77875370D01*
X187372687Y-77376212D01*
X187910000Y-80077467D01*
X187910000Y-109152532D01*
X187910000Y-109152532D01*
G37*
X187910000Y-109152532D02*
X187007500Y-113689705D01*
X187007500Y-94741309D01*
X187007500Y-94456250D01*
X186848750Y-94297500D01*
X185801000Y-94297500D01*
X185801000Y-95091250D01*
X185959750Y-95250000D01*
X186246191Y-95250000D01*
X186498810Y-95250000D01*
X186732199Y-95153327D01*
X186910827Y-94974698D01*
X187007500Y-94741309D01*
X187007500Y-113689705D01*
X186983014Y-113812805D01*
X184381397Y-117706399D01*
X180487804Y-120308014D01*
X179219492Y-120560297D01*
X179327959Y-120015000D01*
X179213885Y-119441511D01*
X178889029Y-118955330D01*
X178689000Y-118821674D01*
X178689000Y-118668325D01*
X178889029Y-118534670D01*
X179213885Y-118048489D01*
X179327959Y-117475000D01*
X179213885Y-116901511D01*
X178889029Y-116415330D01*
X178402848Y-116090474D01*
X177829359Y-115976400D01*
X177770641Y-115976400D01*
X177197152Y-116090474D01*
X176710971Y-116415330D01*
X176596932Y-116586000D01*
X176463067Y-116586000D01*
X176349029Y-116415330D01*
X175862848Y-116090474D01*
X175289359Y-115976400D01*
X175230641Y-115976400D01*
X174657152Y-116090474D01*
X174170971Y-116415330D01*
X173990000Y-116686172D01*
X173809029Y-116415330D01*
X173322848Y-116090474D01*
X172749359Y-115976400D01*
X172690641Y-115976400D01*
X172117152Y-116090474D01*
X171630971Y-116415330D01*
X171450000Y-116686172D01*
X171269029Y-116415330D01*
X170782848Y-116090474D01*
X170209359Y-115976400D01*
X170150641Y-115976400D01*
X169765023Y-116053103D01*
X166492460Y-112780540D01*
X166464874Y-112762107D01*
X166805444Y-112694364D01*
X167136540Y-113025460D01*
X167367529Y-113179802D01*
X167367530Y-113179803D01*
X167640000Y-113234000D01*
X174752000Y-113234000D01*
X175024470Y-113179802D01*
X175024471Y-113179802D01*
X175255460Y-113025460D01*
X175675170Y-112605749D01*
X175805771Y-112693015D01*
X176309000Y-112793113D01*
X176812229Y-112693015D01*
X177238845Y-112407958D01*
X177309000Y-112302964D01*
X177379155Y-112407958D01*
X177805771Y-112693015D01*
X178309000Y-112793113D01*
X178812229Y-112693015D01*
X179238845Y-112407958D01*
X179309000Y-112302964D01*
X179379155Y-112407958D01*
X179805771Y-112693015D01*
X180309000Y-112793113D01*
X180812229Y-112693015D01*
X181238845Y-112407958D01*
X181309000Y-112302964D01*
X181379155Y-112407958D01*
X181805771Y-112693015D01*
X182309000Y-112793113D01*
X182812229Y-112693015D01*
X183101023Y-112500048D01*
X183269301Y-112668327D01*
X183502690Y-112765000D01*
X183755309Y-112765000D01*
X185115309Y-112765000D01*
X185348698Y-112668327D01*
X185527327Y-112489699D01*
X185624000Y-112256310D01*
X185624000Y-112003691D01*
X185624000Y-110403691D01*
X185527327Y-110170302D01*
X185348699Y-109991673D01*
X185115310Y-109895000D01*
X185021000Y-109895000D01*
X185021000Y-108077000D01*
X186409909Y-108077000D01*
X186643298Y-107980327D01*
X186821927Y-107801699D01*
X186918600Y-107568310D01*
X186918600Y-107315691D01*
X186918600Y-105283691D01*
X186821927Y-105050302D01*
X186643299Y-104871673D01*
X186563000Y-104838412D01*
X186563000Y-102742310D01*
X186563000Y-102489691D01*
X186563000Y-100965691D01*
X186466327Y-100732302D01*
X186287699Y-100553673D01*
X186054310Y-100457000D01*
X185801691Y-100457000D01*
X183769691Y-100457000D01*
X183536302Y-100553673D01*
X183357673Y-100732301D01*
X183261000Y-100965690D01*
X183261000Y-101142000D01*
X181677850Y-101142000D01*
X181636704Y-101100782D01*
X181310077Y-100965154D01*
X180956411Y-100964846D01*
X180629548Y-101099903D01*
X180587377Y-101142000D01*
X178943000Y-101142000D01*
X178943000Y-100965691D01*
X178846327Y-100732302D01*
X178667699Y-100553673D01*
X178434310Y-100457000D01*
X178181691Y-100457000D01*
X176149691Y-100457000D01*
X175916302Y-100553673D01*
X175737673Y-100732301D01*
X175641000Y-100965690D01*
X175641000Y-101218309D01*
X175641000Y-102742309D01*
X175737673Y-102975698D01*
X175916301Y-103154327D01*
X176149690Y-103251000D01*
X176402309Y-103251000D01*
X178434309Y-103251000D01*
X178667698Y-103154327D01*
X178846327Y-102975699D01*
X178943000Y-102742310D01*
X178943000Y-102566000D01*
X180587085Y-102566000D01*
X180628232Y-102607218D01*
X180954859Y-102742846D01*
X181308525Y-102743154D01*
X181635388Y-102608097D01*
X181677558Y-102566000D01*
X183261000Y-102566000D01*
X183261000Y-102742309D01*
X183357673Y-102975698D01*
X183536301Y-103154327D01*
X183769690Y-103251000D01*
X184022309Y-103251000D01*
X186054309Y-103251000D01*
X186287698Y-103154327D01*
X186466327Y-102975699D01*
X186563000Y-102742310D01*
X186563000Y-104838412D01*
X186409910Y-104775000D01*
X186157291Y-104775000D01*
X184430091Y-104775000D01*
X184196702Y-104871673D01*
X184018073Y-105050301D01*
X183954499Y-105203779D01*
X183939670Y-105181585D01*
X183453489Y-104856729D01*
X182880000Y-104742655D01*
X182306511Y-104856729D01*
X181820330Y-105181585D01*
X181610000Y-105496365D01*
X181399670Y-105181585D01*
X180913489Y-104856729D01*
X180340000Y-104742655D01*
X179766511Y-104856729D01*
X179280330Y-105181585D01*
X179070000Y-105496365D01*
X178859670Y-105181585D01*
X178373489Y-104856729D01*
X177800000Y-104742655D01*
X177226511Y-104856729D01*
X176740330Y-105181585D01*
X176530000Y-105496365D01*
X176319670Y-105181585D01*
X175833489Y-104856729D01*
X175260000Y-104742655D01*
X174686511Y-104856729D01*
X174388664Y-105055744D01*
X173731460Y-104398540D01*
X173500471Y-104244198D01*
X173228000Y-104190000D01*
X169164000Y-104190000D01*
X168891529Y-104244198D01*
X168660540Y-104398540D01*
X168204198Y-104854881D01*
X167640000Y-104742655D01*
X167075801Y-104854881D01*
X166973460Y-104752540D01*
X165304000Y-103083080D01*
X165304000Y-90295481D01*
X165379155Y-90407958D01*
X165805771Y-90693015D01*
X166309000Y-90793113D01*
X166812229Y-90693015D01*
X167238845Y-90407958D01*
X167309000Y-90302964D01*
X167379155Y-90407958D01*
X167805771Y-90693015D01*
X168309000Y-90793113D01*
X168812229Y-90693015D01*
X169238845Y-90407958D01*
X169309000Y-90302964D01*
X169379155Y-90407958D01*
X169805771Y-90693015D01*
X170309000Y-90793113D01*
X170812229Y-90693015D01*
X171238845Y-90407958D01*
X171309000Y-90302964D01*
X171379155Y-90407958D01*
X171805771Y-90693015D01*
X172309000Y-90793113D01*
X172812229Y-90693015D01*
X173238845Y-90407958D01*
X173309000Y-90302964D01*
X173379155Y-90407958D01*
X173805771Y-90693015D01*
X174309000Y-90793113D01*
X174812229Y-90693015D01*
X175238845Y-90407958D01*
X175309000Y-90302964D01*
X175379155Y-90407958D01*
X175805771Y-90693015D01*
X176309000Y-90793113D01*
X176580000Y-90739208D01*
X176580000Y-96647000D01*
X176149691Y-96647000D01*
X175916302Y-96743673D01*
X175737673Y-96922301D01*
X175641000Y-97155690D01*
X175641000Y-97408309D01*
X175641000Y-98932309D01*
X175737673Y-99165698D01*
X175916301Y-99344327D01*
X176149690Y-99441000D01*
X176402309Y-99441000D01*
X178434309Y-99441000D01*
X178667698Y-99344327D01*
X178846327Y-99165699D01*
X178943000Y-98932310D01*
X178943000Y-98756000D01*
X183261000Y-98756000D01*
X183261000Y-98932309D01*
X183357673Y-99165698D01*
X183536301Y-99344327D01*
X183769690Y-99441000D01*
X184022309Y-99441000D01*
X186054309Y-99441000D01*
X186287698Y-99344327D01*
X186466327Y-99165699D01*
X186563000Y-98932310D01*
X186563000Y-98679691D01*
X186563000Y-97155691D01*
X186466327Y-96922302D01*
X186287699Y-96743673D01*
X186054310Y-96647000D01*
X185801691Y-96647000D01*
X185116000Y-96647000D01*
X185116000Y-95250000D01*
X185388250Y-95250000D01*
X185547000Y-95091250D01*
X185547000Y-94297500D01*
X185527000Y-94297500D01*
X185527000Y-94043500D01*
X185547000Y-94043500D01*
X185547000Y-94023500D01*
X185801000Y-94023500D01*
X185801000Y-94043500D01*
X186848750Y-94043500D01*
X187007500Y-93884750D01*
X187007500Y-93599691D01*
X186910827Y-93366302D01*
X186762525Y-93217999D01*
X186910827Y-93069699D01*
X187007500Y-92836310D01*
X187007500Y-92583691D01*
X187007500Y-91694691D01*
X186910827Y-91461302D01*
X186732199Y-91282673D01*
X186498810Y-91186000D01*
X186246191Y-91186000D01*
X185624000Y-91186000D01*
X185624000Y-90256310D01*
X185624000Y-90003691D01*
X185624000Y-89615750D01*
X185624000Y-89044250D01*
X185624000Y-88656309D01*
X185624000Y-88403690D01*
X185527327Y-88170301D01*
X185348698Y-87991673D01*
X185115309Y-87895000D01*
X184594750Y-87895000D01*
X184436000Y-88053750D01*
X184436000Y-89203000D01*
X185465250Y-89203000D01*
X185624000Y-89044250D01*
X185624000Y-89615750D01*
X185465250Y-89457000D01*
X184436000Y-89457000D01*
X184436000Y-90606250D01*
X184594750Y-90765000D01*
X185115309Y-90765000D01*
X185348698Y-90668327D01*
X185527327Y-90489699D01*
X185624000Y-90256310D01*
X185624000Y-91186000D01*
X184849191Y-91186000D01*
X184615802Y-91282673D01*
X184437173Y-91461301D01*
X184340500Y-91694690D01*
X184340500Y-91947309D01*
X184340500Y-92274580D01*
X183900540Y-92714540D01*
X183746198Y-92945529D01*
X183692000Y-93218000D01*
X183692000Y-96679180D01*
X183536302Y-96743673D01*
X183357673Y-96922301D01*
X183261000Y-97155690D01*
X183261000Y-97332000D01*
X178943000Y-97332000D01*
X178943000Y-97155691D01*
X178846327Y-96922302D01*
X178667699Y-96743673D01*
X178434310Y-96647000D01*
X178181691Y-96647000D01*
X178004000Y-96647000D01*
X178004000Y-94773900D01*
X178087173Y-94974698D01*
X178265801Y-95153327D01*
X178499190Y-95250000D01*
X178751809Y-95250000D01*
X180148809Y-95250000D01*
X180382198Y-95153327D01*
X180466999Y-95068525D01*
X180551801Y-95153327D01*
X180785190Y-95250000D01*
X181037809Y-95250000D01*
X182434809Y-95250000D01*
X182668198Y-95153327D01*
X182846827Y-94974699D01*
X182943500Y-94741310D01*
X182943500Y-94488691D01*
X182943500Y-94097920D01*
X183383460Y-93657960D01*
X183537802Y-93426971D01*
X183537802Y-93426970D01*
X183592000Y-93154500D01*
X183592000Y-90765000D01*
X184023250Y-90765000D01*
X184182000Y-90606250D01*
X184182000Y-89457000D01*
X184162000Y-89457000D01*
X184162000Y-89203000D01*
X184182000Y-89203000D01*
X184182000Y-88053750D01*
X184023250Y-87895000D01*
X183502691Y-87895000D01*
X183269302Y-87991673D01*
X183101022Y-88159951D01*
X182812229Y-87966985D01*
X182309000Y-87866887D01*
X181805771Y-87966985D01*
X181379155Y-88252042D01*
X181309000Y-88357035D01*
X181238845Y-88252042D01*
X180812229Y-87966985D01*
X180309000Y-87866887D01*
X179805771Y-87966985D01*
X179379155Y-88252042D01*
X179309000Y-88357035D01*
X179238845Y-88252042D01*
X178812229Y-87966985D01*
X178309000Y-87866887D01*
X177805771Y-87966985D01*
X177379155Y-88252042D01*
X177309000Y-88357035D01*
X177238845Y-88252042D01*
X176812229Y-87966985D01*
X176309000Y-87866887D01*
X175805771Y-87966985D01*
X175379155Y-88252042D01*
X175309000Y-88357035D01*
X175238845Y-88252042D01*
X174812229Y-87966985D01*
X174309000Y-87866887D01*
X173805771Y-87966985D01*
X173379155Y-88252042D01*
X173309000Y-88357035D01*
X173238845Y-88252042D01*
X172812229Y-87966985D01*
X172309000Y-87866887D01*
X171805771Y-87966985D01*
X171379155Y-88252042D01*
X171309000Y-88357035D01*
X171238845Y-88252042D01*
X170812229Y-87966985D01*
X170309000Y-87866887D01*
X169805771Y-87966985D01*
X169379155Y-88252042D01*
X169309000Y-88357035D01*
X169238845Y-88252042D01*
X168812229Y-87966985D01*
X168309000Y-87866887D01*
X167805771Y-87966985D01*
X167379155Y-88252042D01*
X167309000Y-88357035D01*
X167238845Y-88252042D01*
X166812229Y-87966985D01*
X166309000Y-87866887D01*
X165805771Y-87966985D01*
X165379155Y-88252042D01*
X165304000Y-88364518D01*
X165304000Y-87921382D01*
X165345218Y-87880236D01*
X165480846Y-87553609D01*
X165481154Y-87199943D01*
X165346097Y-86873080D01*
X165096236Y-86622782D01*
X164769609Y-86487154D01*
X164415943Y-86486846D01*
X164089080Y-86621903D01*
X164084210Y-86626763D01*
X164080236Y-86622782D01*
X163753609Y-86487154D01*
X163399943Y-86486846D01*
X163073080Y-86621903D01*
X162822782Y-86871764D01*
X162687154Y-87198391D01*
X162686846Y-87552057D01*
X162821903Y-87878920D01*
X162864000Y-87921090D01*
X162864000Y-104749600D01*
X162918198Y-105022071D01*
X163072540Y-105253060D01*
X163677608Y-105858128D01*
X163601400Y-106241255D01*
X163601400Y-106610745D01*
X163715474Y-107184234D01*
X164040330Y-107670415D01*
X164526511Y-107995271D01*
X165100000Y-108109345D01*
X165664198Y-107997118D01*
X167597000Y-109929920D01*
X167597000Y-110106481D01*
X167379155Y-110252042D01*
X167309000Y-110357035D01*
X167238845Y-110252042D01*
X166812229Y-109966985D01*
X166309000Y-109866887D01*
X165805771Y-109966985D01*
X165379155Y-110252042D01*
X165094098Y-110678658D01*
X164994000Y-111181887D01*
X164994000Y-111478113D01*
X165094098Y-111981342D01*
X165379155Y-112407958D01*
X165624660Y-112572000D01*
X163362920Y-112572000D01*
X162256000Y-111465080D01*
X162256000Y-102398500D01*
X162201802Y-102126030D01*
X162201802Y-102126029D01*
X162047460Y-101895040D01*
X159736919Y-99584499D01*
X159757218Y-99564236D01*
X159892846Y-99237609D01*
X159893154Y-98883943D01*
X159758097Y-98557080D01*
X159508236Y-98306782D01*
X159448500Y-98281977D01*
X159448500Y-97854191D01*
X159385000Y-97700888D01*
X159351827Y-97620802D01*
X159173199Y-97442173D01*
X158939810Y-97345500D01*
X158687191Y-97345500D01*
X157544191Y-97345500D01*
X157353000Y-97424693D01*
X157161810Y-97345500D01*
X156909191Y-97345500D01*
X155766191Y-97345500D01*
X155575000Y-97424693D01*
X155383810Y-97345500D01*
X155131191Y-97345500D01*
X154803920Y-97345500D01*
X155121420Y-97028000D01*
X156272809Y-97028000D01*
X156506198Y-96931327D01*
X156590999Y-96846525D01*
X156675801Y-96931327D01*
X156909190Y-97028000D01*
X157161809Y-97028000D01*
X158558809Y-97028000D01*
X158792198Y-96931327D01*
X158970827Y-96752699D01*
X159067500Y-96519310D01*
X159067500Y-96266691D01*
X159067500Y-95377691D01*
X158970827Y-95144302D01*
X158822525Y-94995999D01*
X158970827Y-94847699D01*
X159067500Y-94614310D01*
X159067500Y-94361691D01*
X159067500Y-93472691D01*
X158970827Y-93239302D01*
X158792199Y-93060673D01*
X158785943Y-93058082D01*
X158790327Y-93053699D01*
X158887000Y-92820310D01*
X158887000Y-92567691D01*
X158887000Y-92329000D01*
X159385000Y-92329000D01*
X159385000Y-76583000D01*
X173115764Y-76583000D01*
X175935382Y-79402618D01*
X176223794Y-79595329D01*
X176223795Y-79595329D01*
X176564000Y-79663000D01*
X179626648Y-79663000D01*
X179603342Y-79672630D01*
X179058543Y-80216479D01*
X178763337Y-80927416D01*
X178762665Y-81697207D01*
X179056630Y-82408658D01*
X179600479Y-82953457D01*
X180311416Y-83248663D01*
X181081207Y-83249335D01*
X181792658Y-82955370D01*
X182337457Y-82411521D01*
X182424042Y-82203000D01*
X184051654Y-82203000D01*
X184136630Y-82408658D01*
X184680479Y-82953457D01*
X185391416Y-83248663D01*
X186161207Y-83249335D01*
X186872658Y-82955370D01*
X187417457Y-82411521D01*
X187712663Y-81700584D01*
X187713335Y-80930793D01*
X187419370Y-80219342D01*
X186875521Y-79674543D01*
X186667000Y-79587957D01*
X186667000Y-77960345D01*
X186872658Y-77875370D01*
X187372687Y-77376212D01*
X187910000Y-80077467D01*
X187910000Y-109152532D01*
M02*
