M48
METRIC,TZ
T1C0.204
T2C0.508
T3C0.635
T4C1.016
T5C1.500
T6C1.600
%
G90
G05
T1
X114046Y-80010
X119634Y-80010
X128016Y-74676
X128016Y-78740
X132080Y-74676
X132080Y-78740
X134112Y-103886
X134112Y-110744
X135128Y-99568
X135128Y-100330
X135155Y-110775
X136144Y-113284
X136906Y-99568
X137160Y-107696
X137160Y-109497
X137160Y-110744
X137668Y-99568
X137668Y-101854
X137922Y-110744
X138430Y-100330
X138430Y-101854
X138684Y-110744
X138938Y-107696
X139167Y-112329
X139446Y-104902
X139782Y-101898
X140208Y-99568
X140208Y-100330
X140208Y-107696
X142494Y-90932
X142748Y-111252
X143764Y-94996
X146558Y-93218
X148082Y-93218
X150876Y-86868
X153924Y-94996
X159004Y-99060
X159004Y-101600
X159004Y-104140
X159004Y-106680
X159004Y-109220
X159004Y-111760
X159004Y-114300
X163322Y-74168
X179832Y-93218
X181132Y-101854
X182372Y-93218
T2
X107696Y-104140
X117602Y-103124
T3
X108204Y-68834
X108204Y-76454
X110744Y-68834
X110744Y-76454
T4
X103886Y-113030
X103886Y-115570
X108204Y-80518
X110744Y-80518
X115697Y-112522
X115697Y-115062
X118237Y-112522
X118237Y-115062
X121920Y-69215
X121920Y-71755
X121920Y-117475
X121920Y-120015
X124206Y-82042
X124206Y-84582
X124206Y-87122
X124206Y-89662
X124206Y-92202
X124206Y-94742
X124206Y-97282
X124206Y-99822
X124460Y-69215
X124460Y-71755
X124460Y-117475
X124460Y-120015
X126746Y-82042
X126746Y-84582
X126746Y-87122
X126746Y-89662
X126746Y-92202
X126746Y-94742
X126746Y-97282
X126746Y-99822
X127000Y-69215
X127000Y-71755
X127000Y-108712
X127000Y-111252
X127000Y-117475
X127000Y-120015
X129286Y-82042
X129286Y-84582
X129286Y-87122
X129286Y-89662
X129286Y-92202
X129286Y-94742
X129286Y-97282
X129286Y-99822
X129540Y-69215
X129540Y-71755
X129540Y-108712
X129540Y-111252
X129540Y-117475
X129540Y-120015
X132080Y-69215
X132080Y-71755
X132080Y-117475
X132080Y-120015
X134620Y-69215
X134620Y-71755
X134620Y-117475
X134620Y-120015
X137160Y-69215
X137160Y-71755
X137160Y-117475
X137160Y-120015
X139700Y-69215
X139700Y-71755
X139700Y-117475
X139700Y-120015
X142240Y-69215
X142240Y-71755
X142240Y-117475
X142240Y-120015
X144780Y-69215
X144780Y-71755
X144780Y-117475
X144780Y-120015
X147320Y-69215
X147320Y-71755
X147320Y-117475
X147320Y-120015
X149606Y-99060
X149606Y-101600
X149606Y-104140
X149606Y-106680
X149606Y-109220
X149606Y-111760
X149606Y-114300
X149860Y-69215
X149860Y-71755
X149860Y-117475
X149860Y-120015
X152146Y-99060
X152146Y-101600
X152146Y-104140
X152146Y-106680
X152146Y-109220
X152146Y-111760
X152146Y-114300
X152400Y-69215
X152400Y-71755
X152400Y-117475
X152400Y-120015
X154940Y-69215
X154940Y-71755
X154940Y-117475
X154940Y-120015
X157480Y-69215
X157480Y-71755
X157480Y-117475
X157480Y-120015
X160020Y-69215
X160020Y-71755
X160020Y-117475
X160020Y-120015
X162560Y-69215
X162560Y-71755
X162560Y-117475
X162560Y-120015
X162719Y-89379
X162719Y-111154
X165100Y-69215
X165100Y-71755
X165100Y-117475
X165100Y-120015
X165259Y-89379
X165259Y-111154
X165354Y-105410
X167640Y-69215
X167640Y-71755
X167640Y-117475
X167640Y-120015
X167799Y-89379
X167799Y-111154
X167894Y-105410
X170180Y-69215
X170180Y-71755
X170180Y-117475
X170180Y-120015
X170339Y-89379
X170339Y-111154
X170434Y-105410
X172720Y-69215
X172720Y-71755
X172720Y-117475
X172720Y-120015
X172879Y-89379
X172879Y-111154
X172974Y-105410
X175260Y-69215
X175260Y-71755
X175260Y-117475
X175260Y-120015
X175419Y-89379
X175419Y-111154
X175514Y-105410
X177800Y-69215
X177800Y-71755
X177800Y-117475
X177800Y-120015
X177959Y-89379
X177959Y-111154
X178054Y-105410
X180499Y-89379
X180499Y-111154
X180594Y-105410
X183039Y-89379
X183039Y-111154
X183134Y-105410
X185579Y-89379
X185579Y-111154
X185674Y-105410
T5
X183238Y-78774
T6
X180698Y-76234
X180698Y-81314
X185778Y-76234
X185778Y-81314
T0
M30
