%FSLAX46Y46*%
G04 Gerber Fmt 4.6, Leading zero omitted, Abs format (unit mm)*
G04 Created by KiCad (PCBNEW (2014-09-22 BZR 5144)-product) date Mon 27 Oct 2014 12:26:49 PM CET*
%MOMM*%
G01*
G04 APERTURE LIST*
%ADD10C,0.100000*%
%ADD11R,4.170000X4.170000*%
%ADD12R,3.960000X3.960000*%
%ADD13C,1.998980*%
%ADD14R,2.032000X2.032000*%
%ADD15O,2.032000X2.032000*%
%ADD16R,1.727200X2.032000*%
%ADD17O,1.727200X2.032000*%
%ADD18R,1.727200X1.727200*%
%ADD19O,1.727200X1.727200*%
%ADD20R,2.032000X1.727200*%
%ADD21O,2.032000X1.727200*%
%ADD22C,1.778000*%
%ADD23C,4.064000*%
G04 APERTURE END LIST*
D10*
D11*
X182245000Y-79130000D03*
X182245000Y-98670000D03*
D12*
X182245000Y-88900000D03*
D13*
X182245000Y-108585000D03*
X184945020Y-111285020D03*
X184945020Y-105884980D03*
X179544980Y-105884980D03*
X179544980Y-111285020D03*
D14*
X121285000Y-113030000D03*
D15*
X123825000Y-113030000D03*
D16*
X130175000Y-81915000D03*
D17*
X132715000Y-81915000D03*
X135255000Y-81915000D03*
D16*
X130175000Y-84455000D03*
D17*
X132715000Y-84455000D03*
X135255000Y-84455000D03*
D16*
X130175000Y-86995000D03*
D17*
X132715000Y-86995000D03*
X135255000Y-86995000D03*
D16*
X130175000Y-89535000D03*
D17*
X132715000Y-89535000D03*
X135255000Y-89535000D03*
D16*
X130175000Y-92075000D03*
D17*
X132715000Y-92075000D03*
X135255000Y-92075000D03*
D16*
X130175000Y-94615000D03*
D17*
X132715000Y-94615000D03*
X135255000Y-94615000D03*
D16*
X130175000Y-97155000D03*
D17*
X132715000Y-97155000D03*
X135255000Y-97155000D03*
D18*
X121920000Y-71755000D03*
D19*
X121920000Y-69215000D03*
X124460000Y-71755000D03*
X124460000Y-69215000D03*
X127000000Y-71755000D03*
X127000000Y-69215000D03*
X129540000Y-71755000D03*
X129540000Y-69215000D03*
X132080000Y-71755000D03*
X132080000Y-69215000D03*
X134620000Y-71755000D03*
X134620000Y-69215000D03*
X137160000Y-71755000D03*
X137160000Y-69215000D03*
X139700000Y-71755000D03*
X139700000Y-69215000D03*
X142240000Y-71755000D03*
X142240000Y-69215000D03*
X144780000Y-71755000D03*
X144780000Y-69215000D03*
X147320000Y-71755000D03*
X147320000Y-69215000D03*
X149860000Y-71755000D03*
X149860000Y-69215000D03*
X152400000Y-71755000D03*
X152400000Y-69215000D03*
X154940000Y-71755000D03*
X154940000Y-69215000D03*
X157480000Y-71755000D03*
X157480000Y-69215000D03*
X160020000Y-71755000D03*
X160020000Y-69215000D03*
X162560000Y-71755000D03*
X162560000Y-69215000D03*
X165100000Y-71755000D03*
X165100000Y-69215000D03*
X167640000Y-71755000D03*
X167640000Y-69215000D03*
X170180000Y-71755000D03*
X170180000Y-69215000D03*
X172720000Y-71755000D03*
X172720000Y-69215000D03*
X175260000Y-71755000D03*
X175260000Y-69215000D03*
X177800000Y-71755000D03*
X177800000Y-69215000D03*
D18*
X121920000Y-120015000D03*
D19*
X121920000Y-117475000D03*
X124460000Y-120015000D03*
X124460000Y-117475000D03*
X127000000Y-120015000D03*
X127000000Y-117475000D03*
X129540000Y-120015000D03*
X129540000Y-117475000D03*
X132080000Y-120015000D03*
X132080000Y-117475000D03*
X134620000Y-120015000D03*
X134620000Y-117475000D03*
X137160000Y-120015000D03*
X137160000Y-117475000D03*
X139700000Y-120015000D03*
X139700000Y-117475000D03*
X142240000Y-120015000D03*
X142240000Y-117475000D03*
X144780000Y-120015000D03*
X144780000Y-117475000D03*
X147320000Y-120015000D03*
X147320000Y-117475000D03*
X149860000Y-120015000D03*
X149860000Y-117475000D03*
X152400000Y-120015000D03*
X152400000Y-117475000D03*
X154940000Y-120015000D03*
X154940000Y-117475000D03*
X157480000Y-120015000D03*
X157480000Y-117475000D03*
X160020000Y-120015000D03*
X160020000Y-117475000D03*
X162560000Y-120015000D03*
X162560000Y-117475000D03*
X165100000Y-120015000D03*
X165100000Y-117475000D03*
X167640000Y-120015000D03*
X167640000Y-117475000D03*
X170180000Y-120015000D03*
X170180000Y-117475000D03*
X172720000Y-120015000D03*
X172720000Y-117475000D03*
X175260000Y-120015000D03*
X175260000Y-117475000D03*
X177800000Y-120015000D03*
X177800000Y-117475000D03*
D16*
X130175000Y-99695000D03*
D17*
X132715000Y-99695000D03*
X135255000Y-99695000D03*
D20*
X158750000Y-83185000D03*
D21*
X158750000Y-80645000D03*
X158750000Y-78105000D03*
X158750000Y-75565000D03*
D20*
X140335000Y-92075000D03*
D21*
X140335000Y-89535000D03*
X140335000Y-86995000D03*
X140335000Y-84455000D03*
X140335000Y-81915000D03*
D16*
X151765000Y-107950000D03*
D17*
X149225000Y-107950000D03*
X146685000Y-107950000D03*
X144145000Y-107950000D03*
D22*
X107315000Y-113030000D03*
X109855000Y-113030000D03*
X109855000Y-105410000D03*
X107315000Y-105410000D03*
D23*
X171450000Y-88900000D03*
M02*
