%FSLAX46Y46*%
G04 Gerber Fmt 4.6, Leading zero omitted, Abs format (unit mm)*
G04 Created by KiCad (PCBNEW (2014-09-22 BZR 5144)-product) date Fri 26 Dec 2014 12:55:59 AM CET*
%MOMM*%
G01*
G04 APERTURE LIST*
%ADD10C,0.100000*%
%ADD11O,1.360000X1.600000*%
%ADD12R,1.360000X1.600000*%
%ADD13R,1.000000X2.000000*%
%ADD14R,1.727200X1.727200*%
%ADD15O,1.727200X1.727200*%
%ADD16R,0.889000X1.397000*%
%ADD17R,1.397000X0.889000*%
%ADD18R,1.600200X3.599180*%
%ADD19R,1.524000X2.032000*%
%ADD20C,2.500000*%
%ADD21C,2.600000*%
%ADD22R,2.032000X2.032000*%
%ADD23O,2.032000X2.032000*%
%ADD24R,1.727200X2.032000*%
%ADD25O,1.727200X2.032000*%
%ADD26C,1.778000*%
%ADD27R,2.032000X1.524000*%
%ADD28R,0.508000X1.143000*%
%ADD29R,0.800000X0.300000*%
%ADD30R,0.300000X0.800000*%
%ADD31R,0.800000X0.350000*%
%ADD32R,0.350000X0.850000*%
%ADD33R,1.143000X0.635000*%
G04 APERTURE END LIST*
D10*
D11*
X166309000Y-111330000D03*
X168309000Y-111330000D03*
X170309000Y-111330000D03*
X172309000Y-111330000D03*
X174309000Y-111330000D03*
X176309000Y-111330000D03*
X178309000Y-111330000D03*
X180309000Y-111330000D03*
X182309000Y-111330000D03*
D12*
X184309000Y-111330000D03*
X184309000Y-89330000D03*
D11*
X182309000Y-89330000D03*
X180309000Y-89330000D03*
X178309000Y-89330000D03*
X176309000Y-89330000D03*
X174309000Y-89330000D03*
X172309000Y-89330000D03*
X170309000Y-89330000D03*
X168309000Y-89330000D03*
X166309000Y-89330000D03*
D13*
X144252000Y-91694000D03*
X145752000Y-91694000D03*
X147252000Y-91694000D03*
X148752000Y-91694000D03*
X150252000Y-91694000D03*
X151752000Y-91694000D03*
X153252000Y-91694000D03*
X154752000Y-91694000D03*
X156252000Y-91694000D03*
X157752000Y-91694000D03*
X144252000Y-75694000D03*
X145752000Y-75694000D03*
X147252000Y-75694000D03*
X148752000Y-75694000D03*
X150252000Y-75694000D03*
X151752000Y-75694000D03*
X153252000Y-75694000D03*
X154752000Y-75694000D03*
X156252000Y-75694000D03*
X157752000Y-75694000D03*
D14*
X121920000Y-120015000D03*
D15*
X121920000Y-117475000D03*
X124460000Y-120015000D03*
X124460000Y-117475000D03*
X127000000Y-120015000D03*
X127000000Y-117475000D03*
X129540000Y-120015000D03*
X129540000Y-117475000D03*
X132080000Y-120015000D03*
X132080000Y-117475000D03*
X134620000Y-120015000D03*
X134620000Y-117475000D03*
X137160000Y-120015000D03*
X137160000Y-117475000D03*
X139700000Y-120015000D03*
X139700000Y-117475000D03*
X142240000Y-120015000D03*
X142240000Y-117475000D03*
X144780000Y-120015000D03*
X144780000Y-117475000D03*
X147320000Y-120015000D03*
X147320000Y-117475000D03*
X149860000Y-120015000D03*
X149860000Y-117475000D03*
X152400000Y-120015000D03*
X152400000Y-117475000D03*
X154940000Y-120015000D03*
X154940000Y-117475000D03*
X157480000Y-120015000D03*
X157480000Y-117475000D03*
X160020000Y-120015000D03*
X160020000Y-117475000D03*
X162560000Y-120015000D03*
X162560000Y-117475000D03*
X165100000Y-120015000D03*
X165100000Y-117475000D03*
X167640000Y-120015000D03*
X167640000Y-117475000D03*
X170180000Y-120015000D03*
X170180000Y-117475000D03*
X172720000Y-120015000D03*
X172720000Y-117475000D03*
X175260000Y-120015000D03*
X175260000Y-117475000D03*
X177800000Y-120015000D03*
X177800000Y-117475000D03*
D14*
X121920000Y-71755000D03*
D15*
X121920000Y-69215000D03*
X124460000Y-71755000D03*
X124460000Y-69215000D03*
X127000000Y-71755000D03*
X127000000Y-69215000D03*
X129540000Y-71755000D03*
X129540000Y-69215000D03*
X132080000Y-71755000D03*
X132080000Y-69215000D03*
X134620000Y-71755000D03*
X134620000Y-69215000D03*
X137160000Y-71755000D03*
X137160000Y-69215000D03*
X139700000Y-71755000D03*
X139700000Y-69215000D03*
X142240000Y-71755000D03*
X142240000Y-69215000D03*
X144780000Y-71755000D03*
X144780000Y-69215000D03*
X147320000Y-71755000D03*
X147320000Y-69215000D03*
X149860000Y-71755000D03*
X149860000Y-69215000D03*
X152400000Y-71755000D03*
X152400000Y-69215000D03*
X154940000Y-71755000D03*
X154940000Y-69215000D03*
X157480000Y-71755000D03*
X157480000Y-69215000D03*
X160020000Y-71755000D03*
X160020000Y-69215000D03*
X162560000Y-71755000D03*
X162560000Y-69215000D03*
X165100000Y-71755000D03*
X165100000Y-69215000D03*
X167640000Y-71755000D03*
X167640000Y-69215000D03*
X170180000Y-71755000D03*
X170180000Y-69215000D03*
X172720000Y-71755000D03*
X172720000Y-69215000D03*
X175260000Y-71755000D03*
X175260000Y-69215000D03*
X177800000Y-71755000D03*
X177800000Y-69215000D03*
D16*
X134556500Y-102870000D03*
X132651500Y-102870000D03*
X134556500Y-104902000D03*
X132651500Y-104902000D03*
D17*
X114554000Y-70548500D03*
X114554000Y-68643500D03*
D16*
X134556500Y-106934000D03*
X132651500Y-106934000D03*
X134556500Y-108966000D03*
X132651500Y-108966000D03*
D17*
X144526000Y-94043500D03*
X144526000Y-95948500D03*
D16*
X136207500Y-108966000D03*
X138112500Y-108966000D03*
D17*
X109982000Y-108648500D03*
X109982000Y-106743500D03*
D18*
X105664000Y-108668820D03*
X105664000Y-103167180D03*
D17*
X109982000Y-103187500D03*
X109982000Y-105092500D03*
D18*
X121158000Y-108668820D03*
X121158000Y-103167180D03*
X114300000Y-108668820D03*
X114300000Y-103167180D03*
D19*
X147193000Y-94996000D03*
X150495000Y-94996000D03*
D20*
X183238000Y-78774000D03*
D21*
X185778000Y-81314000D03*
X185778000Y-76234000D03*
X180698000Y-76234000D03*
X180698000Y-81314000D03*
D22*
X108204000Y-80518000D03*
D23*
X110744000Y-80518000D03*
D22*
X127000000Y-111252000D03*
D23*
X127000000Y-108712000D03*
D22*
X129540000Y-111252000D03*
D23*
X129540000Y-108712000D03*
D24*
X185420000Y-106426000D03*
D25*
X182880000Y-106426000D03*
X180340000Y-106426000D03*
X177800000Y-106426000D03*
X175260000Y-106426000D03*
X172720000Y-106426000D03*
X170180000Y-106426000D03*
X167640000Y-106426000D03*
X165100000Y-106426000D03*
D14*
X115697000Y-115062000D03*
D15*
X115697000Y-112522000D03*
X118237000Y-115062000D03*
X118237000Y-112522000D03*
D22*
X103886000Y-115570000D03*
D23*
X103886000Y-113030000D03*
D17*
X116840000Y-70548500D03*
X116840000Y-68643500D03*
X118872000Y-70548500D03*
X118872000Y-68643500D03*
D16*
X117665500Y-81280000D03*
X119570500Y-81280000D03*
X116014500Y-81280000D03*
X114109500Y-81280000D03*
D17*
X185674000Y-94170500D03*
X185674000Y-92265500D03*
X155448000Y-94043500D03*
X155448000Y-95948500D03*
X157734000Y-94043500D03*
X157734000Y-95948500D03*
X181610000Y-94170500D03*
X181610000Y-92265500D03*
X179324000Y-94170500D03*
X179324000Y-92265500D03*
X152908000Y-95948500D03*
X152908000Y-94043500D03*
D16*
X139763500Y-108966000D03*
X141668500Y-108966000D03*
X141668500Y-113538000D03*
X139763500Y-113538000D03*
X141668500Y-111252000D03*
X139763500Y-111252000D03*
D26*
X108204000Y-76454000D03*
X110744000Y-76454000D03*
X110744000Y-68834000D03*
X108204000Y-68834000D03*
D27*
X184912000Y-101854000D03*
X177292000Y-101854000D03*
X184912000Y-98044000D03*
X177292000Y-98044000D03*
D17*
X120904000Y-112839500D03*
X120904000Y-114744500D03*
D28*
X114935000Y-72771000D03*
X116205000Y-72771000D03*
X117475000Y-72771000D03*
X118745000Y-72771000D03*
X118745000Y-79121000D03*
X117475000Y-79121000D03*
X116205000Y-79121000D03*
X114935000Y-79121000D03*
D29*
X134670000Y-111498000D03*
X134670000Y-111998000D03*
X134670000Y-112498000D03*
X134670000Y-112998000D03*
X134670000Y-113498000D03*
X137570000Y-113498000D03*
X137570000Y-112998000D03*
X137570000Y-112498000D03*
X137570000Y-111998000D03*
X137570000Y-111498000D03*
D30*
X135620000Y-113948000D03*
X136120000Y-113948000D03*
X136620000Y-113948000D03*
X136620000Y-111048000D03*
X136120000Y-111048000D03*
X135620000Y-111048000D03*
D31*
X141478000Y-105930000D03*
X141478000Y-105430000D03*
X141478000Y-104930000D03*
X141478000Y-104430000D03*
X141478000Y-103930000D03*
X141478000Y-103430000D03*
D32*
X140728000Y-102705000D03*
X140228000Y-102705000D03*
X139728000Y-102705000D03*
X139228000Y-102705000D03*
X138728000Y-102705000D03*
X138228000Y-102705000D03*
X140728000Y-106655000D03*
X140228000Y-106655000D03*
X139728000Y-106655000D03*
X139228000Y-106655000D03*
X138728000Y-106655000D03*
X138228000Y-106655000D03*
D31*
X137478000Y-105930000D03*
X137478000Y-105430000D03*
X137478000Y-104930000D03*
X137478000Y-104430000D03*
X137478000Y-103930000D03*
X137478000Y-103430000D03*
D24*
X129286000Y-82042000D03*
D25*
X126746000Y-82042000D03*
X124206000Y-82042000D03*
D24*
X129286000Y-84582000D03*
D25*
X126746000Y-84582000D03*
X124206000Y-84582000D03*
D24*
X129286000Y-87122000D03*
D25*
X126746000Y-87122000D03*
X124206000Y-87122000D03*
D24*
X129286000Y-89662000D03*
D25*
X126746000Y-89662000D03*
X124206000Y-89662000D03*
D24*
X129286000Y-92202000D03*
D25*
X126746000Y-92202000D03*
X124206000Y-92202000D03*
D24*
X129286000Y-94742000D03*
D25*
X126746000Y-94742000D03*
X124206000Y-94742000D03*
D24*
X129286000Y-97282000D03*
D25*
X126746000Y-97282000D03*
X124206000Y-97282000D03*
D24*
X129286000Y-99822000D03*
D25*
X126746000Y-99822000D03*
X124206000Y-99822000D03*
D14*
X152146000Y-114300000D03*
D15*
X149606000Y-114300000D03*
X152146000Y-111760000D03*
X149606000Y-111760000D03*
X152146000Y-109220000D03*
X149606000Y-109220000D03*
X152146000Y-106680000D03*
X149606000Y-106680000D03*
X152146000Y-104140000D03*
X149606000Y-104140000D03*
X152146000Y-101600000D03*
X149606000Y-101600000D03*
X152146000Y-99060000D03*
X149606000Y-99060000D03*
D33*
X158242000Y-115062000D03*
X158242000Y-113538000D03*
X158242000Y-112522000D03*
X158242000Y-110998000D03*
X158242000Y-109982000D03*
X158242000Y-108458000D03*
X158242000Y-107442000D03*
X158242000Y-105918000D03*
X158242000Y-104902000D03*
X158242000Y-103378000D03*
X158242000Y-102362000D03*
X158242000Y-100838000D03*
X158242000Y-99822000D03*
X158242000Y-98298000D03*
X154686000Y-115062000D03*
X154686000Y-113538000D03*
X156464000Y-115062000D03*
X156464000Y-113538000D03*
X154686000Y-112522000D03*
X154686000Y-110998000D03*
X156464000Y-112522000D03*
X156464000Y-110998000D03*
X154686000Y-109982000D03*
X154686000Y-108458000D03*
X156464000Y-109982000D03*
X156464000Y-108458000D03*
X154686000Y-107442000D03*
X154686000Y-105918000D03*
X156464000Y-107442000D03*
X156464000Y-105918000D03*
X154686000Y-104902000D03*
X154686000Y-103378000D03*
X156464000Y-104902000D03*
X156464000Y-103378000D03*
X154686000Y-102362000D03*
X154686000Y-100838000D03*
X156464000Y-102362000D03*
X156464000Y-100838000D03*
X154686000Y-99822000D03*
X154686000Y-98298000D03*
X156464000Y-99822000D03*
X156464000Y-98298000D03*
M02*
