M48
METRIC,TZ
T1C0.635
T2C1.001
T3C1.016
T4C3.048
%
G90
G05
T1
X107315Y-105410
X107315Y-113030
X109855Y-105410
X109855Y-113030
X135255Y-104775
X135255Y-107315
X135255Y-109855
X139700Y-107315
X140335Y-97155
X141605Y-101600
X142875Y-104775
X143510Y-88900
X143510Y-99060
X145415Y-110490
X147320Y-104775
X149225Y-88900
X151130Y-104775
X152400Y-99060
X154305Y-84455
X157480Y-88900
X160020Y-99060
X172720Y-79375
X182245Y-74295
T2
X179545Y-105885
X179545Y-111285
X182245Y-108585
X184945Y-105885
X184945Y-111285
T3
X121285Y-113030
X121920Y-69215
X121920Y-71755
X121920Y-117475
X121920Y-120015
X123825Y-113030
X124460Y-69215
X124460Y-71755
X124460Y-117475
X124460Y-120015
X127000Y-69215
X127000Y-71755
X127000Y-117475
X127000Y-120015
X129540Y-69215
X129540Y-71755
X129540Y-117475
X129540Y-120015
X130175Y-81915
X130175Y-84455
X130175Y-86995
X130175Y-89535
X130175Y-92075
X130175Y-94615
X130175Y-97155
X130175Y-99695
X132080Y-69215
X132080Y-71755
X132080Y-117475
X132080Y-120015
X132715Y-81915
X132715Y-84455
X132715Y-86995
X132715Y-89535
X132715Y-92075
X132715Y-94615
X132715Y-97155
X132715Y-99695
X134620Y-69215
X134620Y-71755
X134620Y-117475
X134620Y-120015
X135255Y-81915
X135255Y-84455
X135255Y-86995
X135255Y-89535
X135255Y-92075
X135255Y-94615
X135255Y-97155
X135255Y-99695
X137160Y-69215
X137160Y-71755
X137160Y-117475
X137160Y-120015
X139700Y-69215
X139700Y-71755
X139700Y-117475
X139700Y-120015
X140335Y-81915
X140335Y-84455
X140335Y-86995
X140335Y-89535
X140335Y-92075
X142240Y-69215
X142240Y-71755
X142240Y-117475
X142240Y-120015
X144145Y-107950
X144780Y-69215
X144780Y-71755
X144780Y-117475
X144780Y-120015
X146685Y-107950
X147320Y-69215
X147320Y-71755
X147320Y-117475
X147320Y-120015
X149225Y-107950
X149860Y-69215
X149860Y-71755
X149860Y-117475
X149860Y-120015
X151765Y-107950
X152400Y-69215
X152400Y-71755
X152400Y-117475
X152400Y-120015
X154940Y-69215
X154940Y-71755
X154940Y-117475
X154940Y-120015
X157480Y-69215
X157480Y-71755
X157480Y-117475
X157480Y-120015
X158750Y-75565
X158750Y-78105
X158750Y-80645
X158750Y-83185
X160020Y-69215
X160020Y-71755
X160020Y-117475
X160020Y-120015
X162560Y-69215
X162560Y-71755
X162560Y-117475
X162560Y-120015
X165100Y-69215
X165100Y-71755
X165100Y-117475
X165100Y-120015
X167640Y-69215
X167640Y-71755
X167640Y-117475
X167640Y-120015
X170180Y-69215
X170180Y-71755
X170180Y-117475
X170180Y-120015
X172720Y-69215
X172720Y-71755
X172720Y-117475
X172720Y-120015
X175260Y-69215
X175260Y-71755
X175260Y-117475
X175260Y-120015
X177800Y-69215
X177800Y-71755
X177800Y-117475
X177800Y-120015
T4
X171450Y-88900
T0
M30
