%FSLAX46Y46*%
G04 Gerber Fmt 4.6, Leading zero omitted, Abs format (unit mm)*
G04 Created by KiCad (PCBNEW (2014-09-22 BZR 5144)-product) date Sat 29 Nov 2014 08:33:21 PM CET*
%MOMM*%
G01*
G04 APERTURE LIST*
%ADD10C,0.100000*%
%ADD11R,4.170000X4.170000*%
%ADD12R,3.960000X3.960000*%
%ADD13O,1.727200X2.032000*%
%ADD14R,1.727200X2.032000*%
%ADD15R,1.727200X1.727200*%
%ADD16O,1.727200X1.727200*%
%ADD17C,2.500000*%
%ADD18C,2.600000*%
%ADD19R,2.032000X2.032000*%
%ADD20O,2.032000X2.032000*%
%ADD21C,1.778000*%
%ADD22C,0.508000*%
%ADD23C,0.889000*%
%ADD24C,0.154000*%
%ADD25C,0.508000*%
%ADD26C,0.254000*%
G04 APERTURE END LIST*
D10*
D11*
X160646000Y-81788000D03*
X141106000Y-81788000D03*
D12*
X150876000Y-81788000D03*
D13*
X162719000Y-111154000D03*
X165259000Y-111154000D03*
X167799000Y-111154000D03*
X170339000Y-111154000D03*
X172879000Y-111154000D03*
X175419000Y-111154000D03*
X177959000Y-111154000D03*
X180499000Y-111154000D03*
X183039000Y-111154000D03*
D14*
X185579000Y-111154000D03*
X185579000Y-89379000D03*
D13*
X183039000Y-89379000D03*
X180499000Y-89379000D03*
X177959000Y-89379000D03*
X175419000Y-89379000D03*
X172879000Y-89379000D03*
X170339000Y-89379000D03*
X167799000Y-89379000D03*
X165259000Y-89379000D03*
X162719000Y-89379000D03*
D15*
X121920000Y-120015000D03*
D16*
X121920000Y-117475000D03*
X124460000Y-120015000D03*
X124460000Y-117475000D03*
X127000000Y-120015000D03*
X127000000Y-117475000D03*
X129540000Y-120015000D03*
X129540000Y-117475000D03*
X132080000Y-120015000D03*
X132080000Y-117475000D03*
X134620000Y-120015000D03*
X134620000Y-117475000D03*
X137160000Y-120015000D03*
X137160000Y-117475000D03*
X139700000Y-120015000D03*
X139700000Y-117475000D03*
X142240000Y-120015000D03*
X142240000Y-117475000D03*
X144780000Y-120015000D03*
X144780000Y-117475000D03*
X147320000Y-120015000D03*
X147320000Y-117475000D03*
X149860000Y-120015000D03*
X149860000Y-117475000D03*
X152400000Y-120015000D03*
X152400000Y-117475000D03*
X154940000Y-120015000D03*
X154940000Y-117475000D03*
X157480000Y-120015000D03*
X157480000Y-117475000D03*
X160020000Y-120015000D03*
X160020000Y-117475000D03*
X162560000Y-120015000D03*
X162560000Y-117475000D03*
X165100000Y-120015000D03*
X165100000Y-117475000D03*
X167640000Y-120015000D03*
X167640000Y-117475000D03*
X170180000Y-120015000D03*
X170180000Y-117475000D03*
X172720000Y-120015000D03*
X172720000Y-117475000D03*
X175260000Y-120015000D03*
X175260000Y-117475000D03*
X177800000Y-120015000D03*
X177800000Y-117475000D03*
D15*
X121920000Y-71755000D03*
D16*
X121920000Y-69215000D03*
X124460000Y-71755000D03*
X124460000Y-69215000D03*
X127000000Y-71755000D03*
X127000000Y-69215000D03*
X129540000Y-71755000D03*
X129540000Y-69215000D03*
X132080000Y-71755000D03*
X132080000Y-69215000D03*
X134620000Y-71755000D03*
X134620000Y-69215000D03*
X137160000Y-71755000D03*
X137160000Y-69215000D03*
X139700000Y-71755000D03*
X139700000Y-69215000D03*
X142240000Y-71755000D03*
X142240000Y-69215000D03*
X144780000Y-71755000D03*
X144780000Y-69215000D03*
X147320000Y-71755000D03*
X147320000Y-69215000D03*
X149860000Y-71755000D03*
X149860000Y-69215000D03*
X152400000Y-71755000D03*
X152400000Y-69215000D03*
X154940000Y-71755000D03*
X154940000Y-69215000D03*
X157480000Y-71755000D03*
X157480000Y-69215000D03*
X160020000Y-71755000D03*
X160020000Y-69215000D03*
X162560000Y-71755000D03*
X162560000Y-69215000D03*
X165100000Y-71755000D03*
X165100000Y-69215000D03*
X167640000Y-71755000D03*
X167640000Y-69215000D03*
X170180000Y-71755000D03*
X170180000Y-69215000D03*
X172720000Y-71755000D03*
X172720000Y-69215000D03*
X175260000Y-71755000D03*
X175260000Y-69215000D03*
X177800000Y-71755000D03*
X177800000Y-69215000D03*
D17*
X183238000Y-78774000D03*
D18*
X185778000Y-81314000D03*
X185778000Y-76234000D03*
X180698000Y-76234000D03*
X180698000Y-81314000D03*
D19*
X108204000Y-80518000D03*
D20*
X110744000Y-80518000D03*
D19*
X127000000Y-111252000D03*
D20*
X127000000Y-108712000D03*
D19*
X129540000Y-111252000D03*
D20*
X129540000Y-108712000D03*
D14*
X185674000Y-105410000D03*
D13*
X183134000Y-105410000D03*
X180594000Y-105410000D03*
X178054000Y-105410000D03*
X175514000Y-105410000D03*
X172974000Y-105410000D03*
X170434000Y-105410000D03*
X167894000Y-105410000D03*
X165354000Y-105410000D03*
D15*
X115697000Y-115062000D03*
D16*
X115697000Y-112522000D03*
X118237000Y-115062000D03*
X118237000Y-112522000D03*
D19*
X103886000Y-115570000D03*
D20*
X103886000Y-113030000D03*
D21*
X108204000Y-76454000D03*
X110744000Y-76454000D03*
X110744000Y-68834000D03*
X108204000Y-68834000D03*
D14*
X129286000Y-82042000D03*
D13*
X126746000Y-82042000D03*
X124206000Y-82042000D03*
D14*
X129286000Y-84582000D03*
D13*
X126746000Y-84582000D03*
X124206000Y-84582000D03*
D14*
X129286000Y-87122000D03*
D13*
X126746000Y-87122000D03*
X124206000Y-87122000D03*
D14*
X129286000Y-89662000D03*
D13*
X126746000Y-89662000D03*
X124206000Y-89662000D03*
D14*
X129286000Y-92202000D03*
D13*
X126746000Y-92202000D03*
X124206000Y-92202000D03*
D14*
X129286000Y-94742000D03*
D13*
X126746000Y-94742000D03*
X124206000Y-94742000D03*
D14*
X129286000Y-97282000D03*
D13*
X126746000Y-97282000D03*
X124206000Y-97282000D03*
D14*
X129286000Y-99822000D03*
D13*
X126746000Y-99822000D03*
X124206000Y-99822000D03*
D15*
X152146000Y-114300000D03*
D16*
X149606000Y-114300000D03*
X152146000Y-111760000D03*
X149606000Y-111760000D03*
X152146000Y-109220000D03*
X149606000Y-109220000D03*
X152146000Y-106680000D03*
X149606000Y-106680000D03*
X152146000Y-104140000D03*
X149606000Y-104140000D03*
X152146000Y-101600000D03*
X149606000Y-101600000D03*
X152146000Y-99060000D03*
X149606000Y-99060000D03*
D22*
X150876000Y-86868000D03*
X135155010Y-110775020D03*
X137922000Y-110744000D03*
X137160000Y-107696000D03*
X181132468Y-101854000D03*
X136144000Y-113284000D03*
D23*
X117602000Y-103124000D03*
X107696000Y-104140000D03*
D22*
X146558000Y-93218000D03*
X153924000Y-94996000D03*
X143764000Y-94996000D03*
X159004000Y-99060000D03*
X159004000Y-101600000D03*
X159004000Y-104140000D03*
X159004000Y-106680000D03*
X159004000Y-109220000D03*
X159004000Y-111760000D03*
X159004000Y-114300000D03*
X139446000Y-104902000D03*
X128016000Y-74676000D03*
X132080000Y-74676000D03*
X135128000Y-100330000D03*
X140208000Y-100330000D03*
X138430000Y-101854000D03*
X139781942Y-101897559D03*
X142494000Y-90932000D03*
X137160000Y-110744000D03*
X137160000Y-109496980D03*
X134112000Y-110744000D03*
X134112000Y-103886000D03*
X114046000Y-80010000D03*
X119634000Y-80010000D03*
X128016000Y-78740000D03*
X132080000Y-78740000D03*
X135128000Y-99568000D03*
X140208000Y-99568000D03*
X136906000Y-99568000D03*
X140208000Y-107696000D03*
X139167468Y-112329330D03*
X137668000Y-99568000D03*
X142748000Y-111252000D03*
X138430000Y-100330000D03*
X137668000Y-101854000D03*
X148082000Y-93218000D03*
X163322000Y-74168000D03*
X179832000Y-93218000D03*
X182372000Y-93218000D03*
X138684000Y-110744000D03*
X138938000Y-107696000D03*
D24*
X150876000Y-86868000D02*
X150876000Y-81788000D01*
X150876000Y-81788000D02*
X150876000Y-77724000D01*
X135155010Y-110775020D02*
X135608991Y-111229001D01*
X135608991Y-111229001D02*
X137436999Y-111229001D01*
X137436999Y-111229001D02*
X137922000Y-110744000D01*
X137922000Y-110744000D02*
X137922000Y-108458000D01*
X137922000Y-108458000D02*
X137160000Y-107696000D01*
X137922000Y-111506000D02*
X137922000Y-110744000D01*
X139446000Y-104902000D02*
X141478000Y-106934000D01*
X141478000Y-106934000D02*
X141478000Y-109220000D01*
X141478000Y-109220000D02*
X139192000Y-111506000D01*
X139192000Y-111506000D02*
X137922000Y-111506000D01*
X181132468Y-101854000D02*
X185166000Y-101854000D01*
X185166000Y-101854000D02*
X187452000Y-104140000D01*
X185420000Y-114046000D02*
X184150000Y-114046000D01*
X184150000Y-114046000D02*
X180721000Y-117475000D01*
X187452000Y-104140000D02*
X187452000Y-112014000D01*
X187452000Y-112014000D02*
X185420000Y-114046000D01*
X180721000Y-117475000D02*
X177800000Y-117475000D01*
D25*
X107696000Y-104140000D02*
X108712000Y-103124000D01*
X108712000Y-103124000D02*
X117602000Y-103124000D01*
D24*
X136144000Y-113284000D02*
X137922000Y-111506000D01*
D25*
X117602000Y-103124000D02*
X117602000Y-110005030D01*
X117602000Y-110005030D02*
X121920000Y-114323030D01*
X121920000Y-114323030D02*
X121920000Y-117475000D01*
D24*
X146558000Y-93218000D02*
X145542000Y-93218000D01*
X145542000Y-93218000D02*
X143764000Y-94996000D01*
X149606000Y-96266000D02*
X149606000Y-99060000D01*
X150876000Y-94996000D02*
X149606000Y-96266000D01*
X153924000Y-94996000D02*
X150876000Y-94996000D01*
X143764000Y-94996000D02*
X147828000Y-99060000D01*
X147828000Y-99060000D02*
X149606000Y-99060000D01*
X159004000Y-111760000D02*
X159004000Y-114300000D01*
X159004000Y-109220000D02*
X159004000Y-111760000D01*
X159004000Y-106680000D02*
X159004000Y-109220000D01*
X159004000Y-101600000D02*
X159004000Y-106680000D01*
X159004000Y-101600000D02*
X159004000Y-104140000D01*
X159004000Y-99060000D02*
X159004000Y-101600000D01*
D25*
X174396401Y-120878599D02*
X175260000Y-120015000D01*
X173988399Y-121286601D02*
X174396401Y-120878599D01*
X121920000Y-120142000D02*
X123064601Y-121286601D01*
X121920000Y-120015000D02*
X121920000Y-120142000D01*
X176528399Y-121286601D02*
X177800000Y-120015000D01*
X173988399Y-121286601D02*
X176528399Y-121286601D01*
D24*
X145288000Y-74676000D02*
X145796000Y-74168000D01*
X132080000Y-74676000D02*
X145288000Y-74676000D01*
X123190000Y-74676000D02*
X128016000Y-74676000D01*
X121920000Y-73406000D02*
X123190000Y-74676000D01*
X121920000Y-71755000D02*
X121920000Y-73406000D01*
D25*
X164039823Y-121286601D02*
X173988399Y-121286601D01*
X123064601Y-121286601D02*
X164039823Y-121286601D01*
D24*
X164005399Y-119301399D02*
X164005399Y-121252177D01*
X164005399Y-121252177D02*
X164039823Y-121286601D01*
X162560000Y-117856000D02*
X164005399Y-119301399D01*
X162560000Y-117475000D02*
X162560000Y-117856000D01*
X135128000Y-105664000D02*
X135128000Y-100689210D01*
X137160000Y-107696000D02*
X135128000Y-105664000D01*
X135128000Y-100689210D02*
X135128000Y-100330000D01*
X149606000Y-99060000D02*
X141478000Y-99060000D01*
X140461999Y-100076001D02*
X140208000Y-100330000D01*
X141478000Y-99060000D02*
X140461999Y-100076001D01*
X139446000Y-102870000D02*
X139446000Y-104902000D01*
X138430000Y-101854000D02*
X139446000Y-102870000D01*
X138473559Y-101897559D02*
X138430000Y-101854000D01*
X139781942Y-101897559D02*
X138473559Y-101897559D01*
X142240001Y-90678001D02*
X142494000Y-90932000D01*
X132080000Y-80518000D02*
X142240001Y-90678001D01*
X132080000Y-78740000D02*
X132080000Y-80518000D01*
X137160000Y-110744000D02*
X137160000Y-109496980D01*
X134112000Y-110744000D02*
X134112000Y-103886000D01*
X114046000Y-80010000D02*
X119634000Y-80010000D01*
X119634000Y-80010000D02*
X120396000Y-80010000D01*
X126746000Y-80010000D02*
X128016000Y-78740000D01*
X120396000Y-80010000D02*
X126746000Y-80010000D01*
X139954001Y-99314001D02*
X140208000Y-99568000D01*
X135128000Y-99568000D02*
X135636000Y-99060000D01*
X135636000Y-99060000D02*
X139700000Y-99060000D01*
X139700000Y-99060000D02*
X139954001Y-99314001D01*
X135763000Y-73152000D02*
X137160000Y-71755000D01*
X129794000Y-73152000D02*
X135763000Y-73152000D01*
X129286000Y-73660000D02*
X129794000Y-73152000D01*
X129286000Y-82042000D02*
X129286000Y-73660000D01*
X129286000Y-92202000D02*
X130303600Y-92202000D01*
X132588000Y-94486400D02*
X132588000Y-113538000D01*
X132588000Y-113538000D02*
X133858000Y-114808000D01*
X133858000Y-114808000D02*
X144653000Y-114808000D01*
X130303600Y-92202000D02*
X132588000Y-94486400D01*
X144653000Y-114808000D02*
X147320000Y-117475000D01*
X130303600Y-84582000D02*
X130810000Y-84075600D01*
X129286000Y-84582000D02*
X130303600Y-84582000D01*
X130810000Y-84075600D02*
X130810000Y-74168000D01*
X130810000Y-74168000D02*
X131318000Y-73660000D01*
X142875000Y-73660000D02*
X144780000Y-71755000D01*
X131318000Y-73660000D02*
X142875000Y-73660000D01*
X129286000Y-94742000D02*
X130303600Y-94742000D01*
X130303600Y-94742000D02*
X132080000Y-96518400D01*
X132080000Y-96518400D02*
X132080000Y-113792000D01*
X132080000Y-113792000D02*
X133604000Y-115316000D01*
X133604000Y-115316000D02*
X144272000Y-115316000D01*
X146050000Y-117094000D02*
X146050000Y-118745000D01*
X144272000Y-115316000D02*
X146050000Y-117094000D01*
X146050000Y-118745000D02*
X147320000Y-120015000D01*
X129286000Y-87122000D02*
X130303600Y-87122000D01*
X130303600Y-87122000D02*
X133604000Y-90422400D01*
X133604000Y-90422400D02*
X133604000Y-113030000D01*
X133604000Y-113030000D02*
X134366000Y-113792000D01*
X134366000Y-113792000D02*
X145542000Y-113792000D01*
X147574000Y-115824000D02*
X171069000Y-115824000D01*
X145542000Y-113792000D02*
X147574000Y-115824000D01*
X171069000Y-115824000D02*
X172720000Y-117475000D01*
X129286000Y-97282000D02*
X129286000Y-97434400D01*
X131572000Y-99720400D02*
X131572000Y-114046000D01*
X129286000Y-97434400D02*
X131572000Y-99720400D01*
X131572000Y-114046000D02*
X133350000Y-115824000D01*
X133350000Y-115824000D02*
X138049000Y-115824000D01*
X138049000Y-115824000D02*
X139700000Y-117475000D01*
X129286000Y-89662000D02*
X130303600Y-89662000D01*
X130303600Y-89662000D02*
X133096000Y-92454400D01*
X133096000Y-92454400D02*
X133096000Y-113284000D01*
X134112000Y-114300000D02*
X145034000Y-114300000D01*
X133096000Y-113284000D02*
X134112000Y-114300000D01*
X145034000Y-114300000D02*
X147066000Y-116332000D01*
X147066000Y-116332000D02*
X153797000Y-116332000D01*
X153797000Y-116332000D02*
X154940000Y-117475000D01*
X129286000Y-99822000D02*
X129286000Y-100992000D01*
X129286000Y-100992000D02*
X131064000Y-102770000D01*
X131064000Y-102770000D02*
X131064000Y-114300000D01*
X131064000Y-114300000D02*
X133096000Y-116332000D01*
X133096000Y-116332000D02*
X136017000Y-116332000D01*
X136017000Y-116332000D02*
X137160000Y-117475000D01*
X140208000Y-107696000D02*
X136906000Y-104394000D01*
X136906000Y-104394000D02*
X136906000Y-99568000D01*
X141670670Y-112329330D02*
X139167468Y-112329330D01*
X142748000Y-111252000D02*
X141670670Y-112329330D01*
X138027210Y-99568000D02*
X137668000Y-99568000D01*
X142748000Y-103886000D02*
X138430000Y-99568000D01*
X138430000Y-99568000D02*
X138027210Y-99568000D01*
X142748000Y-111252000D02*
X142748000Y-103886000D01*
X138430000Y-100330000D02*
X138430000Y-101092000D01*
X137921999Y-101600001D02*
X137668000Y-101854000D01*
X138430000Y-101092000D02*
X137921999Y-101600001D01*
X148082000Y-93218000D02*
X153670000Y-93218000D01*
X153670000Y-93218000D02*
X160646000Y-86242000D01*
X160646000Y-86242000D02*
X160646000Y-81788000D01*
X148082000Y-93218000D02*
X141106000Y-86242000D01*
X141106000Y-86242000D02*
X141106000Y-81788000D01*
D25*
X127000000Y-117475000D02*
X127000000Y-111252000D01*
X129540000Y-111252000D02*
X129540000Y-117475000D01*
D24*
X165259000Y-89379000D02*
X165259000Y-74009000D01*
X165259000Y-74009000D02*
X166370000Y-72898000D01*
X166370000Y-72898000D02*
X166370000Y-71120000D01*
X166370000Y-71120000D02*
X165608000Y-70358000D01*
X143383000Y-70358000D02*
X142240000Y-69215000D01*
X165608000Y-70358000D02*
X143383000Y-70358000D01*
X165354000Y-105410000D02*
X165354000Y-104240000D01*
X165354000Y-104240000D02*
X163813610Y-102699610D01*
X163813610Y-102699610D02*
X163813610Y-75548610D01*
X163813610Y-75548610D02*
X160020000Y-71755000D01*
X164164390Y-75010390D02*
X163322000Y-74168000D01*
X164164390Y-101527990D02*
X164164390Y-75010390D01*
X167894000Y-105257600D02*
X164164390Y-101527990D01*
X167894000Y-105410000D02*
X167894000Y-105257600D01*
X179832000Y-93218000D02*
X179404390Y-92790390D01*
X179404390Y-92790390D02*
X171784390Y-92790390D01*
X171784390Y-92790390D02*
X168910000Y-89916000D01*
X168910000Y-89916000D02*
X168910000Y-88646000D01*
X168910000Y-88646000D02*
X167640000Y-87376000D01*
X167640000Y-87376000D02*
X167640000Y-71755000D01*
X182372000Y-93218000D02*
X181356000Y-92202000D01*
X181356000Y-92202000D02*
X173736000Y-92202000D01*
X173736000Y-92202000D02*
X171450000Y-89916000D01*
X171450000Y-89916000D02*
X171450000Y-88646000D01*
X171450000Y-88646000D02*
X168910000Y-86106000D01*
X168910000Y-86106000D02*
X168910000Y-70485000D01*
X168910000Y-70485000D02*
X167640000Y-69215000D01*
X138938000Y-107696000D02*
X138937999Y-110490001D01*
X138937999Y-110490001D02*
X138684000Y-110744000D01*
D26*
G36*
X130352000Y-107274729D02*
X130171810Y-107154330D01*
X129540000Y-107028655D01*
X128908190Y-107154330D01*
X128372567Y-107512222D01*
X128270000Y-107665724D01*
X128167433Y-107512222D01*
X127631810Y-107154330D01*
X127000000Y-107028655D01*
X126368190Y-107154330D01*
X125832567Y-107512222D01*
X125474675Y-108047845D01*
X125349000Y-108679655D01*
X125349000Y-108744345D01*
X125474675Y-109376155D01*
X125675371Y-109676519D01*
X125624302Y-109697673D01*
X125445673Y-109876301D01*
X125349000Y-110109690D01*
X125349000Y-110362309D01*
X125349000Y-112394309D01*
X125445673Y-112627698D01*
X125624301Y-112806327D01*
X125857690Y-112903000D01*
X126110309Y-112903000D01*
X126111000Y-112903000D01*
X126111000Y-116281674D01*
X125910971Y-116415330D01*
X125730000Y-116686172D01*
X125549029Y-116415330D01*
X125062848Y-116090474D01*
X124489359Y-115976400D01*
X124430641Y-115976400D01*
X123857152Y-116090474D01*
X123370971Y-116415330D01*
X123190007Y-116686160D01*
X122808490Y-116268179D01*
X122279027Y-116020032D01*
X122047000Y-116140531D01*
X122047000Y-117348000D01*
X122067000Y-117348000D01*
X122067000Y-117602000D01*
X122047000Y-117602000D01*
X122047000Y-118675150D01*
X122047000Y-118809469D01*
X122047000Y-119888000D01*
X122067000Y-119888000D01*
X122067000Y-120142000D01*
X122047000Y-120142000D01*
X122047000Y-120162000D01*
X121793000Y-120162000D01*
X121793000Y-120142000D01*
X121793000Y-119888000D01*
X121793000Y-118809469D01*
X121793000Y-118675150D01*
X121793000Y-117602000D01*
X121793000Y-117348000D01*
X121793000Y-116140531D01*
X121560973Y-116020032D01*
X121031510Y-116268179D01*
X120637312Y-116700053D01*
X120465042Y-117115974D01*
X120586183Y-117348000D01*
X121793000Y-117348000D01*
X121793000Y-117602000D01*
X120586183Y-117602000D01*
X120465042Y-117834026D01*
X120637312Y-118249947D01*
X120894119Y-118531299D01*
X120696702Y-118613073D01*
X120518073Y-118791701D01*
X120421400Y-119025090D01*
X120421400Y-119277709D01*
X120421400Y-119729250D01*
X120580150Y-119888000D01*
X121793000Y-119888000D01*
X121793000Y-120142000D01*
X120580150Y-120142000D01*
X120421400Y-120300750D01*
X120421400Y-120752291D01*
X120421400Y-121004910D01*
X120516706Y-121235000D01*
X119764959Y-121235000D01*
X119764959Y-115062000D01*
X119650885Y-114488511D01*
X119326029Y-114002330D01*
X119011248Y-113792000D01*
X119326029Y-113581670D01*
X119650885Y-113095489D01*
X119764959Y-112522000D01*
X119650885Y-111948511D01*
X119326029Y-111462330D01*
X118839848Y-111137474D01*
X118266359Y-111023400D01*
X118207641Y-111023400D01*
X117634152Y-111137474D01*
X117147971Y-111462330D01*
X116967000Y-111733172D01*
X116786029Y-111462330D01*
X116299848Y-111137474D01*
X115726359Y-111023400D01*
X115667641Y-111023400D01*
X115094152Y-111137474D01*
X114607971Y-111462330D01*
X114283115Y-111948511D01*
X114169041Y-112522000D01*
X114283115Y-113095489D01*
X114607971Y-113581670D01*
X114629023Y-113595736D01*
X114473702Y-113660073D01*
X114295073Y-113838701D01*
X114198400Y-114072090D01*
X114198400Y-114324709D01*
X114198400Y-116051909D01*
X114295073Y-116285298D01*
X114473701Y-116463927D01*
X114707090Y-116560600D01*
X114959709Y-116560600D01*
X116686909Y-116560600D01*
X116920298Y-116463927D01*
X117098927Y-116285299D01*
X117162643Y-116131473D01*
X117634152Y-116446526D01*
X118207641Y-116560600D01*
X118266359Y-116560600D01*
X118839848Y-116446526D01*
X119326029Y-116121670D01*
X119650885Y-115635489D01*
X119764959Y-115062000D01*
X119764959Y-121235000D01*
X108652467Y-121235000D01*
X106422234Y-120791379D01*
X104588729Y-119566270D01*
X103363620Y-117732765D01*
X103261824Y-117221000D01*
X105028309Y-117221000D01*
X105261698Y-117124327D01*
X105440327Y-116945699D01*
X105537000Y-116712310D01*
X105537000Y-116459691D01*
X105537000Y-114427691D01*
X105440327Y-114194302D01*
X105261699Y-114015673D01*
X105210628Y-113994518D01*
X105411325Y-113694155D01*
X105537000Y-113062345D01*
X105537000Y-112997655D01*
X105411325Y-112365845D01*
X105053433Y-111830222D01*
X104517810Y-111472330D01*
X103886000Y-111346655D01*
X103254190Y-111472330D01*
X102920000Y-111695628D01*
X102920000Y-101650000D01*
X122555000Y-101650000D01*
X122817138Y-101597857D01*
X123039368Y-101449368D01*
X123187857Y-101227138D01*
X123217850Y-101076350D01*
X123303964Y-101172732D01*
X123831209Y-101426709D01*
X123846974Y-101429358D01*
X124079000Y-101308217D01*
X124079000Y-99949000D01*
X124059000Y-99949000D01*
X124059000Y-99695000D01*
X124079000Y-99695000D01*
X124079000Y-98768217D01*
X124079000Y-98335783D01*
X124079000Y-97409000D01*
X124059000Y-97409000D01*
X124059000Y-97155000D01*
X124079000Y-97155000D01*
X124079000Y-96228217D01*
X124079000Y-95795783D01*
X124079000Y-94869000D01*
X124059000Y-94869000D01*
X124059000Y-94615000D01*
X124079000Y-94615000D01*
X124079000Y-93688217D01*
X124079000Y-93255783D01*
X124079000Y-92329000D01*
X124059000Y-92329000D01*
X124059000Y-92075000D01*
X124079000Y-92075000D01*
X124079000Y-91148217D01*
X124079000Y-90715783D01*
X124079000Y-89789000D01*
X124059000Y-89789000D01*
X124059000Y-89535000D01*
X124079000Y-89535000D01*
X124079000Y-88608217D01*
X124079000Y-88175783D01*
X124079000Y-87249000D01*
X124059000Y-87249000D01*
X124059000Y-86995000D01*
X124079000Y-86995000D01*
X124079000Y-86068217D01*
X124079000Y-85635783D01*
X124079000Y-84709000D01*
X124059000Y-84709000D01*
X124059000Y-84455000D01*
X124079000Y-84455000D01*
X124079000Y-83528217D01*
X124079000Y-83095783D01*
X124079000Y-82169000D01*
X122865076Y-82169000D01*
X122720816Y-82403913D01*
X122769340Y-82542635D01*
X122555000Y-82500000D01*
X112349975Y-82500000D01*
X112349975Y-80900944D01*
X112349975Y-80135056D01*
X112150385Y-79653182D01*
X111712379Y-79180812D01*
X111126946Y-78912017D01*
X110871000Y-79030633D01*
X110871000Y-80391000D01*
X112230836Y-80391000D01*
X112349975Y-80135056D01*
X112349975Y-80900944D01*
X112230836Y-80645000D01*
X110871000Y-80645000D01*
X110871000Y-82005367D01*
X111126946Y-82123983D01*
X111712379Y-81855188D01*
X112150385Y-81382818D01*
X112349975Y-80900944D01*
X112349975Y-82500000D01*
X107315000Y-82500000D01*
X106730000Y-82500000D01*
X106730000Y-81974025D01*
X106828301Y-82072327D01*
X107061690Y-82169000D01*
X107314309Y-82169000D01*
X109346309Y-82169000D01*
X109579698Y-82072327D01*
X109758327Y-81893699D01*
X109774693Y-81854187D01*
X109775621Y-81855188D01*
X110361054Y-82123983D01*
X110617000Y-82005367D01*
X110617000Y-80645000D01*
X110597000Y-80645000D01*
X110597000Y-80391000D01*
X110617000Y-80391000D01*
X110617000Y-79030633D01*
X110361054Y-78912017D01*
X109775621Y-79180812D01*
X109774692Y-79181812D01*
X109758327Y-79142302D01*
X109579699Y-78963673D01*
X109346310Y-78867000D01*
X109093691Y-78867000D01*
X107061691Y-78867000D01*
X106828302Y-78963673D01*
X106730000Y-79061974D01*
X106730000Y-76877460D01*
X106911262Y-77316149D01*
X107339596Y-77745231D01*
X107899528Y-77977735D01*
X108505812Y-77978264D01*
X109066149Y-77746738D01*
X109474335Y-77339262D01*
X109879596Y-77745231D01*
X110439528Y-77977735D01*
X111045812Y-77978264D01*
X111606149Y-77746738D01*
X112035231Y-77318404D01*
X112267735Y-76758472D01*
X112268264Y-76152188D01*
X112036738Y-75591851D01*
X111636591Y-75191005D01*
X111636591Y-69906196D01*
X110744000Y-69013605D01*
X109851409Y-69906196D01*
X109936467Y-70161539D01*
X110505965Y-70369516D01*
X111111700Y-70343723D01*
X111551533Y-70161539D01*
X111636591Y-69906196D01*
X111636591Y-75191005D01*
X111608404Y-75162769D01*
X111048472Y-74930265D01*
X110442188Y-74929736D01*
X109881851Y-75161262D01*
X109473664Y-75568737D01*
X109096591Y-75191005D01*
X109096591Y-69906196D01*
X108204000Y-69013605D01*
X107311409Y-69906196D01*
X107396467Y-70161539D01*
X107965965Y-70369516D01*
X108571700Y-70343723D01*
X109011533Y-70161539D01*
X109096591Y-69906196D01*
X109096591Y-75191005D01*
X109068404Y-75162769D01*
X108508472Y-74930265D01*
X107902188Y-74929736D01*
X107341851Y-75161262D01*
X106912769Y-75589596D01*
X106730000Y-76029752D01*
X106730000Y-69287943D01*
X106876461Y-69641533D01*
X107131804Y-69726591D01*
X108024395Y-68834000D01*
X108010252Y-68819857D01*
X108189857Y-68640252D01*
X108204000Y-68654395D01*
X108218142Y-68640252D01*
X108397747Y-68819857D01*
X108383605Y-68834000D01*
X109276196Y-69726591D01*
X109474000Y-69660699D01*
X109671804Y-69726591D01*
X110564395Y-68834000D01*
X110550252Y-68819857D01*
X110729857Y-68640252D01*
X110744000Y-68654395D01*
X110758142Y-68640252D01*
X110937747Y-68819857D01*
X110923605Y-68834000D01*
X111816196Y-69726591D01*
X112071539Y-69641533D01*
X112279516Y-69072035D01*
X112253723Y-68466300D01*
X112071539Y-68026467D01*
X111977075Y-67995000D01*
X121059629Y-67995000D01*
X121031510Y-68008179D01*
X120637312Y-68440053D01*
X120465042Y-68855974D01*
X120586183Y-69088000D01*
X121793000Y-69088000D01*
X121793000Y-69068000D01*
X122047000Y-69068000D01*
X122047000Y-69088000D01*
X122067000Y-69088000D01*
X122067000Y-69342000D01*
X122047000Y-69342000D01*
X122047000Y-70415150D01*
X122047000Y-70549469D01*
X122047000Y-71628000D01*
X122067000Y-71628000D01*
X122067000Y-71882000D01*
X122047000Y-71882000D01*
X122047000Y-73094850D01*
X122205750Y-73253600D01*
X122909909Y-73253600D01*
X123143298Y-73156927D01*
X123321927Y-72978299D01*
X123385643Y-72824473D01*
X123857152Y-73139526D01*
X124430641Y-73253600D01*
X124489359Y-73253600D01*
X125062848Y-73139526D01*
X125549029Y-72814670D01*
X125730000Y-72543827D01*
X125910971Y-72814670D01*
X126397152Y-73139526D01*
X126970641Y-73253600D01*
X127029359Y-73253600D01*
X127602848Y-73139526D01*
X128089029Y-72814670D01*
X128270000Y-72543827D01*
X128450971Y-72814670D01*
X128854668Y-73084411D01*
X128782540Y-73156540D01*
X128628198Y-73387529D01*
X128574000Y-73660000D01*
X128574000Y-78040640D01*
X128520236Y-77986782D01*
X128193609Y-77851154D01*
X127839943Y-77850846D01*
X127513080Y-77985903D01*
X127262782Y-78235764D01*
X127127154Y-78562391D01*
X127127102Y-78621977D01*
X126451080Y-79298000D01*
X121793000Y-79298000D01*
X121793000Y-73094850D01*
X121793000Y-71882000D01*
X121793000Y-71628000D01*
X121793000Y-70549469D01*
X121793000Y-70415150D01*
X121793000Y-69342000D01*
X120586183Y-69342000D01*
X120465042Y-69574026D01*
X120637312Y-69989947D01*
X120894119Y-70271299D01*
X120696702Y-70353073D01*
X120518073Y-70531701D01*
X120421400Y-70765090D01*
X120421400Y-71017709D01*
X120421400Y-71469250D01*
X120580150Y-71628000D01*
X121793000Y-71628000D01*
X121793000Y-71882000D01*
X120580150Y-71882000D01*
X120421400Y-72040750D01*
X120421400Y-72492291D01*
X120421400Y-72744910D01*
X120518073Y-72978299D01*
X120696702Y-73156927D01*
X120930091Y-73253600D01*
X121634250Y-73253600D01*
X121793000Y-73094850D01*
X121793000Y-79298000D01*
X120396000Y-79298000D01*
X120179382Y-79298000D01*
X120138236Y-79256782D01*
X119811609Y-79121154D01*
X119457943Y-79120846D01*
X119131080Y-79255903D01*
X119088909Y-79298000D01*
X114591382Y-79298000D01*
X114550236Y-79256782D01*
X114223609Y-79121154D01*
X113869943Y-79120846D01*
X113543080Y-79255903D01*
X113292782Y-79505764D01*
X113157154Y-79832391D01*
X113156846Y-80186057D01*
X113291903Y-80512920D01*
X113541764Y-80763218D01*
X113868391Y-80898846D01*
X114222057Y-80899154D01*
X114548920Y-80764097D01*
X114591090Y-80722000D01*
X119088617Y-80722000D01*
X119129764Y-80763218D01*
X119456391Y-80898846D01*
X119810057Y-80899154D01*
X120136920Y-80764097D01*
X120179090Y-80722000D01*
X120396000Y-80722000D01*
X123276506Y-80722000D01*
X122914046Y-81127680D01*
X122720816Y-81680087D01*
X122865076Y-81915000D01*
X124079000Y-81915000D01*
X124079000Y-81895000D01*
X124333000Y-81895000D01*
X124333000Y-81915000D01*
X124353000Y-81915000D01*
X124353000Y-82169000D01*
X124333000Y-82169000D01*
X124333000Y-83095783D01*
X124333000Y-83528217D01*
X124333000Y-84455000D01*
X124353000Y-84455000D01*
X124353000Y-84709000D01*
X124333000Y-84709000D01*
X124333000Y-85635783D01*
X124333000Y-86068217D01*
X124333000Y-86995000D01*
X124353000Y-86995000D01*
X124353000Y-87249000D01*
X124333000Y-87249000D01*
X124333000Y-88175783D01*
X124333000Y-88608217D01*
X124333000Y-89535000D01*
X124353000Y-89535000D01*
X124353000Y-89789000D01*
X124333000Y-89789000D01*
X124333000Y-90715783D01*
X124333000Y-91148217D01*
X124333000Y-92075000D01*
X124353000Y-92075000D01*
X124353000Y-92329000D01*
X124333000Y-92329000D01*
X124333000Y-93255783D01*
X124333000Y-93688217D01*
X124333000Y-94615000D01*
X124353000Y-94615000D01*
X124353000Y-94869000D01*
X124333000Y-94869000D01*
X124333000Y-95795783D01*
X124333000Y-96228217D01*
X124333000Y-97155000D01*
X124353000Y-97155000D01*
X124353000Y-97409000D01*
X124333000Y-97409000D01*
X124333000Y-98335783D01*
X124333000Y-98768217D01*
X124333000Y-99695000D01*
X124353000Y-99695000D01*
X124353000Y-99949000D01*
X124333000Y-99949000D01*
X124333000Y-101308217D01*
X124565026Y-101429358D01*
X124580791Y-101426709D01*
X125108036Y-101172732D01*
X125479539Y-100756930D01*
X125686330Y-101066415D01*
X126172511Y-101391271D01*
X126746000Y-101505345D01*
X127319489Y-101391271D01*
X127805670Y-101066415D01*
X127820500Y-101044219D01*
X127884073Y-101197698D01*
X128062701Y-101376327D01*
X128296090Y-101473000D01*
X128548709Y-101473000D01*
X128767532Y-101473000D01*
X128782540Y-101495460D01*
X130352000Y-103064920D01*
X130352000Y-107274729D01*
X130352000Y-107274729D01*
G37*
X130352000Y-107274729D02*
X130171810Y-107154330D01*
X129540000Y-107028655D01*
X128908190Y-107154330D01*
X128372567Y-107512222D01*
X128270000Y-107665724D01*
X128167433Y-107512222D01*
X127631810Y-107154330D01*
X127000000Y-107028655D01*
X126368190Y-107154330D01*
X125832567Y-107512222D01*
X125474675Y-108047845D01*
X125349000Y-108679655D01*
X125349000Y-108744345D01*
X125474675Y-109376155D01*
X125675371Y-109676519D01*
X125624302Y-109697673D01*
X125445673Y-109876301D01*
X125349000Y-110109690D01*
X125349000Y-110362309D01*
X125349000Y-112394309D01*
X125445673Y-112627698D01*
X125624301Y-112806327D01*
X125857690Y-112903000D01*
X126110309Y-112903000D01*
X126111000Y-112903000D01*
X126111000Y-116281674D01*
X125910971Y-116415330D01*
X125730000Y-116686172D01*
X125549029Y-116415330D01*
X125062848Y-116090474D01*
X124489359Y-115976400D01*
X124430641Y-115976400D01*
X123857152Y-116090474D01*
X123370971Y-116415330D01*
X123190007Y-116686160D01*
X122808490Y-116268179D01*
X122279027Y-116020032D01*
X122047000Y-116140531D01*
X122047000Y-117348000D01*
X122067000Y-117348000D01*
X122067000Y-117602000D01*
X122047000Y-117602000D01*
X122047000Y-118675150D01*
X122047000Y-118809469D01*
X122047000Y-119888000D01*
X122067000Y-119888000D01*
X122067000Y-120142000D01*
X122047000Y-120142000D01*
X122047000Y-120162000D01*
X121793000Y-120162000D01*
X121793000Y-120142000D01*
X121793000Y-119888000D01*
X121793000Y-118809469D01*
X121793000Y-118675150D01*
X121793000Y-117602000D01*
X121793000Y-117348000D01*
X121793000Y-116140531D01*
X121560973Y-116020032D01*
X121031510Y-116268179D01*
X120637312Y-116700053D01*
X120465042Y-117115974D01*
X120586183Y-117348000D01*
X121793000Y-117348000D01*
X121793000Y-117602000D01*
X120586183Y-117602000D01*
X120465042Y-117834026D01*
X120637312Y-118249947D01*
X120894119Y-118531299D01*
X120696702Y-118613073D01*
X120518073Y-118791701D01*
X120421400Y-119025090D01*
X120421400Y-119277709D01*
X120421400Y-119729250D01*
X120580150Y-119888000D01*
X121793000Y-119888000D01*
X121793000Y-120142000D01*
X120580150Y-120142000D01*
X120421400Y-120300750D01*
X120421400Y-120752291D01*
X120421400Y-121004910D01*
X120516706Y-121235000D01*
X119764959Y-121235000D01*
X119764959Y-115062000D01*
X119650885Y-114488511D01*
X119326029Y-114002330D01*
X119011248Y-113792000D01*
X119326029Y-113581670D01*
X119650885Y-113095489D01*
X119764959Y-112522000D01*
X119650885Y-111948511D01*
X119326029Y-111462330D01*
X118839848Y-111137474D01*
X118266359Y-111023400D01*
X118207641Y-111023400D01*
X117634152Y-111137474D01*
X117147971Y-111462330D01*
X116967000Y-111733172D01*
X116786029Y-111462330D01*
X116299848Y-111137474D01*
X115726359Y-111023400D01*
X115667641Y-111023400D01*
X115094152Y-111137474D01*
X114607971Y-111462330D01*
X114283115Y-111948511D01*
X114169041Y-112522000D01*
X114283115Y-113095489D01*
X114607971Y-113581670D01*
X114629023Y-113595736D01*
X114473702Y-113660073D01*
X114295073Y-113838701D01*
X114198400Y-114072090D01*
X114198400Y-114324709D01*
X114198400Y-116051909D01*
X114295073Y-116285298D01*
X114473701Y-116463927D01*
X114707090Y-116560600D01*
X114959709Y-116560600D01*
X116686909Y-116560600D01*
X116920298Y-116463927D01*
X117098927Y-116285299D01*
X117162643Y-116131473D01*
X117634152Y-116446526D01*
X118207641Y-116560600D01*
X118266359Y-116560600D01*
X118839848Y-116446526D01*
X119326029Y-116121670D01*
X119650885Y-115635489D01*
X119764959Y-115062000D01*
X119764959Y-121235000D01*
X108652467Y-121235000D01*
X106422234Y-120791379D01*
X104588729Y-119566270D01*
X103363620Y-117732765D01*
X103261824Y-117221000D01*
X105028309Y-117221000D01*
X105261698Y-117124327D01*
X105440327Y-116945699D01*
X105537000Y-116712310D01*
X105537000Y-116459691D01*
X105537000Y-114427691D01*
X105440327Y-114194302D01*
X105261699Y-114015673D01*
X105210628Y-113994518D01*
X105411325Y-113694155D01*
X105537000Y-113062345D01*
X105537000Y-112997655D01*
X105411325Y-112365845D01*
X105053433Y-111830222D01*
X104517810Y-111472330D01*
X103886000Y-111346655D01*
X103254190Y-111472330D01*
X102920000Y-111695628D01*
X102920000Y-101650000D01*
X122555000Y-101650000D01*
X122817138Y-101597857D01*
X123039368Y-101449368D01*
X123187857Y-101227138D01*
X123217850Y-101076350D01*
X123303964Y-101172732D01*
X123831209Y-101426709D01*
X123846974Y-101429358D01*
X124079000Y-101308217D01*
X124079000Y-99949000D01*
X124059000Y-99949000D01*
X124059000Y-99695000D01*
X124079000Y-99695000D01*
X124079000Y-98768217D01*
X124079000Y-98335783D01*
X124079000Y-97409000D01*
X124059000Y-97409000D01*
X124059000Y-97155000D01*
X124079000Y-97155000D01*
X124079000Y-96228217D01*
X124079000Y-95795783D01*
X124079000Y-94869000D01*
X124059000Y-94869000D01*
X124059000Y-94615000D01*
X124079000Y-94615000D01*
X124079000Y-93688217D01*
X124079000Y-93255783D01*
X124079000Y-92329000D01*
X124059000Y-92329000D01*
X124059000Y-92075000D01*
X124079000Y-92075000D01*
X124079000Y-91148217D01*
X124079000Y-90715783D01*
X124079000Y-89789000D01*
X124059000Y-89789000D01*
X124059000Y-89535000D01*
X124079000Y-89535000D01*
X124079000Y-88608217D01*
X124079000Y-88175783D01*
X124079000Y-87249000D01*
X124059000Y-87249000D01*
X124059000Y-86995000D01*
X124079000Y-86995000D01*
X124079000Y-86068217D01*
X124079000Y-85635783D01*
X124079000Y-84709000D01*
X124059000Y-84709000D01*
X124059000Y-84455000D01*
X124079000Y-84455000D01*
X124079000Y-83528217D01*
X124079000Y-83095783D01*
X124079000Y-82169000D01*
X122865076Y-82169000D01*
X122720816Y-82403913D01*
X122769340Y-82542635D01*
X122555000Y-82500000D01*
X112349975Y-82500000D01*
X112349975Y-80900944D01*
X112349975Y-80135056D01*
X112150385Y-79653182D01*
X111712379Y-79180812D01*
X111126946Y-78912017D01*
X110871000Y-79030633D01*
X110871000Y-80391000D01*
X112230836Y-80391000D01*
X112349975Y-80135056D01*
X112349975Y-80900944D01*
X112230836Y-80645000D01*
X110871000Y-80645000D01*
X110871000Y-82005367D01*
X111126946Y-82123983D01*
X111712379Y-81855188D01*
X112150385Y-81382818D01*
X112349975Y-80900944D01*
X112349975Y-82500000D01*
X107315000Y-82500000D01*
X106730000Y-82500000D01*
X106730000Y-81974025D01*
X106828301Y-82072327D01*
X107061690Y-82169000D01*
X107314309Y-82169000D01*
X109346309Y-82169000D01*
X109579698Y-82072327D01*
X109758327Y-81893699D01*
X109774693Y-81854187D01*
X109775621Y-81855188D01*
X110361054Y-82123983D01*
X110617000Y-82005367D01*
X110617000Y-80645000D01*
X110597000Y-80645000D01*
X110597000Y-80391000D01*
X110617000Y-80391000D01*
X110617000Y-79030633D01*
X110361054Y-78912017D01*
X109775621Y-79180812D01*
X109774692Y-79181812D01*
X109758327Y-79142302D01*
X109579699Y-78963673D01*
X109346310Y-78867000D01*
X109093691Y-78867000D01*
X107061691Y-78867000D01*
X106828302Y-78963673D01*
X106730000Y-79061974D01*
X106730000Y-76877460D01*
X106911262Y-77316149D01*
X107339596Y-77745231D01*
X107899528Y-77977735D01*
X108505812Y-77978264D01*
X109066149Y-77746738D01*
X109474335Y-77339262D01*
X109879596Y-77745231D01*
X110439528Y-77977735D01*
X111045812Y-77978264D01*
X111606149Y-77746738D01*
X112035231Y-77318404D01*
X112267735Y-76758472D01*
X112268264Y-76152188D01*
X112036738Y-75591851D01*
X111636591Y-75191005D01*
X111636591Y-69906196D01*
X110744000Y-69013605D01*
X109851409Y-69906196D01*
X109936467Y-70161539D01*
X110505965Y-70369516D01*
X111111700Y-70343723D01*
X111551533Y-70161539D01*
X111636591Y-69906196D01*
X111636591Y-75191005D01*
X111608404Y-75162769D01*
X111048472Y-74930265D01*
X110442188Y-74929736D01*
X109881851Y-75161262D01*
X109473664Y-75568737D01*
X109096591Y-75191005D01*
X109096591Y-69906196D01*
X108204000Y-69013605D01*
X107311409Y-69906196D01*
X107396467Y-70161539D01*
X107965965Y-70369516D01*
X108571700Y-70343723D01*
X109011533Y-70161539D01*
X109096591Y-69906196D01*
X109096591Y-75191005D01*
X109068404Y-75162769D01*
X108508472Y-74930265D01*
X107902188Y-74929736D01*
X107341851Y-75161262D01*
X106912769Y-75589596D01*
X106730000Y-76029752D01*
X106730000Y-69287943D01*
X106876461Y-69641533D01*
X107131804Y-69726591D01*
X108024395Y-68834000D01*
X108010252Y-68819857D01*
X108189857Y-68640252D01*
X108204000Y-68654395D01*
X108218142Y-68640252D01*
X108397747Y-68819857D01*
X108383605Y-68834000D01*
X109276196Y-69726591D01*
X109474000Y-69660699D01*
X109671804Y-69726591D01*
X110564395Y-68834000D01*
X110550252Y-68819857D01*
X110729857Y-68640252D01*
X110744000Y-68654395D01*
X110758142Y-68640252D01*
X110937747Y-68819857D01*
X110923605Y-68834000D01*
X111816196Y-69726591D01*
X112071539Y-69641533D01*
X112279516Y-69072035D01*
X112253723Y-68466300D01*
X112071539Y-68026467D01*
X111977075Y-67995000D01*
X121059629Y-67995000D01*
X121031510Y-68008179D01*
X120637312Y-68440053D01*
X120465042Y-68855974D01*
X120586183Y-69088000D01*
X121793000Y-69088000D01*
X121793000Y-69068000D01*
X122047000Y-69068000D01*
X122047000Y-69088000D01*
X122067000Y-69088000D01*
X122067000Y-69342000D01*
X122047000Y-69342000D01*
X122047000Y-70415150D01*
X122047000Y-70549469D01*
X122047000Y-71628000D01*
X122067000Y-71628000D01*
X122067000Y-71882000D01*
X122047000Y-71882000D01*
X122047000Y-73094850D01*
X122205750Y-73253600D01*
X122909909Y-73253600D01*
X123143298Y-73156927D01*
X123321927Y-72978299D01*
X123385643Y-72824473D01*
X123857152Y-73139526D01*
X124430641Y-73253600D01*
X124489359Y-73253600D01*
X125062848Y-73139526D01*
X125549029Y-72814670D01*
X125730000Y-72543827D01*
X125910971Y-72814670D01*
X126397152Y-73139526D01*
X126970641Y-73253600D01*
X127029359Y-73253600D01*
X127602848Y-73139526D01*
X128089029Y-72814670D01*
X128270000Y-72543827D01*
X128450971Y-72814670D01*
X128854668Y-73084411D01*
X128782540Y-73156540D01*
X128628198Y-73387529D01*
X128574000Y-73660000D01*
X128574000Y-78040640D01*
X128520236Y-77986782D01*
X128193609Y-77851154D01*
X127839943Y-77850846D01*
X127513080Y-77985903D01*
X127262782Y-78235764D01*
X127127154Y-78562391D01*
X127127102Y-78621977D01*
X126451080Y-79298000D01*
X121793000Y-79298000D01*
X121793000Y-73094850D01*
X121793000Y-71882000D01*
X121793000Y-71628000D01*
X121793000Y-70549469D01*
X121793000Y-70415150D01*
X121793000Y-69342000D01*
X120586183Y-69342000D01*
X120465042Y-69574026D01*
X120637312Y-69989947D01*
X120894119Y-70271299D01*
X120696702Y-70353073D01*
X120518073Y-70531701D01*
X120421400Y-70765090D01*
X120421400Y-71017709D01*
X120421400Y-71469250D01*
X120580150Y-71628000D01*
X121793000Y-71628000D01*
X121793000Y-71882000D01*
X120580150Y-71882000D01*
X120421400Y-72040750D01*
X120421400Y-72492291D01*
X120421400Y-72744910D01*
X120518073Y-72978299D01*
X120696702Y-73156927D01*
X120930091Y-73253600D01*
X121634250Y-73253600D01*
X121793000Y-73094850D01*
X121793000Y-79298000D01*
X120396000Y-79298000D01*
X120179382Y-79298000D01*
X120138236Y-79256782D01*
X119811609Y-79121154D01*
X119457943Y-79120846D01*
X119131080Y-79255903D01*
X119088909Y-79298000D01*
X114591382Y-79298000D01*
X114550236Y-79256782D01*
X114223609Y-79121154D01*
X113869943Y-79120846D01*
X113543080Y-79255903D01*
X113292782Y-79505764D01*
X113157154Y-79832391D01*
X113156846Y-80186057D01*
X113291903Y-80512920D01*
X113541764Y-80763218D01*
X113868391Y-80898846D01*
X114222057Y-80899154D01*
X114548920Y-80764097D01*
X114591090Y-80722000D01*
X119088617Y-80722000D01*
X119129764Y-80763218D01*
X119456391Y-80898846D01*
X119810057Y-80899154D01*
X120136920Y-80764097D01*
X120179090Y-80722000D01*
X120396000Y-80722000D01*
X123276506Y-80722000D01*
X122914046Y-81127680D01*
X122720816Y-81680087D01*
X122865076Y-81915000D01*
X124079000Y-81915000D01*
X124079000Y-81895000D01*
X124333000Y-81895000D01*
X124333000Y-81915000D01*
X124353000Y-81915000D01*
X124353000Y-82169000D01*
X124333000Y-82169000D01*
X124333000Y-83095783D01*
X124333000Y-83528217D01*
X124333000Y-84455000D01*
X124353000Y-84455000D01*
X124353000Y-84709000D01*
X124333000Y-84709000D01*
X124333000Y-85635783D01*
X124333000Y-86068217D01*
X124333000Y-86995000D01*
X124353000Y-86995000D01*
X124353000Y-87249000D01*
X124333000Y-87249000D01*
X124333000Y-88175783D01*
X124333000Y-88608217D01*
X124333000Y-89535000D01*
X124353000Y-89535000D01*
X124353000Y-89789000D01*
X124333000Y-89789000D01*
X124333000Y-90715783D01*
X124333000Y-91148217D01*
X124333000Y-92075000D01*
X124353000Y-92075000D01*
X124353000Y-92329000D01*
X124333000Y-92329000D01*
X124333000Y-93255783D01*
X124333000Y-93688217D01*
X124333000Y-94615000D01*
X124353000Y-94615000D01*
X124353000Y-94869000D01*
X124333000Y-94869000D01*
X124333000Y-95795783D01*
X124333000Y-96228217D01*
X124333000Y-97155000D01*
X124353000Y-97155000D01*
X124353000Y-97409000D01*
X124333000Y-97409000D01*
X124333000Y-98335783D01*
X124333000Y-98768217D01*
X124333000Y-99695000D01*
X124353000Y-99695000D01*
X124353000Y-99949000D01*
X124333000Y-99949000D01*
X124333000Y-101308217D01*
X124565026Y-101429358D01*
X124580791Y-101426709D01*
X125108036Y-101172732D01*
X125479539Y-100756930D01*
X125686330Y-101066415D01*
X126172511Y-101391271D01*
X126746000Y-101505345D01*
X127319489Y-101391271D01*
X127805670Y-101066415D01*
X127820500Y-101044219D01*
X127884073Y-101197698D01*
X128062701Y-101376327D01*
X128296090Y-101473000D01*
X128548709Y-101473000D01*
X128767532Y-101473000D01*
X128782540Y-101495460D01*
X130352000Y-103064920D01*
X130352000Y-107274729D01*
G36*
X138660688Y-113080000D02*
X134660920Y-113080000D01*
X134316000Y-112735080D01*
X134316000Y-111621608D01*
X134614920Y-111498097D01*
X134865218Y-111248236D01*
X135000846Y-110921609D01*
X135001154Y-110567943D01*
X134866097Y-110241080D01*
X134824000Y-110198909D01*
X134824000Y-104431382D01*
X134865218Y-104390236D01*
X135000846Y-104063609D01*
X135001154Y-103709943D01*
X134866097Y-103383080D01*
X134616236Y-103132782D01*
X134316000Y-103008112D01*
X134316000Y-99930783D01*
X134373903Y-100070920D01*
X134623764Y-100321218D01*
X134950391Y-100456846D01*
X135304057Y-100457154D01*
X135630920Y-100322097D01*
X135881218Y-100072236D01*
X136005887Y-99772000D01*
X136028391Y-99772000D01*
X136151903Y-100070920D01*
X136194000Y-100113090D01*
X136194000Y-104394000D01*
X136248198Y-104666471D01*
X136402540Y-104897460D01*
X138443502Y-106938422D01*
X138435080Y-106941903D01*
X138184782Y-107191764D01*
X138049154Y-107518391D01*
X138048846Y-107872057D01*
X138183903Y-108198920D01*
X138225999Y-108241090D01*
X138225999Y-109971342D01*
X138181080Y-109989903D01*
X137930782Y-110239764D01*
X137922146Y-110260560D01*
X137914097Y-110241080D01*
X137872000Y-110198909D01*
X137872000Y-110042362D01*
X137913218Y-110001216D01*
X138048846Y-109674589D01*
X138049154Y-109320923D01*
X137914097Y-108994060D01*
X137664236Y-108743762D01*
X137337609Y-108608134D01*
X136983943Y-108607826D01*
X136657080Y-108742883D01*
X136406782Y-108992744D01*
X136271154Y-109319371D01*
X136270846Y-109673037D01*
X136405903Y-109999900D01*
X136448000Y-110042070D01*
X136448000Y-110198617D01*
X136406782Y-110239764D01*
X136271154Y-110566391D01*
X136270846Y-110920057D01*
X136405903Y-111246920D01*
X136655764Y-111497218D01*
X136982391Y-111632846D01*
X137336057Y-111633154D01*
X137662920Y-111498097D01*
X137913218Y-111248236D01*
X137921853Y-111227439D01*
X137929903Y-111246920D01*
X138179764Y-111497218D01*
X138506391Y-111632846D01*
X138606746Y-111632933D01*
X138414250Y-111825094D01*
X138278622Y-112151721D01*
X138278314Y-112505387D01*
X138413371Y-112832250D01*
X138660688Y-113080000D01*
X138660688Y-113080000D01*
G37*
X138660688Y-113080000D02*
X134660920Y-113080000D01*
X134316000Y-112735080D01*
X134316000Y-111621608D01*
X134614920Y-111498097D01*
X134865218Y-111248236D01*
X135000846Y-110921609D01*
X135001154Y-110567943D01*
X134866097Y-110241080D01*
X134824000Y-110198909D01*
X134824000Y-104431382D01*
X134865218Y-104390236D01*
X135000846Y-104063609D01*
X135001154Y-103709943D01*
X134866097Y-103383080D01*
X134616236Y-103132782D01*
X134316000Y-103008112D01*
X134316000Y-99930783D01*
X134373903Y-100070920D01*
X134623764Y-100321218D01*
X134950391Y-100456846D01*
X135304057Y-100457154D01*
X135630920Y-100322097D01*
X135881218Y-100072236D01*
X136005887Y-99772000D01*
X136028391Y-99772000D01*
X136151903Y-100070920D01*
X136194000Y-100113090D01*
X136194000Y-104394000D01*
X136248198Y-104666471D01*
X136402540Y-104897460D01*
X138443502Y-106938422D01*
X138435080Y-106941903D01*
X138184782Y-107191764D01*
X138049154Y-107518391D01*
X138048846Y-107872057D01*
X138183903Y-108198920D01*
X138225999Y-108241090D01*
X138225999Y-109971342D01*
X138181080Y-109989903D01*
X137930782Y-110239764D01*
X137922146Y-110260560D01*
X137914097Y-110241080D01*
X137872000Y-110198909D01*
X137872000Y-110042362D01*
X137913218Y-110001216D01*
X138048846Y-109674589D01*
X138049154Y-109320923D01*
X137914097Y-108994060D01*
X137664236Y-108743762D01*
X137337609Y-108608134D01*
X136983943Y-108607826D01*
X136657080Y-108742883D01*
X136406782Y-108992744D01*
X136271154Y-109319371D01*
X136270846Y-109673037D01*
X136405903Y-109999900D01*
X136448000Y-110042070D01*
X136448000Y-110198617D01*
X136406782Y-110239764D01*
X136271154Y-110566391D01*
X136270846Y-110920057D01*
X136405903Y-111246920D01*
X136655764Y-111497218D01*
X136982391Y-111632846D01*
X137336057Y-111633154D01*
X137662920Y-111498097D01*
X137913218Y-111248236D01*
X137921853Y-111227439D01*
X137929903Y-111246920D01*
X138179764Y-111497218D01*
X138506391Y-111632846D01*
X138606746Y-111632933D01*
X138414250Y-111825094D01*
X138278622Y-112151721D01*
X138278314Y-112505387D01*
X138413371Y-112832250D01*
X138660688Y-113080000D01*
G36*
X142036000Y-110706617D02*
X141994782Y-110747764D01*
X141859154Y-111074391D01*
X141859102Y-111133977D01*
X141375750Y-111617330D01*
X139712850Y-111617330D01*
X139671704Y-111576112D01*
X139345077Y-111440484D01*
X139244721Y-111440396D01*
X139437218Y-111248236D01*
X139572846Y-110921609D01*
X139572954Y-110796663D01*
X139595801Y-110762472D01*
X139595801Y-110762471D01*
X139649999Y-110490001D01*
X139649999Y-108395359D01*
X139703764Y-108449218D01*
X140030391Y-108584846D01*
X140384057Y-108585154D01*
X140710920Y-108450097D01*
X140961218Y-108200236D01*
X141096846Y-107873609D01*
X141097154Y-107519943D01*
X140962097Y-107193080D01*
X140712236Y-106942782D01*
X140385609Y-106807154D01*
X140326022Y-106807102D01*
X137618000Y-104099080D01*
X137618000Y-102742957D01*
X137844057Y-102743154D01*
X138170920Y-102608097D01*
X138421218Y-102358236D01*
X138556846Y-102031609D01*
X138556897Y-101972022D01*
X138933460Y-101595460D01*
X139087802Y-101364471D01*
X139087802Y-101364470D01*
X139109660Y-101254580D01*
X142036000Y-104180920D01*
X142036000Y-110706617D01*
X142036000Y-110706617D01*
G37*
X142036000Y-110706617D02*
X141994782Y-110747764D01*
X141859154Y-111074391D01*
X141859102Y-111133977D01*
X141375750Y-111617330D01*
X139712850Y-111617330D01*
X139671704Y-111576112D01*
X139345077Y-111440484D01*
X139244721Y-111440396D01*
X139437218Y-111248236D01*
X139572846Y-110921609D01*
X139572954Y-110796663D01*
X139595801Y-110762472D01*
X139595801Y-110762471D01*
X139649999Y-110490001D01*
X139649999Y-108395359D01*
X139703764Y-108449218D01*
X140030391Y-108584846D01*
X140384057Y-108585154D01*
X140710920Y-108450097D01*
X140961218Y-108200236D01*
X141096846Y-107873609D01*
X141097154Y-107519943D01*
X140962097Y-107193080D01*
X140712236Y-106942782D01*
X140385609Y-106807154D01*
X140326022Y-106807102D01*
X137618000Y-104099080D01*
X137618000Y-102742957D01*
X137844057Y-102743154D01*
X138170920Y-102608097D01*
X138421218Y-102358236D01*
X138556846Y-102031609D01*
X138556897Y-101972022D01*
X138933460Y-101595460D01*
X139087802Y-101364471D01*
X139087802Y-101364470D01*
X139109660Y-101254580D01*
X142036000Y-104180920D01*
X142036000Y-110706617D01*
G36*
X162707000Y-117602000D02*
X162687000Y-117602000D01*
X162687000Y-117622000D01*
X162433000Y-117622000D01*
X162433000Y-117602000D01*
X162413000Y-117602000D01*
X162413000Y-117348000D01*
X162433000Y-117348000D01*
X162433000Y-117328000D01*
X162687000Y-117328000D01*
X162687000Y-117348000D01*
X162707000Y-117348000D01*
X162707000Y-117602000D01*
X162707000Y-117602000D01*
G37*
X162707000Y-117602000D02*
X162687000Y-117602000D01*
X162687000Y-117622000D01*
X162433000Y-117622000D01*
X162433000Y-117602000D01*
X162413000Y-117602000D01*
X162413000Y-117348000D01*
X162433000Y-117348000D01*
X162433000Y-117328000D01*
X162687000Y-117328000D01*
X162687000Y-117348000D01*
X162707000Y-117348000D01*
X162707000Y-117602000D01*
G36*
X187910000Y-109152532D02*
X187722066Y-110097339D01*
X187722066Y-81650120D01*
X187702710Y-80880573D01*
X187445455Y-80259504D01*
X187147459Y-80124146D01*
X186967854Y-80303751D01*
X186967854Y-79944541D01*
X186832496Y-79646545D01*
X186114120Y-79369934D01*
X185344573Y-79389290D01*
X184956874Y-79549880D01*
X185122672Y-79150595D01*
X185123326Y-78400695D01*
X184953662Y-77990077D01*
X185441880Y-78178066D01*
X186211427Y-78158710D01*
X186832496Y-77901455D01*
X186967854Y-77603459D01*
X185778000Y-76413605D01*
X185763857Y-76427747D01*
X185584252Y-76248142D01*
X185598395Y-76234000D01*
X184408541Y-75044146D01*
X184110545Y-75179504D01*
X183833934Y-75897880D01*
X183853290Y-76667427D01*
X184013880Y-77055125D01*
X183614595Y-76889328D01*
X182864695Y-76888674D01*
X182454077Y-77058337D01*
X182642066Y-76570120D01*
X182622710Y-75800573D01*
X182365455Y-75179504D01*
X182067459Y-75044146D01*
X181887854Y-75223751D01*
X181887854Y-74864541D01*
X181752496Y-74566545D01*
X181034120Y-74289934D01*
X180264573Y-74309290D01*
X179643504Y-74566545D01*
X179508146Y-74864541D01*
X180698000Y-76054395D01*
X181887854Y-74864541D01*
X181887854Y-75223751D01*
X180877605Y-76234000D01*
X180891747Y-76248142D01*
X180712142Y-76427747D01*
X180698000Y-76413605D01*
X180518395Y-76593210D01*
X180518395Y-76234000D01*
X179328541Y-75044146D01*
X179030545Y-75179504D01*
X178753934Y-75897880D01*
X178773290Y-76667427D01*
X179030545Y-77288496D01*
X179328541Y-77423854D01*
X180518395Y-76234000D01*
X180518395Y-76593210D01*
X179508146Y-77603459D01*
X179643504Y-77901455D01*
X180361880Y-78178066D01*
X181131427Y-78158710D01*
X181519125Y-77998119D01*
X181353328Y-78397405D01*
X181352674Y-79147305D01*
X181522337Y-79557922D01*
X181034120Y-79369934D01*
X180264573Y-79389290D01*
X179643504Y-79646545D01*
X179508146Y-79944541D01*
X180698000Y-81134395D01*
X180712142Y-81120252D01*
X180891747Y-81299857D01*
X180877605Y-81314000D01*
X182067459Y-82503854D01*
X182365455Y-82368496D01*
X182642066Y-81650120D01*
X182622710Y-80880573D01*
X182462119Y-80492874D01*
X182861405Y-80658672D01*
X183611305Y-80659326D01*
X184021922Y-80489662D01*
X183833934Y-80977880D01*
X183853290Y-81747427D01*
X184110545Y-82368496D01*
X184408541Y-82503854D01*
X185598395Y-81314000D01*
X185584252Y-81299857D01*
X185763857Y-81120252D01*
X185778000Y-81134395D01*
X186967854Y-79944541D01*
X186967854Y-80303751D01*
X185957605Y-81314000D01*
X187147459Y-82503854D01*
X187445455Y-82368496D01*
X187722066Y-81650120D01*
X187722066Y-110097339D01*
X187077600Y-113337289D01*
X187077600Y-112296310D01*
X187077600Y-112043691D01*
X187077600Y-110011691D01*
X186980927Y-109778302D01*
X186802299Y-109599673D01*
X186568910Y-109503000D01*
X186316291Y-109503000D01*
X184589091Y-109503000D01*
X184355702Y-109599673D01*
X184177073Y-109778301D01*
X184113499Y-109931779D01*
X184098670Y-109909585D01*
X183612489Y-109584729D01*
X183039000Y-109470655D01*
X182465511Y-109584729D01*
X181979330Y-109909585D01*
X181769000Y-110224365D01*
X181558670Y-109909585D01*
X181072489Y-109584729D01*
X180499000Y-109470655D01*
X179925511Y-109584729D01*
X179439330Y-109909585D01*
X179229000Y-110224365D01*
X179018670Y-109909585D01*
X178532489Y-109584729D01*
X177959000Y-109470655D01*
X177385511Y-109584729D01*
X176899330Y-109909585D01*
X176689000Y-110224365D01*
X176478670Y-109909585D01*
X175992489Y-109584729D01*
X175419000Y-109470655D01*
X174845511Y-109584729D01*
X174359330Y-109909585D01*
X174149000Y-110224365D01*
X173938670Y-109909585D01*
X173452489Y-109584729D01*
X172879000Y-109470655D01*
X172305511Y-109584729D01*
X171819330Y-109909585D01*
X171609000Y-110224365D01*
X171398670Y-109909585D01*
X170912489Y-109584729D01*
X170339000Y-109470655D01*
X169765511Y-109584729D01*
X169279330Y-109909585D01*
X169069000Y-110224365D01*
X168858670Y-109909585D01*
X168372489Y-109584729D01*
X167799000Y-109470655D01*
X167225511Y-109584729D01*
X166739330Y-109909585D01*
X166529000Y-110224365D01*
X166318670Y-109909585D01*
X165832489Y-109584729D01*
X165259000Y-109470655D01*
X164685511Y-109584729D01*
X164199330Y-109909585D01*
X163989000Y-110224365D01*
X163778670Y-109909585D01*
X163292489Y-109584729D01*
X162719000Y-109470655D01*
X162592000Y-109495916D01*
X162592000Y-90865217D01*
X162592000Y-89506000D01*
X162592000Y-89252000D01*
X162592000Y-87892783D01*
X162359974Y-87771642D01*
X162344209Y-87774291D01*
X161816964Y-88028268D01*
X161427046Y-88464680D01*
X161233816Y-89017087D01*
X161378076Y-89252000D01*
X162592000Y-89252000D01*
X162592000Y-89506000D01*
X161378076Y-89506000D01*
X161233816Y-89740913D01*
X161427046Y-90293320D01*
X161816964Y-90729732D01*
X162344209Y-90983709D01*
X162359974Y-90986358D01*
X162592000Y-90865217D01*
X162592000Y-109495916D01*
X162145511Y-109584729D01*
X161659330Y-109909585D01*
X161334474Y-110395766D01*
X161220400Y-110969255D01*
X161220400Y-111338745D01*
X161334474Y-111912234D01*
X161659330Y-112398415D01*
X162145511Y-112723271D01*
X162719000Y-112837345D01*
X163292489Y-112723271D01*
X163778670Y-112398415D01*
X163989000Y-112083634D01*
X164199330Y-112398415D01*
X164685511Y-112723271D01*
X165259000Y-112837345D01*
X165832489Y-112723271D01*
X166318670Y-112398415D01*
X166529000Y-112083634D01*
X166739330Y-112398415D01*
X167225511Y-112723271D01*
X167799000Y-112837345D01*
X168372489Y-112723271D01*
X168858670Y-112398415D01*
X169069000Y-112083634D01*
X169279330Y-112398415D01*
X169765511Y-112723271D01*
X170339000Y-112837345D01*
X170912489Y-112723271D01*
X171398670Y-112398415D01*
X171609000Y-112083634D01*
X171819330Y-112398415D01*
X172305511Y-112723271D01*
X172879000Y-112837345D01*
X173452489Y-112723271D01*
X173938670Y-112398415D01*
X174149000Y-112083634D01*
X174359330Y-112398415D01*
X174845511Y-112723271D01*
X175419000Y-112837345D01*
X175992489Y-112723271D01*
X176478670Y-112398415D01*
X176689000Y-112083634D01*
X176899330Y-112398415D01*
X177385511Y-112723271D01*
X177959000Y-112837345D01*
X178532489Y-112723271D01*
X179018670Y-112398415D01*
X179229000Y-112083634D01*
X179439330Y-112398415D01*
X179925511Y-112723271D01*
X180499000Y-112837345D01*
X181072489Y-112723271D01*
X181558670Y-112398415D01*
X181769000Y-112083634D01*
X181979330Y-112398415D01*
X182465511Y-112723271D01*
X183039000Y-112837345D01*
X183612489Y-112723271D01*
X184098670Y-112398415D01*
X184113500Y-112376219D01*
X184177073Y-112529698D01*
X184355701Y-112708327D01*
X184589090Y-112805000D01*
X184841709Y-112805000D01*
X186568909Y-112805000D01*
X186802298Y-112708327D01*
X186980927Y-112529699D01*
X187077600Y-112296310D01*
X187077600Y-113337289D01*
X186983014Y-113812805D01*
X184381397Y-117706399D01*
X180487804Y-120308014D01*
X179174063Y-120569333D01*
X179254958Y-120374026D01*
X179254958Y-119655974D01*
X179082688Y-119240053D01*
X178688490Y-118808179D01*
X178553687Y-118745000D01*
X178688490Y-118681821D01*
X179082688Y-118249947D01*
X179254958Y-117834026D01*
X179254958Y-117115974D01*
X179082688Y-116700053D01*
X178688490Y-116268179D01*
X178159027Y-116020032D01*
X177927000Y-116140531D01*
X177927000Y-117348000D01*
X179133817Y-117348000D01*
X179254958Y-117115974D01*
X179254958Y-117834026D01*
X179133817Y-117602000D01*
X177927000Y-117602000D01*
X177927000Y-118680531D01*
X177927000Y-118809469D01*
X177927000Y-119888000D01*
X179133817Y-119888000D01*
X179254958Y-119655974D01*
X179254958Y-120374026D01*
X179133817Y-120142000D01*
X177927000Y-120142000D01*
X177927000Y-120162000D01*
X177673000Y-120162000D01*
X177673000Y-120142000D01*
X177673000Y-119888000D01*
X177673000Y-118809469D01*
X177673000Y-118680531D01*
X177673000Y-117602000D01*
X177673000Y-117348000D01*
X177673000Y-116140531D01*
X177440973Y-116020032D01*
X176911510Y-116268179D01*
X176530000Y-116686152D01*
X176148490Y-116268179D01*
X175619027Y-116020032D01*
X175387000Y-116140531D01*
X175387000Y-117348000D01*
X176466183Y-117348000D01*
X176593817Y-117348000D01*
X177673000Y-117348000D01*
X177673000Y-117602000D01*
X176593817Y-117602000D01*
X176466183Y-117602000D01*
X175387000Y-117602000D01*
X175387000Y-118680531D01*
X175387000Y-118809469D01*
X175387000Y-119888000D01*
X176466183Y-119888000D01*
X176593817Y-119888000D01*
X177673000Y-119888000D01*
X177673000Y-120142000D01*
X176593817Y-120142000D01*
X176466183Y-120142000D01*
X175387000Y-120142000D01*
X175387000Y-120162000D01*
X175133000Y-120162000D01*
X175133000Y-120142000D01*
X175113000Y-120142000D01*
X175113000Y-119888000D01*
X175133000Y-119888000D01*
X175133000Y-118809469D01*
X175133000Y-118680531D01*
X175133000Y-117602000D01*
X175113000Y-117602000D01*
X175113000Y-117348000D01*
X175133000Y-117348000D01*
X175133000Y-116140531D01*
X174900973Y-116020032D01*
X174371510Y-116268179D01*
X173989992Y-116686160D01*
X173809029Y-116415330D01*
X173322848Y-116090474D01*
X172749359Y-115976400D01*
X172690641Y-115976400D01*
X172305023Y-116053103D01*
X171572460Y-115320540D01*
X171341471Y-115166198D01*
X171069000Y-115112000D01*
X153644600Y-115112000D01*
X153644600Y-115037291D01*
X153644600Y-113310091D01*
X153547927Y-113076702D01*
X153369299Y-112898073D01*
X153215473Y-112834356D01*
X153530526Y-112362848D01*
X153644600Y-111789359D01*
X153644600Y-111730641D01*
X153530526Y-111157152D01*
X153205670Y-110670971D01*
X152934827Y-110490000D01*
X153205670Y-110309029D01*
X153530526Y-109822848D01*
X153644600Y-109249359D01*
X153644600Y-109190641D01*
X153530526Y-108617152D01*
X153205670Y-108130971D01*
X152934827Y-107950000D01*
X153205670Y-107769029D01*
X153530526Y-107282848D01*
X153644600Y-106709359D01*
X153644600Y-106650641D01*
X153530526Y-106077152D01*
X153205670Y-105590971D01*
X152934827Y-105410000D01*
X153205670Y-105229029D01*
X153530526Y-104742848D01*
X153644600Y-104169359D01*
X153644600Y-104110641D01*
X153530526Y-103537152D01*
X153205670Y-103050971D01*
X152934827Y-102870000D01*
X153205670Y-102689029D01*
X153530526Y-102202848D01*
X153644600Y-101629359D01*
X153644600Y-101570641D01*
X153530526Y-100997152D01*
X153205670Y-100510971D01*
X152934827Y-100330000D01*
X153205670Y-100149029D01*
X153530526Y-99662848D01*
X153644600Y-99089359D01*
X153644600Y-99030641D01*
X153530526Y-98457152D01*
X153205670Y-97970971D01*
X152719489Y-97646115D01*
X152146000Y-97532041D01*
X151572511Y-97646115D01*
X151086330Y-97970971D01*
X150870336Y-98294228D01*
X150812821Y-98171510D01*
X150380947Y-97777312D01*
X149965026Y-97605042D01*
X149733000Y-97726183D01*
X149733000Y-98933000D01*
X149753000Y-98933000D01*
X149753000Y-99187000D01*
X149733000Y-99187000D01*
X149733000Y-100266183D01*
X149733000Y-100393817D01*
X149733000Y-101473000D01*
X149753000Y-101473000D01*
X149753000Y-101727000D01*
X149733000Y-101727000D01*
X149733000Y-102806183D01*
X149733000Y-102933817D01*
X149733000Y-104013000D01*
X149753000Y-104013000D01*
X149753000Y-104267000D01*
X149733000Y-104267000D01*
X149733000Y-105346183D01*
X149733000Y-105473817D01*
X149733000Y-106553000D01*
X149753000Y-106553000D01*
X149753000Y-106807000D01*
X149733000Y-106807000D01*
X149733000Y-107886183D01*
X149733000Y-108013817D01*
X149733000Y-109093000D01*
X149753000Y-109093000D01*
X149753000Y-109347000D01*
X149733000Y-109347000D01*
X149733000Y-110426183D01*
X149733000Y-110553817D01*
X149733000Y-111633000D01*
X149753000Y-111633000D01*
X149753000Y-111887000D01*
X149733000Y-111887000D01*
X149733000Y-112966183D01*
X149733000Y-113093817D01*
X149733000Y-114173000D01*
X149753000Y-114173000D01*
X149753000Y-114427000D01*
X149733000Y-114427000D01*
X149733000Y-114447000D01*
X149479000Y-114447000D01*
X149479000Y-114427000D01*
X149479000Y-114173000D01*
X149479000Y-113093817D01*
X149479000Y-112966183D01*
X149479000Y-111887000D01*
X149479000Y-111633000D01*
X149479000Y-110553817D01*
X149479000Y-110426183D01*
X149479000Y-109347000D01*
X149479000Y-109093000D01*
X149479000Y-108013817D01*
X149479000Y-107886183D01*
X149479000Y-106807000D01*
X149479000Y-106553000D01*
X149479000Y-105473817D01*
X149479000Y-105346183D01*
X149479000Y-104267000D01*
X149479000Y-104013000D01*
X149479000Y-102933817D01*
X149479000Y-102806183D01*
X149479000Y-101727000D01*
X149479000Y-101473000D01*
X149479000Y-100393817D01*
X149479000Y-100266183D01*
X149479000Y-99187000D01*
X149479000Y-98933000D01*
X149479000Y-97726183D01*
X149246974Y-97605042D01*
X148831053Y-97777312D01*
X148399179Y-98171510D01*
X148151032Y-98700973D01*
X148271531Y-98933000D01*
X149479000Y-98933000D01*
X149479000Y-99187000D01*
X148271531Y-99187000D01*
X148151032Y-99419027D01*
X148399179Y-99948490D01*
X148817152Y-100330000D01*
X148399179Y-100711510D01*
X148151032Y-101240973D01*
X148271531Y-101473000D01*
X149479000Y-101473000D01*
X149479000Y-101727000D01*
X148271531Y-101727000D01*
X148151032Y-101959027D01*
X148399179Y-102488490D01*
X148817152Y-102870000D01*
X148399179Y-103251510D01*
X148151032Y-103780973D01*
X148271531Y-104013000D01*
X149479000Y-104013000D01*
X149479000Y-104267000D01*
X148271531Y-104267000D01*
X148151032Y-104499027D01*
X148399179Y-105028490D01*
X148817152Y-105410000D01*
X148399179Y-105791510D01*
X148151032Y-106320973D01*
X148271531Y-106553000D01*
X149479000Y-106553000D01*
X149479000Y-106807000D01*
X148271531Y-106807000D01*
X148151032Y-107039027D01*
X148399179Y-107568490D01*
X148817152Y-107950000D01*
X148399179Y-108331510D01*
X148151032Y-108860973D01*
X148271531Y-109093000D01*
X149479000Y-109093000D01*
X149479000Y-109347000D01*
X148271531Y-109347000D01*
X148151032Y-109579027D01*
X148399179Y-110108490D01*
X148817152Y-110490000D01*
X148399179Y-110871510D01*
X148151032Y-111400973D01*
X148271531Y-111633000D01*
X149479000Y-111633000D01*
X149479000Y-111887000D01*
X148271531Y-111887000D01*
X148151032Y-112119027D01*
X148399179Y-112648490D01*
X148817152Y-113030000D01*
X148399179Y-113411510D01*
X148151032Y-113940973D01*
X148271531Y-114173000D01*
X149479000Y-114173000D01*
X149479000Y-114427000D01*
X148271531Y-114427000D01*
X148151032Y-114659027D01*
X148363329Y-115112000D01*
X147868920Y-115112000D01*
X146045460Y-113288540D01*
X145814471Y-113134198D01*
X145542000Y-113080000D01*
X139673820Y-113080000D01*
X139712558Y-113041330D01*
X141670670Y-113041330D01*
X141943140Y-112987132D01*
X141943141Y-112987132D01*
X142174130Y-112832790D01*
X142865816Y-112141103D01*
X142924057Y-112141154D01*
X143250920Y-112006097D01*
X143501218Y-111756236D01*
X143636846Y-111429609D01*
X143637154Y-111075943D01*
X143502097Y-110749080D01*
X143460000Y-110706909D01*
X143460000Y-103886000D01*
X143405802Y-103613530D01*
X143405802Y-103613529D01*
X143251460Y-103382540D01*
X140326023Y-100457103D01*
X140384057Y-100457154D01*
X140710920Y-100322097D01*
X140961218Y-100072236D01*
X141096846Y-99745609D01*
X141097154Y-99391943D01*
X140962097Y-99065080D01*
X140712236Y-98814782D01*
X140385609Y-98679154D01*
X140326022Y-98679102D01*
X140203460Y-98556540D01*
X139972471Y-98402198D01*
X139700000Y-98348000D01*
X135636000Y-98348000D01*
X135363529Y-98402198D01*
X135132540Y-98556540D01*
X135010183Y-98678896D01*
X134951943Y-98678846D01*
X134625080Y-98813903D01*
X134374782Y-99063764D01*
X134316000Y-99205326D01*
X134316000Y-90422400D01*
X134261802Y-90149930D01*
X134261802Y-90149929D01*
X134107460Y-89918940D01*
X130807060Y-86618540D01*
X130784600Y-86603532D01*
X130784600Y-85979691D01*
X130731708Y-85852000D01*
X130784600Y-85724310D01*
X130784600Y-85471691D01*
X130784600Y-85100467D01*
X130807060Y-85085460D01*
X131313460Y-84579060D01*
X131467802Y-84348071D01*
X131467803Y-84348070D01*
X131522000Y-84075600D01*
X131522000Y-80939835D01*
X131576540Y-81021460D01*
X141604896Y-91049816D01*
X141604846Y-91108057D01*
X141739903Y-91434920D01*
X141989764Y-91685218D01*
X142316391Y-91820846D01*
X142670057Y-91821154D01*
X142996920Y-91686097D01*
X143247218Y-91436236D01*
X143382846Y-91109609D01*
X143383154Y-90755943D01*
X143248097Y-90429080D01*
X142998236Y-90178782D01*
X142671609Y-90043154D01*
X142612022Y-90043102D01*
X132792000Y-80223080D01*
X132792000Y-79285382D01*
X132833218Y-79244236D01*
X132968846Y-78917609D01*
X132969154Y-78563943D01*
X132834097Y-78237080D01*
X132584236Y-77986782D01*
X132257609Y-77851154D01*
X131903943Y-77850846D01*
X131577080Y-77985903D01*
X131522000Y-78040886D01*
X131522000Y-74462920D01*
X131612920Y-74372000D01*
X142875000Y-74372000D01*
X143147470Y-74317802D01*
X143147471Y-74317802D01*
X143378460Y-74163460D01*
X144365023Y-73176896D01*
X144750641Y-73253600D01*
X144809359Y-73253600D01*
X145382848Y-73139526D01*
X145869029Y-72814670D01*
X146050000Y-72543827D01*
X146230971Y-72814670D01*
X146717152Y-73139526D01*
X147290641Y-73253600D01*
X147349359Y-73253600D01*
X147922848Y-73139526D01*
X148409029Y-72814670D01*
X148590000Y-72543827D01*
X148770971Y-72814670D01*
X149257152Y-73139526D01*
X149830641Y-73253600D01*
X149889359Y-73253600D01*
X150462848Y-73139526D01*
X150949029Y-72814670D01*
X151130000Y-72543827D01*
X151310971Y-72814670D01*
X151797152Y-73139526D01*
X152370641Y-73253600D01*
X152429359Y-73253600D01*
X153002848Y-73139526D01*
X153489029Y-72814670D01*
X153670000Y-72543827D01*
X153850971Y-72814670D01*
X154337152Y-73139526D01*
X154910641Y-73253600D01*
X154969359Y-73253600D01*
X155542848Y-73139526D01*
X156029029Y-72814670D01*
X156210000Y-72543827D01*
X156390971Y-72814670D01*
X156877152Y-73139526D01*
X157450641Y-73253600D01*
X157509359Y-73253600D01*
X158082848Y-73139526D01*
X158569029Y-72814670D01*
X158750000Y-72543827D01*
X158930971Y-72814670D01*
X159417152Y-73139526D01*
X159990641Y-73253600D01*
X160049359Y-73253600D01*
X160434976Y-73176896D01*
X163101610Y-75843530D01*
X163101610Y-79175584D01*
X163090699Y-79164673D01*
X162857310Y-79068000D01*
X162604691Y-79068000D01*
X158434691Y-79068000D01*
X158201302Y-79164673D01*
X158022673Y-79343301D01*
X157926000Y-79576690D01*
X157926000Y-79829309D01*
X157926000Y-83999309D01*
X158022673Y-84232698D01*
X158201301Y-84411327D01*
X158434690Y-84508000D01*
X158687309Y-84508000D01*
X159934000Y-84508000D01*
X159934000Y-85947080D01*
X153491000Y-92390080D01*
X153491000Y-83894310D01*
X153491000Y-83641691D01*
X153491000Y-82073750D01*
X153491000Y-81502250D01*
X153491000Y-79934309D01*
X153491000Y-79681690D01*
X153394327Y-79448301D01*
X153215698Y-79269673D01*
X152982309Y-79173000D01*
X151161750Y-79173000D01*
X151003000Y-79331750D01*
X151003000Y-81661000D01*
X153332250Y-81661000D01*
X153491000Y-81502250D01*
X153491000Y-82073750D01*
X153332250Y-81915000D01*
X151003000Y-81915000D01*
X151003000Y-84244250D01*
X151161750Y-84403000D01*
X152982309Y-84403000D01*
X153215698Y-84306327D01*
X153394327Y-84127699D01*
X153491000Y-83894310D01*
X153491000Y-92390080D01*
X153375080Y-92506000D01*
X150749000Y-92506000D01*
X150749000Y-84244250D01*
X150749000Y-81915000D01*
X150749000Y-81661000D01*
X150749000Y-79331750D01*
X150590250Y-79173000D01*
X148769691Y-79173000D01*
X148536302Y-79269673D01*
X148357673Y-79448301D01*
X148261000Y-79681690D01*
X148261000Y-79934309D01*
X148261000Y-81502250D01*
X148419750Y-81661000D01*
X150749000Y-81661000D01*
X150749000Y-81915000D01*
X148419750Y-81915000D01*
X148261000Y-82073750D01*
X148261000Y-83641691D01*
X148261000Y-83894310D01*
X148357673Y-84127699D01*
X148536302Y-84306327D01*
X148769691Y-84403000D01*
X150590250Y-84403000D01*
X150749000Y-84244250D01*
X150749000Y-92506000D01*
X148627382Y-92506000D01*
X148586236Y-92464782D01*
X148259609Y-92329154D01*
X148200022Y-92329102D01*
X141818000Y-85947080D01*
X141818000Y-84508000D01*
X143317309Y-84508000D01*
X143550698Y-84411327D01*
X143729327Y-84232699D01*
X143826000Y-83999310D01*
X143826000Y-83746691D01*
X143826000Y-79576691D01*
X143729327Y-79343302D01*
X143550699Y-79164673D01*
X143317310Y-79068000D01*
X143064691Y-79068000D01*
X138894691Y-79068000D01*
X138661302Y-79164673D01*
X138482673Y-79343301D01*
X138386000Y-79576690D01*
X138386000Y-79829309D01*
X138386000Y-83999309D01*
X138482673Y-84232698D01*
X138661301Y-84411327D01*
X138894690Y-84508000D01*
X139147309Y-84508000D01*
X140394000Y-84508000D01*
X140394000Y-86242000D01*
X140448198Y-86514471D01*
X140602540Y-86745460D01*
X147192896Y-93335816D01*
X147192846Y-93394057D01*
X147327903Y-93720920D01*
X147577764Y-93971218D01*
X147904391Y-94106846D01*
X148258057Y-94107154D01*
X148584920Y-93972097D01*
X148627090Y-93930000D01*
X153670000Y-93930000D01*
X153942470Y-93875802D01*
X153942471Y-93875802D01*
X154173460Y-93721460D01*
X161149460Y-86745460D01*
X161303802Y-86514471D01*
X161303802Y-86514470D01*
X161358000Y-86242000D01*
X161358000Y-84508000D01*
X162857309Y-84508000D01*
X163090698Y-84411327D01*
X163101610Y-84400415D01*
X163101610Y-87778057D01*
X163093791Y-87774291D01*
X163078026Y-87771642D01*
X162846000Y-87892783D01*
X162846000Y-89252000D01*
X162866000Y-89252000D01*
X162866000Y-89506000D01*
X162846000Y-89506000D01*
X162846000Y-90865217D01*
X163078026Y-90986358D01*
X163093791Y-90983709D01*
X163101610Y-90979942D01*
X163101610Y-102699610D01*
X163155808Y-102972081D01*
X163310150Y-103203070D01*
X164285652Y-104178572D01*
X163969474Y-104651766D01*
X163855400Y-105225255D01*
X163855400Y-105594745D01*
X163969474Y-106168234D01*
X164294330Y-106654415D01*
X164780511Y-106979271D01*
X165354000Y-107093345D01*
X165927489Y-106979271D01*
X166413670Y-106654415D01*
X166624000Y-106339634D01*
X166834330Y-106654415D01*
X167320511Y-106979271D01*
X167894000Y-107093345D01*
X168467489Y-106979271D01*
X168953670Y-106654415D01*
X169164000Y-106339634D01*
X169374330Y-106654415D01*
X169860511Y-106979271D01*
X170434000Y-107093345D01*
X171007489Y-106979271D01*
X171493670Y-106654415D01*
X171704000Y-106339634D01*
X171914330Y-106654415D01*
X172400511Y-106979271D01*
X172974000Y-107093345D01*
X173547489Y-106979271D01*
X174033670Y-106654415D01*
X174244000Y-106339634D01*
X174454330Y-106654415D01*
X174940511Y-106979271D01*
X175514000Y-107093345D01*
X176087489Y-106979271D01*
X176573670Y-106654415D01*
X176784000Y-106339634D01*
X176994330Y-106654415D01*
X177480511Y-106979271D01*
X178054000Y-107093345D01*
X178627489Y-106979271D01*
X179113670Y-106654415D01*
X179324000Y-106339634D01*
X179534330Y-106654415D01*
X180020511Y-106979271D01*
X180594000Y-107093345D01*
X181167489Y-106979271D01*
X181653670Y-106654415D01*
X181864000Y-106339634D01*
X182074330Y-106654415D01*
X182560511Y-106979271D01*
X183134000Y-107093345D01*
X183707489Y-106979271D01*
X184193670Y-106654415D01*
X184208500Y-106632219D01*
X184272073Y-106785698D01*
X184450701Y-106964327D01*
X184684090Y-107061000D01*
X184936709Y-107061000D01*
X186663909Y-107061000D01*
X186897298Y-106964327D01*
X187075927Y-106785699D01*
X187172600Y-106552310D01*
X187172600Y-106299691D01*
X187172600Y-104267691D01*
X187075927Y-104034302D01*
X186897299Y-103855673D01*
X186663910Y-103759000D01*
X186411291Y-103759000D01*
X184684091Y-103759000D01*
X184450702Y-103855673D01*
X184272073Y-104034301D01*
X184208499Y-104187779D01*
X184193670Y-104165585D01*
X183707489Y-103840729D01*
X183134000Y-103726655D01*
X182560511Y-103840729D01*
X182074330Y-104165585D01*
X181864000Y-104480365D01*
X181653670Y-104165585D01*
X181167489Y-103840729D01*
X180594000Y-103726655D01*
X180020511Y-103840729D01*
X179534330Y-104165585D01*
X179324000Y-104480365D01*
X179113670Y-104165585D01*
X178627489Y-103840729D01*
X178054000Y-103726655D01*
X177480511Y-103840729D01*
X176994330Y-104165585D01*
X176784000Y-104480365D01*
X176573670Y-104165585D01*
X176087489Y-103840729D01*
X175514000Y-103726655D01*
X174940511Y-103840729D01*
X174454330Y-104165585D01*
X174244000Y-104480365D01*
X174033670Y-104165585D01*
X173547489Y-103840729D01*
X172974000Y-103726655D01*
X172400511Y-103840729D01*
X171914330Y-104165585D01*
X171704000Y-104480365D01*
X171493670Y-104165585D01*
X171007489Y-103840729D01*
X170434000Y-103726655D01*
X169860511Y-103840729D01*
X169374330Y-104165585D01*
X169164000Y-104480365D01*
X168953670Y-104165585D01*
X168467489Y-103840729D01*
X167894000Y-103726655D01*
X167456916Y-103813596D01*
X164876390Y-101233070D01*
X164876390Y-90986239D01*
X165259000Y-91062345D01*
X165832489Y-90948271D01*
X166318670Y-90623415D01*
X166529000Y-90308634D01*
X166739330Y-90623415D01*
X167225511Y-90948271D01*
X167799000Y-91062345D01*
X168372489Y-90948271D01*
X168709900Y-90722820D01*
X171280930Y-93293850D01*
X171511919Y-93448192D01*
X171511920Y-93448192D01*
X171784390Y-93502390D01*
X178987608Y-93502390D01*
X179077903Y-93720920D01*
X179327764Y-93971218D01*
X179654391Y-94106846D01*
X180008057Y-94107154D01*
X180334920Y-93972097D01*
X180585218Y-93722236D01*
X180720846Y-93395609D01*
X180721154Y-93041943D01*
X180668289Y-92914000D01*
X181061080Y-92914000D01*
X181482896Y-93335816D01*
X181482846Y-93394057D01*
X181617903Y-93720920D01*
X181867764Y-93971218D01*
X182194391Y-94106846D01*
X182548057Y-94107154D01*
X182874920Y-93972097D01*
X183125218Y-93722236D01*
X183260846Y-93395609D01*
X183261154Y-93041943D01*
X183126097Y-92715080D01*
X182876236Y-92464782D01*
X182549609Y-92329154D01*
X182490022Y-92329102D01*
X181859460Y-91698540D01*
X181628471Y-91544198D01*
X181356000Y-91490000D01*
X174030920Y-91490000D01*
X173474490Y-90933570D01*
X173938670Y-90623415D01*
X174149000Y-90308634D01*
X174359330Y-90623415D01*
X174845511Y-90948271D01*
X175419000Y-91062345D01*
X175992489Y-90948271D01*
X176478670Y-90623415D01*
X176689000Y-90308634D01*
X176899330Y-90623415D01*
X177385511Y-90948271D01*
X177959000Y-91062345D01*
X178532489Y-90948271D01*
X179018670Y-90623415D01*
X179229000Y-90308634D01*
X179439330Y-90623415D01*
X179925511Y-90948271D01*
X180499000Y-91062345D01*
X181072489Y-90948271D01*
X181558670Y-90623415D01*
X181769000Y-90308634D01*
X181979330Y-90623415D01*
X182465511Y-90948271D01*
X183039000Y-91062345D01*
X183612489Y-90948271D01*
X184098670Y-90623415D01*
X184113500Y-90601219D01*
X184177073Y-90754698D01*
X184355701Y-90933327D01*
X184589090Y-91030000D01*
X184841709Y-91030000D01*
X186568909Y-91030000D01*
X186802298Y-90933327D01*
X186980927Y-90754699D01*
X187077600Y-90521310D01*
X187077600Y-90268691D01*
X187077600Y-88236691D01*
X186980927Y-88003302D01*
X186967854Y-87990228D01*
X186967854Y-82683459D01*
X185778000Y-81493605D01*
X184588146Y-82683459D01*
X184723504Y-82981455D01*
X185441880Y-83258066D01*
X186211427Y-83238710D01*
X186832496Y-82981455D01*
X186967854Y-82683459D01*
X186967854Y-87990228D01*
X186802299Y-87824673D01*
X186568910Y-87728000D01*
X186316291Y-87728000D01*
X184589091Y-87728000D01*
X184355702Y-87824673D01*
X184177073Y-88003301D01*
X184113499Y-88156779D01*
X184098670Y-88134585D01*
X183612489Y-87809729D01*
X183039000Y-87695655D01*
X182465511Y-87809729D01*
X181979330Y-88134585D01*
X181887854Y-88271488D01*
X181887854Y-82683459D01*
X180698000Y-81493605D01*
X180518395Y-81673210D01*
X180518395Y-81314000D01*
X179328541Y-80124146D01*
X179030545Y-80259504D01*
X178753934Y-80977880D01*
X178773290Y-81747427D01*
X179030545Y-82368496D01*
X179328541Y-82503854D01*
X180518395Y-81314000D01*
X180518395Y-81673210D01*
X179508146Y-82683459D01*
X179643504Y-82981455D01*
X180361880Y-83258066D01*
X181131427Y-83238710D01*
X181752496Y-82981455D01*
X181887854Y-82683459D01*
X181887854Y-88271488D01*
X181769000Y-88449365D01*
X181558670Y-88134585D01*
X181072489Y-87809729D01*
X180499000Y-87695655D01*
X179925511Y-87809729D01*
X179439330Y-88134585D01*
X179229000Y-88449365D01*
X179018670Y-88134585D01*
X178532489Y-87809729D01*
X177959000Y-87695655D01*
X177385511Y-87809729D01*
X176899330Y-88134585D01*
X176689000Y-88449365D01*
X176478670Y-88134585D01*
X175992489Y-87809729D01*
X175419000Y-87695655D01*
X174845511Y-87809729D01*
X174359330Y-88134585D01*
X174149000Y-88449365D01*
X173938670Y-88134585D01*
X173452489Y-87809729D01*
X172879000Y-87695655D01*
X172305511Y-87809729D01*
X171894966Y-88084046D01*
X169622000Y-85811080D01*
X169622000Y-73148446D01*
X170150641Y-73253600D01*
X170209359Y-73253600D01*
X170782848Y-73139526D01*
X171269029Y-72814670D01*
X171450000Y-72543827D01*
X171630971Y-72814670D01*
X172117152Y-73139526D01*
X172690641Y-73253600D01*
X172749359Y-73253600D01*
X173322848Y-73139526D01*
X173809029Y-72814670D01*
X173990000Y-72543827D01*
X174170971Y-72814670D01*
X174657152Y-73139526D01*
X175230641Y-73253600D01*
X175289359Y-73253600D01*
X175862848Y-73139526D01*
X176349029Y-72814670D01*
X176530000Y-72543827D01*
X176710971Y-72814670D01*
X177197152Y-73139526D01*
X177770641Y-73253600D01*
X177829359Y-73253600D01*
X178402848Y-73139526D01*
X178889029Y-72814670D01*
X179213885Y-72328489D01*
X179327959Y-71755000D01*
X179213885Y-71181511D01*
X178889029Y-70695330D01*
X178574248Y-70485000D01*
X178889029Y-70274670D01*
X179213885Y-69788489D01*
X179327959Y-69215000D01*
X179219492Y-68669702D01*
X180487804Y-68921985D01*
X184381397Y-71523600D01*
X186269875Y-74349907D01*
X186114120Y-74289934D01*
X185344573Y-74309290D01*
X184723504Y-74566545D01*
X184588146Y-74864541D01*
X185778000Y-76054395D01*
X185792142Y-76040252D01*
X185971747Y-76219857D01*
X185957605Y-76234000D01*
X187147459Y-77423854D01*
X187362714Y-77326078D01*
X187910000Y-80077467D01*
X187910000Y-109152532D01*
X187910000Y-109152532D01*
G37*
X187910000Y-109152532D02*
X187722066Y-110097339D01*
X187722066Y-81650120D01*
X187702710Y-80880573D01*
X187445455Y-80259504D01*
X187147459Y-80124146D01*
X186967854Y-80303751D01*
X186967854Y-79944541D01*
X186832496Y-79646545D01*
X186114120Y-79369934D01*
X185344573Y-79389290D01*
X184956874Y-79549880D01*
X185122672Y-79150595D01*
X185123326Y-78400695D01*
X184953662Y-77990077D01*
X185441880Y-78178066D01*
X186211427Y-78158710D01*
X186832496Y-77901455D01*
X186967854Y-77603459D01*
X185778000Y-76413605D01*
X185763857Y-76427747D01*
X185584252Y-76248142D01*
X185598395Y-76234000D01*
X184408541Y-75044146D01*
X184110545Y-75179504D01*
X183833934Y-75897880D01*
X183853290Y-76667427D01*
X184013880Y-77055125D01*
X183614595Y-76889328D01*
X182864695Y-76888674D01*
X182454077Y-77058337D01*
X182642066Y-76570120D01*
X182622710Y-75800573D01*
X182365455Y-75179504D01*
X182067459Y-75044146D01*
X181887854Y-75223751D01*
X181887854Y-74864541D01*
X181752496Y-74566545D01*
X181034120Y-74289934D01*
X180264573Y-74309290D01*
X179643504Y-74566545D01*
X179508146Y-74864541D01*
X180698000Y-76054395D01*
X181887854Y-74864541D01*
X181887854Y-75223751D01*
X180877605Y-76234000D01*
X180891747Y-76248142D01*
X180712142Y-76427747D01*
X180698000Y-76413605D01*
X180518395Y-76593210D01*
X180518395Y-76234000D01*
X179328541Y-75044146D01*
X179030545Y-75179504D01*
X178753934Y-75897880D01*
X178773290Y-76667427D01*
X179030545Y-77288496D01*
X179328541Y-77423854D01*
X180518395Y-76234000D01*
X180518395Y-76593210D01*
X179508146Y-77603459D01*
X179643504Y-77901455D01*
X180361880Y-78178066D01*
X181131427Y-78158710D01*
X181519125Y-77998119D01*
X181353328Y-78397405D01*
X181352674Y-79147305D01*
X181522337Y-79557922D01*
X181034120Y-79369934D01*
X180264573Y-79389290D01*
X179643504Y-79646545D01*
X179508146Y-79944541D01*
X180698000Y-81134395D01*
X180712142Y-81120252D01*
X180891747Y-81299857D01*
X180877605Y-81314000D01*
X182067459Y-82503854D01*
X182365455Y-82368496D01*
X182642066Y-81650120D01*
X182622710Y-80880573D01*
X182462119Y-80492874D01*
X182861405Y-80658672D01*
X183611305Y-80659326D01*
X184021922Y-80489662D01*
X183833934Y-80977880D01*
X183853290Y-81747427D01*
X184110545Y-82368496D01*
X184408541Y-82503854D01*
X185598395Y-81314000D01*
X185584252Y-81299857D01*
X185763857Y-81120252D01*
X185778000Y-81134395D01*
X186967854Y-79944541D01*
X186967854Y-80303751D01*
X185957605Y-81314000D01*
X187147459Y-82503854D01*
X187445455Y-82368496D01*
X187722066Y-81650120D01*
X187722066Y-110097339D01*
X187077600Y-113337289D01*
X187077600Y-112296310D01*
X187077600Y-112043691D01*
X187077600Y-110011691D01*
X186980927Y-109778302D01*
X186802299Y-109599673D01*
X186568910Y-109503000D01*
X186316291Y-109503000D01*
X184589091Y-109503000D01*
X184355702Y-109599673D01*
X184177073Y-109778301D01*
X184113499Y-109931779D01*
X184098670Y-109909585D01*
X183612489Y-109584729D01*
X183039000Y-109470655D01*
X182465511Y-109584729D01*
X181979330Y-109909585D01*
X181769000Y-110224365D01*
X181558670Y-109909585D01*
X181072489Y-109584729D01*
X180499000Y-109470655D01*
X179925511Y-109584729D01*
X179439330Y-109909585D01*
X179229000Y-110224365D01*
X179018670Y-109909585D01*
X178532489Y-109584729D01*
X177959000Y-109470655D01*
X177385511Y-109584729D01*
X176899330Y-109909585D01*
X176689000Y-110224365D01*
X176478670Y-109909585D01*
X175992489Y-109584729D01*
X175419000Y-109470655D01*
X174845511Y-109584729D01*
X174359330Y-109909585D01*
X174149000Y-110224365D01*
X173938670Y-109909585D01*
X173452489Y-109584729D01*
X172879000Y-109470655D01*
X172305511Y-109584729D01*
X171819330Y-109909585D01*
X171609000Y-110224365D01*
X171398670Y-109909585D01*
X170912489Y-109584729D01*
X170339000Y-109470655D01*
X169765511Y-109584729D01*
X169279330Y-109909585D01*
X169069000Y-110224365D01*
X168858670Y-109909585D01*
X168372489Y-109584729D01*
X167799000Y-109470655D01*
X167225511Y-109584729D01*
X166739330Y-109909585D01*
X166529000Y-110224365D01*
X166318670Y-109909585D01*
X165832489Y-109584729D01*
X165259000Y-109470655D01*
X164685511Y-109584729D01*
X164199330Y-109909585D01*
X163989000Y-110224365D01*
X163778670Y-109909585D01*
X163292489Y-109584729D01*
X162719000Y-109470655D01*
X162592000Y-109495916D01*
X162592000Y-90865217D01*
X162592000Y-89506000D01*
X162592000Y-89252000D01*
X162592000Y-87892783D01*
X162359974Y-87771642D01*
X162344209Y-87774291D01*
X161816964Y-88028268D01*
X161427046Y-88464680D01*
X161233816Y-89017087D01*
X161378076Y-89252000D01*
X162592000Y-89252000D01*
X162592000Y-89506000D01*
X161378076Y-89506000D01*
X161233816Y-89740913D01*
X161427046Y-90293320D01*
X161816964Y-90729732D01*
X162344209Y-90983709D01*
X162359974Y-90986358D01*
X162592000Y-90865217D01*
X162592000Y-109495916D01*
X162145511Y-109584729D01*
X161659330Y-109909585D01*
X161334474Y-110395766D01*
X161220400Y-110969255D01*
X161220400Y-111338745D01*
X161334474Y-111912234D01*
X161659330Y-112398415D01*
X162145511Y-112723271D01*
X162719000Y-112837345D01*
X163292489Y-112723271D01*
X163778670Y-112398415D01*
X163989000Y-112083634D01*
X164199330Y-112398415D01*
X164685511Y-112723271D01*
X165259000Y-112837345D01*
X165832489Y-112723271D01*
X166318670Y-112398415D01*
X166529000Y-112083634D01*
X166739330Y-112398415D01*
X167225511Y-112723271D01*
X167799000Y-112837345D01*
X168372489Y-112723271D01*
X168858670Y-112398415D01*
X169069000Y-112083634D01*
X169279330Y-112398415D01*
X169765511Y-112723271D01*
X170339000Y-112837345D01*
X170912489Y-112723271D01*
X171398670Y-112398415D01*
X171609000Y-112083634D01*
X171819330Y-112398415D01*
X172305511Y-112723271D01*
X172879000Y-112837345D01*
X173452489Y-112723271D01*
X173938670Y-112398415D01*
X174149000Y-112083634D01*
X174359330Y-112398415D01*
X174845511Y-112723271D01*
X175419000Y-112837345D01*
X175992489Y-112723271D01*
X176478670Y-112398415D01*
X176689000Y-112083634D01*
X176899330Y-112398415D01*
X177385511Y-112723271D01*
X177959000Y-112837345D01*
X178532489Y-112723271D01*
X179018670Y-112398415D01*
X179229000Y-112083634D01*
X179439330Y-112398415D01*
X179925511Y-112723271D01*
X180499000Y-112837345D01*
X181072489Y-112723271D01*
X181558670Y-112398415D01*
X181769000Y-112083634D01*
X181979330Y-112398415D01*
X182465511Y-112723271D01*
X183039000Y-112837345D01*
X183612489Y-112723271D01*
X184098670Y-112398415D01*
X184113500Y-112376219D01*
X184177073Y-112529698D01*
X184355701Y-112708327D01*
X184589090Y-112805000D01*
X184841709Y-112805000D01*
X186568909Y-112805000D01*
X186802298Y-112708327D01*
X186980927Y-112529699D01*
X187077600Y-112296310D01*
X187077600Y-113337289D01*
X186983014Y-113812805D01*
X184381397Y-117706399D01*
X180487804Y-120308014D01*
X179174063Y-120569333D01*
X179254958Y-120374026D01*
X179254958Y-119655974D01*
X179082688Y-119240053D01*
X178688490Y-118808179D01*
X178553687Y-118745000D01*
X178688490Y-118681821D01*
X179082688Y-118249947D01*
X179254958Y-117834026D01*
X179254958Y-117115974D01*
X179082688Y-116700053D01*
X178688490Y-116268179D01*
X178159027Y-116020032D01*
X177927000Y-116140531D01*
X177927000Y-117348000D01*
X179133817Y-117348000D01*
X179254958Y-117115974D01*
X179254958Y-117834026D01*
X179133817Y-117602000D01*
X177927000Y-117602000D01*
X177927000Y-118680531D01*
X177927000Y-118809469D01*
X177927000Y-119888000D01*
X179133817Y-119888000D01*
X179254958Y-119655974D01*
X179254958Y-120374026D01*
X179133817Y-120142000D01*
X177927000Y-120142000D01*
X177927000Y-120162000D01*
X177673000Y-120162000D01*
X177673000Y-120142000D01*
X177673000Y-119888000D01*
X177673000Y-118809469D01*
X177673000Y-118680531D01*
X177673000Y-117602000D01*
X177673000Y-117348000D01*
X177673000Y-116140531D01*
X177440973Y-116020032D01*
X176911510Y-116268179D01*
X176530000Y-116686152D01*
X176148490Y-116268179D01*
X175619027Y-116020032D01*
X175387000Y-116140531D01*
X175387000Y-117348000D01*
X176466183Y-117348000D01*
X176593817Y-117348000D01*
X177673000Y-117348000D01*
X177673000Y-117602000D01*
X176593817Y-117602000D01*
X176466183Y-117602000D01*
X175387000Y-117602000D01*
X175387000Y-118680531D01*
X175387000Y-118809469D01*
X175387000Y-119888000D01*
X176466183Y-119888000D01*
X176593817Y-119888000D01*
X177673000Y-119888000D01*
X177673000Y-120142000D01*
X176593817Y-120142000D01*
X176466183Y-120142000D01*
X175387000Y-120142000D01*
X175387000Y-120162000D01*
X175133000Y-120162000D01*
X175133000Y-120142000D01*
X175113000Y-120142000D01*
X175113000Y-119888000D01*
X175133000Y-119888000D01*
X175133000Y-118809469D01*
X175133000Y-118680531D01*
X175133000Y-117602000D01*
X175113000Y-117602000D01*
X175113000Y-117348000D01*
X175133000Y-117348000D01*
X175133000Y-116140531D01*
X174900973Y-116020032D01*
X174371510Y-116268179D01*
X173989992Y-116686160D01*
X173809029Y-116415330D01*
X173322848Y-116090474D01*
X172749359Y-115976400D01*
X172690641Y-115976400D01*
X172305023Y-116053103D01*
X171572460Y-115320540D01*
X171341471Y-115166198D01*
X171069000Y-115112000D01*
X153644600Y-115112000D01*
X153644600Y-115037291D01*
X153644600Y-113310091D01*
X153547927Y-113076702D01*
X153369299Y-112898073D01*
X153215473Y-112834356D01*
X153530526Y-112362848D01*
X153644600Y-111789359D01*
X153644600Y-111730641D01*
X153530526Y-111157152D01*
X153205670Y-110670971D01*
X152934827Y-110490000D01*
X153205670Y-110309029D01*
X153530526Y-109822848D01*
X153644600Y-109249359D01*
X153644600Y-109190641D01*
X153530526Y-108617152D01*
X153205670Y-108130971D01*
X152934827Y-107950000D01*
X153205670Y-107769029D01*
X153530526Y-107282848D01*
X153644600Y-106709359D01*
X153644600Y-106650641D01*
X153530526Y-106077152D01*
X153205670Y-105590971D01*
X152934827Y-105410000D01*
X153205670Y-105229029D01*
X153530526Y-104742848D01*
X153644600Y-104169359D01*
X153644600Y-104110641D01*
X153530526Y-103537152D01*
X153205670Y-103050971D01*
X152934827Y-102870000D01*
X153205670Y-102689029D01*
X153530526Y-102202848D01*
X153644600Y-101629359D01*
X153644600Y-101570641D01*
X153530526Y-100997152D01*
X153205670Y-100510971D01*
X152934827Y-100330000D01*
X153205670Y-100149029D01*
X153530526Y-99662848D01*
X153644600Y-99089359D01*
X153644600Y-99030641D01*
X153530526Y-98457152D01*
X153205670Y-97970971D01*
X152719489Y-97646115D01*
X152146000Y-97532041D01*
X151572511Y-97646115D01*
X151086330Y-97970971D01*
X150870336Y-98294228D01*
X150812821Y-98171510D01*
X150380947Y-97777312D01*
X149965026Y-97605042D01*
X149733000Y-97726183D01*
X149733000Y-98933000D01*
X149753000Y-98933000D01*
X149753000Y-99187000D01*
X149733000Y-99187000D01*
X149733000Y-100266183D01*
X149733000Y-100393817D01*
X149733000Y-101473000D01*
X149753000Y-101473000D01*
X149753000Y-101727000D01*
X149733000Y-101727000D01*
X149733000Y-102806183D01*
X149733000Y-102933817D01*
X149733000Y-104013000D01*
X149753000Y-104013000D01*
X149753000Y-104267000D01*
X149733000Y-104267000D01*
X149733000Y-105346183D01*
X149733000Y-105473817D01*
X149733000Y-106553000D01*
X149753000Y-106553000D01*
X149753000Y-106807000D01*
X149733000Y-106807000D01*
X149733000Y-107886183D01*
X149733000Y-108013817D01*
X149733000Y-109093000D01*
X149753000Y-109093000D01*
X149753000Y-109347000D01*
X149733000Y-109347000D01*
X149733000Y-110426183D01*
X149733000Y-110553817D01*
X149733000Y-111633000D01*
X149753000Y-111633000D01*
X149753000Y-111887000D01*
X149733000Y-111887000D01*
X149733000Y-112966183D01*
X149733000Y-113093817D01*
X149733000Y-114173000D01*
X149753000Y-114173000D01*
X149753000Y-114427000D01*
X149733000Y-114427000D01*
X149733000Y-114447000D01*
X149479000Y-114447000D01*
X149479000Y-114427000D01*
X149479000Y-114173000D01*
X149479000Y-113093817D01*
X149479000Y-112966183D01*
X149479000Y-111887000D01*
X149479000Y-111633000D01*
X149479000Y-110553817D01*
X149479000Y-110426183D01*
X149479000Y-109347000D01*
X149479000Y-109093000D01*
X149479000Y-108013817D01*
X149479000Y-107886183D01*
X149479000Y-106807000D01*
X149479000Y-106553000D01*
X149479000Y-105473817D01*
X149479000Y-105346183D01*
X149479000Y-104267000D01*
X149479000Y-104013000D01*
X149479000Y-102933817D01*
X149479000Y-102806183D01*
X149479000Y-101727000D01*
X149479000Y-101473000D01*
X149479000Y-100393817D01*
X149479000Y-100266183D01*
X149479000Y-99187000D01*
X149479000Y-98933000D01*
X149479000Y-97726183D01*
X149246974Y-97605042D01*
X148831053Y-97777312D01*
X148399179Y-98171510D01*
X148151032Y-98700973D01*
X148271531Y-98933000D01*
X149479000Y-98933000D01*
X149479000Y-99187000D01*
X148271531Y-99187000D01*
X148151032Y-99419027D01*
X148399179Y-99948490D01*
X148817152Y-100330000D01*
X148399179Y-100711510D01*
X148151032Y-101240973D01*
X148271531Y-101473000D01*
X149479000Y-101473000D01*
X149479000Y-101727000D01*
X148271531Y-101727000D01*
X148151032Y-101959027D01*
X148399179Y-102488490D01*
X148817152Y-102870000D01*
X148399179Y-103251510D01*
X148151032Y-103780973D01*
X148271531Y-104013000D01*
X149479000Y-104013000D01*
X149479000Y-104267000D01*
X148271531Y-104267000D01*
X148151032Y-104499027D01*
X148399179Y-105028490D01*
X148817152Y-105410000D01*
X148399179Y-105791510D01*
X148151032Y-106320973D01*
X148271531Y-106553000D01*
X149479000Y-106553000D01*
X149479000Y-106807000D01*
X148271531Y-106807000D01*
X148151032Y-107039027D01*
X148399179Y-107568490D01*
X148817152Y-107950000D01*
X148399179Y-108331510D01*
X148151032Y-108860973D01*
X148271531Y-109093000D01*
X149479000Y-109093000D01*
X149479000Y-109347000D01*
X148271531Y-109347000D01*
X148151032Y-109579027D01*
X148399179Y-110108490D01*
X148817152Y-110490000D01*
X148399179Y-110871510D01*
X148151032Y-111400973D01*
X148271531Y-111633000D01*
X149479000Y-111633000D01*
X149479000Y-111887000D01*
X148271531Y-111887000D01*
X148151032Y-112119027D01*
X148399179Y-112648490D01*
X148817152Y-113030000D01*
X148399179Y-113411510D01*
X148151032Y-113940973D01*
X148271531Y-114173000D01*
X149479000Y-114173000D01*
X149479000Y-114427000D01*
X148271531Y-114427000D01*
X148151032Y-114659027D01*
X148363329Y-115112000D01*
X147868920Y-115112000D01*
X146045460Y-113288540D01*
X145814471Y-113134198D01*
X145542000Y-113080000D01*
X139673820Y-113080000D01*
X139712558Y-113041330D01*
X141670670Y-113041330D01*
X141943140Y-112987132D01*
X141943141Y-112987132D01*
X142174130Y-112832790D01*
X142865816Y-112141103D01*
X142924057Y-112141154D01*
X143250920Y-112006097D01*
X143501218Y-111756236D01*
X143636846Y-111429609D01*
X143637154Y-111075943D01*
X143502097Y-110749080D01*
X143460000Y-110706909D01*
X143460000Y-103886000D01*
X143405802Y-103613530D01*
X143405802Y-103613529D01*
X143251460Y-103382540D01*
X140326023Y-100457103D01*
X140384057Y-100457154D01*
X140710920Y-100322097D01*
X140961218Y-100072236D01*
X141096846Y-99745609D01*
X141097154Y-99391943D01*
X140962097Y-99065080D01*
X140712236Y-98814782D01*
X140385609Y-98679154D01*
X140326022Y-98679102D01*
X140203460Y-98556540D01*
X139972471Y-98402198D01*
X139700000Y-98348000D01*
X135636000Y-98348000D01*
X135363529Y-98402198D01*
X135132540Y-98556540D01*
X135010183Y-98678896D01*
X134951943Y-98678846D01*
X134625080Y-98813903D01*
X134374782Y-99063764D01*
X134316000Y-99205326D01*
X134316000Y-90422400D01*
X134261802Y-90149930D01*
X134261802Y-90149929D01*
X134107460Y-89918940D01*
X130807060Y-86618540D01*
X130784600Y-86603532D01*
X130784600Y-85979691D01*
X130731708Y-85852000D01*
X130784600Y-85724310D01*
X130784600Y-85471691D01*
X130784600Y-85100467D01*
X130807060Y-85085460D01*
X131313460Y-84579060D01*
X131467802Y-84348071D01*
X131467803Y-84348070D01*
X131522000Y-84075600D01*
X131522000Y-80939835D01*
X131576540Y-81021460D01*
X141604896Y-91049816D01*
X141604846Y-91108057D01*
X141739903Y-91434920D01*
X141989764Y-91685218D01*
X142316391Y-91820846D01*
X142670057Y-91821154D01*
X142996920Y-91686097D01*
X143247218Y-91436236D01*
X143382846Y-91109609D01*
X143383154Y-90755943D01*
X143248097Y-90429080D01*
X142998236Y-90178782D01*
X142671609Y-90043154D01*
X142612022Y-90043102D01*
X132792000Y-80223080D01*
X132792000Y-79285382D01*
X132833218Y-79244236D01*
X132968846Y-78917609D01*
X132969154Y-78563943D01*
X132834097Y-78237080D01*
X132584236Y-77986782D01*
X132257609Y-77851154D01*
X131903943Y-77850846D01*
X131577080Y-77985903D01*
X131522000Y-78040886D01*
X131522000Y-74462920D01*
X131612920Y-74372000D01*
X142875000Y-74372000D01*
X143147470Y-74317802D01*
X143147471Y-74317802D01*
X143378460Y-74163460D01*
X144365023Y-73176896D01*
X144750641Y-73253600D01*
X144809359Y-73253600D01*
X145382848Y-73139526D01*
X145869029Y-72814670D01*
X146050000Y-72543827D01*
X146230971Y-72814670D01*
X146717152Y-73139526D01*
X147290641Y-73253600D01*
X147349359Y-73253600D01*
X147922848Y-73139526D01*
X148409029Y-72814670D01*
X148590000Y-72543827D01*
X148770971Y-72814670D01*
X149257152Y-73139526D01*
X149830641Y-73253600D01*
X149889359Y-73253600D01*
X150462848Y-73139526D01*
X150949029Y-72814670D01*
X151130000Y-72543827D01*
X151310971Y-72814670D01*
X151797152Y-73139526D01*
X152370641Y-73253600D01*
X152429359Y-73253600D01*
X153002848Y-73139526D01*
X153489029Y-72814670D01*
X153670000Y-72543827D01*
X153850971Y-72814670D01*
X154337152Y-73139526D01*
X154910641Y-73253600D01*
X154969359Y-73253600D01*
X155542848Y-73139526D01*
X156029029Y-72814670D01*
X156210000Y-72543827D01*
X156390971Y-72814670D01*
X156877152Y-73139526D01*
X157450641Y-73253600D01*
X157509359Y-73253600D01*
X158082848Y-73139526D01*
X158569029Y-72814670D01*
X158750000Y-72543827D01*
X158930971Y-72814670D01*
X159417152Y-73139526D01*
X159990641Y-73253600D01*
X160049359Y-73253600D01*
X160434976Y-73176896D01*
X163101610Y-75843530D01*
X163101610Y-79175584D01*
X163090699Y-79164673D01*
X162857310Y-79068000D01*
X162604691Y-79068000D01*
X158434691Y-79068000D01*
X158201302Y-79164673D01*
X158022673Y-79343301D01*
X157926000Y-79576690D01*
X157926000Y-79829309D01*
X157926000Y-83999309D01*
X158022673Y-84232698D01*
X158201301Y-84411327D01*
X158434690Y-84508000D01*
X158687309Y-84508000D01*
X159934000Y-84508000D01*
X159934000Y-85947080D01*
X153491000Y-92390080D01*
X153491000Y-83894310D01*
X153491000Y-83641691D01*
X153491000Y-82073750D01*
X153491000Y-81502250D01*
X153491000Y-79934309D01*
X153491000Y-79681690D01*
X153394327Y-79448301D01*
X153215698Y-79269673D01*
X152982309Y-79173000D01*
X151161750Y-79173000D01*
X151003000Y-79331750D01*
X151003000Y-81661000D01*
X153332250Y-81661000D01*
X153491000Y-81502250D01*
X153491000Y-82073750D01*
X153332250Y-81915000D01*
X151003000Y-81915000D01*
X151003000Y-84244250D01*
X151161750Y-84403000D01*
X152982309Y-84403000D01*
X153215698Y-84306327D01*
X153394327Y-84127699D01*
X153491000Y-83894310D01*
X153491000Y-92390080D01*
X153375080Y-92506000D01*
X150749000Y-92506000D01*
X150749000Y-84244250D01*
X150749000Y-81915000D01*
X150749000Y-81661000D01*
X150749000Y-79331750D01*
X150590250Y-79173000D01*
X148769691Y-79173000D01*
X148536302Y-79269673D01*
X148357673Y-79448301D01*
X148261000Y-79681690D01*
X148261000Y-79934309D01*
X148261000Y-81502250D01*
X148419750Y-81661000D01*
X150749000Y-81661000D01*
X150749000Y-81915000D01*
X148419750Y-81915000D01*
X148261000Y-82073750D01*
X148261000Y-83641691D01*
X148261000Y-83894310D01*
X148357673Y-84127699D01*
X148536302Y-84306327D01*
X148769691Y-84403000D01*
X150590250Y-84403000D01*
X150749000Y-84244250D01*
X150749000Y-92506000D01*
X148627382Y-92506000D01*
X148586236Y-92464782D01*
X148259609Y-92329154D01*
X148200022Y-92329102D01*
X141818000Y-85947080D01*
X141818000Y-84508000D01*
X143317309Y-84508000D01*
X143550698Y-84411327D01*
X143729327Y-84232699D01*
X143826000Y-83999310D01*
X143826000Y-83746691D01*
X143826000Y-79576691D01*
X143729327Y-79343302D01*
X143550699Y-79164673D01*
X143317310Y-79068000D01*
X143064691Y-79068000D01*
X138894691Y-79068000D01*
X138661302Y-79164673D01*
X138482673Y-79343301D01*
X138386000Y-79576690D01*
X138386000Y-79829309D01*
X138386000Y-83999309D01*
X138482673Y-84232698D01*
X138661301Y-84411327D01*
X138894690Y-84508000D01*
X139147309Y-84508000D01*
X140394000Y-84508000D01*
X140394000Y-86242000D01*
X140448198Y-86514471D01*
X140602540Y-86745460D01*
X147192896Y-93335816D01*
X147192846Y-93394057D01*
X147327903Y-93720920D01*
X147577764Y-93971218D01*
X147904391Y-94106846D01*
X148258057Y-94107154D01*
X148584920Y-93972097D01*
X148627090Y-93930000D01*
X153670000Y-93930000D01*
X153942470Y-93875802D01*
X153942471Y-93875802D01*
X154173460Y-93721460D01*
X161149460Y-86745460D01*
X161303802Y-86514471D01*
X161303802Y-86514470D01*
X161358000Y-86242000D01*
X161358000Y-84508000D01*
X162857309Y-84508000D01*
X163090698Y-84411327D01*
X163101610Y-84400415D01*
X163101610Y-87778057D01*
X163093791Y-87774291D01*
X163078026Y-87771642D01*
X162846000Y-87892783D01*
X162846000Y-89252000D01*
X162866000Y-89252000D01*
X162866000Y-89506000D01*
X162846000Y-89506000D01*
X162846000Y-90865217D01*
X163078026Y-90986358D01*
X163093791Y-90983709D01*
X163101610Y-90979942D01*
X163101610Y-102699610D01*
X163155808Y-102972081D01*
X163310150Y-103203070D01*
X164285652Y-104178572D01*
X163969474Y-104651766D01*
X163855400Y-105225255D01*
X163855400Y-105594745D01*
X163969474Y-106168234D01*
X164294330Y-106654415D01*
X164780511Y-106979271D01*
X165354000Y-107093345D01*
X165927489Y-106979271D01*
X166413670Y-106654415D01*
X166624000Y-106339634D01*
X166834330Y-106654415D01*
X167320511Y-106979271D01*
X167894000Y-107093345D01*
X168467489Y-106979271D01*
X168953670Y-106654415D01*
X169164000Y-106339634D01*
X169374330Y-106654415D01*
X169860511Y-106979271D01*
X170434000Y-107093345D01*
X171007489Y-106979271D01*
X171493670Y-106654415D01*
X171704000Y-106339634D01*
X171914330Y-106654415D01*
X172400511Y-106979271D01*
X172974000Y-107093345D01*
X173547489Y-106979271D01*
X174033670Y-106654415D01*
X174244000Y-106339634D01*
X174454330Y-106654415D01*
X174940511Y-106979271D01*
X175514000Y-107093345D01*
X176087489Y-106979271D01*
X176573670Y-106654415D01*
X176784000Y-106339634D01*
X176994330Y-106654415D01*
X177480511Y-106979271D01*
X178054000Y-107093345D01*
X178627489Y-106979271D01*
X179113670Y-106654415D01*
X179324000Y-106339634D01*
X179534330Y-106654415D01*
X180020511Y-106979271D01*
X180594000Y-107093345D01*
X181167489Y-106979271D01*
X181653670Y-106654415D01*
X181864000Y-106339634D01*
X182074330Y-106654415D01*
X182560511Y-106979271D01*
X183134000Y-107093345D01*
X183707489Y-106979271D01*
X184193670Y-106654415D01*
X184208500Y-106632219D01*
X184272073Y-106785698D01*
X184450701Y-106964327D01*
X184684090Y-107061000D01*
X184936709Y-107061000D01*
X186663909Y-107061000D01*
X186897298Y-106964327D01*
X187075927Y-106785699D01*
X187172600Y-106552310D01*
X187172600Y-106299691D01*
X187172600Y-104267691D01*
X187075927Y-104034302D01*
X186897299Y-103855673D01*
X186663910Y-103759000D01*
X186411291Y-103759000D01*
X184684091Y-103759000D01*
X184450702Y-103855673D01*
X184272073Y-104034301D01*
X184208499Y-104187779D01*
X184193670Y-104165585D01*
X183707489Y-103840729D01*
X183134000Y-103726655D01*
X182560511Y-103840729D01*
X182074330Y-104165585D01*
X181864000Y-104480365D01*
X181653670Y-104165585D01*
X181167489Y-103840729D01*
X180594000Y-103726655D01*
X180020511Y-103840729D01*
X179534330Y-104165585D01*
X179324000Y-104480365D01*
X179113670Y-104165585D01*
X178627489Y-103840729D01*
X178054000Y-103726655D01*
X177480511Y-103840729D01*
X176994330Y-104165585D01*
X176784000Y-104480365D01*
X176573670Y-104165585D01*
X176087489Y-103840729D01*
X175514000Y-103726655D01*
X174940511Y-103840729D01*
X174454330Y-104165585D01*
X174244000Y-104480365D01*
X174033670Y-104165585D01*
X173547489Y-103840729D01*
X172974000Y-103726655D01*
X172400511Y-103840729D01*
X171914330Y-104165585D01*
X171704000Y-104480365D01*
X171493670Y-104165585D01*
X171007489Y-103840729D01*
X170434000Y-103726655D01*
X169860511Y-103840729D01*
X169374330Y-104165585D01*
X169164000Y-104480365D01*
X168953670Y-104165585D01*
X168467489Y-103840729D01*
X167894000Y-103726655D01*
X167456916Y-103813596D01*
X164876390Y-101233070D01*
X164876390Y-90986239D01*
X165259000Y-91062345D01*
X165832489Y-90948271D01*
X166318670Y-90623415D01*
X166529000Y-90308634D01*
X166739330Y-90623415D01*
X167225511Y-90948271D01*
X167799000Y-91062345D01*
X168372489Y-90948271D01*
X168709900Y-90722820D01*
X171280930Y-93293850D01*
X171511919Y-93448192D01*
X171511920Y-93448192D01*
X171784390Y-93502390D01*
X178987608Y-93502390D01*
X179077903Y-93720920D01*
X179327764Y-93971218D01*
X179654391Y-94106846D01*
X180008057Y-94107154D01*
X180334920Y-93972097D01*
X180585218Y-93722236D01*
X180720846Y-93395609D01*
X180721154Y-93041943D01*
X180668289Y-92914000D01*
X181061080Y-92914000D01*
X181482896Y-93335816D01*
X181482846Y-93394057D01*
X181617903Y-93720920D01*
X181867764Y-93971218D01*
X182194391Y-94106846D01*
X182548057Y-94107154D01*
X182874920Y-93972097D01*
X183125218Y-93722236D01*
X183260846Y-93395609D01*
X183261154Y-93041943D01*
X183126097Y-92715080D01*
X182876236Y-92464782D01*
X182549609Y-92329154D01*
X182490022Y-92329102D01*
X181859460Y-91698540D01*
X181628471Y-91544198D01*
X181356000Y-91490000D01*
X174030920Y-91490000D01*
X173474490Y-90933570D01*
X173938670Y-90623415D01*
X174149000Y-90308634D01*
X174359330Y-90623415D01*
X174845511Y-90948271D01*
X175419000Y-91062345D01*
X175992489Y-90948271D01*
X176478670Y-90623415D01*
X176689000Y-90308634D01*
X176899330Y-90623415D01*
X177385511Y-90948271D01*
X177959000Y-91062345D01*
X178532489Y-90948271D01*
X179018670Y-90623415D01*
X179229000Y-90308634D01*
X179439330Y-90623415D01*
X179925511Y-90948271D01*
X180499000Y-91062345D01*
X181072489Y-90948271D01*
X181558670Y-90623415D01*
X181769000Y-90308634D01*
X181979330Y-90623415D01*
X182465511Y-90948271D01*
X183039000Y-91062345D01*
X183612489Y-90948271D01*
X184098670Y-90623415D01*
X184113500Y-90601219D01*
X184177073Y-90754698D01*
X184355701Y-90933327D01*
X184589090Y-91030000D01*
X184841709Y-91030000D01*
X186568909Y-91030000D01*
X186802298Y-90933327D01*
X186980927Y-90754699D01*
X187077600Y-90521310D01*
X187077600Y-90268691D01*
X187077600Y-88236691D01*
X186980927Y-88003302D01*
X186967854Y-87990228D01*
X186967854Y-82683459D01*
X185778000Y-81493605D01*
X184588146Y-82683459D01*
X184723504Y-82981455D01*
X185441880Y-83258066D01*
X186211427Y-83238710D01*
X186832496Y-82981455D01*
X186967854Y-82683459D01*
X186967854Y-87990228D01*
X186802299Y-87824673D01*
X186568910Y-87728000D01*
X186316291Y-87728000D01*
X184589091Y-87728000D01*
X184355702Y-87824673D01*
X184177073Y-88003301D01*
X184113499Y-88156779D01*
X184098670Y-88134585D01*
X183612489Y-87809729D01*
X183039000Y-87695655D01*
X182465511Y-87809729D01*
X181979330Y-88134585D01*
X181887854Y-88271488D01*
X181887854Y-82683459D01*
X180698000Y-81493605D01*
X180518395Y-81673210D01*
X180518395Y-81314000D01*
X179328541Y-80124146D01*
X179030545Y-80259504D01*
X178753934Y-80977880D01*
X178773290Y-81747427D01*
X179030545Y-82368496D01*
X179328541Y-82503854D01*
X180518395Y-81314000D01*
X180518395Y-81673210D01*
X179508146Y-82683459D01*
X179643504Y-82981455D01*
X180361880Y-83258066D01*
X181131427Y-83238710D01*
X181752496Y-82981455D01*
X181887854Y-82683459D01*
X181887854Y-88271488D01*
X181769000Y-88449365D01*
X181558670Y-88134585D01*
X181072489Y-87809729D01*
X180499000Y-87695655D01*
X179925511Y-87809729D01*
X179439330Y-88134585D01*
X179229000Y-88449365D01*
X179018670Y-88134585D01*
X178532489Y-87809729D01*
X177959000Y-87695655D01*
X177385511Y-87809729D01*
X176899330Y-88134585D01*
X176689000Y-88449365D01*
X176478670Y-88134585D01*
X175992489Y-87809729D01*
X175419000Y-87695655D01*
X174845511Y-87809729D01*
X174359330Y-88134585D01*
X174149000Y-88449365D01*
X173938670Y-88134585D01*
X173452489Y-87809729D01*
X172879000Y-87695655D01*
X172305511Y-87809729D01*
X171894966Y-88084046D01*
X169622000Y-85811080D01*
X169622000Y-73148446D01*
X170150641Y-73253600D01*
X170209359Y-73253600D01*
X170782848Y-73139526D01*
X171269029Y-72814670D01*
X171450000Y-72543827D01*
X171630971Y-72814670D01*
X172117152Y-73139526D01*
X172690641Y-73253600D01*
X172749359Y-73253600D01*
X173322848Y-73139526D01*
X173809029Y-72814670D01*
X173990000Y-72543827D01*
X174170971Y-72814670D01*
X174657152Y-73139526D01*
X175230641Y-73253600D01*
X175289359Y-73253600D01*
X175862848Y-73139526D01*
X176349029Y-72814670D01*
X176530000Y-72543827D01*
X176710971Y-72814670D01*
X177197152Y-73139526D01*
X177770641Y-73253600D01*
X177829359Y-73253600D01*
X178402848Y-73139526D01*
X178889029Y-72814670D01*
X179213885Y-72328489D01*
X179327959Y-71755000D01*
X179213885Y-71181511D01*
X178889029Y-70695330D01*
X178574248Y-70485000D01*
X178889029Y-70274670D01*
X179213885Y-69788489D01*
X179327959Y-69215000D01*
X179219492Y-68669702D01*
X180487804Y-68921985D01*
X184381397Y-71523600D01*
X186269875Y-74349907D01*
X186114120Y-74289934D01*
X185344573Y-74309290D01*
X184723504Y-74566545D01*
X184588146Y-74864541D01*
X185778000Y-76054395D01*
X185792142Y-76040252D01*
X185971747Y-76219857D01*
X185957605Y-76234000D01*
X187147459Y-77423854D01*
X187362714Y-77326078D01*
X187910000Y-80077467D01*
X187910000Y-109152532D01*
M02*
