M48
METRIC,TZ
T1C0.400
T2C0.800
T3C0.800
T4C1.016
T5C1.500
T6C1.600
T7C3.175
%
G90
G05
T1
X74500Y-82500
X74500Y-83700
X74500Y-84900
X78950Y-81603
X78950Y-86950
X79502Y-79883
X79502Y-88773
X81100Y-83700
X81100Y-84900
X81100Y-82400
X85550Y-81603
X85550Y-86950
X89953Y-74046
X95200Y-79600
X96350Y-76500
X98350Y-76500
X101350Y-56000
X101350Y-75500
X101800Y-63000
X103150Y-75551
X103382Y-84647
X103750Y-68200
X103750Y-69500
X104300Y-59800
X104500Y-81600
X105300Y-65800
X105775Y-73300
X106100Y-81600
X106800Y-54300
X107150Y-79850
X107350Y-50700
X107900Y-79850
X107914Y-54286
X108000Y-46300
X108500Y-48100
X108600Y-84400
X108850Y-52600
X108850Y-53450
X108864Y-54286
X109089Y-59800
X109600Y-68200
X109600Y-69500
X109800Y-82950
X109800Y-84000
X109950Y-50100
X112350Y-59800
X114200Y-83800
X114200Y-84600
X115100Y-50300
X116250Y-48750
X117800Y-57000
X117800Y-58250
X117800Y-59500
X117855Y-51054
X117856Y-63499
X117856Y-75185
X119300Y-55800
X119300Y-67500
X119300Y-68700
X119500Y-79200
X119800Y-85400
X120550Y-51050
X121920Y-80986
X122050Y-73400
X122050Y-74250
X122200Y-48100
X122200Y-65500
X122800Y-49400
X122800Y-66650
X123700Y-79285
X123950Y-82150
X124150Y-76100
X124182Y-74562
X124183Y-77612
X124194Y-73055
X124750Y-82150
X125300Y-80650
X127200Y-51050
X127200Y-52450
X127200Y-54050
X127300Y-48700
X127300Y-62900
X127300Y-64100
X127800Y-57500
X127800Y-45350
X127800Y-46150
X127800Y-72400
X127800Y-73900
X127800Y-75400
X127800Y-76900
X127825Y-60350
X128600Y-45350
X128650Y-55791
X129350Y-82200
X129400Y-45350
X129550Y-55800
X130100Y-54900
X130200Y-82200
X130400Y-52900
X130400Y-76800
X130800Y-49900
X131000Y-82200
X131300Y-73800
X131600Y-48200
X131600Y-50600
X131800Y-82200
X132300Y-76600
X132400Y-73800
X132600Y-82200
X132650Y-62800
X132900Y-51900
X132900Y-50950
X133410Y-82200
X133600Y-73800
X133650Y-65300
X133650Y-76600
X133900Y-62000
X133900Y-63600
X134800Y-64650
X135000Y-45325
X135300Y-57300
X135300Y-58700
X136000Y-66900
X136800Y-76900
X137200Y-76100
X137440Y-47853
X137800Y-76700
X137876Y-70500
X138165Y-86810
X138400Y-76100
X138500Y-67900
X138700Y-76900
X138900Y-70500
X139721Y-85879
X139900Y-70500
X140000Y-57400
X141000Y-55450
X141600Y-75500
X141700Y-72500
X143600Y-72500
X143700Y-61000
X143800Y-45800
X143800Y-49300
X143800Y-82600
X143800Y-85700
X145500Y-72500
X146900Y-47500
X149300Y-45900
X149300Y-49100
X149300Y-82600
X149309Y-85428
X151900Y-84000
T2
X158242Y-80280
X158242Y-82280
T3
X93380Y-40430
X93380Y-88690
X95920Y-40430
X95920Y-42970
X95920Y-88690
X95920Y-91230
X98460Y-40430
X98460Y-42970
X98460Y-88690
X98460Y-91230
X101000Y-40430
X101000Y-42970
X101000Y-88690
X101000Y-91230
X103540Y-40430
X103540Y-42970
X103540Y-88690
X103540Y-91230
X106080Y-40430
X106080Y-42970
X106080Y-88690
X106080Y-91230
X108620Y-40430
X108620Y-42970
X108620Y-88690
X108620Y-91230
X111160Y-40430
X111160Y-42970
X111160Y-88690
X111160Y-91230
X113700Y-40430
X113700Y-42970
X113700Y-88690
X113700Y-91230
X116240Y-40430
X116240Y-42970
X116240Y-88690
X116240Y-91230
X118780Y-40430
X118780Y-42970
X118780Y-88690
X118780Y-91230
X121320Y-40430
X121320Y-42970
X121320Y-88690
X121320Y-91230
X123860Y-40430
X123860Y-42970
X123860Y-88690
X123860Y-91230
X126400Y-40430
X126400Y-42970
X126400Y-88690
X126400Y-91230
X128940Y-40430
X128940Y-42970
X128940Y-88690
X128940Y-91230
X131480Y-40430
X131480Y-42970
X131480Y-88690
X131480Y-91230
X134020Y-40430
X134020Y-42970
X134020Y-88690
X134020Y-91230
X136560Y-40430
X136560Y-42970
X136560Y-88690
X136560Y-91230
X139100Y-40430
X139100Y-42970
X139100Y-88690
X139100Y-91230
X141640Y-40430
X141640Y-42970
X141640Y-88690
X141640Y-91230
X144180Y-40430
X144180Y-42970
X144180Y-88690
X144180Y-91230
X146720Y-40430
X146720Y-42970
X146720Y-88690
X146720Y-91230
X149260Y-40430
X149260Y-42970
X149260Y-88690
X149260Y-91230
T4
X90424Y-82042
X90424Y-84582
X93380Y-42970
X93380Y-91230
X153120Y-48514
X153160Y-71374
X153162Y-51054
X153162Y-53594
X153162Y-56134
X153162Y-58674
X153162Y-61200
X153162Y-63754
X153162Y-66294
X153162Y-68800
X153162Y-73900
X153162Y-76454
X155660Y-48514
X155700Y-71374
X155702Y-51054
X155702Y-53594
X155702Y-56134
X155702Y-58674
X155702Y-61200
X155702Y-63754
X155702Y-66294
X155702Y-68800
X155702Y-73900
X155702Y-76454
X158200Y-48514
X158240Y-71374
X158242Y-51054
X158242Y-53594
X158242Y-56134
X158242Y-58674
X158242Y-61200
X158242Y-63754
X158242Y-66294
X158242Y-68800
X158242Y-73900
X158242Y-76454
T5
X85598Y-49276
T6
X83058Y-46736
X83058Y-51816
X88138Y-46736
X88138Y-51816
T7
X88300Y-41700
X88300Y-89960
X154340Y-44875
X154340Y-86785
T0
M30
