%TF.GenerationSoftware,KiCad,Pcbnew,no-vcs-found-product*%
%TF.CreationDate,2015-07-24T02:24:40+02:00*%
%TF.JobID,robocape,726F626F636170652E6B696361645F70,rev?*%
%TF.FileFunction,Legend,Top*%
%FSLAX46Y46*%
G04 Gerber Fmt 4.6, Leading zero omitted, Abs format (unit mm)*
G04 Created by KiCad (PCBNEW no-vcs-found-product) date Fre 24 Jul 2015 02:24:40 CEST*
%MOMM*%
G01*
G04 APERTURE LIST*
%ADD10C,0.100000*%
%ADD11C,0.150000*%
%ADD12C,0.250000*%
%ADD13C,0.381000*%
%ADD14C,0.031750*%
%ADD15C,0.304800*%
%ADD16R,0.990600X2.540000*%
%ADD17R,0.550000X0.200000*%
%ADD18R,0.200000X0.550000*%
%ADD19R,0.875000X0.800000*%
%ADD20R,1.600000X0.800000*%
%ADD21R,3.000000X2.100000*%
%ADD22R,0.500000X0.600000*%
%ADD23R,0.600000X0.500000*%
%ADD24R,3.599180X1.600200*%
%ADD25R,1.727200X2.032000*%
%ADD26O,1.727200X2.032000*%
%ADD27R,1.500000X1.500000*%
%ADD28C,1.500000*%
%ADD29R,0.797560X0.797560*%
%ADD30R,1.300000X0.700000*%
%ADD31R,0.900000X1.700000*%
%ADD32C,2.500000*%
%ADD33C,2.600000*%
%ADD34R,2.032000X2.032000*%
%ADD35O,2.032000X2.032000*%
%ADD36R,1.700000X5.700000*%
%ADD37R,1.200000X0.800000*%
%ADD38R,0.600000X0.400000*%
%ADD39R,0.400000X0.600000*%
%ADD40R,1.600000X1.000000*%
%ADD41R,1.143000X0.508000*%
%ADD42R,0.370000X1.000000*%
%ADD43R,1.000000X0.370000*%
%ADD44R,1.062500X1.062500*%
%ADD45R,1.220000X0.620000*%
%ADD46R,1.800000X0.700000*%
%ADD47R,1.800000X0.800000*%
%ADD48R,1.100000X0.600000*%
%ADD49R,1.400000X1.150000*%
%ADD50C,4.572000*%
%ADD51R,1.651000X1.651000*%
%ADD52C,1.300480*%
%ADD53R,0.990000X0.420000*%
%ADD54R,0.850000X0.280000*%
%ADD55R,1.700000X3.550000*%
G04 APERTURE END LIST*
D10*
D11*
X137490000Y-47803000D02*
X137490000Y-48203000D01*
X137490000Y-47803000D02*
X137090000Y-47803000D01*
X134290000Y-47803000D02*
X134290000Y-48203000D01*
X134290000Y-47803000D02*
X134690000Y-47803000D01*
X134290000Y-51003000D02*
X134290000Y-50603000D01*
X134290000Y-51003000D02*
X134690000Y-51003000D01*
X137490000Y-51003000D02*
X137090000Y-51003000D01*
D12*
X119356000Y-55783000D02*
X119366000Y-55783000D01*
D11*
X108110000Y-85390000D02*
X108110000Y-85890000D01*
X109060000Y-85890000D02*
X109060000Y-85390000D01*
X102395000Y-85390000D02*
X102395000Y-85890000D01*
X103345000Y-85890000D02*
X103345000Y-85390000D01*
X142588000Y-74545000D02*
X142588000Y-74045000D01*
X141638000Y-74045000D02*
X141638000Y-74545000D01*
X141318000Y-74545000D02*
X141318000Y-74045000D01*
X140368000Y-74045000D02*
X140368000Y-74545000D01*
X118876000Y-51529000D02*
X119376000Y-51529000D01*
X119376000Y-50579000D02*
X118876000Y-50579000D01*
X100617000Y-63250000D02*
X100617000Y-63750000D01*
X101567000Y-63750000D02*
X101567000Y-63250000D01*
X116836000Y-50579000D02*
X116336000Y-50579000D01*
X116336000Y-51529000D02*
X116836000Y-51529000D01*
X111756000Y-49309000D02*
X111256000Y-49309000D01*
X111256000Y-50259000D02*
X111756000Y-50259000D01*
X111256000Y-45687000D02*
X111756000Y-45687000D01*
X111756000Y-44737000D02*
X111256000Y-44737000D01*
X102649000Y-73664000D02*
X102649000Y-74164000D01*
X103599000Y-74164000D02*
X103599000Y-73664000D01*
X136021000Y-72230000D02*
X136521000Y-72230000D01*
X136521000Y-71280000D02*
X136021000Y-71280000D01*
X132330000Y-70899000D02*
X131830000Y-70899000D01*
X131830000Y-71849000D02*
X132330000Y-71849000D01*
X134714000Y-75307000D02*
X134714000Y-74807000D01*
X133764000Y-74807000D02*
X133764000Y-75307000D01*
X133444000Y-75307000D02*
X133444000Y-74807000D01*
X132494000Y-74807000D02*
X132494000Y-75307000D01*
X132174000Y-75307000D02*
X132174000Y-74807000D01*
X131224000Y-74807000D02*
X131224000Y-75307000D01*
X108200000Y-46769000D02*
X107700000Y-46769000D01*
X107700000Y-47719000D02*
X108200000Y-47719000D01*
X132047000Y-49653000D02*
X132047000Y-49153000D01*
X131097000Y-49153000D02*
X131097000Y-49653000D01*
X133317000Y-49653000D02*
X133317000Y-49153000D01*
X132367000Y-49153000D02*
X132367000Y-49653000D01*
X108200000Y-48547000D02*
X107700000Y-48547000D01*
X107700000Y-49497000D02*
X108200000Y-49497000D01*
X135161000Y-45597000D02*
X135161000Y-46097000D01*
X136111000Y-46097000D02*
X136111000Y-45597000D01*
X139606000Y-55757000D02*
X139606000Y-56257000D01*
X140556000Y-56257000D02*
X140556000Y-55757000D01*
X137889000Y-86610000D02*
X137889000Y-86110000D01*
X136939000Y-86110000D02*
X136939000Y-86610000D01*
X143637000Y-83312000D02*
X143637000Y-84836000D01*
X143764000Y-85217000D02*
X143764000Y-82931000D01*
X143891000Y-82677000D02*
X143891000Y-85471000D01*
X144018000Y-85725000D02*
X144018000Y-82423000D01*
X144145000Y-82296000D02*
X144145000Y-85852000D01*
X149606000Y-84074000D02*
G75*
G03X149606000Y-84074000I-3048000J0D01*
G01*
X143256000Y-80772000D02*
X143256000Y-87376000D01*
X143256000Y-87376000D02*
X149098000Y-87376000D01*
X149098000Y-87376000D02*
X149860000Y-86614000D01*
X149860000Y-86614000D02*
X149860000Y-81534000D01*
X149860000Y-81534000D02*
X149098000Y-80772000D01*
X149098000Y-80772000D02*
X143256000Y-80772000D01*
X148717000Y-84074000D02*
X147955000Y-84074000D01*
X148336000Y-83693000D02*
X148336000Y-84455000D01*
X143637000Y-46736000D02*
X143637000Y-48260000D01*
X143764000Y-48641000D02*
X143764000Y-46355000D01*
X143891000Y-46101000D02*
X143891000Y-48895000D01*
X144018000Y-49149000D02*
X144018000Y-45847000D01*
X144145000Y-45720000D02*
X144145000Y-49276000D01*
X149606000Y-47498000D02*
G75*
G03X149606000Y-47498000I-3048000J0D01*
G01*
X143256000Y-44196000D02*
X143256000Y-50800000D01*
X143256000Y-50800000D02*
X149098000Y-50800000D01*
X149098000Y-50800000D02*
X149860000Y-50038000D01*
X149860000Y-50038000D02*
X149860000Y-44958000D01*
X149860000Y-44958000D02*
X149098000Y-44196000D01*
X149098000Y-44196000D02*
X143256000Y-44196000D01*
X148717000Y-47498000D02*
X147955000Y-47498000D01*
X148336000Y-47117000D02*
X148336000Y-47879000D01*
X154432000Y-77724000D02*
X159512000Y-77724000D01*
X159512000Y-77724000D02*
X159512000Y-75184000D01*
X159512000Y-75184000D02*
X154432000Y-75184000D01*
X151612000Y-74904000D02*
X153162000Y-74904000D01*
X154432000Y-75184000D02*
X154432000Y-77724000D01*
X153162000Y-78004000D02*
X151612000Y-78004000D01*
X151612000Y-78004000D02*
X151612000Y-74904000D01*
X154432000Y-75170000D02*
X159512000Y-75170000D01*
X159512000Y-75170000D02*
X159512000Y-72630000D01*
X159512000Y-72630000D02*
X154432000Y-72630000D01*
X151612000Y-72350000D02*
X153162000Y-72350000D01*
X154432000Y-72630000D02*
X154432000Y-75170000D01*
X153162000Y-75450000D02*
X151612000Y-75450000D01*
X151612000Y-75450000D02*
X151612000Y-72350000D01*
X154430000Y-72644000D02*
X159510000Y-72644000D01*
X159510000Y-72644000D02*
X159510000Y-70104000D01*
X159510000Y-70104000D02*
X154430000Y-70104000D01*
X151610000Y-69824000D02*
X153160000Y-69824000D01*
X154430000Y-70104000D02*
X154430000Y-72644000D01*
X153160000Y-72924000D02*
X151610000Y-72924000D01*
X151610000Y-72924000D02*
X151610000Y-69824000D01*
D12*
X127230000Y-62895000D02*
X127240000Y-62895000D01*
D11*
X154432000Y-70070000D02*
X159512000Y-70070000D01*
X159512000Y-70070000D02*
X159512000Y-67530000D01*
X159512000Y-67530000D02*
X154432000Y-67530000D01*
X151612000Y-67250000D02*
X153162000Y-67250000D01*
X154432000Y-67530000D02*
X154432000Y-70070000D01*
X153162000Y-70350000D02*
X151612000Y-70350000D01*
X151612000Y-70350000D02*
X151612000Y-67250000D01*
X154432000Y-67564000D02*
X159512000Y-67564000D01*
X159512000Y-67564000D02*
X159512000Y-65024000D01*
X159512000Y-65024000D02*
X154432000Y-65024000D01*
X151612000Y-64744000D02*
X153162000Y-64744000D01*
X154432000Y-65024000D02*
X154432000Y-67564000D01*
X153162000Y-67844000D02*
X151612000Y-67844000D01*
X151612000Y-67844000D02*
X151612000Y-64744000D01*
X154432000Y-65024000D02*
X159512000Y-65024000D01*
X159512000Y-65024000D02*
X159512000Y-62484000D01*
X159512000Y-62484000D02*
X154432000Y-62484000D01*
X151612000Y-62204000D02*
X153162000Y-62204000D01*
X154432000Y-62484000D02*
X154432000Y-65024000D01*
X153162000Y-65304000D02*
X151612000Y-65304000D01*
X151612000Y-65304000D02*
X151612000Y-62204000D01*
D12*
X119356000Y-67467000D02*
X119366000Y-67467000D01*
D11*
X154432000Y-62470000D02*
X159512000Y-62470000D01*
X159512000Y-62470000D02*
X159512000Y-59930000D01*
X159512000Y-59930000D02*
X154432000Y-59930000D01*
X151612000Y-59650000D02*
X153162000Y-59650000D01*
X154432000Y-59930000D02*
X154432000Y-62470000D01*
X153162000Y-62750000D02*
X151612000Y-62750000D01*
X151612000Y-62750000D02*
X151612000Y-59650000D01*
X154432000Y-59944000D02*
X159512000Y-59944000D01*
X159512000Y-59944000D02*
X159512000Y-57404000D01*
X159512000Y-57404000D02*
X154432000Y-57404000D01*
X151612000Y-57124000D02*
X153162000Y-57124000D01*
X154432000Y-57404000D02*
X154432000Y-59944000D01*
X153162000Y-60224000D02*
X151612000Y-60224000D01*
X151612000Y-60224000D02*
X151612000Y-57124000D01*
X154432000Y-57404000D02*
X159512000Y-57404000D01*
X159512000Y-57404000D02*
X159512000Y-54864000D01*
X159512000Y-54864000D02*
X154432000Y-54864000D01*
X151612000Y-54584000D02*
X153162000Y-54584000D01*
X154432000Y-54864000D02*
X154432000Y-57404000D01*
X153162000Y-57684000D02*
X151612000Y-57684000D01*
X151612000Y-57684000D02*
X151612000Y-54584000D01*
X154432000Y-54864000D02*
X159512000Y-54864000D01*
X159512000Y-54864000D02*
X159512000Y-52324000D01*
X159512000Y-52324000D02*
X154432000Y-52324000D01*
X151612000Y-52044000D02*
X153162000Y-52044000D01*
X154432000Y-52324000D02*
X154432000Y-54864000D01*
X153162000Y-55144000D02*
X151612000Y-55144000D01*
X151612000Y-55144000D02*
X151612000Y-52044000D01*
X154432000Y-52324000D02*
X159512000Y-52324000D01*
X159512000Y-52324000D02*
X159512000Y-49784000D01*
X159512000Y-49784000D02*
X154432000Y-49784000D01*
X151612000Y-49504000D02*
X153162000Y-49504000D01*
X154432000Y-49784000D02*
X154432000Y-52324000D01*
X153162000Y-52604000D02*
X151612000Y-52604000D01*
X151612000Y-52604000D02*
X151612000Y-49504000D01*
X154390000Y-49784000D02*
X159470000Y-49784000D01*
X159470000Y-49784000D02*
X159470000Y-47244000D01*
X159470000Y-47244000D02*
X154390000Y-47244000D01*
X151570000Y-46964000D02*
X153120000Y-46964000D01*
X154390000Y-47244000D02*
X154390000Y-49784000D01*
X153120000Y-50064000D02*
X151570000Y-50064000D01*
X151570000Y-50064000D02*
X151570000Y-46964000D01*
D12*
X119356000Y-79151000D02*
X119366000Y-79151000D01*
X127230000Y-48691000D02*
X127240000Y-48691000D01*
X77700000Y-82453000D02*
X77710000Y-82453000D01*
X84304000Y-82453000D02*
X84314000Y-82453000D01*
D11*
X124655580Y-78935580D02*
X124655580Y-78036420D01*
X124655580Y-78036420D02*
X125054360Y-78036420D01*
X125054360Y-78935580D02*
X125054360Y-78036420D01*
X124655580Y-78935580D02*
X125054360Y-78935580D01*
X123357640Y-78935580D02*
X123357640Y-78036420D01*
X123357640Y-78036420D02*
X123756420Y-78036420D01*
X123756420Y-78935580D02*
X123756420Y-78036420D01*
X123357640Y-78935580D02*
X123756420Y-78935580D01*
X124206000Y-78935580D02*
X124206000Y-78785720D01*
X124206000Y-78785720D02*
X124505720Y-78785720D01*
X124505720Y-78935580D02*
X124505720Y-78785720D01*
X124206000Y-78935580D02*
X124505720Y-78935580D01*
X124206000Y-78186280D02*
X124206000Y-78036420D01*
X124206000Y-78036420D02*
X124505720Y-78036420D01*
X124505720Y-78186280D02*
X124505720Y-78036420D01*
X124206000Y-78186280D02*
X124505720Y-78186280D01*
X124206000Y-78635860D02*
X124206000Y-78336140D01*
X124206000Y-78336140D02*
X124505720Y-78336140D01*
X124505720Y-78635860D02*
X124505720Y-78336140D01*
X124206000Y-78635860D02*
X124505720Y-78635860D01*
X124655580Y-78884780D02*
X123756420Y-78884780D01*
X124655580Y-78087220D02*
X123756420Y-78087220D01*
X124655580Y-77411580D02*
X124655580Y-76512420D01*
X124655580Y-76512420D02*
X125054360Y-76512420D01*
X125054360Y-77411580D02*
X125054360Y-76512420D01*
X124655580Y-77411580D02*
X125054360Y-77411580D01*
X123357640Y-77411580D02*
X123357640Y-76512420D01*
X123357640Y-76512420D02*
X123756420Y-76512420D01*
X123756420Y-77411580D02*
X123756420Y-76512420D01*
X123357640Y-77411580D02*
X123756420Y-77411580D01*
X124206000Y-77411580D02*
X124206000Y-77261720D01*
X124206000Y-77261720D02*
X124505720Y-77261720D01*
X124505720Y-77411580D02*
X124505720Y-77261720D01*
X124206000Y-77411580D02*
X124505720Y-77411580D01*
X124206000Y-76662280D02*
X124206000Y-76512420D01*
X124206000Y-76512420D02*
X124505720Y-76512420D01*
X124505720Y-76662280D02*
X124505720Y-76512420D01*
X124206000Y-76662280D02*
X124505720Y-76662280D01*
X124206000Y-77111860D02*
X124206000Y-76812140D01*
X124206000Y-76812140D02*
X124505720Y-76812140D01*
X124505720Y-77111860D02*
X124505720Y-76812140D01*
X124206000Y-77111860D02*
X124505720Y-77111860D01*
X124655580Y-77360780D02*
X123756420Y-77360780D01*
X124655580Y-76563220D02*
X123756420Y-76563220D01*
X124655580Y-75887580D02*
X124655580Y-74988420D01*
X124655580Y-74988420D02*
X125054360Y-74988420D01*
X125054360Y-75887580D02*
X125054360Y-74988420D01*
X124655580Y-75887580D02*
X125054360Y-75887580D01*
X123357640Y-75887580D02*
X123357640Y-74988420D01*
X123357640Y-74988420D02*
X123756420Y-74988420D01*
X123756420Y-75887580D02*
X123756420Y-74988420D01*
X123357640Y-75887580D02*
X123756420Y-75887580D01*
X124206000Y-75887580D02*
X124206000Y-75737720D01*
X124206000Y-75737720D02*
X124505720Y-75737720D01*
X124505720Y-75887580D02*
X124505720Y-75737720D01*
X124206000Y-75887580D02*
X124505720Y-75887580D01*
X124206000Y-75138280D02*
X124206000Y-74988420D01*
X124206000Y-74988420D02*
X124505720Y-74988420D01*
X124505720Y-75138280D02*
X124505720Y-74988420D01*
X124206000Y-75138280D02*
X124505720Y-75138280D01*
X124206000Y-75587860D02*
X124206000Y-75288140D01*
X124206000Y-75288140D02*
X124505720Y-75288140D01*
X124505720Y-75587860D02*
X124505720Y-75288140D01*
X124206000Y-75587860D02*
X124505720Y-75587860D01*
X124655580Y-75836780D02*
X123756420Y-75836780D01*
X124655580Y-75039220D02*
X123756420Y-75039220D01*
X124655580Y-74363580D02*
X124655580Y-73464420D01*
X124655580Y-73464420D02*
X125054360Y-73464420D01*
X125054360Y-74363580D02*
X125054360Y-73464420D01*
X124655580Y-74363580D02*
X125054360Y-74363580D01*
X123357640Y-74363580D02*
X123357640Y-73464420D01*
X123357640Y-73464420D02*
X123756420Y-73464420D01*
X123756420Y-74363580D02*
X123756420Y-73464420D01*
X123357640Y-74363580D02*
X123756420Y-74363580D01*
X124206000Y-74363580D02*
X124206000Y-74213720D01*
X124206000Y-74213720D02*
X124505720Y-74213720D01*
X124505720Y-74363580D02*
X124505720Y-74213720D01*
X124206000Y-74363580D02*
X124505720Y-74363580D01*
X124206000Y-73614280D02*
X124206000Y-73464420D01*
X124206000Y-73464420D02*
X124505720Y-73464420D01*
X124505720Y-73614280D02*
X124505720Y-73464420D01*
X124206000Y-73614280D02*
X124505720Y-73614280D01*
X124206000Y-74063860D02*
X124206000Y-73764140D01*
X124206000Y-73764140D02*
X124505720Y-73764140D01*
X124505720Y-74063860D02*
X124505720Y-73764140D01*
X124206000Y-74063860D02*
X124505720Y-74063860D01*
X124655580Y-74312780D02*
X123756420Y-74312780D01*
X124655580Y-73515220D02*
X123756420Y-73515220D01*
X124655580Y-72839580D02*
X124655580Y-71940420D01*
X124655580Y-71940420D02*
X125054360Y-71940420D01*
X125054360Y-72839580D02*
X125054360Y-71940420D01*
X124655580Y-72839580D02*
X125054360Y-72839580D01*
X123357640Y-72839580D02*
X123357640Y-71940420D01*
X123357640Y-71940420D02*
X123756420Y-71940420D01*
X123756420Y-72839580D02*
X123756420Y-71940420D01*
X123357640Y-72839580D02*
X123756420Y-72839580D01*
X124206000Y-72839580D02*
X124206000Y-72689720D01*
X124206000Y-72689720D02*
X124505720Y-72689720D01*
X124505720Y-72839580D02*
X124505720Y-72689720D01*
X124206000Y-72839580D02*
X124505720Y-72839580D01*
X124206000Y-72090280D02*
X124206000Y-71940420D01*
X124206000Y-71940420D02*
X124505720Y-71940420D01*
X124505720Y-72090280D02*
X124505720Y-71940420D01*
X124206000Y-72090280D02*
X124505720Y-72090280D01*
X124206000Y-72539860D02*
X124206000Y-72240140D01*
X124206000Y-72240140D02*
X124505720Y-72240140D01*
X124505720Y-72539860D02*
X124505720Y-72240140D01*
X124206000Y-72539860D02*
X124505720Y-72539860D01*
X124655580Y-72788780D02*
X123756420Y-72788780D01*
X124655580Y-71991220D02*
X123756420Y-71991220D01*
X96760000Y-84678000D02*
X96760000Y-85878000D01*
X95010000Y-85878000D02*
X95010000Y-84678000D01*
X153178000Y-81221000D02*
X155178000Y-81221000D01*
X155178000Y-83371000D02*
X153178000Y-83371000D01*
D13*
X73941940Y-46616620D02*
X72997060Y-46616620D01*
X73941940Y-51935380D02*
X72997060Y-51935380D01*
X82448400Y-51935380D02*
X78668880Y-51935380D01*
X82448400Y-46616620D02*
X78668880Y-46616620D01*
X74256900Y-52468780D02*
X73941940Y-49009300D01*
X78038960Y-46083220D02*
X78668880Y-51935380D01*
X78038960Y-52468780D02*
X77409040Y-46083220D01*
X77409040Y-52468780D02*
X76779120Y-46083220D01*
X76779120Y-52468780D02*
X76149200Y-46083220D01*
X76149200Y-52468780D02*
X75516740Y-46083220D01*
X75516740Y-52468780D02*
X74886820Y-46083220D01*
X74886820Y-52468780D02*
X74256900Y-46083220D01*
X74256900Y-52468780D02*
X73941940Y-51935380D01*
X73941940Y-51935380D02*
X73941940Y-46616620D01*
X73941940Y-46616620D02*
X74256900Y-46083220D01*
X74256900Y-46083220D02*
X78353920Y-46083220D01*
X78353920Y-46083220D02*
X78668880Y-46616620D01*
X78668880Y-46616620D02*
X78668880Y-51935380D01*
X78668880Y-51935380D02*
X78353920Y-52468780D01*
X78353920Y-52468780D02*
X74256900Y-52468780D01*
X72997060Y-46616620D02*
X72997060Y-51935380D01*
X82448400Y-52425600D02*
X82448400Y-46126400D01*
X82448400Y-46126400D02*
X88747600Y-46126400D01*
X88747600Y-46126400D02*
X88747600Y-52425600D01*
X88747600Y-52425600D02*
X82448400Y-52425600D01*
D11*
X89154000Y-83312000D02*
X89154000Y-80772000D01*
X88874000Y-86132000D02*
X88874000Y-84582000D01*
X89154000Y-83312000D02*
X91694000Y-83312000D01*
X91974000Y-84582000D02*
X91974000Y-86132000D01*
X91974000Y-86132000D02*
X88874000Y-86132000D01*
X91694000Y-83312000D02*
X91694000Y-80772000D01*
X91694000Y-80772000D02*
X89154000Y-80772000D01*
X139195000Y-83537000D02*
X136395000Y-83537000D01*
X136395000Y-83537000D02*
X135845000Y-82987000D01*
X135845000Y-82987000D02*
X134845000Y-82987000D01*
X134845000Y-82987000D02*
X134845000Y-77287000D01*
X134845000Y-77287000D02*
X135845000Y-77287000D01*
X135845000Y-77287000D02*
X136395000Y-76737000D01*
X136395000Y-76737000D02*
X139195000Y-76737000D01*
X139195000Y-76737000D02*
X139745000Y-77287000D01*
X139745000Y-77287000D02*
X140745000Y-77287000D01*
X140745000Y-77287000D02*
X140745000Y-82987000D01*
X140745000Y-82987000D02*
X139745000Y-82987000D01*
X139745000Y-82987000D02*
X139195000Y-83537000D01*
D12*
X128366000Y-80986000D02*
X127746000Y-80986000D01*
X128366000Y-77886000D02*
X127746000Y-77886000D01*
X127756000Y-78486000D02*
X127746000Y-78486000D01*
D11*
X104919000Y-66544000D02*
X104919000Y-66044000D01*
X103869000Y-66044000D02*
X103869000Y-66544000D01*
X132698000Y-58043000D02*
X132698000Y-58543000D01*
X133748000Y-58543000D02*
X133748000Y-58043000D01*
X133968000Y-58043000D02*
X133968000Y-58543000D01*
X135018000Y-58543000D02*
X135018000Y-58043000D01*
X100567000Y-71124000D02*
X100567000Y-71624000D01*
X101617000Y-71624000D02*
X101617000Y-71124000D01*
X98789000Y-71124000D02*
X98789000Y-71624000D01*
X99839000Y-71624000D02*
X99839000Y-71124000D01*
X97011000Y-71124000D02*
X97011000Y-71624000D01*
X98061000Y-71624000D02*
X98061000Y-71124000D01*
X97011000Y-63504000D02*
X97011000Y-64004000D01*
X98061000Y-64004000D02*
X98061000Y-63504000D01*
X98789000Y-63504000D02*
X98789000Y-64004000D01*
X99839000Y-64004000D02*
X99839000Y-63504000D01*
X92693000Y-79506000D02*
X92693000Y-80006000D01*
X93743000Y-80006000D02*
X93743000Y-79506000D01*
X134616000Y-62213000D02*
X134116000Y-62213000D01*
X134116000Y-63263000D02*
X134616000Y-63263000D01*
X97807000Y-77212000D02*
X97807000Y-76712000D01*
X96757000Y-76712000D02*
X96757000Y-77212000D01*
X99839000Y-77212000D02*
X99839000Y-76712000D01*
X98789000Y-76712000D02*
X98789000Y-77212000D01*
X132457000Y-72246000D02*
X131957000Y-72246000D01*
X131957000Y-73296000D02*
X132457000Y-73296000D01*
X133460000Y-72013000D02*
X133460000Y-72513000D01*
X134510000Y-72513000D02*
X134510000Y-72013000D01*
X124456000Y-79485000D02*
X123956000Y-79485000D01*
X123956000Y-80535000D02*
X124456000Y-80535000D01*
X123956000Y-81805000D02*
X124456000Y-81805000D01*
X124456000Y-80755000D02*
X123956000Y-80755000D01*
X107446000Y-53865000D02*
X107946000Y-53865000D01*
X107946000Y-52815000D02*
X107446000Y-52815000D01*
X107446000Y-52595000D02*
X107946000Y-52595000D01*
X107946000Y-51545000D02*
X107446000Y-51545000D01*
X126496000Y-77487000D02*
X126996000Y-77487000D01*
X126996000Y-76437000D02*
X126496000Y-76437000D01*
X126496000Y-75963000D02*
X126996000Y-75963000D01*
X126996000Y-74913000D02*
X126496000Y-74913000D01*
X126496000Y-74439000D02*
X126996000Y-74439000D01*
X126996000Y-73389000D02*
X126496000Y-73389000D01*
X126496000Y-72915000D02*
X126996000Y-72915000D01*
X126996000Y-71865000D02*
X126496000Y-71865000D01*
X113534000Y-86343000D02*
X113034000Y-86343000D01*
X113034000Y-87393000D02*
X113534000Y-87393000D01*
X113534000Y-85073000D02*
X113034000Y-85073000D01*
X113034000Y-86123000D02*
X113534000Y-86123000D01*
X140987000Y-86610000D02*
X140987000Y-86110000D01*
X139937000Y-86110000D02*
X139937000Y-86610000D01*
X139463000Y-86610000D02*
X139463000Y-86110000D01*
X138413000Y-86110000D02*
X138413000Y-86610000D01*
X101600000Y-65024000D02*
X101600000Y-70104000D01*
X101600000Y-70104000D02*
X97028000Y-70104000D01*
X97028000Y-70104000D02*
X97028000Y-65024000D01*
X97028000Y-65024000D02*
X101600000Y-65024000D01*
X100076000Y-65024000D02*
X100076000Y-65532000D01*
X100076000Y-65532000D02*
X98806000Y-65532000D01*
X98806000Y-65532000D02*
X98806000Y-65024000D01*
X120142000Y-44958000D02*
X120142000Y-50038000D01*
X120142000Y-50038000D02*
X115570000Y-50038000D01*
X115570000Y-50038000D02*
X115570000Y-44958000D01*
X115570000Y-44958000D02*
X120142000Y-44958000D01*
X118618000Y-44958000D02*
X118618000Y-45466000D01*
X118618000Y-45466000D02*
X117348000Y-45466000D01*
X117348000Y-45466000D02*
X117348000Y-44958000D01*
X136042000Y-60858000D02*
X136832000Y-60858000D01*
X142342000Y-67158000D02*
X141552000Y-67158000D01*
X142342000Y-60858000D02*
X141552000Y-60858000D01*
X136042000Y-67158000D02*
X136042000Y-66368000D01*
X142342000Y-67158000D02*
X142342000Y-66368000D01*
X142342000Y-60858000D02*
X142342000Y-61648000D01*
X136042000Y-60858000D02*
X136042000Y-61648000D01*
X110236000Y-71374000D02*
X110236000Y-76454000D01*
X110236000Y-76454000D02*
X105664000Y-76454000D01*
X105664000Y-76454000D02*
X105664000Y-71374000D01*
X105664000Y-71374000D02*
X110236000Y-71374000D01*
X108712000Y-71374000D02*
X108712000Y-71882000D01*
X108712000Y-71882000D02*
X107442000Y-71882000D01*
X107442000Y-71882000D02*
X107442000Y-71374000D01*
D12*
X105441000Y-83667000D02*
X106061000Y-83667000D01*
X105441000Y-86767000D02*
X106061000Y-86767000D01*
X106051000Y-86167000D02*
X106061000Y-86167000D01*
D11*
X105484000Y-54706000D02*
X105484000Y-54956000D01*
X105484000Y-54956000D02*
X95684000Y-54956000D01*
X95684000Y-54956000D02*
X95684000Y-44906000D01*
X95684000Y-44906000D02*
X105484000Y-44906000D01*
X105484000Y-44906000D02*
X105484000Y-54706000D01*
D12*
X139446000Y-58547000D02*
X139319000Y-58547000D01*
X109306000Y-48898000D02*
X109306000Y-48908000D01*
D11*
X113301000Y-74164000D02*
X113301000Y-73664000D01*
X112251000Y-73664000D02*
X112251000Y-74164000D01*
X144022000Y-62197000D02*
X144522000Y-62197000D01*
X144522000Y-61247000D02*
X144022000Y-61247000D01*
D13*
X147355000Y-38525000D02*
X80680000Y-38525000D01*
X80680000Y-54019000D02*
X94142000Y-54019000D01*
X80680000Y-38525000D02*
X80680000Y-54019000D01*
X73695000Y-72561000D02*
X73695000Y-85515000D01*
X73695000Y-72561000D02*
X94142000Y-72561000D01*
X94142000Y-72561000D02*
X94142000Y-54019000D01*
X73695000Y-86785000D02*
X73695000Y-85515000D01*
X147355000Y-93135000D02*
X80045000Y-93135000D01*
X160055000Y-80435000D02*
X160055000Y-51225000D01*
X147355000Y-93135000D02*
G75*
G03X160055000Y-80435000I0J12700000D01*
G01*
X160055000Y-51225000D02*
G75*
G03X147355000Y-38525000I-12700000J0D01*
G01*
X73695000Y-86785000D02*
G75*
G03X80045000Y-93135000I6350000J0D01*
G01*
D11*
X139212801Y-75230000D02*
G75*
G03X139212801Y-75230000I-72801J0D01*
G01*
X139370000Y-75420000D02*
X139370000Y-72280000D01*
X139370000Y-72280000D02*
X136230000Y-72280000D01*
X136230000Y-72280000D02*
X136230000Y-75420000D01*
X136230000Y-75420000D02*
X139370000Y-75420000D01*
X136561905Y-46052381D02*
X136561905Y-46861905D01*
X136609524Y-46957143D01*
X136657143Y-47004762D01*
X136752381Y-47052381D01*
X136942858Y-47052381D01*
X137038096Y-47004762D01*
X137085715Y-46957143D01*
X137133334Y-46861905D01*
X137133334Y-46052381D01*
X138133334Y-47052381D02*
X137561905Y-47052381D01*
X137847619Y-47052381D02*
X137847619Y-46052381D01*
X137752381Y-46195238D01*
X137657143Y-46290476D01*
X137561905Y-46338095D01*
X138752381Y-46052381D02*
X138847620Y-46052381D01*
X138942858Y-46100000D01*
X138990477Y-46147619D01*
X139038096Y-46242857D01*
X139085715Y-46433333D01*
X139085715Y-46671429D01*
X139038096Y-46861905D01*
X138990477Y-46957143D01*
X138942858Y-47004762D01*
X138847620Y-47052381D01*
X138752381Y-47052381D01*
X138657143Y-47004762D01*
X138609524Y-46957143D01*
X138561905Y-46861905D01*
X138514286Y-46671429D01*
X138514286Y-46433333D01*
X138561905Y-46242857D01*
X138609524Y-46147619D01*
X138657143Y-46100000D01*
X138752381Y-46052381D01*
X114652381Y-59253238D02*
X115461905Y-59253238D01*
X115557143Y-59205619D01*
X115604762Y-59158000D01*
X115652381Y-59062762D01*
X115652381Y-58872285D01*
X115604762Y-58777047D01*
X115557143Y-58729428D01*
X115461905Y-58681809D01*
X114652381Y-58681809D01*
X115366667Y-58253238D02*
X115366667Y-57777047D01*
X115652381Y-58348476D02*
X114652381Y-58015143D01*
X115652381Y-57681809D01*
X115652381Y-56777047D02*
X115176190Y-57110381D01*
X115652381Y-57348476D02*
X114652381Y-57348476D01*
X114652381Y-56967523D01*
X114700000Y-56872285D01*
X114747619Y-56824666D01*
X114842857Y-56777047D01*
X114985714Y-56777047D01*
X115080952Y-56824666D01*
X115128571Y-56872285D01*
X115176190Y-56967523D01*
X115176190Y-57348476D01*
X114652381Y-56491333D02*
X114652381Y-55919904D01*
X115652381Y-56205619D02*
X114652381Y-56205619D01*
X101457143Y-61766666D02*
X101504762Y-61814285D01*
X101552381Y-61957142D01*
X101552381Y-62052380D01*
X101504762Y-62195238D01*
X101409524Y-62290476D01*
X101314286Y-62338095D01*
X101123810Y-62385714D01*
X100980952Y-62385714D01*
X100790476Y-62338095D01*
X100695238Y-62290476D01*
X100600000Y-62195238D01*
X100552381Y-62052380D01*
X100552381Y-61957142D01*
X100600000Y-61814285D01*
X100647619Y-61766666D01*
X100647619Y-61385714D02*
X100600000Y-61338095D01*
X100552381Y-61242857D01*
X100552381Y-61004761D01*
X100600000Y-60909523D01*
X100647619Y-60861904D01*
X100742857Y-60814285D01*
X100838095Y-60814285D01*
X100980952Y-60861904D01*
X101552381Y-61433333D01*
X101552381Y-60814285D01*
X103557143Y-72166666D02*
X103604762Y-72214285D01*
X103652381Y-72357142D01*
X103652381Y-72452380D01*
X103604762Y-72595238D01*
X103509524Y-72690476D01*
X103414286Y-72738095D01*
X103223810Y-72785714D01*
X103080952Y-72785714D01*
X102890476Y-72738095D01*
X102795238Y-72690476D01*
X102700000Y-72595238D01*
X102652381Y-72452380D01*
X102652381Y-72357142D01*
X102700000Y-72214285D01*
X102747619Y-72166666D01*
X102652381Y-71309523D02*
X102652381Y-71500000D01*
X102700000Y-71595238D01*
X102747619Y-71642857D01*
X102890476Y-71738095D01*
X103080952Y-71785714D01*
X103461905Y-71785714D01*
X103557143Y-71738095D01*
X103604762Y-71690476D01*
X103652381Y-71595238D01*
X103652381Y-71404761D01*
X103604762Y-71309523D01*
X103557143Y-71261904D01*
X103461905Y-71214285D01*
X103223810Y-71214285D01*
X103128571Y-71261904D01*
X103080952Y-71309523D01*
X103033333Y-71404761D01*
X103033333Y-71595238D01*
X103080952Y-71690476D01*
X103128571Y-71738095D01*
X103223810Y-71785714D01*
X129157143Y-71757143D02*
X129109524Y-71804762D01*
X128966667Y-71852381D01*
X128871429Y-71852381D01*
X128728571Y-71804762D01*
X128633333Y-71709524D01*
X128585714Y-71614286D01*
X128538095Y-71423810D01*
X128538095Y-71280952D01*
X128585714Y-71090476D01*
X128633333Y-70995238D01*
X128728571Y-70900000D01*
X128871429Y-70852381D01*
X128966667Y-70852381D01*
X129109524Y-70900000D01*
X129157143Y-70947619D01*
X130109524Y-71852381D02*
X129538095Y-71852381D01*
X129823809Y-71852381D02*
X129823809Y-70852381D01*
X129728571Y-70995238D01*
X129633333Y-71090476D01*
X129538095Y-71138095D01*
X130728571Y-70852381D02*
X130823810Y-70852381D01*
X130919048Y-70900000D01*
X130966667Y-70947619D01*
X131014286Y-71042857D01*
X131061905Y-71233333D01*
X131061905Y-71471429D01*
X131014286Y-71661905D01*
X130966667Y-71757143D01*
X130919048Y-71804762D01*
X130823810Y-71852381D01*
X130728571Y-71852381D01*
X130633333Y-71804762D01*
X130585714Y-71757143D01*
X130538095Y-71661905D01*
X130490476Y-71471429D01*
X130490476Y-71233333D01*
X130538095Y-71042857D01*
X130585714Y-70947619D01*
X130633333Y-70900000D01*
X130728571Y-70852381D01*
X134957143Y-46442857D02*
X135004762Y-46490476D01*
X135052381Y-46633333D01*
X135052381Y-46728571D01*
X135004762Y-46871429D01*
X134909524Y-46966667D01*
X134814286Y-47014286D01*
X134623810Y-47061905D01*
X134480952Y-47061905D01*
X134290476Y-47014286D01*
X134195238Y-46966667D01*
X134100000Y-46871429D01*
X134052381Y-46728571D01*
X134052381Y-46633333D01*
X134100000Y-46490476D01*
X134147619Y-46442857D01*
X134147619Y-46061905D02*
X134100000Y-46014286D01*
X134052381Y-45919048D01*
X134052381Y-45680952D01*
X134100000Y-45585714D01*
X134147619Y-45538095D01*
X134242857Y-45490476D01*
X134338095Y-45490476D01*
X134480952Y-45538095D01*
X135052381Y-46109524D01*
X135052381Y-45490476D01*
X134052381Y-44871429D02*
X134052381Y-44776190D01*
X134100000Y-44680952D01*
X134147619Y-44633333D01*
X134242857Y-44585714D01*
X134433333Y-44538095D01*
X134671429Y-44538095D01*
X134861905Y-44585714D01*
X134957143Y-44633333D01*
X135004762Y-44680952D01*
X135052381Y-44776190D01*
X135052381Y-44871429D01*
X135004762Y-44966667D01*
X134957143Y-45014286D01*
X134861905Y-45061905D01*
X134671429Y-45109524D01*
X134433333Y-45109524D01*
X134242857Y-45061905D01*
X134147619Y-45014286D01*
X134100000Y-44966667D01*
X134052381Y-44871429D01*
X141357143Y-56642857D02*
X141404762Y-56690476D01*
X141452381Y-56833333D01*
X141452381Y-56928571D01*
X141404762Y-57071429D01*
X141309524Y-57166667D01*
X141214286Y-57214286D01*
X141023810Y-57261905D01*
X140880952Y-57261905D01*
X140690476Y-57214286D01*
X140595238Y-57166667D01*
X140500000Y-57071429D01*
X140452381Y-56928571D01*
X140452381Y-56833333D01*
X140500000Y-56690476D01*
X140547619Y-56642857D01*
X140547619Y-56261905D02*
X140500000Y-56214286D01*
X140452381Y-56119048D01*
X140452381Y-55880952D01*
X140500000Y-55785714D01*
X140547619Y-55738095D01*
X140642857Y-55690476D01*
X140738095Y-55690476D01*
X140880952Y-55738095D01*
X141452381Y-56309524D01*
X141452381Y-55690476D01*
X141452381Y-54738095D02*
X141452381Y-55309524D01*
X141452381Y-55023810D02*
X140452381Y-55023810D01*
X140595238Y-55119048D01*
X140690476Y-55214286D01*
X140738095Y-55309524D01*
X150352381Y-76501619D02*
X150352381Y-76406380D01*
X150400000Y-76311142D01*
X150447619Y-76263523D01*
X150542857Y-76215904D01*
X150733333Y-76168285D01*
X150971429Y-76168285D01*
X151161905Y-76215904D01*
X151257143Y-76263523D01*
X151304762Y-76311142D01*
X151352381Y-76406380D01*
X151352381Y-76501619D01*
X151304762Y-76596857D01*
X151257143Y-76644476D01*
X151161905Y-76692095D01*
X150971429Y-76739714D01*
X150733333Y-76739714D01*
X150542857Y-76692095D01*
X150447619Y-76644476D01*
X150400000Y-76596857D01*
X150352381Y-76501619D01*
X151352381Y-73614285D02*
X151352381Y-74185714D01*
X151352381Y-73900000D02*
X150352381Y-73900000D01*
X150495238Y-73995238D01*
X150590476Y-74090476D01*
X150638095Y-74185714D01*
X150487619Y-71659714D02*
X150440000Y-71612095D01*
X150392381Y-71516857D01*
X150392381Y-71278761D01*
X150440000Y-71183523D01*
X150487619Y-71135904D01*
X150582857Y-71088285D01*
X150678095Y-71088285D01*
X150820952Y-71135904D01*
X151392381Y-71707333D01*
X151392381Y-71088285D01*
X123852381Y-65746190D02*
X122852381Y-65746190D01*
X122947619Y-65317619D02*
X122900000Y-65270000D01*
X122852381Y-65174762D01*
X122852381Y-64936666D01*
X122900000Y-64841428D01*
X122947619Y-64793809D01*
X123042857Y-64746190D01*
X123138095Y-64746190D01*
X123280952Y-64793809D01*
X123852381Y-65365238D01*
X123852381Y-64746190D01*
X123757143Y-63746190D02*
X123804762Y-63793809D01*
X123852381Y-63936666D01*
X123852381Y-64031904D01*
X123804762Y-64174762D01*
X123709524Y-64270000D01*
X123614286Y-64317619D01*
X123423810Y-64365238D01*
X123280952Y-64365238D01*
X123090476Y-64317619D01*
X122995238Y-64270000D01*
X122900000Y-64174762D01*
X122852381Y-64031904D01*
X122852381Y-63936666D01*
X122900000Y-63793809D01*
X122947619Y-63746190D01*
X150352381Y-69133333D02*
X150352381Y-68514285D01*
X150733333Y-68847619D01*
X150733333Y-68704761D01*
X150780952Y-68609523D01*
X150828571Y-68561904D01*
X150923810Y-68514285D01*
X151161905Y-68514285D01*
X151257143Y-68561904D01*
X151304762Y-68609523D01*
X151352381Y-68704761D01*
X151352381Y-68990476D01*
X151304762Y-69085714D01*
X151257143Y-69133333D01*
X150685714Y-66059523D02*
X151352381Y-66059523D01*
X150304762Y-66297619D02*
X151019048Y-66535714D01*
X151019048Y-65916666D01*
X150352381Y-63515904D02*
X150352381Y-63992095D01*
X150828571Y-64039714D01*
X150780952Y-63992095D01*
X150733333Y-63896857D01*
X150733333Y-63658761D01*
X150780952Y-63563523D01*
X150828571Y-63515904D01*
X150923810Y-63468285D01*
X151161905Y-63468285D01*
X151257143Y-63515904D01*
X151304762Y-63563523D01*
X151352381Y-63658761D01*
X151352381Y-63896857D01*
X151304762Y-63992095D01*
X151257143Y-64039714D01*
X115557143Y-69984857D02*
X115604762Y-70032476D01*
X115652381Y-70175333D01*
X115652381Y-70270571D01*
X115604762Y-70413429D01*
X115509524Y-70508667D01*
X115414286Y-70556286D01*
X115223810Y-70603905D01*
X115080952Y-70603905D01*
X114890476Y-70556286D01*
X114795238Y-70508667D01*
X114700000Y-70413429D01*
X114652381Y-70270571D01*
X114652381Y-70175333D01*
X114700000Y-70032476D01*
X114747619Y-69984857D01*
X115366667Y-69603905D02*
X115366667Y-69127714D01*
X115652381Y-69699143D02*
X114652381Y-69365810D01*
X115652381Y-69032476D01*
X115652381Y-68699143D02*
X114652381Y-68699143D01*
X115652381Y-68127714D01*
X114652381Y-68127714D01*
X150352381Y-61009523D02*
X150352381Y-61200000D01*
X150400000Y-61295238D01*
X150447619Y-61342857D01*
X150590476Y-61438095D01*
X150780952Y-61485714D01*
X151161905Y-61485714D01*
X151257143Y-61438095D01*
X151304762Y-61390476D01*
X151352381Y-61295238D01*
X151352381Y-61104761D01*
X151304762Y-61009523D01*
X151257143Y-60961904D01*
X151161905Y-60914285D01*
X150923810Y-60914285D01*
X150828571Y-60961904D01*
X150780952Y-61009523D01*
X150733333Y-61104761D01*
X150733333Y-61295238D01*
X150780952Y-61390476D01*
X150828571Y-61438095D01*
X150923810Y-61485714D01*
X150352381Y-59033333D02*
X150352381Y-58366666D01*
X151352381Y-58795238D01*
X150780952Y-56195238D02*
X150733333Y-56290476D01*
X150685714Y-56338095D01*
X150590476Y-56385714D01*
X150542857Y-56385714D01*
X150447619Y-56338095D01*
X150400000Y-56290476D01*
X150352381Y-56195238D01*
X150352381Y-56004761D01*
X150400000Y-55909523D01*
X150447619Y-55861904D01*
X150542857Y-55814285D01*
X150590476Y-55814285D01*
X150685714Y-55861904D01*
X150733333Y-55909523D01*
X150780952Y-56004761D01*
X150780952Y-56195238D01*
X150828571Y-56290476D01*
X150876190Y-56338095D01*
X150971429Y-56385714D01*
X151161905Y-56385714D01*
X151257143Y-56338095D01*
X151304762Y-56290476D01*
X151352381Y-56195238D01*
X151352381Y-56004761D01*
X151304762Y-55909523D01*
X151257143Y-55861904D01*
X151161905Y-55814285D01*
X150971429Y-55814285D01*
X150876190Y-55861904D01*
X150828571Y-55909523D01*
X150780952Y-56004761D01*
X151352381Y-53790476D02*
X151352381Y-53600000D01*
X151304762Y-53504761D01*
X151257143Y-53457142D01*
X151114286Y-53361904D01*
X150923810Y-53314285D01*
X150542857Y-53314285D01*
X150447619Y-53361904D01*
X150400000Y-53409523D01*
X150352381Y-53504761D01*
X150352381Y-53695238D01*
X150400000Y-53790476D01*
X150447619Y-53838095D01*
X150542857Y-53885714D01*
X150780952Y-53885714D01*
X150876190Y-53838095D01*
X150923810Y-53790476D01*
X150971429Y-53695238D01*
X150971429Y-53504761D01*
X150923810Y-53409523D01*
X150876190Y-53361904D01*
X150780952Y-53314285D01*
X151252381Y-51244476D02*
X151252381Y-51815905D01*
X151252381Y-51530191D02*
X150252381Y-51530191D01*
X150395238Y-51625429D01*
X150490476Y-51720667D01*
X150538095Y-51815905D01*
X150252381Y-50625429D02*
X150252381Y-50530190D01*
X150300000Y-50434952D01*
X150347619Y-50387333D01*
X150442857Y-50339714D01*
X150633333Y-50292095D01*
X150871429Y-50292095D01*
X151061905Y-50339714D01*
X151157143Y-50387333D01*
X151204762Y-50434952D01*
X151252381Y-50530190D01*
X151252381Y-50625429D01*
X151204762Y-50720667D01*
X151157143Y-50768286D01*
X151061905Y-50815905D01*
X150871429Y-50863524D01*
X150633333Y-50863524D01*
X150442857Y-50815905D01*
X150347619Y-50768286D01*
X150300000Y-50720667D01*
X150252381Y-50625429D01*
X151152381Y-48704476D02*
X151152381Y-49275905D01*
X151152381Y-48990191D02*
X150152381Y-48990191D01*
X150295238Y-49085429D01*
X150390476Y-49180667D01*
X150438095Y-49275905D01*
X151152381Y-47752095D02*
X151152381Y-48323524D01*
X151152381Y-48037810D02*
X150152381Y-48037810D01*
X150295238Y-48133048D01*
X150390476Y-48228286D01*
X150438095Y-48323524D01*
D14*
X158287357Y-81561214D02*
X158293405Y-81567262D01*
X158299452Y-81585405D01*
X158299452Y-81597500D01*
X158293405Y-81615643D01*
X158281310Y-81627738D01*
X158269214Y-81633786D01*
X158245024Y-81639834D01*
X158226881Y-81639834D01*
X158202690Y-81633786D01*
X158190595Y-81627738D01*
X158178500Y-81615643D01*
X158172452Y-81597500D01*
X158172452Y-81585405D01*
X158178500Y-81567262D01*
X158184548Y-81561214D01*
X158172452Y-81482595D02*
X158172452Y-81458405D01*
X158178500Y-81446310D01*
X158190595Y-81434214D01*
X158214786Y-81428167D01*
X158257119Y-81428167D01*
X158281310Y-81434214D01*
X158293405Y-81446310D01*
X158299452Y-81458405D01*
X158299452Y-81482595D01*
X158293405Y-81494691D01*
X158281310Y-81506786D01*
X158257119Y-81512834D01*
X158214786Y-81512834D01*
X158190595Y-81506786D01*
X158178500Y-81494691D01*
X158172452Y-81482595D01*
X158299452Y-81373738D02*
X158172452Y-81373738D01*
X158299452Y-81301166D01*
X158172452Y-81301166D01*
X158299452Y-81240690D02*
X158172452Y-81240690D01*
X158299452Y-81168118D01*
X158172452Y-81168118D01*
X158299452Y-81041118D02*
X158299452Y-81113690D01*
X158299452Y-81077404D02*
X158172452Y-81077404D01*
X158190595Y-81089499D01*
X158202690Y-81101594D01*
X158208738Y-81113690D01*
X158172452Y-80932261D02*
X158172452Y-80956452D01*
X158178500Y-80968547D01*
X158184548Y-80974595D01*
X158202690Y-80986690D01*
X158226881Y-80992738D01*
X158275262Y-80992738D01*
X158287357Y-80986690D01*
X158293405Y-80980642D01*
X158299452Y-80968547D01*
X158299452Y-80944357D01*
X158293405Y-80932261D01*
X158287357Y-80926214D01*
X158275262Y-80920166D01*
X158245024Y-80920166D01*
X158232929Y-80926214D01*
X158226881Y-80932261D01*
X158220833Y-80944357D01*
X158220833Y-80968547D01*
X158226881Y-80980642D01*
X158232929Y-80986690D01*
X158245024Y-80992738D01*
X158299452Y-81449333D02*
X158172452Y-81449333D01*
X158172452Y-81400952D01*
X158178500Y-81388857D01*
X158184548Y-81382809D01*
X158196643Y-81376761D01*
X158214786Y-81376761D01*
X158226881Y-81382809D01*
X158232929Y-81388857D01*
X158238976Y-81400952D01*
X158238976Y-81449333D01*
X158172452Y-81334428D02*
X158299452Y-81304190D01*
X158208738Y-81280000D01*
X158299452Y-81255809D01*
X158172452Y-81225571D01*
X158299452Y-81104618D02*
X158238976Y-81146952D01*
X158299452Y-81177190D02*
X158172452Y-81177190D01*
X158172452Y-81128809D01*
X158178500Y-81116714D01*
X158184548Y-81110666D01*
X158196643Y-81104618D01*
X158214786Y-81104618D01*
X158226881Y-81110666D01*
X158232929Y-81116714D01*
X158238976Y-81128809D01*
X158238976Y-81177190D01*
D11*
X115652381Y-81976190D02*
X114652381Y-81976190D01*
X114747619Y-81547619D02*
X114700000Y-81500000D01*
X114652381Y-81404762D01*
X114652381Y-81166666D01*
X114700000Y-81071428D01*
X114747619Y-81023809D01*
X114842857Y-80976190D01*
X114938095Y-80976190D01*
X115080952Y-81023809D01*
X115652381Y-81595238D01*
X115652381Y-80976190D01*
X115557143Y-79976190D02*
X115604762Y-80023809D01*
X115652381Y-80166666D01*
X115652381Y-80261904D01*
X115604762Y-80404762D01*
X115509524Y-80500000D01*
X115414286Y-80547619D01*
X115223810Y-80595238D01*
X115080952Y-80595238D01*
X114890476Y-80547619D01*
X114795238Y-80500000D01*
X114700000Y-80404762D01*
X114652381Y-80261904D01*
X114652381Y-80166666D01*
X114700000Y-80023809D01*
X114747619Y-79976190D01*
X123804762Y-52823809D02*
X123852381Y-52680952D01*
X123852381Y-52442856D01*
X123804762Y-52347618D01*
X123757143Y-52299999D01*
X123661905Y-52252380D01*
X123566667Y-52252380D01*
X123471429Y-52299999D01*
X123423810Y-52347618D01*
X123376190Y-52442856D01*
X123328571Y-52633333D01*
X123280952Y-52728571D01*
X123233333Y-52776190D01*
X123138095Y-52823809D01*
X123042857Y-52823809D01*
X122947619Y-52776190D01*
X122900000Y-52728571D01*
X122852381Y-52633333D01*
X122852381Y-52395237D01*
X122900000Y-52252380D01*
X123852381Y-51823809D02*
X122852381Y-51823809D01*
X122852381Y-51442856D01*
X122900000Y-51347618D01*
X122947619Y-51299999D01*
X123042857Y-51252380D01*
X123185714Y-51252380D01*
X123280952Y-51299999D01*
X123328571Y-51347618D01*
X123376190Y-51442856D01*
X123376190Y-51823809D01*
X123852381Y-50823809D02*
X122852381Y-50823809D01*
X76366667Y-78657143D02*
X76366667Y-78180952D01*
X76652381Y-78752381D02*
X75652381Y-78419048D01*
X76652381Y-78085714D01*
X76652381Y-77752381D02*
X75652381Y-77752381D01*
X75652381Y-77514286D01*
X75700000Y-77371428D01*
X75795238Y-77276190D01*
X75890476Y-77228571D01*
X76080952Y-77180952D01*
X76223810Y-77180952D01*
X76414286Y-77228571D01*
X76509524Y-77276190D01*
X76604762Y-77371428D01*
X76652381Y-77514286D01*
X76652381Y-77752381D01*
X76557143Y-76180952D02*
X76604762Y-76228571D01*
X76652381Y-76371428D01*
X76652381Y-76466666D01*
X76604762Y-76609524D01*
X76509524Y-76704762D01*
X76414286Y-76752381D01*
X76223810Y-76800000D01*
X76080952Y-76800000D01*
X75890476Y-76752381D01*
X75795238Y-76704762D01*
X75700000Y-76609524D01*
X75652381Y-76466666D01*
X75652381Y-76371428D01*
X75700000Y-76228571D01*
X75747619Y-76180952D01*
X75652381Y-75847619D02*
X75652381Y-75228571D01*
X76033333Y-75561905D01*
X76033333Y-75419047D01*
X76080952Y-75323809D01*
X76128571Y-75276190D01*
X76223810Y-75228571D01*
X76461905Y-75228571D01*
X76557143Y-75276190D01*
X76604762Y-75323809D01*
X76652381Y-75419047D01*
X76652381Y-75704762D01*
X76604762Y-75800000D01*
X76557143Y-75847619D01*
X76557143Y-74800000D02*
X76604762Y-74752381D01*
X76652381Y-74800000D01*
X76604762Y-74847619D01*
X76557143Y-74800000D01*
X76652381Y-74800000D01*
X75652381Y-74419048D02*
X75652381Y-73800000D01*
X76033333Y-74133334D01*
X76033333Y-73990476D01*
X76080952Y-73895238D01*
X76128571Y-73847619D01*
X76223810Y-73800000D01*
X76461905Y-73800000D01*
X76557143Y-73847619D01*
X76604762Y-73895238D01*
X76652381Y-73990476D01*
X76652381Y-74276191D01*
X76604762Y-74371429D01*
X76557143Y-74419048D01*
X75652381Y-73514286D02*
X76652381Y-73180953D01*
X75652381Y-72847619D01*
X82966667Y-78523810D02*
X82966667Y-78047619D01*
X83252381Y-78619048D02*
X82252381Y-78285715D01*
X83252381Y-77952381D01*
X83252381Y-77619048D02*
X82252381Y-77619048D01*
X82252381Y-77380953D01*
X82300000Y-77238095D01*
X82395238Y-77142857D01*
X82490476Y-77095238D01*
X82680952Y-77047619D01*
X82823810Y-77047619D01*
X83014286Y-77095238D01*
X83109524Y-77142857D01*
X83204762Y-77238095D01*
X83252381Y-77380953D01*
X83252381Y-77619048D01*
X83157143Y-76047619D02*
X83204762Y-76095238D01*
X83252381Y-76238095D01*
X83252381Y-76333333D01*
X83204762Y-76476191D01*
X83109524Y-76571429D01*
X83014286Y-76619048D01*
X82823810Y-76666667D01*
X82680952Y-76666667D01*
X82490476Y-76619048D01*
X82395238Y-76571429D01*
X82300000Y-76476191D01*
X82252381Y-76333333D01*
X82252381Y-76238095D01*
X82300000Y-76095238D01*
X82347619Y-76047619D01*
X82252381Y-74380952D02*
X82252381Y-74857143D01*
X82728571Y-74904762D01*
X82680952Y-74857143D01*
X82633333Y-74761905D01*
X82633333Y-74523809D01*
X82680952Y-74428571D01*
X82728571Y-74380952D01*
X82823810Y-74333333D01*
X83061905Y-74333333D01*
X83157143Y-74380952D01*
X83204762Y-74428571D01*
X83252381Y-74523809D01*
X83252381Y-74761905D01*
X83204762Y-74857143D01*
X83157143Y-74904762D01*
X82252381Y-74047619D02*
X83252381Y-73714286D01*
X82252381Y-73380952D01*
X121461905Y-79052381D02*
X121461905Y-78052381D01*
X121700000Y-78052381D01*
X121842858Y-78100000D01*
X121938096Y-78195238D01*
X121985715Y-78290476D01*
X122033334Y-78480952D01*
X122033334Y-78623810D01*
X121985715Y-78814286D01*
X121938096Y-78909524D01*
X121842858Y-79004762D01*
X121700000Y-79052381D01*
X121461905Y-79052381D01*
X122985715Y-79052381D02*
X122414286Y-79052381D01*
X122700000Y-79052381D02*
X122700000Y-78052381D01*
X122604762Y-78195238D01*
X122509524Y-78290476D01*
X122414286Y-78338095D01*
X121461905Y-77452381D02*
X121461905Y-76452381D01*
X121700000Y-76452381D01*
X121842858Y-76500000D01*
X121938096Y-76595238D01*
X121985715Y-76690476D01*
X122033334Y-76880952D01*
X122033334Y-77023810D01*
X121985715Y-77214286D01*
X121938096Y-77309524D01*
X121842858Y-77404762D01*
X121700000Y-77452381D01*
X121461905Y-77452381D01*
X122414286Y-76547619D02*
X122461905Y-76500000D01*
X122557143Y-76452381D01*
X122795239Y-76452381D01*
X122890477Y-76500000D01*
X122938096Y-76547619D01*
X122985715Y-76642857D01*
X122985715Y-76738095D01*
X122938096Y-76880952D01*
X122366667Y-77452381D01*
X122985715Y-77452381D01*
X121461905Y-75852381D02*
X121461905Y-74852381D01*
X121700000Y-74852381D01*
X121842858Y-74900000D01*
X121938096Y-74995238D01*
X121985715Y-75090476D01*
X122033334Y-75280952D01*
X122033334Y-75423810D01*
X121985715Y-75614286D01*
X121938096Y-75709524D01*
X121842858Y-75804762D01*
X121700000Y-75852381D01*
X121461905Y-75852381D01*
X122366667Y-74852381D02*
X122985715Y-74852381D01*
X122652381Y-75233333D01*
X122795239Y-75233333D01*
X122890477Y-75280952D01*
X122938096Y-75328571D01*
X122985715Y-75423810D01*
X122985715Y-75661905D01*
X122938096Y-75757143D01*
X122890477Y-75804762D01*
X122795239Y-75852381D01*
X122509524Y-75852381D01*
X122414286Y-75804762D01*
X122366667Y-75757143D01*
X121461905Y-74452381D02*
X121461905Y-73452381D01*
X121700000Y-73452381D01*
X121842858Y-73500000D01*
X121938096Y-73595238D01*
X121985715Y-73690476D01*
X122033334Y-73880952D01*
X122033334Y-74023810D01*
X121985715Y-74214286D01*
X121938096Y-74309524D01*
X121842858Y-74404762D01*
X121700000Y-74452381D01*
X121461905Y-74452381D01*
X122890477Y-73785714D02*
X122890477Y-74452381D01*
X122652381Y-73404762D02*
X122414286Y-74119048D01*
X123033334Y-74119048D01*
X121461905Y-72852381D02*
X121461905Y-71852381D01*
X121700000Y-71852381D01*
X121842858Y-71900000D01*
X121938096Y-71995238D01*
X121985715Y-72090476D01*
X122033334Y-72280952D01*
X122033334Y-72423810D01*
X121985715Y-72614286D01*
X121938096Y-72709524D01*
X121842858Y-72804762D01*
X121700000Y-72852381D01*
X121461905Y-72852381D01*
X122938096Y-71852381D02*
X122461905Y-71852381D01*
X122414286Y-72328571D01*
X122461905Y-72280952D01*
X122557143Y-72233333D01*
X122795239Y-72233333D01*
X122890477Y-72280952D01*
X122938096Y-72328571D01*
X122985715Y-72423810D01*
X122985715Y-72661905D01*
X122938096Y-72757143D01*
X122890477Y-72804762D01*
X122795239Y-72852381D01*
X122557143Y-72852381D01*
X122461905Y-72804762D01*
X122414286Y-72757143D01*
X93451667Y-85206571D02*
X93118333Y-85206571D01*
X93118333Y-85730381D02*
X93118333Y-84730381D01*
X93594524Y-84730381D01*
X94499286Y-85730381D02*
X93927857Y-85730381D01*
X94213571Y-85730381D02*
X94213571Y-84730381D01*
X94118333Y-84873238D01*
X94023095Y-84968476D01*
X93927857Y-85016095D01*
X153866667Y-80328571D02*
X153533333Y-80328571D01*
X153533333Y-80852381D02*
X153533333Y-79852381D01*
X154009524Y-79852381D01*
X154342857Y-79947619D02*
X154390476Y-79900000D01*
X154485714Y-79852381D01*
X154723810Y-79852381D01*
X154819048Y-79900000D01*
X154866667Y-79947619D01*
X154914286Y-80042857D01*
X154914286Y-80138095D01*
X154866667Y-80280952D01*
X154295238Y-80852381D01*
X154914286Y-80852381D01*
D15*
X90170000Y-48415429D02*
X90170000Y-49504000D01*
X90097428Y-49721714D01*
X89952285Y-49866857D01*
X89734571Y-49939429D01*
X89589428Y-49939429D01*
X91694000Y-49939429D02*
X90823143Y-49939429D01*
X91258571Y-49939429D02*
X91258571Y-48415429D01*
X91113428Y-48633143D01*
X90968286Y-48778286D01*
X90823143Y-48850857D01*
D11*
X92416667Y-82202381D02*
X92416667Y-82916667D01*
X92369047Y-83059524D01*
X92273809Y-83154762D01*
X92130952Y-83202381D01*
X92035714Y-83202381D01*
X92892857Y-83202381D02*
X92892857Y-82202381D01*
X93273810Y-82202381D01*
X93369048Y-82250000D01*
X93416667Y-82297619D01*
X93464286Y-82392857D01*
X93464286Y-82535714D01*
X93416667Y-82630952D01*
X93369048Y-82678571D01*
X93273810Y-82726190D01*
X92892857Y-82726190D01*
X94416667Y-83202381D02*
X93845238Y-83202381D01*
X94130952Y-83202381D02*
X94130952Y-82202381D01*
X94035714Y-82345238D01*
X93940476Y-82440476D01*
X93845238Y-82488095D01*
X137633334Y-80452381D02*
X137157143Y-80452381D01*
X137157143Y-79452381D01*
X138490477Y-80452381D02*
X137919048Y-80452381D01*
X138204762Y-80452381D02*
X138204762Y-79452381D01*
X138109524Y-79595238D01*
X138014286Y-79690476D01*
X137919048Y-79738095D01*
X104333334Y-64952381D02*
X104000000Y-64476190D01*
X103761905Y-64952381D02*
X103761905Y-63952381D01*
X104142858Y-63952381D01*
X104238096Y-64000000D01*
X104285715Y-64047619D01*
X104333334Y-64142857D01*
X104333334Y-64285714D01*
X104285715Y-64380952D01*
X104238096Y-64428571D01*
X104142858Y-64476190D01*
X103761905Y-64476190D01*
X105285715Y-64952381D02*
X104714286Y-64952381D01*
X105000000Y-64952381D02*
X105000000Y-63952381D01*
X104904762Y-64095238D01*
X104809524Y-64190476D01*
X104714286Y-64238095D01*
X133652381Y-56766666D02*
X133176190Y-57100000D01*
X133652381Y-57338095D02*
X132652381Y-57338095D01*
X132652381Y-56957142D01*
X132700000Y-56861904D01*
X132747619Y-56814285D01*
X132842857Y-56766666D01*
X132985714Y-56766666D01*
X133080952Y-56814285D01*
X133128571Y-56861904D01*
X133176190Y-56957142D01*
X133176190Y-57338095D01*
X132747619Y-56385714D02*
X132700000Y-56338095D01*
X132652381Y-56242857D01*
X132652381Y-56004761D01*
X132700000Y-55909523D01*
X132747619Y-55861904D01*
X132842857Y-55814285D01*
X132938095Y-55814285D01*
X133080952Y-55861904D01*
X133652381Y-56433333D01*
X133652381Y-55814285D01*
X135052381Y-56766666D02*
X134576190Y-57100000D01*
X135052381Y-57338095D02*
X134052381Y-57338095D01*
X134052381Y-56957142D01*
X134100000Y-56861904D01*
X134147619Y-56814285D01*
X134242857Y-56766666D01*
X134385714Y-56766666D01*
X134480952Y-56814285D01*
X134528571Y-56861904D01*
X134576190Y-56957142D01*
X134576190Y-57338095D01*
X134052381Y-56433333D02*
X134052381Y-55814285D01*
X134433333Y-56147619D01*
X134433333Y-56004761D01*
X134480952Y-55909523D01*
X134528571Y-55861904D01*
X134623810Y-55814285D01*
X134861905Y-55814285D01*
X134957143Y-55861904D01*
X135004762Y-55909523D01*
X135052381Y-56004761D01*
X135052381Y-56290476D01*
X135004762Y-56385714D01*
X134957143Y-56433333D01*
X101552381Y-73166666D02*
X101076190Y-73500000D01*
X101552381Y-73738095D02*
X100552381Y-73738095D01*
X100552381Y-73357142D01*
X100600000Y-73261904D01*
X100647619Y-73214285D01*
X100742857Y-73166666D01*
X100885714Y-73166666D01*
X100980952Y-73214285D01*
X101028571Y-73261904D01*
X101076190Y-73357142D01*
X101076190Y-73738095D01*
X100885714Y-72309523D02*
X101552381Y-72309523D01*
X100504762Y-72547619D02*
X101219048Y-72785714D01*
X101219048Y-72166666D01*
X99752381Y-73166666D02*
X99276190Y-73500000D01*
X99752381Y-73738095D02*
X98752381Y-73738095D01*
X98752381Y-73357142D01*
X98800000Y-73261904D01*
X98847619Y-73214285D01*
X98942857Y-73166666D01*
X99085714Y-73166666D01*
X99180952Y-73214285D01*
X99228571Y-73261904D01*
X99276190Y-73357142D01*
X99276190Y-73738095D01*
X98752381Y-72261904D02*
X98752381Y-72738095D01*
X99228571Y-72785714D01*
X99180952Y-72738095D01*
X99133333Y-72642857D01*
X99133333Y-72404761D01*
X99180952Y-72309523D01*
X99228571Y-72261904D01*
X99323810Y-72214285D01*
X99561905Y-72214285D01*
X99657143Y-72261904D01*
X99704762Y-72309523D01*
X99752381Y-72404761D01*
X99752381Y-72642857D01*
X99704762Y-72738095D01*
X99657143Y-72785714D01*
X97952381Y-73166666D02*
X97476190Y-73500000D01*
X97952381Y-73738095D02*
X96952381Y-73738095D01*
X96952381Y-73357142D01*
X97000000Y-73261904D01*
X97047619Y-73214285D01*
X97142857Y-73166666D01*
X97285714Y-73166666D01*
X97380952Y-73214285D01*
X97428571Y-73261904D01*
X97476190Y-73357142D01*
X97476190Y-73738095D01*
X96952381Y-72309523D02*
X96952381Y-72500000D01*
X97000000Y-72595238D01*
X97047619Y-72642857D01*
X97190476Y-72738095D01*
X97380952Y-72785714D01*
X97761905Y-72785714D01*
X97857143Y-72738095D01*
X97904762Y-72690476D01*
X97952381Y-72595238D01*
X97952381Y-72404761D01*
X97904762Y-72309523D01*
X97857143Y-72261904D01*
X97761905Y-72214285D01*
X97523810Y-72214285D01*
X97428571Y-72261904D01*
X97380952Y-72309523D01*
X97333333Y-72404761D01*
X97333333Y-72595238D01*
X97380952Y-72690476D01*
X97428571Y-72738095D01*
X97523810Y-72785714D01*
X97902381Y-62216666D02*
X97426190Y-62550000D01*
X97902381Y-62788095D02*
X96902381Y-62788095D01*
X96902381Y-62407142D01*
X96950000Y-62311904D01*
X96997619Y-62264285D01*
X97092857Y-62216666D01*
X97235714Y-62216666D01*
X97330952Y-62264285D01*
X97378571Y-62311904D01*
X97426190Y-62407142D01*
X97426190Y-62788095D01*
X96902381Y-61883333D02*
X96902381Y-61216666D01*
X97902381Y-61645238D01*
X99752381Y-62216666D02*
X99276190Y-62550000D01*
X99752381Y-62788095D02*
X98752381Y-62788095D01*
X98752381Y-62407142D01*
X98800000Y-62311904D01*
X98847619Y-62264285D01*
X98942857Y-62216666D01*
X99085714Y-62216666D01*
X99180952Y-62264285D01*
X99228571Y-62311904D01*
X99276190Y-62407142D01*
X99276190Y-62788095D01*
X99180952Y-61645238D02*
X99133333Y-61740476D01*
X99085714Y-61788095D01*
X98990476Y-61835714D01*
X98942857Y-61835714D01*
X98847619Y-61788095D01*
X98800000Y-61740476D01*
X98752381Y-61645238D01*
X98752381Y-61454761D01*
X98800000Y-61359523D01*
X98847619Y-61311904D01*
X98942857Y-61264285D01*
X98990476Y-61264285D01*
X99085714Y-61311904D01*
X99133333Y-61359523D01*
X99180952Y-61454761D01*
X99180952Y-61645238D01*
X99228571Y-61740476D01*
X99276190Y-61788095D01*
X99371429Y-61835714D01*
X99561905Y-61835714D01*
X99657143Y-61788095D01*
X99704762Y-61740476D01*
X99752381Y-61645238D01*
X99752381Y-61454761D01*
X99704762Y-61359523D01*
X99657143Y-61311904D01*
X99561905Y-61264285D01*
X99371429Y-61264285D01*
X99276190Y-61311904D01*
X99228571Y-61359523D01*
X99180952Y-61454761D01*
X91251334Y-80252381D02*
X90918000Y-79776190D01*
X90679905Y-80252381D02*
X90679905Y-79252381D01*
X91060858Y-79252381D01*
X91156096Y-79300000D01*
X91203715Y-79347619D01*
X91251334Y-79442857D01*
X91251334Y-79585714D01*
X91203715Y-79680952D01*
X91156096Y-79728571D01*
X91060858Y-79776190D01*
X90679905Y-79776190D01*
X91727524Y-80252381D02*
X91918000Y-80252381D01*
X92013239Y-80204762D01*
X92060858Y-80157143D01*
X92156096Y-80014286D01*
X92203715Y-79823810D01*
X92203715Y-79442857D01*
X92156096Y-79347619D01*
X92108477Y-79300000D01*
X92013239Y-79252381D01*
X91822762Y-79252381D01*
X91727524Y-79300000D01*
X91679905Y-79347619D01*
X91632286Y-79442857D01*
X91632286Y-79680952D01*
X91679905Y-79776190D01*
X91727524Y-79823810D01*
X91822762Y-79871429D01*
X92013239Y-79871429D01*
X92108477Y-79823810D01*
X92156096Y-79776190D01*
X92203715Y-79680952D01*
X133757143Y-61752381D02*
X133423809Y-61276190D01*
X133185714Y-61752381D02*
X133185714Y-60752381D01*
X133566667Y-60752381D01*
X133661905Y-60800000D01*
X133709524Y-60847619D01*
X133757143Y-60942857D01*
X133757143Y-61085714D01*
X133709524Y-61180952D01*
X133661905Y-61228571D01*
X133566667Y-61276190D01*
X133185714Y-61276190D01*
X134709524Y-61752381D02*
X134138095Y-61752381D01*
X134423809Y-61752381D02*
X134423809Y-60752381D01*
X134328571Y-60895238D01*
X134233333Y-60990476D01*
X134138095Y-61038095D01*
X135328571Y-60752381D02*
X135423810Y-60752381D01*
X135519048Y-60800000D01*
X135566667Y-60847619D01*
X135614286Y-60942857D01*
X135661905Y-61133333D01*
X135661905Y-61371429D01*
X135614286Y-61561905D01*
X135566667Y-61657143D01*
X135519048Y-61704762D01*
X135423810Y-61752381D01*
X135328571Y-61752381D01*
X135233333Y-61704762D01*
X135185714Y-61657143D01*
X135138095Y-61561905D01*
X135090476Y-61371429D01*
X135090476Y-61133333D01*
X135138095Y-60942857D01*
X135185714Y-60847619D01*
X135233333Y-60800000D01*
X135328571Y-60752381D01*
X96852381Y-77442857D02*
X96376190Y-77776191D01*
X96852381Y-78014286D02*
X95852381Y-78014286D01*
X95852381Y-77633333D01*
X95900000Y-77538095D01*
X95947619Y-77490476D01*
X96042857Y-77442857D01*
X96185714Y-77442857D01*
X96280952Y-77490476D01*
X96328571Y-77538095D01*
X96376190Y-77633333D01*
X96376190Y-78014286D01*
X96852381Y-76490476D02*
X96852381Y-77061905D01*
X96852381Y-76776191D02*
X95852381Y-76776191D01*
X95995238Y-76871429D01*
X96090476Y-76966667D01*
X96138095Y-77061905D01*
X96852381Y-75538095D02*
X96852381Y-76109524D01*
X96852381Y-75823810D02*
X95852381Y-75823810D01*
X95995238Y-75919048D01*
X96090476Y-76014286D01*
X96138095Y-76109524D01*
X101052381Y-77442857D02*
X100576190Y-77776191D01*
X101052381Y-78014286D02*
X100052381Y-78014286D01*
X100052381Y-77633333D01*
X100100000Y-77538095D01*
X100147619Y-77490476D01*
X100242857Y-77442857D01*
X100385714Y-77442857D01*
X100480952Y-77490476D01*
X100528571Y-77538095D01*
X100576190Y-77633333D01*
X100576190Y-78014286D01*
X101052381Y-76490476D02*
X101052381Y-77061905D01*
X101052381Y-76776191D02*
X100052381Y-76776191D01*
X100195238Y-76871429D01*
X100290476Y-76966667D01*
X100338095Y-77061905D01*
X100147619Y-76109524D02*
X100100000Y-76061905D01*
X100052381Y-75966667D01*
X100052381Y-75728571D01*
X100100000Y-75633333D01*
X100147619Y-75585714D01*
X100242857Y-75538095D01*
X100338095Y-75538095D01*
X100480952Y-75585714D01*
X101052381Y-76157143D01*
X101052381Y-75538095D01*
X129157143Y-73252381D02*
X128823809Y-72776190D01*
X128585714Y-73252381D02*
X128585714Y-72252381D01*
X128966667Y-72252381D01*
X129061905Y-72300000D01*
X129109524Y-72347619D01*
X129157143Y-72442857D01*
X129157143Y-72585714D01*
X129109524Y-72680952D01*
X129061905Y-72728571D01*
X128966667Y-72776190D01*
X128585714Y-72776190D01*
X130109524Y-73252381D02*
X129538095Y-73252381D01*
X129823809Y-73252381D02*
X129823809Y-72252381D01*
X129728571Y-72395238D01*
X129633333Y-72490476D01*
X129538095Y-72538095D01*
X130442857Y-72252381D02*
X131061905Y-72252381D01*
X130728571Y-72633333D01*
X130871429Y-72633333D01*
X130966667Y-72680952D01*
X131014286Y-72728571D01*
X131061905Y-72823810D01*
X131061905Y-73061905D01*
X131014286Y-73157143D01*
X130966667Y-73204762D01*
X130871429Y-73252381D01*
X130585714Y-73252381D01*
X130490476Y-73204762D01*
X130442857Y-73157143D01*
X134452381Y-70842857D02*
X133976190Y-71176191D01*
X134452381Y-71414286D02*
X133452381Y-71414286D01*
X133452381Y-71033333D01*
X133500000Y-70938095D01*
X133547619Y-70890476D01*
X133642857Y-70842857D01*
X133785714Y-70842857D01*
X133880952Y-70890476D01*
X133928571Y-70938095D01*
X133976190Y-71033333D01*
X133976190Y-71414286D01*
X134452381Y-69890476D02*
X134452381Y-70461905D01*
X134452381Y-70176191D02*
X133452381Y-70176191D01*
X133595238Y-70271429D01*
X133690476Y-70366667D01*
X133738095Y-70461905D01*
X133785714Y-69033333D02*
X134452381Y-69033333D01*
X133404762Y-69271429D02*
X134119048Y-69509524D01*
X134119048Y-68890476D01*
X109757143Y-53802381D02*
X109423809Y-53326190D01*
X109185714Y-53802381D02*
X109185714Y-52802381D01*
X109566667Y-52802381D01*
X109661905Y-52850000D01*
X109709524Y-52897619D01*
X109757143Y-52992857D01*
X109757143Y-53135714D01*
X109709524Y-53230952D01*
X109661905Y-53278571D01*
X109566667Y-53326190D01*
X109185714Y-53326190D01*
X110709524Y-53802381D02*
X110138095Y-53802381D01*
X110423809Y-53802381D02*
X110423809Y-52802381D01*
X110328571Y-52945238D01*
X110233333Y-53040476D01*
X110138095Y-53088095D01*
X111042857Y-52802381D02*
X111709524Y-52802381D01*
X111280952Y-53802381D01*
X109757143Y-52552381D02*
X109423809Y-52076190D01*
X109185714Y-52552381D02*
X109185714Y-51552381D01*
X109566667Y-51552381D01*
X109661905Y-51600000D01*
X109709524Y-51647619D01*
X109757143Y-51742857D01*
X109757143Y-51885714D01*
X109709524Y-51980952D01*
X109661905Y-52028571D01*
X109566667Y-52076190D01*
X109185714Y-52076190D01*
X110709524Y-52552381D02*
X110138095Y-52552381D01*
X110423809Y-52552381D02*
X110423809Y-51552381D01*
X110328571Y-51695238D01*
X110233333Y-51790476D01*
X110138095Y-51838095D01*
X111280952Y-51980952D02*
X111185714Y-51933333D01*
X111138095Y-51885714D01*
X111090476Y-51790476D01*
X111090476Y-51742857D01*
X111138095Y-51647619D01*
X111185714Y-51600000D01*
X111280952Y-51552381D01*
X111471429Y-51552381D01*
X111566667Y-51600000D01*
X111614286Y-51647619D01*
X111661905Y-51742857D01*
X111661905Y-51790476D01*
X111614286Y-51885714D01*
X111566667Y-51933333D01*
X111471429Y-51980952D01*
X111280952Y-51980952D01*
X111185714Y-52028571D01*
X111138095Y-52076190D01*
X111090476Y-52171429D01*
X111090476Y-52361905D01*
X111138095Y-52457143D01*
X111185714Y-52504762D01*
X111280952Y-52552381D01*
X111471429Y-52552381D01*
X111566667Y-52504762D01*
X111614286Y-52457143D01*
X111661905Y-52361905D01*
X111661905Y-52171429D01*
X111614286Y-52076190D01*
X111566667Y-52028571D01*
X111471429Y-51980952D01*
X85604762Y-77333333D02*
X85652381Y-77190476D01*
X85652381Y-76952380D01*
X85604762Y-76857142D01*
X85557143Y-76809523D01*
X85461905Y-76761904D01*
X85366667Y-76761904D01*
X85271429Y-76809523D01*
X85223810Y-76857142D01*
X85176190Y-76952380D01*
X85128571Y-77142857D01*
X85080952Y-77238095D01*
X85033333Y-77285714D01*
X84938095Y-77333333D01*
X84842857Y-77333333D01*
X84747619Y-77285714D01*
X84700000Y-77238095D01*
X84652381Y-77142857D01*
X84652381Y-76904761D01*
X84700000Y-76761904D01*
X84652381Y-76428571D02*
X85652381Y-76190476D01*
X84938095Y-75999999D01*
X85652381Y-75809523D01*
X84652381Y-75571428D01*
X85652381Y-74666666D02*
X85652381Y-75238095D01*
X85652381Y-74952381D02*
X84652381Y-74952381D01*
X84795238Y-75047619D01*
X84890476Y-75142857D01*
X84938095Y-75238095D01*
X95038095Y-70252381D02*
X95038095Y-71061905D01*
X95085714Y-71157143D01*
X95133333Y-71204762D01*
X95228571Y-71252381D01*
X95419048Y-71252381D01*
X95514286Y-71204762D01*
X95561905Y-71157143D01*
X95609524Y-71061905D01*
X95609524Y-70252381D01*
X96038095Y-70347619D02*
X96085714Y-70300000D01*
X96180952Y-70252381D01*
X96419048Y-70252381D01*
X96514286Y-70300000D01*
X96561905Y-70347619D01*
X96609524Y-70442857D01*
X96609524Y-70538095D01*
X96561905Y-70680952D01*
X95990476Y-71252381D01*
X96609524Y-71252381D01*
X113638095Y-50852381D02*
X113638095Y-51661905D01*
X113685714Y-51757143D01*
X113733333Y-51804762D01*
X113828571Y-51852381D01*
X114019048Y-51852381D01*
X114114286Y-51804762D01*
X114161905Y-51757143D01*
X114209524Y-51661905D01*
X114209524Y-50852381D01*
X114590476Y-50852381D02*
X115209524Y-50852381D01*
X114876190Y-51233333D01*
X115019048Y-51233333D01*
X115114286Y-51280952D01*
X115161905Y-51328571D01*
X115209524Y-51423810D01*
X115209524Y-51661905D01*
X115161905Y-51757143D01*
X115114286Y-51804762D01*
X115019048Y-51852381D01*
X114733333Y-51852381D01*
X114638095Y-51804762D01*
X114590476Y-51757143D01*
X138438095Y-59302381D02*
X138438095Y-60111905D01*
X138485714Y-60207143D01*
X138533333Y-60254762D01*
X138628571Y-60302381D01*
X138819048Y-60302381D01*
X138914286Y-60254762D01*
X138961905Y-60207143D01*
X139009524Y-60111905D01*
X139009524Y-59302381D01*
X139961905Y-59302381D02*
X139485714Y-59302381D01*
X139438095Y-59778571D01*
X139485714Y-59730952D01*
X139580952Y-59683333D01*
X139819048Y-59683333D01*
X139914286Y-59730952D01*
X139961905Y-59778571D01*
X140009524Y-59873810D01*
X140009524Y-60111905D01*
X139961905Y-60207143D01*
X139914286Y-60254762D01*
X139819048Y-60302381D01*
X139580952Y-60302381D01*
X139485714Y-60254762D01*
X139438095Y-60207143D01*
X104838095Y-76852381D02*
X104838095Y-77661905D01*
X104885714Y-77757143D01*
X104933333Y-77804762D01*
X105028571Y-77852381D01*
X105219048Y-77852381D01*
X105314286Y-77804762D01*
X105361905Y-77757143D01*
X105409524Y-77661905D01*
X105409524Y-76852381D01*
X106314286Y-76852381D02*
X106123809Y-76852381D01*
X106028571Y-76900000D01*
X105980952Y-76947619D01*
X105885714Y-77090476D01*
X105838095Y-77280952D01*
X105838095Y-77661905D01*
X105885714Y-77757143D01*
X105933333Y-77804762D01*
X106028571Y-77852381D01*
X106219048Y-77852381D01*
X106314286Y-77804762D01*
X106361905Y-77757143D01*
X106409524Y-77661905D01*
X106409524Y-77423810D01*
X106361905Y-77328571D01*
X106314286Y-77280952D01*
X106219048Y-77233333D01*
X106028571Y-77233333D01*
X105933333Y-77280952D01*
X105885714Y-77328571D01*
X105838095Y-77423810D01*
X105038095Y-82452381D02*
X105038095Y-83261905D01*
X105085714Y-83357143D01*
X105133333Y-83404762D01*
X105228571Y-83452381D01*
X105419048Y-83452381D01*
X105514286Y-83404762D01*
X105561905Y-83357143D01*
X105609524Y-83261905D01*
X105609524Y-82452381D01*
X106228571Y-82880952D02*
X106133333Y-82833333D01*
X106085714Y-82785714D01*
X106038095Y-82690476D01*
X106038095Y-82642857D01*
X106085714Y-82547619D01*
X106133333Y-82500000D01*
X106228571Y-82452381D01*
X106419048Y-82452381D01*
X106514286Y-82500000D01*
X106561905Y-82547619D01*
X106609524Y-82642857D01*
X106609524Y-82690476D01*
X106561905Y-82785714D01*
X106514286Y-82833333D01*
X106419048Y-82880952D01*
X106228571Y-82880952D01*
X106133333Y-82928571D01*
X106085714Y-82976190D01*
X106038095Y-83071429D01*
X106038095Y-83261905D01*
X106085714Y-83357143D01*
X106133333Y-83404762D01*
X106228571Y-83452381D01*
X106419048Y-83452381D01*
X106514286Y-83404762D01*
X106561905Y-83357143D01*
X106609524Y-83261905D01*
X106609524Y-83071429D01*
X106561905Y-82976190D01*
X106514286Y-82928571D01*
X106419048Y-82880952D01*
X97838095Y-55252381D02*
X97838095Y-56061905D01*
X97885714Y-56157143D01*
X97933333Y-56204762D01*
X98028571Y-56252381D01*
X98219048Y-56252381D01*
X98314286Y-56204762D01*
X98361905Y-56157143D01*
X98409524Y-56061905D01*
X98409524Y-55252381D01*
X98933333Y-56252381D02*
X99123809Y-56252381D01*
X99219048Y-56204762D01*
X99266667Y-56157143D01*
X99361905Y-56014286D01*
X99409524Y-55823810D01*
X99409524Y-55442857D01*
X99361905Y-55347619D01*
X99314286Y-55300000D01*
X99219048Y-55252381D01*
X99028571Y-55252381D01*
X98933333Y-55300000D01*
X98885714Y-55347619D01*
X98838095Y-55442857D01*
X98838095Y-55680952D01*
X98885714Y-55776190D01*
X98933333Y-55823810D01*
X99028571Y-55871429D01*
X99219048Y-55871429D01*
X99314286Y-55823810D01*
X99361905Y-55776190D01*
X99409524Y-55680952D01*
X136061905Y-52452381D02*
X136061905Y-53261905D01*
X136109524Y-53357143D01*
X136157143Y-53404762D01*
X136252381Y-53452381D01*
X136442858Y-53452381D01*
X136538096Y-53404762D01*
X136585715Y-53357143D01*
X136633334Y-53261905D01*
X136633334Y-52452381D01*
X137633334Y-53452381D02*
X137061905Y-53452381D01*
X137347619Y-53452381D02*
X137347619Y-52452381D01*
X137252381Y-52595238D01*
X137157143Y-52690476D01*
X137061905Y-52738095D01*
X138585715Y-53452381D02*
X138014286Y-53452381D01*
X138300000Y-53452381D02*
X138300000Y-52452381D01*
X138204762Y-52595238D01*
X138109524Y-52690476D01*
X138014286Y-52738095D01*
X113252381Y-72242857D02*
X112776190Y-72576191D01*
X113252381Y-72814286D02*
X112252381Y-72814286D01*
X112252381Y-72433333D01*
X112300000Y-72338095D01*
X112347619Y-72290476D01*
X112442857Y-72242857D01*
X112585714Y-72242857D01*
X112680952Y-72290476D01*
X112728571Y-72338095D01*
X112776190Y-72433333D01*
X112776190Y-72814286D01*
X112252381Y-71909524D02*
X112252381Y-71290476D01*
X112633333Y-71623810D01*
X112633333Y-71480952D01*
X112680952Y-71385714D01*
X112728571Y-71338095D01*
X112823810Y-71290476D01*
X113061905Y-71290476D01*
X113157143Y-71338095D01*
X113204762Y-71385714D01*
X113252381Y-71480952D01*
X113252381Y-71766667D01*
X113204762Y-71861905D01*
X113157143Y-71909524D01*
X113252381Y-70814286D02*
X113252381Y-70623810D01*
X113204762Y-70528571D01*
X113157143Y-70480952D01*
X113014286Y-70385714D01*
X112823810Y-70338095D01*
X112442857Y-70338095D01*
X112347619Y-70385714D01*
X112300000Y-70433333D01*
X112252381Y-70528571D01*
X112252381Y-70719048D01*
X112300000Y-70814286D01*
X112347619Y-70861905D01*
X112442857Y-70909524D01*
X112680952Y-70909524D01*
X112776190Y-70861905D01*
X112823810Y-70814286D01*
X112871429Y-70719048D01*
X112871429Y-70528571D01*
X112823810Y-70433333D01*
X112776190Y-70385714D01*
X112680952Y-70338095D01*
X143657143Y-60657143D02*
X143609524Y-60704762D01*
X143466667Y-60752381D01*
X143371429Y-60752381D01*
X143228571Y-60704762D01*
X143133333Y-60609524D01*
X143085714Y-60514286D01*
X143038095Y-60323810D01*
X143038095Y-60180952D01*
X143085714Y-59990476D01*
X143133333Y-59895238D01*
X143228571Y-59800000D01*
X143371429Y-59752381D01*
X143466667Y-59752381D01*
X143609524Y-59800000D01*
X143657143Y-59847619D01*
X144038095Y-59847619D02*
X144085714Y-59800000D01*
X144180952Y-59752381D01*
X144419048Y-59752381D01*
X144514286Y-59800000D01*
X144561905Y-59847619D01*
X144609524Y-59942857D01*
X144609524Y-60038095D01*
X144561905Y-60180952D01*
X143990476Y-60752381D01*
X144609524Y-60752381D01*
X145514286Y-59752381D02*
X145038095Y-59752381D01*
X144990476Y-60228571D01*
X145038095Y-60180952D01*
X145133333Y-60133333D01*
X145371429Y-60133333D01*
X145466667Y-60180952D01*
X145514286Y-60228571D01*
X145561905Y-60323810D01*
X145561905Y-60561905D01*
X145514286Y-60657143D01*
X145466667Y-60704762D01*
X145371429Y-60752381D01*
X145133333Y-60752381D01*
X145038095Y-60704762D01*
X144990476Y-60657143D01*
X138638095Y-70852381D02*
X138638095Y-71661905D01*
X138685714Y-71757143D01*
X138733333Y-71804762D01*
X138828571Y-71852381D01*
X139019048Y-71852381D01*
X139114286Y-71804762D01*
X139161905Y-71757143D01*
X139209524Y-71661905D01*
X139209524Y-70852381D01*
X139590476Y-70852381D02*
X140257143Y-70852381D01*
X139828571Y-71852381D01*
%LPC*%
D16*
X95250000Y-81788000D03*
X97256600Y-79883000D03*
X99263200Y-81788000D03*
X101320600Y-79883000D03*
X103276400Y-81788000D03*
X105283000Y-79883000D03*
X107289600Y-81788000D03*
X109296200Y-79883000D03*
X111302800Y-81788000D03*
X113309400Y-79883000D03*
X113309400Y-57912000D03*
X111302800Y-59817000D03*
X109296200Y-57912000D03*
X107289600Y-59817000D03*
X105283000Y-57912000D03*
X103276400Y-59817000D03*
X101269800Y-57912000D03*
X99263200Y-59817000D03*
X97256600Y-57912000D03*
X95250000Y-59817000D03*
D17*
X137390000Y-50403000D03*
X137390000Y-50003000D03*
X137390000Y-49603000D03*
X137390000Y-49203000D03*
X137390000Y-48803000D03*
X137390000Y-48403000D03*
D18*
X136890000Y-47903000D03*
X136490000Y-47903000D03*
X136090000Y-47903000D03*
X135690000Y-47903000D03*
X135290000Y-47903000D03*
X134890000Y-47903000D03*
D17*
X134390000Y-48403000D03*
X134390000Y-48803000D03*
X134390000Y-49203000D03*
X134390000Y-49603000D03*
X134390000Y-50003000D03*
X134390000Y-50403000D03*
D18*
X134890000Y-50903000D03*
X135290000Y-50903000D03*
X135690000Y-50903000D03*
X136090000Y-50903000D03*
X136490000Y-50903000D03*
X136890000Y-50903000D03*
D19*
X135455000Y-49003000D03*
X135455000Y-49803000D03*
X136325000Y-49003000D03*
X136325000Y-49803000D03*
D20*
X120756000Y-59533000D03*
X120756000Y-58283000D03*
X120756000Y-57033000D03*
X120756000Y-55783000D03*
D21*
X117856000Y-53233000D03*
X117856000Y-62083000D03*
D22*
X108585000Y-86190000D03*
X108585000Y-85090000D03*
X102870000Y-86190000D03*
X102870000Y-85090000D03*
X142113000Y-73745000D03*
X142113000Y-74845000D03*
X140843000Y-73745000D03*
X140843000Y-74845000D03*
D23*
X119676000Y-51054000D03*
X118576000Y-51054000D03*
D22*
X101092000Y-64050000D03*
X101092000Y-62950000D03*
D23*
X116036000Y-51054000D03*
X117136000Y-51054000D03*
X110956000Y-49784000D03*
X112056000Y-49784000D03*
X112056000Y-45212000D03*
X110956000Y-45212000D03*
D22*
X103124000Y-74464000D03*
X103124000Y-73364000D03*
D23*
X136821000Y-71755000D03*
X135721000Y-71755000D03*
X131530000Y-71374000D03*
X132630000Y-71374000D03*
D22*
X134239000Y-74507000D03*
X134239000Y-75607000D03*
X132969000Y-74507000D03*
X132969000Y-75607000D03*
X131699000Y-74507000D03*
X131699000Y-75607000D03*
D23*
X107400000Y-47244000D03*
X108500000Y-47244000D03*
D22*
X131572000Y-48853000D03*
X131572000Y-49953000D03*
X132842000Y-48853000D03*
X132842000Y-49953000D03*
D23*
X107400000Y-49022000D03*
X108500000Y-49022000D03*
D22*
X135636000Y-46397000D03*
X135636000Y-45297000D03*
X140081000Y-56557000D03*
X140081000Y-55457000D03*
X137414000Y-85810000D03*
X137414000Y-86910000D03*
D24*
X149308820Y-84074000D03*
X143807180Y-84074000D03*
X149308820Y-47498000D03*
X143807180Y-47498000D03*
D25*
X153162000Y-76454000D03*
D26*
X155702000Y-76454000D03*
X158242000Y-76454000D03*
D25*
X153162000Y-73900000D03*
D26*
X155702000Y-73900000D03*
X158242000Y-73900000D03*
D25*
X153160000Y-71374000D03*
D26*
X155700000Y-71374000D03*
X158240000Y-71374000D03*
D20*
X128630000Y-66645000D03*
X128630000Y-65395000D03*
X128630000Y-64145000D03*
X128630000Y-62895000D03*
D21*
X125730000Y-60345000D03*
X125730000Y-69195000D03*
D25*
X153162000Y-68800000D03*
D26*
X155702000Y-68800000D03*
X158242000Y-68800000D03*
D25*
X153162000Y-66294000D03*
D26*
X155702000Y-66294000D03*
X158242000Y-66294000D03*
D25*
X153162000Y-63754000D03*
D26*
X155702000Y-63754000D03*
X158242000Y-63754000D03*
D20*
X120756000Y-71217000D03*
X120756000Y-69967000D03*
X120756000Y-68717000D03*
X120756000Y-67467000D03*
D21*
X117856000Y-64917000D03*
X117856000Y-73767000D03*
D25*
X153162000Y-61200000D03*
D26*
X155702000Y-61200000D03*
X158242000Y-61200000D03*
D25*
X153162000Y-58674000D03*
D26*
X155702000Y-58674000D03*
X158242000Y-58674000D03*
D25*
X153162000Y-56134000D03*
D26*
X155702000Y-56134000D03*
X158242000Y-56134000D03*
D25*
X153162000Y-53594000D03*
D26*
X155702000Y-53594000D03*
X158242000Y-53594000D03*
D25*
X153162000Y-51054000D03*
D26*
X155702000Y-51054000D03*
X158242000Y-51054000D03*
D25*
X153120000Y-48514000D03*
D26*
X155660000Y-48514000D03*
X158200000Y-48514000D03*
D27*
X158242000Y-82280000D03*
D28*
X158242000Y-80280000D03*
D20*
X120756000Y-82901000D03*
X120756000Y-81651000D03*
X120756000Y-80401000D03*
X120756000Y-79151000D03*
D21*
X117856000Y-76601000D03*
X117856000Y-85451000D03*
D20*
X128630000Y-54941000D03*
X128630000Y-53691000D03*
X128630000Y-52441000D03*
X128630000Y-51191000D03*
X128630000Y-49941000D03*
X128630000Y-48691000D03*
D21*
X125730000Y-46141000D03*
X125730000Y-57491000D03*
D20*
X79100000Y-86203000D03*
X79100000Y-84953000D03*
X79100000Y-83703000D03*
X79100000Y-82453000D03*
D21*
X76200000Y-79903000D03*
X76200000Y-88753000D03*
D20*
X85704000Y-86203000D03*
X85704000Y-84953000D03*
X85704000Y-83703000D03*
X85704000Y-82453000D03*
D21*
X82804000Y-79903000D03*
X82804000Y-88753000D03*
D29*
X123456700Y-78486000D03*
X124955300Y-78486000D03*
X123456700Y-76962000D03*
X124955300Y-76962000D03*
X123456700Y-75438000D03*
X124955300Y-75438000D03*
X123456700Y-73914000D03*
X124955300Y-73914000D03*
X123456700Y-72390000D03*
X124955300Y-72390000D03*
D30*
X95885000Y-86228000D03*
X95885000Y-84328000D03*
D31*
X155628000Y-82296000D03*
X152728000Y-82296000D03*
D32*
X85598000Y-49276000D03*
D33*
X83058000Y-46736000D03*
X83058000Y-51816000D03*
X88138000Y-51816000D03*
X88138000Y-46736000D03*
D34*
X90424000Y-84582000D03*
D35*
X90424000Y-82042000D03*
D36*
X140045000Y-80137000D03*
X135545000Y-80137000D03*
D37*
X129346000Y-79436000D03*
X126746000Y-80386000D03*
X126746000Y-78486000D03*
D38*
X104394000Y-65844000D03*
X104394000Y-66744000D03*
X133223000Y-58743000D03*
X133223000Y-57843000D03*
X134493000Y-58743000D03*
X134493000Y-57843000D03*
X101092000Y-71824000D03*
X101092000Y-70924000D03*
X99314000Y-71824000D03*
X99314000Y-70924000D03*
X97536000Y-71824000D03*
X97536000Y-70924000D03*
X97536000Y-64204000D03*
X97536000Y-63304000D03*
X99314000Y-64204000D03*
X99314000Y-63304000D03*
X93218000Y-80206000D03*
X93218000Y-79306000D03*
D39*
X133916000Y-62738000D03*
X134816000Y-62738000D03*
D38*
X97282000Y-76512000D03*
X97282000Y-77412000D03*
X99314000Y-76512000D03*
X99314000Y-77412000D03*
D39*
X131757000Y-72771000D03*
X132657000Y-72771000D03*
D38*
X133985000Y-72713000D03*
X133985000Y-71813000D03*
D39*
X123756000Y-80010000D03*
X124656000Y-80010000D03*
X124656000Y-81280000D03*
X123756000Y-81280000D03*
X108146000Y-53340000D03*
X107246000Y-53340000D03*
X108146000Y-52070000D03*
X107246000Y-52070000D03*
X127196000Y-76962000D03*
X126296000Y-76962000D03*
X127196000Y-75438000D03*
X126296000Y-75438000D03*
X127196000Y-73914000D03*
X126296000Y-73914000D03*
X127196000Y-72390000D03*
X126296000Y-72390000D03*
X112834000Y-86868000D03*
X113734000Y-86868000D03*
X112834000Y-85598000D03*
X113734000Y-85598000D03*
D38*
X140462000Y-85910000D03*
X140462000Y-86810000D03*
X138938000Y-85910000D03*
X138938000Y-86810000D03*
D40*
X86716000Y-74046000D03*
X93116000Y-74046000D03*
X93116000Y-77846000D03*
X86716000Y-77846000D03*
D41*
X102489000Y-65659000D03*
X102489000Y-66929000D03*
X102489000Y-68199000D03*
X102489000Y-69469000D03*
X96139000Y-69469000D03*
X96139000Y-68199000D03*
X96139000Y-66929000D03*
X96139000Y-65659000D03*
X121031000Y-45593000D03*
X121031000Y-46863000D03*
X121031000Y-48133000D03*
X121031000Y-49403000D03*
X114681000Y-49403000D03*
X114681000Y-48133000D03*
X114681000Y-46863000D03*
X114681000Y-45593000D03*
D42*
X137242000Y-66858000D03*
X137892000Y-66858000D03*
X138542000Y-66858000D03*
X139192000Y-66858000D03*
X139842000Y-66858000D03*
X140492000Y-66858000D03*
X141142000Y-66858000D03*
D43*
X142042000Y-65958000D03*
X142042000Y-65308000D03*
X142042000Y-64658000D03*
X142042000Y-64008000D03*
X142042000Y-63358000D03*
X142042000Y-62708000D03*
X142042000Y-62058000D03*
D42*
X141142000Y-61158000D03*
X140492000Y-61158000D03*
X139842000Y-61158000D03*
X139192000Y-61158000D03*
X138542000Y-61158000D03*
X137892000Y-61158000D03*
X137242000Y-61158000D03*
D43*
X136342000Y-62058000D03*
X136342000Y-62708000D03*
X136342000Y-63358000D03*
X136342000Y-64008000D03*
X136342000Y-64658000D03*
X136342000Y-65308000D03*
X136342000Y-65958000D03*
D44*
X140785750Y-62414250D03*
X139723250Y-62414250D03*
X138660750Y-62414250D03*
X137598250Y-62414250D03*
X140785750Y-63476750D03*
X139723250Y-63476750D03*
X138660750Y-63476750D03*
X137598250Y-63476750D03*
X140785750Y-64539250D03*
X139723250Y-64539250D03*
X138660750Y-64539250D03*
X137598250Y-64539250D03*
X140785750Y-65601750D03*
X139723250Y-65601750D03*
X138660750Y-65601750D03*
X137598250Y-65601750D03*
D41*
X111125000Y-72009000D03*
X111125000Y-73279000D03*
X111125000Y-74549000D03*
X111125000Y-75819000D03*
X104775000Y-75819000D03*
X104775000Y-74549000D03*
X104775000Y-73279000D03*
X104775000Y-72009000D03*
D45*
X104441000Y-84267000D03*
X104441000Y-85217000D03*
X107061000Y-84267000D03*
X104441000Y-86167000D03*
X107061000Y-85217000D03*
X107061000Y-86167000D03*
D46*
X105384000Y-54356000D03*
D47*
X105384000Y-53256000D03*
X105384000Y-52156000D03*
X105384000Y-51056000D03*
X105384000Y-49956000D03*
X105384000Y-48856000D03*
X105384000Y-47756000D03*
X105384000Y-46656000D03*
X105384000Y-45556000D03*
X95784000Y-45556000D03*
X95784000Y-46656000D03*
X95784000Y-47756000D03*
X95784000Y-48856000D03*
X95784000Y-49956000D03*
X95784000Y-51056000D03*
X95784000Y-52156000D03*
X95784000Y-53256000D03*
D46*
X95784000Y-54356000D03*
D48*
X138387000Y-55382000D03*
X138387000Y-54132000D03*
X138387000Y-56632000D03*
X138387000Y-57882000D03*
X136187000Y-57882000D03*
X136187000Y-56632000D03*
X136187000Y-54132000D03*
X136187000Y-55382000D03*
D49*
X110406000Y-46698000D03*
X112606000Y-46698000D03*
X112606000Y-48298000D03*
X110406000Y-48298000D03*
D38*
X112776000Y-73464000D03*
X112776000Y-74364000D03*
D23*
X144822000Y-61722000D03*
X143722000Y-61722000D03*
D50*
X154340000Y-86785000D03*
X88300000Y-89960000D03*
X88300000Y-41700000D03*
X154340000Y-44875000D03*
D51*
X93380000Y-91230000D03*
D52*
X93380000Y-88690000D03*
X95920000Y-91230000D03*
X95920000Y-88690000D03*
X98460000Y-91230000D03*
X98460000Y-88690000D03*
X101000000Y-91230000D03*
X101000000Y-88690000D03*
X103540000Y-91230000D03*
X103540000Y-88690000D03*
X106080000Y-91230000D03*
X106080000Y-88690000D03*
X108620000Y-91230000D03*
X108620000Y-88690000D03*
X111160000Y-91230000D03*
X111160000Y-88690000D03*
X113700000Y-91230000D03*
X113700000Y-88690000D03*
X116240000Y-91230000D03*
X116240000Y-88690000D03*
X118780000Y-91230000D03*
X118780000Y-88690000D03*
X121320000Y-91230000D03*
X121320000Y-88690000D03*
X123860000Y-91230000D03*
X123860000Y-88690000D03*
X126400000Y-91230000D03*
X126400000Y-88690000D03*
X128940000Y-91230000D03*
X128940000Y-88690000D03*
X131480000Y-91230000D03*
X131480000Y-88690000D03*
X134020000Y-91230000D03*
X134020000Y-88690000D03*
X136560000Y-91230000D03*
X136560000Y-88690000D03*
X139100000Y-91230000D03*
X139100000Y-88690000D03*
X141640000Y-91230000D03*
X141640000Y-88690000D03*
X144180000Y-91230000D03*
X144180000Y-88690000D03*
X146720000Y-91230000D03*
X146720000Y-88690000D03*
X149260000Y-91230000D03*
X149260000Y-88690000D03*
D51*
X93380000Y-42970000D03*
D52*
X93380000Y-40430000D03*
X95920000Y-42970000D03*
X95920000Y-40430000D03*
X98460000Y-42970000D03*
X98460000Y-40430000D03*
X101000000Y-42970000D03*
X101000000Y-40430000D03*
X103540000Y-42970000D03*
X103540000Y-40430000D03*
X106080000Y-42970000D03*
X106080000Y-40430000D03*
X108620000Y-42970000D03*
X108620000Y-40430000D03*
X111160000Y-42970000D03*
X111160000Y-40430000D03*
X113700000Y-42970000D03*
X113700000Y-40430000D03*
X116240000Y-42970000D03*
X116240000Y-40430000D03*
X118780000Y-42970000D03*
X118780000Y-40430000D03*
X121320000Y-42970000D03*
X121320000Y-40430000D03*
X123860000Y-42970000D03*
X123860000Y-40430000D03*
X126400000Y-42970000D03*
X126400000Y-40430000D03*
X128940000Y-42970000D03*
X128940000Y-40430000D03*
X131480000Y-42970000D03*
X131480000Y-40430000D03*
X134020000Y-42970000D03*
X134020000Y-40430000D03*
X136560000Y-42970000D03*
X136560000Y-40430000D03*
X139100000Y-42970000D03*
X139100000Y-40430000D03*
X141640000Y-42970000D03*
X141640000Y-40430000D03*
X144180000Y-42970000D03*
X144180000Y-40430000D03*
X146720000Y-42970000D03*
X146720000Y-40430000D03*
X149260000Y-42970000D03*
X149260000Y-40430000D03*
D53*
X139275000Y-74850000D03*
D54*
X139275000Y-74350000D03*
X139275000Y-73850000D03*
X139275000Y-73350000D03*
X139275000Y-72850000D03*
X136325000Y-73350000D03*
X136325000Y-72850000D03*
X136325000Y-73850000D03*
X136325000Y-74350000D03*
X136325000Y-74850000D03*
D55*
X137800000Y-73850000D03*
M02*
