%FSLAX46Y46*%
G04 Gerber Fmt 4.6, Leading zero omitted, Abs format (unit mm)*
G04 Created by KiCad (PCBNEW (2014-09-22 BZR 5144)-product) date Mon 27 Oct 2014 12:26:49 PM CET*
%MOMM*%
G01*
G04 APERTURE LIST*
%ADD10C,0.100000*%
%ADD11C,0.200000*%
%ADD12C,0.150000*%
G04 APERTURE END LIST*
D10*
D11*
X176450714Y-111882381D02*
X176926905Y-111882381D01*
X176926905Y-110882381D01*
X175688809Y-111882381D02*
X175688809Y-111358571D01*
X175736428Y-111263333D01*
X175831666Y-111215714D01*
X176022143Y-111215714D01*
X176117381Y-111263333D01*
X175688809Y-111834762D02*
X175784047Y-111882381D01*
X176022143Y-111882381D01*
X176117381Y-111834762D01*
X176165000Y-111739524D01*
X176165000Y-111644286D01*
X176117381Y-111549048D01*
X176022143Y-111501429D01*
X175784047Y-111501429D01*
X175688809Y-111453810D01*
X175212619Y-111882381D02*
X175212619Y-110882381D01*
X175212619Y-111263333D02*
X175117381Y-111215714D01*
X174926904Y-111215714D01*
X174831666Y-111263333D01*
X174784047Y-111310952D01*
X174736428Y-111406190D01*
X174736428Y-111691905D01*
X174784047Y-111787143D01*
X174831666Y-111834762D01*
X174926904Y-111882381D01*
X175117381Y-111882381D01*
X175212619Y-111834762D01*
X174165000Y-111882381D02*
X174260238Y-111834762D01*
X174307857Y-111787143D01*
X174355476Y-111691905D01*
X174355476Y-111406190D01*
X174307857Y-111310952D01*
X174260238Y-111263333D01*
X174165000Y-111215714D01*
X174022142Y-111215714D01*
X173926904Y-111263333D01*
X173879285Y-111310952D01*
X173831666Y-111406190D01*
X173831666Y-111691905D01*
X173879285Y-111787143D01*
X173926904Y-111834762D01*
X174022142Y-111882381D01*
X174165000Y-111882381D01*
X173403095Y-111882381D02*
X173403095Y-111215714D01*
X173403095Y-111406190D02*
X173355476Y-111310952D01*
X173307857Y-111263333D01*
X173212619Y-111215714D01*
X173117380Y-111215714D01*
X172355475Y-111882381D02*
X172355475Y-111358571D01*
X172403094Y-111263333D01*
X172498332Y-111215714D01*
X172688809Y-111215714D01*
X172784047Y-111263333D01*
X172355475Y-111834762D02*
X172450713Y-111882381D01*
X172688809Y-111882381D01*
X172784047Y-111834762D01*
X172831666Y-111739524D01*
X172831666Y-111644286D01*
X172784047Y-111549048D01*
X172688809Y-111501429D01*
X172450713Y-111501429D01*
X172355475Y-111453810D01*
X172022142Y-111215714D02*
X171641190Y-111215714D01*
X171879285Y-110882381D02*
X171879285Y-111739524D01*
X171831666Y-111834762D01*
X171736428Y-111882381D01*
X171641190Y-111882381D01*
X171164999Y-111882381D02*
X171260237Y-111834762D01*
X171307856Y-111787143D01*
X171355475Y-111691905D01*
X171355475Y-111406190D01*
X171307856Y-111310952D01*
X171260237Y-111263333D01*
X171164999Y-111215714D01*
X171022141Y-111215714D01*
X170926903Y-111263333D01*
X170879284Y-111310952D01*
X170831665Y-111406190D01*
X170831665Y-111691905D01*
X170879284Y-111787143D01*
X170926903Y-111834762D01*
X171022141Y-111882381D01*
X171164999Y-111882381D01*
X170403094Y-111882381D02*
X170403094Y-111215714D01*
X170403094Y-110882381D02*
X170450713Y-110930000D01*
X170403094Y-110977619D01*
X170355475Y-110930000D01*
X170403094Y-110882381D01*
X170403094Y-110977619D01*
X169926904Y-111882381D02*
X169926904Y-111215714D01*
X169926904Y-111406190D02*
X169879285Y-111310952D01*
X169831666Y-111263333D01*
X169736428Y-111215714D01*
X169641189Y-111215714D01*
X168926903Y-111834762D02*
X169022141Y-111882381D01*
X169212618Y-111882381D01*
X169307856Y-111834762D01*
X169355475Y-111739524D01*
X169355475Y-111358571D01*
X169307856Y-111263333D01*
X169212618Y-111215714D01*
X169022141Y-111215714D01*
X168926903Y-111263333D01*
X168879284Y-111358571D01*
X168879284Y-111453810D01*
X169355475Y-111549048D01*
X167260236Y-111882381D02*
X167260236Y-110882381D01*
X167260236Y-111834762D02*
X167355474Y-111882381D01*
X167545951Y-111882381D01*
X167641189Y-111834762D01*
X167688808Y-111787143D01*
X167736427Y-111691905D01*
X167736427Y-111406190D01*
X167688808Y-111310952D01*
X167641189Y-111263333D01*
X167545951Y-111215714D01*
X167355474Y-111215714D01*
X167260236Y-111263333D01*
X166736427Y-110882381D02*
X166831665Y-111072857D01*
X165879284Y-111882381D02*
X165879284Y-111358571D01*
X165926903Y-111263333D01*
X166022141Y-111215714D01*
X166212618Y-111215714D01*
X166307856Y-111263333D01*
X165879284Y-111834762D02*
X165974522Y-111882381D01*
X166212618Y-111882381D01*
X166307856Y-111834762D01*
X166355475Y-111739524D01*
X166355475Y-111644286D01*
X166307856Y-111549048D01*
X166212618Y-111501429D01*
X165974522Y-111501429D01*
X165879284Y-111453810D01*
X164974522Y-111215714D02*
X164974522Y-111882381D01*
X165403094Y-111215714D02*
X165403094Y-111739524D01*
X165355475Y-111834762D01*
X165260237Y-111882381D01*
X165117379Y-111882381D01*
X165022141Y-111834762D01*
X164974522Y-111787143D01*
X164641189Y-111215714D02*
X164260237Y-111215714D01*
X164498332Y-110882381D02*
X164498332Y-111739524D01*
X164450713Y-111834762D01*
X164355475Y-111882381D01*
X164260237Y-111882381D01*
X163784046Y-111882381D02*
X163879284Y-111834762D01*
X163926903Y-111787143D01*
X163974522Y-111691905D01*
X163974522Y-111406190D01*
X163926903Y-111310952D01*
X163879284Y-111263333D01*
X163784046Y-111215714D01*
X163641188Y-111215714D01*
X163545950Y-111263333D01*
X163498331Y-111310952D01*
X163450712Y-111406190D01*
X163450712Y-111691905D01*
X163498331Y-111787143D01*
X163545950Y-111834762D01*
X163641188Y-111882381D01*
X163784046Y-111882381D01*
X163022141Y-111882381D02*
X163022141Y-111215714D01*
X163022141Y-111310952D02*
X162974522Y-111263333D01*
X162879284Y-111215714D01*
X162736426Y-111215714D01*
X162641188Y-111263333D01*
X162593569Y-111358571D01*
X162593569Y-111882381D01*
X162593569Y-111358571D02*
X162545950Y-111263333D01*
X162450712Y-111215714D01*
X162307855Y-111215714D01*
X162212617Y-111263333D01*
X162164998Y-111358571D01*
X162164998Y-111882381D01*
X161260236Y-111882381D02*
X161260236Y-111358571D01*
X161307855Y-111263333D01*
X161403093Y-111215714D01*
X161593570Y-111215714D01*
X161688808Y-111263333D01*
X161260236Y-111834762D02*
X161355474Y-111882381D01*
X161593570Y-111882381D01*
X161688808Y-111834762D01*
X161736427Y-111739524D01*
X161736427Y-111644286D01*
X161688808Y-111549048D01*
X161593570Y-111501429D01*
X161355474Y-111501429D01*
X161260236Y-111453810D01*
X160926903Y-111215714D02*
X160545951Y-111215714D01*
X160784046Y-110882381D02*
X160784046Y-111739524D01*
X160736427Y-111834762D01*
X160641189Y-111882381D01*
X160545951Y-111882381D01*
X160212617Y-111882381D02*
X160212617Y-111215714D01*
X160212617Y-110882381D02*
X160260236Y-110930000D01*
X160212617Y-110977619D01*
X160164998Y-110930000D01*
X160212617Y-110882381D01*
X160212617Y-110977619D01*
X159307855Y-111215714D02*
X159307855Y-112215714D01*
X159307855Y-111834762D02*
X159403093Y-111882381D01*
X159593570Y-111882381D01*
X159688808Y-111834762D01*
X159736427Y-111787143D01*
X159784046Y-111691905D01*
X159784046Y-111406190D01*
X159736427Y-111310952D01*
X159688808Y-111263333D01*
X159593570Y-111215714D01*
X159403093Y-111215714D01*
X159307855Y-111263333D01*
X158403093Y-111215714D02*
X158403093Y-111882381D01*
X158831665Y-111215714D02*
X158831665Y-111739524D01*
X158784046Y-111834762D01*
X158688808Y-111882381D01*
X158545950Y-111882381D01*
X158450712Y-111834762D01*
X158403093Y-111787143D01*
X157545950Y-111834762D02*
X157641188Y-111882381D01*
X157831665Y-111882381D01*
X157926903Y-111834762D01*
X157974522Y-111739524D01*
X157974522Y-111358571D01*
X157926903Y-111263333D01*
X157831665Y-111215714D01*
X157641188Y-111215714D01*
X157545950Y-111263333D01*
X157498331Y-111358571D01*
X157498331Y-111453810D01*
X157974522Y-111549048D01*
X176355476Y-113482381D02*
X176688810Y-113006190D01*
X176926905Y-113482381D02*
X176926905Y-112482381D01*
X176545952Y-112482381D01*
X176450714Y-112530000D01*
X176403095Y-112577619D01*
X176355476Y-112672857D01*
X176355476Y-112815714D01*
X176403095Y-112910952D01*
X176450714Y-112958571D01*
X176545952Y-113006190D01*
X176926905Y-113006190D01*
X175784048Y-113482381D02*
X175879286Y-113434762D01*
X175926905Y-113387143D01*
X175974524Y-113291905D01*
X175974524Y-113006190D01*
X175926905Y-112910952D01*
X175879286Y-112863333D01*
X175784048Y-112815714D01*
X175641190Y-112815714D01*
X175545952Y-112863333D01*
X175498333Y-112910952D01*
X175450714Y-113006190D01*
X175450714Y-113291905D01*
X175498333Y-113387143D01*
X175545952Y-113434762D01*
X175641190Y-113482381D01*
X175784048Y-113482381D01*
X175022143Y-113482381D02*
X175022143Y-112482381D01*
X175022143Y-112863333D02*
X174926905Y-112815714D01*
X174736428Y-112815714D01*
X174641190Y-112863333D01*
X174593571Y-112910952D01*
X174545952Y-113006190D01*
X174545952Y-113291905D01*
X174593571Y-113387143D01*
X174641190Y-113434762D01*
X174736428Y-113482381D01*
X174926905Y-113482381D01*
X175022143Y-113434762D01*
X173974524Y-113482381D02*
X174069762Y-113434762D01*
X174117381Y-113387143D01*
X174165000Y-113291905D01*
X174165000Y-113006190D01*
X174117381Y-112910952D01*
X174069762Y-112863333D01*
X173974524Y-112815714D01*
X173831666Y-112815714D01*
X173736428Y-112863333D01*
X173688809Y-112910952D01*
X173641190Y-113006190D01*
X173641190Y-113291905D01*
X173688809Y-113387143D01*
X173736428Y-113434762D01*
X173831666Y-113482381D01*
X173974524Y-113482381D01*
X173355476Y-112815714D02*
X172974524Y-112815714D01*
X173212619Y-112482381D02*
X173212619Y-113339524D01*
X173165000Y-113434762D01*
X173069762Y-113482381D01*
X172974524Y-113482381D01*
X172688809Y-113434762D02*
X172593571Y-113482381D01*
X172403095Y-113482381D01*
X172307856Y-113434762D01*
X172260237Y-113339524D01*
X172260237Y-113291905D01*
X172307856Y-113196667D01*
X172403095Y-113149048D01*
X172545952Y-113149048D01*
X172641190Y-113101429D01*
X172688809Y-113006190D01*
X172688809Y-112958571D01*
X172641190Y-112863333D01*
X172545952Y-112815714D01*
X172403095Y-112815714D01*
X172307856Y-112863333D01*
X170641189Y-113482381D02*
X170641189Y-112958571D01*
X170688808Y-112863333D01*
X170784046Y-112815714D01*
X170974523Y-112815714D01*
X171069761Y-112863333D01*
X170641189Y-113434762D02*
X170736427Y-113482381D01*
X170974523Y-113482381D01*
X171069761Y-113434762D01*
X171117380Y-113339524D01*
X171117380Y-113244286D01*
X171069761Y-113149048D01*
X170974523Y-113101429D01*
X170736427Y-113101429D01*
X170641189Y-113053810D01*
X170164999Y-113482381D02*
X170164999Y-112815714D01*
X170164999Y-113006190D02*
X170117380Y-112910952D01*
X170069761Y-112863333D01*
X169974523Y-112815714D01*
X169879284Y-112815714D01*
X169164998Y-113434762D02*
X169260236Y-113482381D01*
X169450713Y-113482381D01*
X169545951Y-113434762D01*
X169593570Y-113339524D01*
X169593570Y-112958571D01*
X169545951Y-112863333D01*
X169450713Y-112815714D01*
X169260236Y-112815714D01*
X169164998Y-112863333D01*
X169117379Y-112958571D01*
X169117379Y-113053810D01*
X169593570Y-113149048D01*
X168688808Y-112815714D02*
X168688808Y-113482381D01*
X168688808Y-112910952D02*
X168641189Y-112863333D01*
X168545951Y-112815714D01*
X168403093Y-112815714D01*
X168307855Y-112863333D01*
X168260236Y-112958571D01*
X168260236Y-113482381D01*
X167355474Y-113482381D02*
X167355474Y-112958571D01*
X167403093Y-112863333D01*
X167498331Y-112815714D01*
X167688808Y-112815714D01*
X167784046Y-112863333D01*
X167355474Y-113434762D02*
X167450712Y-113482381D01*
X167688808Y-113482381D01*
X167784046Y-113434762D01*
X167831665Y-113339524D01*
X167831665Y-113244286D01*
X167784046Y-113149048D01*
X167688808Y-113101429D01*
X167450712Y-113101429D01*
X167355474Y-113053810D01*
X176974524Y-115034762D02*
X176831667Y-115082381D01*
X176593571Y-115082381D01*
X176498333Y-115034762D01*
X176450714Y-114987143D01*
X176403095Y-114891905D01*
X176403095Y-114796667D01*
X176450714Y-114701429D01*
X176498333Y-114653810D01*
X176593571Y-114606190D01*
X176784048Y-114558571D01*
X176879286Y-114510952D01*
X176926905Y-114463333D01*
X176974524Y-114368095D01*
X176974524Y-114272857D01*
X176926905Y-114177619D01*
X176879286Y-114130000D01*
X176784048Y-114082381D01*
X176545952Y-114082381D01*
X176403095Y-114130000D01*
X175545952Y-115082381D02*
X175545952Y-114558571D01*
X175593571Y-114463333D01*
X175688809Y-114415714D01*
X175879286Y-114415714D01*
X175974524Y-114463333D01*
X175545952Y-115034762D02*
X175641190Y-115082381D01*
X175879286Y-115082381D01*
X175974524Y-115034762D01*
X176022143Y-114939524D01*
X176022143Y-114844286D01*
X175974524Y-114749048D01*
X175879286Y-114701429D01*
X175641190Y-114701429D01*
X175545952Y-114653810D01*
X174926905Y-115082381D02*
X175022143Y-115034762D01*
X175069762Y-114939524D01*
X175069762Y-114082381D01*
X174117380Y-115082381D02*
X174117380Y-114558571D01*
X174164999Y-114463333D01*
X174260237Y-114415714D01*
X174450714Y-114415714D01*
X174545952Y-114463333D01*
X174117380Y-115034762D02*
X174212618Y-115082381D01*
X174450714Y-115082381D01*
X174545952Y-115034762D01*
X174593571Y-114939524D01*
X174593571Y-114844286D01*
X174545952Y-114749048D01*
X174450714Y-114701429D01*
X174212618Y-114701429D01*
X174117380Y-114653810D01*
X173641190Y-115082381D02*
X173641190Y-114082381D01*
X173212618Y-115082381D02*
X173212618Y-114558571D01*
X173260237Y-114463333D01*
X173355475Y-114415714D01*
X173498333Y-114415714D01*
X173593571Y-114463333D01*
X173641190Y-114510952D01*
X172355475Y-115034762D02*
X172450713Y-115082381D01*
X172641190Y-115082381D01*
X172736428Y-115034762D01*
X172784047Y-114939524D01*
X172784047Y-114558571D01*
X172736428Y-114463333D01*
X172641190Y-114415714D01*
X172450713Y-114415714D01*
X172355475Y-114463333D01*
X172307856Y-114558571D01*
X172307856Y-114653810D01*
X172784047Y-114749048D01*
X171450713Y-115082381D02*
X171450713Y-114082381D01*
X171450713Y-115034762D02*
X171545951Y-115082381D01*
X171736428Y-115082381D01*
X171831666Y-115034762D01*
X171879285Y-114987143D01*
X171926904Y-114891905D01*
X171926904Y-114606190D01*
X171879285Y-114510952D01*
X171831666Y-114463333D01*
X171736428Y-114415714D01*
X171545951Y-114415714D01*
X171450713Y-114463333D01*
X170545951Y-115082381D02*
X170545951Y-114082381D01*
X170545951Y-115034762D02*
X170641189Y-115082381D01*
X170831666Y-115082381D01*
X170926904Y-115034762D01*
X170974523Y-114987143D01*
X171022142Y-114891905D01*
X171022142Y-114606190D01*
X170974523Y-114510952D01*
X170926904Y-114463333D01*
X170831666Y-114415714D01*
X170641189Y-114415714D01*
X170545951Y-114463333D01*
X170069761Y-115082381D02*
X170069761Y-114415714D01*
X170069761Y-114082381D02*
X170117380Y-114130000D01*
X170069761Y-114177619D01*
X170022142Y-114130000D01*
X170069761Y-114082381D01*
X170069761Y-114177619D01*
X169593571Y-114415714D02*
X169593571Y-115082381D01*
X169593571Y-114510952D02*
X169545952Y-114463333D01*
X169450714Y-114415714D01*
X169307856Y-114415714D01*
X169212618Y-114463333D01*
X169164999Y-114558571D01*
X169164999Y-115082381D01*
X168307856Y-115034762D02*
X168403094Y-115082381D01*
X168593571Y-115082381D01*
X168688809Y-115034762D01*
X168736428Y-114939524D01*
X168736428Y-114558571D01*
X168688809Y-114463333D01*
X168593571Y-114415714D01*
X168403094Y-114415714D01*
X168307856Y-114463333D01*
X168260237Y-114558571D01*
X168260237Y-114653810D01*
X168736428Y-114749048D01*
X167069761Y-115082381D02*
X167069761Y-114082381D01*
X166736427Y-114796667D01*
X166403094Y-114082381D01*
X166403094Y-115082381D01*
X165926904Y-115082381D02*
X165926904Y-114415714D01*
X165926904Y-114082381D02*
X165974523Y-114130000D01*
X165926904Y-114177619D01*
X165879285Y-114130000D01*
X165926904Y-114082381D01*
X165926904Y-114177619D01*
X165498333Y-115034762D02*
X165403095Y-115082381D01*
X165212619Y-115082381D01*
X165117380Y-115034762D01*
X165069761Y-114939524D01*
X165069761Y-114891905D01*
X165117380Y-114796667D01*
X165212619Y-114749048D01*
X165355476Y-114749048D01*
X165450714Y-114701429D01*
X165498333Y-114606190D01*
X165498333Y-114558571D01*
X165450714Y-114463333D01*
X165355476Y-114415714D01*
X165212619Y-114415714D01*
X165117380Y-114463333D01*
X164688809Y-115034762D02*
X164593571Y-115082381D01*
X164403095Y-115082381D01*
X164307856Y-115034762D01*
X164260237Y-114939524D01*
X164260237Y-114891905D01*
X164307856Y-114796667D01*
X164403095Y-114749048D01*
X164545952Y-114749048D01*
X164641190Y-114701429D01*
X164688809Y-114606190D01*
X164688809Y-114558571D01*
X164641190Y-114463333D01*
X164545952Y-114415714D01*
X164403095Y-114415714D01*
X164307856Y-114463333D01*
X163831666Y-115082381D02*
X163831666Y-114415714D01*
X163831666Y-114606190D02*
X163784047Y-114510952D01*
X163736428Y-114463333D01*
X163641190Y-114415714D01*
X163545951Y-114415714D01*
X163212618Y-115082381D02*
X163212618Y-114415714D01*
X163212618Y-114082381D02*
X163260237Y-114130000D01*
X163212618Y-114177619D01*
X163164999Y-114130000D01*
X163212618Y-114082381D01*
X163212618Y-114177619D01*
D12*
X188595000Y-96520000D02*
X184785000Y-96520000D01*
X184785000Y-96520000D02*
X184785000Y-101600000D01*
X184785000Y-101600000D02*
X179705000Y-101600000D01*
X179705000Y-101600000D02*
X179705000Y-96520000D01*
X179705000Y-96520000D02*
X178435000Y-96520000D01*
X178435000Y-96520000D02*
X174625000Y-92710000D01*
X174625000Y-92710000D02*
X174625000Y-85090000D01*
X174625000Y-85090000D02*
X178435000Y-81280000D01*
X178435000Y-81280000D02*
X179705000Y-81280000D01*
X179705000Y-81280000D02*
X179705000Y-76200000D01*
X179705000Y-76200000D02*
X184785000Y-76200000D01*
X184785000Y-76200000D02*
X184785000Y-81280000D01*
X184785000Y-81280000D02*
X188595000Y-81280000D01*
X188595000Y-81280000D02*
X188595000Y-96520000D01*
D10*
G36*
X168846500Y-110617000D02*
X168708916Y-110617000D01*
X168602851Y-110600233D01*
X168571333Y-110557463D01*
X168602449Y-110515864D01*
X168656000Y-110520067D01*
X168721754Y-110519064D01*
X168740605Y-110455102D01*
X168740666Y-110448074D01*
X168722253Y-110379021D01*
X168680670Y-110376964D01*
X168615842Y-110365422D01*
X168597332Y-110339160D01*
X168607046Y-110288751D01*
X168657328Y-110278333D01*
X168726249Y-110250237D01*
X168740666Y-110211980D01*
X168716636Y-110165797D01*
X168655999Y-110172500D01*
X168587824Y-110176548D01*
X168571333Y-110154186D01*
X168608335Y-110123434D01*
X168698466Y-110109130D01*
X168708916Y-110109000D01*
X168846500Y-110109000D01*
X168846500Y-110363000D01*
X168846500Y-110617000D01*
X168846500Y-110617000D01*
X168846500Y-110617000D01*
G37*
X168846500Y-110617000D02*
X168708916Y-110617000D01*
X168602851Y-110600233D01*
X168571333Y-110557463D01*
X168602449Y-110515864D01*
X168656000Y-110520067D01*
X168721754Y-110519064D01*
X168740605Y-110455102D01*
X168740666Y-110448074D01*
X168722253Y-110379021D01*
X168680670Y-110376964D01*
X168615842Y-110365422D01*
X168597332Y-110339160D01*
X168607046Y-110288751D01*
X168657328Y-110278333D01*
X168726249Y-110250237D01*
X168740666Y-110211980D01*
X168716636Y-110165797D01*
X168655999Y-110172500D01*
X168587824Y-110176548D01*
X168571333Y-110154186D01*
X168608335Y-110123434D01*
X168698466Y-110109130D01*
X168708916Y-110109000D01*
X168846500Y-110109000D01*
X168846500Y-110363000D01*
X168846500Y-110617000D01*
X168846500Y-110617000D01*
G36*
X169432632Y-110522516D02*
X169419174Y-110599637D01*
X169393761Y-110617000D01*
X169361613Y-110586502D01*
X169358470Y-110488622D01*
X169363877Y-110437083D01*
X169386365Y-110257166D01*
X169220480Y-110415916D01*
X169123919Y-110504097D01*
X169052325Y-110561738D01*
X169028549Y-110574666D01*
X169011902Y-110536386D01*
X168996292Y-110437636D01*
X168988001Y-110341775D01*
X168983732Y-110205494D01*
X168995603Y-110134433D01*
X169027923Y-110109975D01*
X169041899Y-110108942D01*
X169082830Y-110122206D01*
X169093320Y-110175775D01*
X169077797Y-110288916D01*
X169045297Y-110468833D01*
X169211239Y-110282618D01*
X169301712Y-110186304D01*
X169367939Y-110125512D01*
X169392339Y-110113285D01*
X169403617Y-110161292D01*
X169417102Y-110267993D01*
X169426814Y-110373583D01*
X169432632Y-110522516D01*
X169432632Y-110522516D01*
X169432632Y-110522516D01*
G37*
X169432632Y-110522516D02*
X169419174Y-110599637D01*
X169393761Y-110617000D01*
X169361613Y-110586502D01*
X169358470Y-110488622D01*
X169363877Y-110437083D01*
X169386365Y-110257166D01*
X169220480Y-110415916D01*
X169123919Y-110504097D01*
X169052325Y-110561738D01*
X169028549Y-110574666D01*
X169011902Y-110536386D01*
X168996292Y-110437636D01*
X168988001Y-110341775D01*
X168983732Y-110205494D01*
X168995603Y-110134433D01*
X169027923Y-110109975D01*
X169041899Y-110108942D01*
X169082830Y-110122206D01*
X169093320Y-110175775D01*
X169077797Y-110288916D01*
X169045297Y-110468833D01*
X169211239Y-110282618D01*
X169301712Y-110186304D01*
X169367939Y-110125512D01*
X169392339Y-110113285D01*
X169403617Y-110161292D01*
X169417102Y-110267993D01*
X169426814Y-110373583D01*
X169432632Y-110522516D01*
X169432632Y-110522516D01*
G36*
X170540832Y-110605333D02*
X170479018Y-110617000D01*
X170416316Y-110602804D01*
X170410472Y-110578486D01*
X170417997Y-110505420D01*
X170381928Y-110433050D01*
X170342682Y-110411926D01*
X170342682Y-110294876D01*
X170335918Y-110270395D01*
X170317121Y-110254360D01*
X170310342Y-110295972D01*
X170318125Y-110350879D01*
X170332576Y-110351534D01*
X170342682Y-110294876D01*
X170342682Y-110411926D01*
X170330432Y-110405333D01*
X170276239Y-110439850D01*
X170230036Y-110511166D01*
X170175387Y-110586642D01*
X170085153Y-110614965D01*
X170031251Y-110617000D01*
X169934107Y-110612104D01*
X169904437Y-110588716D01*
X169924510Y-110535116D01*
X169959315Y-110427224D01*
X169968333Y-110344494D01*
X169965154Y-110285625D01*
X169946378Y-110274053D01*
X169898144Y-110315274D01*
X169815240Y-110405211D01*
X169724145Y-110499702D01*
X169653850Y-110561216D01*
X169628658Y-110574666D01*
X169607933Y-110536377D01*
X169589619Y-110437607D01*
X169580667Y-110341775D01*
X169576081Y-110206540D01*
X169587230Y-110135950D01*
X169618969Y-110110685D01*
X169639202Y-110108942D01*
X169687326Y-110122064D01*
X169685212Y-110176690D01*
X169670952Y-110217589D01*
X169630977Y-110347808D01*
X169636142Y-110406468D01*
X169685052Y-110392745D01*
X169776318Y-110305814D01*
X169791376Y-110288916D01*
X169882200Y-110190818D01*
X169951555Y-110125470D01*
X169977858Y-110109000D01*
X169996332Y-110147097D01*
X170012484Y-110244526D01*
X170019037Y-110321222D01*
X170033975Y-110443100D01*
X170058115Y-110521714D01*
X170074166Y-110537321D01*
X170111569Y-110503423D01*
X170163188Y-110412003D01*
X170200873Y-110325098D01*
X170252117Y-110206032D01*
X170295012Y-110127545D01*
X170313789Y-110109000D01*
X170343398Y-110145108D01*
X170387849Y-110237449D01*
X170416621Y-110310083D01*
X170467654Y-110437598D01*
X170513815Y-110535549D01*
X170531139Y-110564083D01*
X170540832Y-110605333D01*
X170540832Y-110605333D01*
X170540832Y-110605333D01*
G37*
X170540832Y-110605333D02*
X170479018Y-110617000D01*
X170416316Y-110602804D01*
X170410472Y-110578486D01*
X170417997Y-110505420D01*
X170381928Y-110433050D01*
X170342682Y-110411926D01*
X170342682Y-110294876D01*
X170335918Y-110270395D01*
X170317121Y-110254360D01*
X170310342Y-110295972D01*
X170318125Y-110350879D01*
X170332576Y-110351534D01*
X170342682Y-110294876D01*
X170342682Y-110411926D01*
X170330432Y-110405333D01*
X170276239Y-110439850D01*
X170230036Y-110511166D01*
X170175387Y-110586642D01*
X170085153Y-110614965D01*
X170031251Y-110617000D01*
X169934107Y-110612104D01*
X169904437Y-110588716D01*
X169924510Y-110535116D01*
X169959315Y-110427224D01*
X169968333Y-110344494D01*
X169965154Y-110285625D01*
X169946378Y-110274053D01*
X169898144Y-110315274D01*
X169815240Y-110405211D01*
X169724145Y-110499702D01*
X169653850Y-110561216D01*
X169628658Y-110574666D01*
X169607933Y-110536377D01*
X169589619Y-110437607D01*
X169580667Y-110341775D01*
X169576081Y-110206540D01*
X169587230Y-110135950D01*
X169618969Y-110110685D01*
X169639202Y-110108942D01*
X169687326Y-110122064D01*
X169685212Y-110176690D01*
X169670952Y-110217589D01*
X169630977Y-110347808D01*
X169636142Y-110406468D01*
X169685052Y-110392745D01*
X169776318Y-110305814D01*
X169791376Y-110288916D01*
X169882200Y-110190818D01*
X169951555Y-110125470D01*
X169977858Y-110109000D01*
X169996332Y-110147097D01*
X170012484Y-110244526D01*
X170019037Y-110321222D01*
X170033975Y-110443100D01*
X170058115Y-110521714D01*
X170074166Y-110537321D01*
X170111569Y-110503423D01*
X170163188Y-110412003D01*
X170200873Y-110325098D01*
X170252117Y-110206032D01*
X170295012Y-110127545D01*
X170313789Y-110109000D01*
X170343398Y-110145108D01*
X170387849Y-110237449D01*
X170416621Y-110310083D01*
X170467654Y-110437598D01*
X170513815Y-110535549D01*
X170531139Y-110564083D01*
X170540832Y-110605333D01*
X170540832Y-110605333D01*
G36*
X170848752Y-110536584D02*
X170847385Y-110541070D01*
X170790871Y-110598001D01*
X170695244Y-110597940D01*
X170635083Y-110571844D01*
X170570591Y-110504865D01*
X170578384Y-110415375D01*
X170645666Y-110309115D01*
X170704270Y-110226795D01*
X170730258Y-110174824D01*
X170730333Y-110173553D01*
X170696906Y-110161969D01*
X170645666Y-110172500D01*
X170576047Y-110174219D01*
X170565279Y-110138304D01*
X170621456Y-110094886D01*
X170624500Y-110093691D01*
X170725896Y-110085210D01*
X170791328Y-110134798D01*
X170812843Y-110220626D01*
X170782486Y-110320863D01*
X170730333Y-110384166D01*
X170658546Y-110466598D01*
X170657714Y-110514250D01*
X170726467Y-110520113D01*
X170755643Y-110513909D01*
X170834630Y-110504615D01*
X170848752Y-110536584D01*
X170848752Y-110536584D01*
X170848752Y-110536584D01*
G37*
X170848752Y-110536584D02*
X170847385Y-110541070D01*
X170790871Y-110598001D01*
X170695244Y-110597940D01*
X170635083Y-110571844D01*
X170570591Y-110504865D01*
X170578384Y-110415375D01*
X170645666Y-110309115D01*
X170704270Y-110226795D01*
X170730258Y-110174824D01*
X170730333Y-110173553D01*
X170696906Y-110161969D01*
X170645666Y-110172500D01*
X170576047Y-110174219D01*
X170565279Y-110138304D01*
X170621456Y-110094886D01*
X170624500Y-110093691D01*
X170725896Y-110085210D01*
X170791328Y-110134798D01*
X170812843Y-110220626D01*
X170782486Y-110320863D01*
X170730333Y-110384166D01*
X170658546Y-110466598D01*
X170657714Y-110514250D01*
X170726467Y-110520113D01*
X170755643Y-110513909D01*
X170834630Y-110504615D01*
X170848752Y-110536584D01*
X170848752Y-110536584D01*
G36*
X171379674Y-110159217D02*
X171369609Y-110253474D01*
X171359560Y-110310083D01*
X171305732Y-110482477D01*
X171224453Y-110584920D01*
X171121951Y-110612353D01*
X171030133Y-110577705D01*
X170990504Y-110516306D01*
X170955866Y-110401720D01*
X170942472Y-110324353D01*
X170930167Y-110195500D01*
X170938442Y-110130296D01*
X170970774Y-110109471D01*
X170981339Y-110108931D01*
X171023553Y-110129778D01*
X171043735Y-110203873D01*
X171047833Y-110310014D01*
X171052782Y-110433084D01*
X171073571Y-110492948D01*
X171119113Y-110510780D01*
X171132500Y-110511166D01*
X171185564Y-110497597D01*
X171214359Y-110443071D01*
X171228943Y-110326860D01*
X171230069Y-110310083D01*
X171244650Y-110184377D01*
X171273015Y-110123820D01*
X171319854Y-110109000D01*
X171364470Y-110118055D01*
X171379674Y-110159217D01*
X171379674Y-110159217D01*
X171379674Y-110159217D01*
G37*
X171379674Y-110159217D02*
X171369609Y-110253474D01*
X171359560Y-110310083D01*
X171305732Y-110482477D01*
X171224453Y-110584920D01*
X171121951Y-110612353D01*
X171030133Y-110577705D01*
X170990504Y-110516306D01*
X170955866Y-110401720D01*
X170942472Y-110324353D01*
X170930167Y-110195500D01*
X170938442Y-110130296D01*
X170970774Y-110109471D01*
X170981339Y-110108931D01*
X171023553Y-110129778D01*
X171043735Y-110203873D01*
X171047833Y-110310014D01*
X171052782Y-110433084D01*
X171073571Y-110492948D01*
X171119113Y-110510780D01*
X171132500Y-110511166D01*
X171185564Y-110497597D01*
X171214359Y-110443071D01*
X171228943Y-110326860D01*
X171230069Y-110310083D01*
X171244650Y-110184377D01*
X171273015Y-110123820D01*
X171319854Y-110109000D01*
X171364470Y-110118055D01*
X171379674Y-110159217D01*
X171379674Y-110159217D01*
G36*
X171813559Y-110606217D02*
X171766664Y-110609578D01*
X171721840Y-110558646D01*
X171704000Y-110487501D01*
X171679913Y-110419546D01*
X171652622Y-110415322D01*
X171652622Y-110298649D01*
X171647555Y-110292444D01*
X171622388Y-110298255D01*
X171619333Y-110320666D01*
X171634822Y-110355511D01*
X171647555Y-110348888D01*
X171652622Y-110298649D01*
X171652622Y-110415322D01*
X171624573Y-110410982D01*
X171563357Y-110458262D01*
X171534666Y-110511166D01*
X171488892Y-110589742D01*
X171446518Y-110617000D01*
X171418779Y-110586403D01*
X171428781Y-110542916D01*
X171461252Y-110457697D01*
X171506177Y-110333634D01*
X171521957Y-110288916D01*
X171566254Y-110181055D01*
X171605237Y-110116828D01*
X171617437Y-110109000D01*
X171647984Y-110144984D01*
X171693260Y-110235220D01*
X171742783Y-110353136D01*
X171786071Y-110472158D01*
X171812644Y-110565712D01*
X171813559Y-110606217D01*
X171813559Y-110606217D01*
X171813559Y-110606217D01*
G37*
X171813559Y-110606217D02*
X171766664Y-110609578D01*
X171721840Y-110558646D01*
X171704000Y-110487501D01*
X171679913Y-110419546D01*
X171652622Y-110415322D01*
X171652622Y-110298649D01*
X171647555Y-110292444D01*
X171622388Y-110298255D01*
X171619333Y-110320666D01*
X171634822Y-110355511D01*
X171647555Y-110348888D01*
X171652622Y-110298649D01*
X171652622Y-110415322D01*
X171624573Y-110410982D01*
X171563357Y-110458262D01*
X171534666Y-110511166D01*
X171488892Y-110589742D01*
X171446518Y-110617000D01*
X171418779Y-110586403D01*
X171428781Y-110542916D01*
X171461252Y-110457697D01*
X171506177Y-110333634D01*
X171521957Y-110288916D01*
X171566254Y-110181055D01*
X171605237Y-110116828D01*
X171617437Y-110109000D01*
X171647984Y-110144984D01*
X171693260Y-110235220D01*
X171742783Y-110353136D01*
X171786071Y-110472158D01*
X171812644Y-110565712D01*
X171813559Y-110606217D01*
X171813559Y-110606217D01*
G36*
X172148500Y-110617000D02*
X172015445Y-110617000D01*
X171907285Y-110597256D01*
X171857823Y-110552976D01*
X171856063Y-110510173D01*
X171911873Y-110509357D01*
X171942431Y-110516354D01*
X172006053Y-110528368D01*
X172036547Y-110510121D01*
X172043195Y-110442878D01*
X172036554Y-110326351D01*
X172032664Y-110194034D01*
X172047312Y-110127460D01*
X172084430Y-110108975D01*
X172085000Y-110108973D01*
X172121873Y-110128502D01*
X172141669Y-110197679D01*
X172148375Y-110332450D01*
X172148500Y-110363000D01*
X172148500Y-110617000D01*
X172148500Y-110617000D01*
X172148500Y-110617000D01*
G37*
X172148500Y-110617000D02*
X172015445Y-110617000D01*
X171907285Y-110597256D01*
X171857823Y-110552976D01*
X171856063Y-110510173D01*
X171911873Y-110509357D01*
X171942431Y-110516354D01*
X172006053Y-110528368D01*
X172036547Y-110510121D01*
X172043195Y-110442878D01*
X172036554Y-110326351D01*
X172032664Y-110194034D01*
X172047312Y-110127460D01*
X172084430Y-110108975D01*
X172085000Y-110108973D01*
X172121873Y-110128502D01*
X172141669Y-110197679D01*
X172148375Y-110332450D01*
X172148500Y-110363000D01*
X172148500Y-110617000D01*
X172148500Y-110617000D01*
G36*
X172741166Y-110108845D02*
X172726823Y-110362922D01*
X172716856Y-110503524D01*
X172700043Y-110579460D01*
X172665603Y-110610636D01*
X172602757Y-110616963D01*
X172589239Y-110617000D01*
X172493442Y-110598671D01*
X172466000Y-110557463D01*
X172497116Y-110515864D01*
X172550666Y-110520067D01*
X172616749Y-110518872D01*
X172635306Y-110454271D01*
X172635333Y-110449751D01*
X172619864Y-110382993D01*
X172559701Y-110381427D01*
X172550666Y-110384166D01*
X172482005Y-110387126D01*
X172466000Y-110344686D01*
X172501389Y-110289857D01*
X172550666Y-110278333D01*
X172621185Y-110249805D01*
X172635333Y-110209895D01*
X172609399Y-110160606D01*
X172550666Y-110163599D01*
X172483162Y-110165973D01*
X172466000Y-110147370D01*
X172503028Y-110121228D01*
X172593215Y-110109037D01*
X172603583Y-110108922D01*
X172741166Y-110108845D01*
X172741166Y-110108845D01*
X172741166Y-110108845D01*
G37*
X172741166Y-110108845D02*
X172726823Y-110362922D01*
X172716856Y-110503524D01*
X172700043Y-110579460D01*
X172665603Y-110610636D01*
X172602757Y-110616963D01*
X172589239Y-110617000D01*
X172493442Y-110598671D01*
X172466000Y-110557463D01*
X172497116Y-110515864D01*
X172550666Y-110520067D01*
X172616749Y-110518872D01*
X172635306Y-110454271D01*
X172635333Y-110449751D01*
X172619864Y-110382993D01*
X172559701Y-110381427D01*
X172550666Y-110384166D01*
X172482005Y-110387126D01*
X172466000Y-110344686D01*
X172501389Y-110289857D01*
X172550666Y-110278333D01*
X172621185Y-110249805D01*
X172635333Y-110209895D01*
X172609399Y-110160606D01*
X172550666Y-110163599D01*
X172483162Y-110165973D01*
X172466000Y-110147370D01*
X172503028Y-110121228D01*
X172593215Y-110109037D01*
X172603583Y-110108922D01*
X172741166Y-110108845D01*
X172741166Y-110108845D01*
G36*
X173291500Y-110617039D02*
X173185666Y-110617023D01*
X173185666Y-110341833D01*
X173179367Y-110221320D01*
X173155060Y-110164606D01*
X173109466Y-110151333D01*
X173001924Y-110187518D01*
X172941125Y-110287129D01*
X172931666Y-110364411D01*
X172945837Y-110474282D01*
X173001162Y-110523166D01*
X173086888Y-110532333D01*
X173148000Y-110523273D01*
X173176952Y-110481118D01*
X173185392Y-110383403D01*
X173185666Y-110341833D01*
X173185666Y-110617023D01*
X173158606Y-110617019D01*
X173030427Y-110592243D01*
X172931064Y-110540358D01*
X172855896Y-110432230D01*
X172838936Y-110299250D01*
X172884422Y-110178653D01*
X172889225Y-110172630D01*
X172970402Y-110128201D01*
X173102672Y-110109267D01*
X173116766Y-110109118D01*
X173291500Y-110109236D01*
X173291500Y-110363137D01*
X173291500Y-110617039D01*
X173291500Y-110617039D01*
X173291500Y-110617039D01*
G37*
X173291500Y-110617039D02*
X173185666Y-110617023D01*
X173185666Y-110341833D01*
X173179367Y-110221320D01*
X173155060Y-110164606D01*
X173109466Y-110151333D01*
X173001924Y-110187518D01*
X172941125Y-110287129D01*
X172931666Y-110364411D01*
X172945837Y-110474282D01*
X173001162Y-110523166D01*
X173086888Y-110532333D01*
X173148000Y-110523273D01*
X173176952Y-110481118D01*
X173185392Y-110383403D01*
X173185666Y-110341833D01*
X173185666Y-110617023D01*
X173158606Y-110617019D01*
X173030427Y-110592243D01*
X172931064Y-110540358D01*
X172855896Y-110432230D01*
X172838936Y-110299250D01*
X172884422Y-110178653D01*
X172889225Y-110172630D01*
X172970402Y-110128201D01*
X173102672Y-110109267D01*
X173116766Y-110109118D01*
X173291500Y-110109236D01*
X173291500Y-110363137D01*
X173291500Y-110617039D01*
X173291500Y-110617039D01*
G36*
X173884166Y-110363000D02*
X173882034Y-110503707D01*
X173869923Y-110579668D01*
X173839261Y-110610791D01*
X173781476Y-110616985D01*
X173774805Y-110617000D01*
X173681826Y-110607084D01*
X173637222Y-110588777D01*
X173609225Y-110534005D01*
X173651768Y-110513546D01*
X173693666Y-110520067D01*
X173759421Y-110519064D01*
X173778271Y-110455102D01*
X173778333Y-110448074D01*
X173761127Y-110379699D01*
X173714833Y-110378308D01*
X173660219Y-110371804D01*
X173651333Y-110340504D01*
X173685249Y-110285539D01*
X173714833Y-110278333D01*
X173770278Y-110244224D01*
X173778333Y-110211980D01*
X173754303Y-110165797D01*
X173693666Y-110172500D01*
X173625491Y-110176548D01*
X173609000Y-110154186D01*
X173646002Y-110123434D01*
X173736133Y-110109130D01*
X173746583Y-110109000D01*
X173884166Y-110109000D01*
X173884166Y-110363000D01*
X173884166Y-110363000D01*
X173884166Y-110363000D01*
G37*
X173884166Y-110363000D02*
X173882034Y-110503707D01*
X173869923Y-110579668D01*
X173839261Y-110610791D01*
X173781476Y-110616985D01*
X173774805Y-110617000D01*
X173681826Y-110607084D01*
X173637222Y-110588777D01*
X173609225Y-110534005D01*
X173651768Y-110513546D01*
X173693666Y-110520067D01*
X173759421Y-110519064D01*
X173778271Y-110455102D01*
X173778333Y-110448074D01*
X173761127Y-110379699D01*
X173714833Y-110378308D01*
X173660219Y-110371804D01*
X173651333Y-110340504D01*
X173685249Y-110285539D01*
X173714833Y-110278333D01*
X173770278Y-110244224D01*
X173778333Y-110211980D01*
X173754303Y-110165797D01*
X173693666Y-110172500D01*
X173625491Y-110176548D01*
X173609000Y-110154186D01*
X173646002Y-110123434D01*
X173736133Y-110109130D01*
X173746583Y-110109000D01*
X173884166Y-110109000D01*
X173884166Y-110363000D01*
X173884166Y-110363000D01*
G36*
X174253534Y-110308370D02*
X174250823Y-110362922D01*
X174240651Y-110503613D01*
X174223609Y-110579593D01*
X174189479Y-110610753D01*
X174128043Y-110616982D01*
X174120295Y-110617000D01*
X174024741Y-110607649D01*
X173975888Y-110588777D01*
X173949414Y-110534777D01*
X174000254Y-110509035D01*
X174042916Y-110507805D01*
X174100665Y-110501042D01*
X174128810Y-110461076D01*
X174137691Y-110366437D01*
X174138166Y-110310014D01*
X174145652Y-110180619D01*
X174171357Y-110119405D01*
X174201666Y-110108854D01*
X174237059Y-110125334D01*
X174253248Y-110186155D01*
X174253534Y-110308370D01*
X174253534Y-110308370D01*
X174253534Y-110308370D01*
G37*
X174253534Y-110308370D02*
X174250823Y-110362922D01*
X174240651Y-110503613D01*
X174223609Y-110579593D01*
X174189479Y-110610753D01*
X174128043Y-110616982D01*
X174120295Y-110617000D01*
X174024741Y-110607649D01*
X173975888Y-110588777D01*
X173949414Y-110534777D01*
X174000254Y-110509035D01*
X174042916Y-110507805D01*
X174100665Y-110501042D01*
X174128810Y-110461076D01*
X174137691Y-110366437D01*
X174138166Y-110310014D01*
X174145652Y-110180619D01*
X174171357Y-110119405D01*
X174201666Y-110108854D01*
X174237059Y-110125334D01*
X174253248Y-110186155D01*
X174253534Y-110308370D01*
X174253534Y-110308370D01*
G36*
X175154166Y-110361214D02*
X175150515Y-110505166D01*
X175135946Y-110583157D01*
X175105033Y-110613716D01*
X175079276Y-110617019D01*
X175048333Y-110606390D01*
X175048333Y-110232472D01*
X175026029Y-110170406D01*
X174978823Y-110168809D01*
X174936274Y-110223323D01*
X174928812Y-110250091D01*
X174947048Y-110310509D01*
X174981729Y-110320666D01*
X175036687Y-110285056D01*
X175048333Y-110232472D01*
X175048333Y-110606390D01*
X175027435Y-110599212D01*
X175026200Y-110531644D01*
X175030949Y-110511166D01*
X175042761Y-110432757D01*
X175033680Y-110405333D01*
X174990817Y-110432337D01*
X174916752Y-110498597D01*
X174904015Y-110511166D01*
X174808261Y-110583441D01*
X174717831Y-110616747D01*
X174711590Y-110617000D01*
X174643964Y-110593139D01*
X174625000Y-110511166D01*
X174602620Y-110425645D01*
X174573622Y-110411676D01*
X174573622Y-110298649D01*
X174568555Y-110292444D01*
X174543388Y-110298255D01*
X174540333Y-110320666D01*
X174555822Y-110355511D01*
X174568555Y-110348888D01*
X174573622Y-110298649D01*
X174573622Y-110411676D01*
X174560452Y-110405333D01*
X174498917Y-110440734D01*
X174455666Y-110511166D01*
X174403765Y-110590005D01*
X174349905Y-110617000D01*
X174308068Y-110607650D01*
X174318676Y-110564520D01*
X174344139Y-110521750D01*
X174397426Y-110416322D01*
X174448862Y-110284212D01*
X174454231Y-110267750D01*
X174494106Y-110167055D01*
X174531246Y-110112313D01*
X174539364Y-110109000D01*
X174571882Y-110145362D01*
X174618099Y-110238763D01*
X174650277Y-110320666D01*
X174697705Y-110438830D01*
X174738016Y-110515661D01*
X174755179Y-110532333D01*
X174817348Y-110494703D01*
X174859390Y-110399824D01*
X174869420Y-110274709D01*
X174869283Y-110272951D01*
X174868436Y-110176754D01*
X174902950Y-110134302D01*
X174996633Y-110118574D01*
X175006000Y-110117778D01*
X175154166Y-110105390D01*
X175154166Y-110361214D01*
X175154166Y-110361214D01*
X175154166Y-110361214D01*
G37*
X175154166Y-110361214D02*
X175150515Y-110505166D01*
X175135946Y-110583157D01*
X175105033Y-110613716D01*
X175079276Y-110617019D01*
X175048333Y-110606390D01*
X175048333Y-110232472D01*
X175026029Y-110170406D01*
X174978823Y-110168809D01*
X174936274Y-110223323D01*
X174928812Y-110250091D01*
X174947048Y-110310509D01*
X174981729Y-110320666D01*
X175036687Y-110285056D01*
X175048333Y-110232472D01*
X175048333Y-110606390D01*
X175027435Y-110599212D01*
X175026200Y-110531644D01*
X175030949Y-110511166D01*
X175042761Y-110432757D01*
X175033680Y-110405333D01*
X174990817Y-110432337D01*
X174916752Y-110498597D01*
X174904015Y-110511166D01*
X174808261Y-110583441D01*
X174717831Y-110616747D01*
X174711590Y-110617000D01*
X174643964Y-110593139D01*
X174625000Y-110511166D01*
X174602620Y-110425645D01*
X174573622Y-110411676D01*
X174573622Y-110298649D01*
X174568555Y-110292444D01*
X174543388Y-110298255D01*
X174540333Y-110320666D01*
X174555822Y-110355511D01*
X174568555Y-110348888D01*
X174573622Y-110298649D01*
X174573622Y-110411676D01*
X174560452Y-110405333D01*
X174498917Y-110440734D01*
X174455666Y-110511166D01*
X174403765Y-110590005D01*
X174349905Y-110617000D01*
X174308068Y-110607650D01*
X174318676Y-110564520D01*
X174344139Y-110521750D01*
X174397426Y-110416322D01*
X174448862Y-110284212D01*
X174454231Y-110267750D01*
X174494106Y-110167055D01*
X174531246Y-110112313D01*
X174539364Y-110109000D01*
X174571882Y-110145362D01*
X174618099Y-110238763D01*
X174650277Y-110320666D01*
X174697705Y-110438830D01*
X174738016Y-110515661D01*
X174755179Y-110532333D01*
X174817348Y-110494703D01*
X174859390Y-110399824D01*
X174869420Y-110274709D01*
X174869283Y-110272951D01*
X174868436Y-110176754D01*
X174902950Y-110134302D01*
X174996633Y-110118574D01*
X175006000Y-110117778D01*
X175154166Y-110105390D01*
X175154166Y-110361214D01*
X175154166Y-110361214D01*
G36*
X175535166Y-110363137D02*
X175533032Y-110503810D01*
X175520913Y-110579739D01*
X175490232Y-110610834D01*
X175432412Y-110617006D01*
X175425805Y-110617019D01*
X175332825Y-110607089D01*
X175288222Y-110588777D01*
X175260225Y-110534005D01*
X175302768Y-110513546D01*
X175344666Y-110520067D01*
X175410421Y-110519064D01*
X175429271Y-110455102D01*
X175429333Y-110448074D01*
X175412127Y-110379699D01*
X175365833Y-110378308D01*
X175311219Y-110371804D01*
X175302333Y-110340504D01*
X175336249Y-110285539D01*
X175365833Y-110278333D01*
X175421278Y-110244224D01*
X175429333Y-110211980D01*
X175405303Y-110165797D01*
X175344666Y-110172500D01*
X175276491Y-110176548D01*
X175260000Y-110154186D01*
X175296999Y-110123467D01*
X175387126Y-110109239D01*
X175397583Y-110109118D01*
X175535166Y-110109236D01*
X175535166Y-110363137D01*
X175535166Y-110363137D01*
X175535166Y-110363137D01*
G37*
X175535166Y-110363137D02*
X175533032Y-110503810D01*
X175520913Y-110579739D01*
X175490232Y-110610834D01*
X175432412Y-110617006D01*
X175425805Y-110617019D01*
X175332825Y-110607089D01*
X175288222Y-110588777D01*
X175260225Y-110534005D01*
X175302768Y-110513546D01*
X175344666Y-110520067D01*
X175410421Y-110519064D01*
X175429271Y-110455102D01*
X175429333Y-110448074D01*
X175412127Y-110379699D01*
X175365833Y-110378308D01*
X175311219Y-110371804D01*
X175302333Y-110340504D01*
X175336249Y-110285539D01*
X175365833Y-110278333D01*
X175421278Y-110244224D01*
X175429333Y-110211980D01*
X175405303Y-110165797D01*
X175344666Y-110172500D01*
X175276491Y-110176548D01*
X175260000Y-110154186D01*
X175296999Y-110123467D01*
X175387126Y-110109239D01*
X175397583Y-110109118D01*
X175535166Y-110109236D01*
X175535166Y-110363137D01*
X175535166Y-110363137D01*
G36*
X176085500Y-110617000D02*
X175979666Y-110617000D01*
X175979666Y-110341833D01*
X175974052Y-110222657D01*
X175950930Y-110166320D01*
X175900881Y-110151382D01*
X175895975Y-110151333D01*
X175813034Y-110184377D01*
X175744800Y-110254327D01*
X175705833Y-110370193D01*
X175735288Y-110468290D01*
X175822442Y-110525782D01*
X175875322Y-110532333D01*
X175939740Y-110524212D01*
X175970261Y-110484753D01*
X175979289Y-110391308D01*
X175979666Y-110341833D01*
X175979666Y-110617000D01*
X175945992Y-110617000D01*
X175786314Y-110576461D01*
X175702575Y-110513090D01*
X175618077Y-110387856D01*
X175611167Y-110272104D01*
X175674843Y-110178880D01*
X175802102Y-110121229D01*
X175919500Y-110109000D01*
X176085500Y-110109000D01*
X176085500Y-110363000D01*
X176085500Y-110617000D01*
X176085500Y-110617000D01*
X176085500Y-110617000D01*
G37*
X176085500Y-110617000D02*
X175979666Y-110617000D01*
X175979666Y-110341833D01*
X175974052Y-110222657D01*
X175950930Y-110166320D01*
X175900881Y-110151382D01*
X175895975Y-110151333D01*
X175813034Y-110184377D01*
X175744800Y-110254327D01*
X175705833Y-110370193D01*
X175735288Y-110468290D01*
X175822442Y-110525782D01*
X175875322Y-110532333D01*
X175939740Y-110524212D01*
X175970261Y-110484753D01*
X175979289Y-110391308D01*
X175979666Y-110341833D01*
X175979666Y-110617000D01*
X175945992Y-110617000D01*
X175786314Y-110576461D01*
X175702575Y-110513090D01*
X175618077Y-110387856D01*
X175611167Y-110272104D01*
X175674843Y-110178880D01*
X175802102Y-110121229D01*
X175919500Y-110109000D01*
X176085500Y-110109000D01*
X176085500Y-110363000D01*
X176085500Y-110617000D01*
X176085500Y-110617000D01*
G36*
X176466500Y-110363000D02*
X176464367Y-110503707D01*
X176452256Y-110579668D01*
X176421594Y-110610791D01*
X176363810Y-110616985D01*
X176357138Y-110617000D01*
X176264159Y-110607084D01*
X176219555Y-110588777D01*
X176191558Y-110534005D01*
X176234101Y-110513546D01*
X176276000Y-110520067D01*
X176341754Y-110519064D01*
X176360605Y-110455102D01*
X176360666Y-110448074D01*
X176343460Y-110379699D01*
X176297166Y-110378308D01*
X176242552Y-110371804D01*
X176233666Y-110340504D01*
X176267582Y-110285539D01*
X176297166Y-110278333D01*
X176352611Y-110244224D01*
X176360666Y-110211980D01*
X176336636Y-110165797D01*
X176276000Y-110172500D01*
X176207824Y-110176548D01*
X176191333Y-110154186D01*
X176228335Y-110123434D01*
X176318466Y-110109130D01*
X176328916Y-110109000D01*
X176466500Y-110109000D01*
X176466500Y-110363000D01*
X176466500Y-110363000D01*
X176466500Y-110363000D01*
G37*
X176466500Y-110363000D02*
X176464367Y-110503707D01*
X176452256Y-110579668D01*
X176421594Y-110610791D01*
X176363810Y-110616985D01*
X176357138Y-110617000D01*
X176264159Y-110607084D01*
X176219555Y-110588777D01*
X176191558Y-110534005D01*
X176234101Y-110513546D01*
X176276000Y-110520067D01*
X176341754Y-110519064D01*
X176360605Y-110455102D01*
X176360666Y-110448074D01*
X176343460Y-110379699D01*
X176297166Y-110378308D01*
X176242552Y-110371804D01*
X176233666Y-110340504D01*
X176267582Y-110285539D01*
X176297166Y-110278333D01*
X176352611Y-110244224D01*
X176360666Y-110211980D01*
X176336636Y-110165797D01*
X176276000Y-110172500D01*
X176207824Y-110176548D01*
X176191333Y-110154186D01*
X176228335Y-110123434D01*
X176318466Y-110109130D01*
X176328916Y-110109000D01*
X176466500Y-110109000D01*
X176466500Y-110363000D01*
X176466500Y-110363000D01*
G36*
X176847500Y-110108845D02*
X176833156Y-110362922D01*
X176818827Y-110513365D01*
X176794478Y-110593377D01*
X176755829Y-110616999D01*
X176755709Y-110617000D01*
X176715041Y-110597468D01*
X176713663Y-110526027D01*
X176721855Y-110483828D01*
X176736007Y-110394245D01*
X176715318Y-110365596D01*
X176661719Y-110374031D01*
X176587446Y-110372857D01*
X176572333Y-110337870D01*
X176607599Y-110289593D01*
X176657000Y-110278333D01*
X176727519Y-110249805D01*
X176741666Y-110209895D01*
X176715732Y-110160606D01*
X176657000Y-110163599D01*
X176589496Y-110165973D01*
X176572333Y-110147370D01*
X176609362Y-110121228D01*
X176699548Y-110109037D01*
X176709916Y-110108922D01*
X176847500Y-110108845D01*
X176847500Y-110108845D01*
X176847500Y-110108845D01*
G37*
X176847500Y-110108845D02*
X176833156Y-110362922D01*
X176818827Y-110513365D01*
X176794478Y-110593377D01*
X176755829Y-110616999D01*
X176755709Y-110617000D01*
X176715041Y-110597468D01*
X176713663Y-110526027D01*
X176721855Y-110483828D01*
X176736007Y-110394245D01*
X176715318Y-110365596D01*
X176661719Y-110374031D01*
X176587446Y-110372857D01*
X176572333Y-110337870D01*
X176607599Y-110289593D01*
X176657000Y-110278333D01*
X176727519Y-110249805D01*
X176741666Y-110209895D01*
X176715732Y-110160606D01*
X176657000Y-110163599D01*
X176589496Y-110165973D01*
X176572333Y-110147370D01*
X176609362Y-110121228D01*
X176699548Y-110109037D01*
X176709916Y-110108922D01*
X176847500Y-110108845D01*
X176847500Y-110108845D01*
G36*
X175462579Y-110055213D02*
X175420533Y-110065547D01*
X175397583Y-110066018D01*
X175323257Y-110050589D01*
X175302333Y-110024333D01*
X175328982Y-109984941D01*
X175406086Y-110010156D01*
X175429333Y-110024333D01*
X175462579Y-110055213D01*
X175462579Y-110055213D01*
X175462579Y-110055213D01*
G37*
X175462579Y-110055213D02*
X175420533Y-110065547D01*
X175397583Y-110066018D01*
X175323257Y-110050589D01*
X175302333Y-110024333D01*
X175328982Y-109984941D01*
X175406086Y-110010156D01*
X175429333Y-110024333D01*
X175462579Y-110055213D01*
X175462579Y-110055213D01*
G36*
X176339500Y-110024333D02*
X176329903Y-110060574D01*
X176299665Y-110066666D01*
X176241743Y-110044564D01*
X176233666Y-110024333D01*
X176264050Y-109983211D01*
X176273501Y-109982000D01*
X176330835Y-110012772D01*
X176339500Y-110024333D01*
X176339500Y-110024333D01*
X176339500Y-110024333D01*
G37*
X176339500Y-110024333D02*
X176329903Y-110060574D01*
X176299665Y-110066666D01*
X176241743Y-110044564D01*
X176233666Y-110024333D01*
X176264050Y-109983211D01*
X176273501Y-109982000D01*
X176330835Y-110012772D01*
X176339500Y-110024333D01*
X176339500Y-110024333D01*
G36*
X169963186Y-109547406D02*
X169956998Y-109672654D01*
X169889952Y-109778927D01*
X169876519Y-109786469D01*
X169876519Y-109536927D01*
X169838135Y-109443239D01*
X169758628Y-109392231D01*
X169730057Y-109389333D01*
X169647032Y-109424678D01*
X169575128Y-109507333D01*
X169545000Y-109601000D01*
X169570408Y-109682605D01*
X169628462Y-109764721D01*
X169691901Y-109810932D01*
X169703440Y-109812666D01*
X169750870Y-109787382D01*
X169806249Y-109742605D01*
X169867863Y-109645860D01*
X169876519Y-109536927D01*
X169876519Y-109786469D01*
X169772288Y-109844994D01*
X169689833Y-109856500D01*
X169557094Y-109879372D01*
X169460333Y-109918500D01*
X169311056Y-109971321D01*
X169162426Y-109971500D01*
X169079333Y-109939666D01*
X169059300Y-109912869D01*
X169111099Y-109899461D01*
X169185166Y-109896481D01*
X169310217Y-109883096D01*
X169421566Y-109851968D01*
X169499490Y-109811873D01*
X169524266Y-109771584D01*
X169508385Y-109752701D01*
X169468971Y-109685344D01*
X169463574Y-109578803D01*
X169490156Y-109470500D01*
X169526857Y-109413523D01*
X169636338Y-109356926D01*
X169768397Y-109355894D01*
X169882775Y-109409246D01*
X169898272Y-109424416D01*
X169963186Y-109547406D01*
X169963186Y-109547406D01*
X169963186Y-109547406D01*
G37*
X169963186Y-109547406D02*
X169956998Y-109672654D01*
X169889952Y-109778927D01*
X169876519Y-109786469D01*
X169876519Y-109536927D01*
X169838135Y-109443239D01*
X169758628Y-109392231D01*
X169730057Y-109389333D01*
X169647032Y-109424678D01*
X169575128Y-109507333D01*
X169545000Y-109601000D01*
X169570408Y-109682605D01*
X169628462Y-109764721D01*
X169691901Y-109810932D01*
X169703440Y-109812666D01*
X169750870Y-109787382D01*
X169806249Y-109742605D01*
X169867863Y-109645860D01*
X169876519Y-109536927D01*
X169876519Y-109786469D01*
X169772288Y-109844994D01*
X169689833Y-109856500D01*
X169557094Y-109879372D01*
X169460333Y-109918500D01*
X169311056Y-109971321D01*
X169162426Y-109971500D01*
X169079333Y-109939666D01*
X169059300Y-109912869D01*
X169111099Y-109899461D01*
X169185166Y-109896481D01*
X169310217Y-109883096D01*
X169421566Y-109851968D01*
X169499490Y-109811873D01*
X169524266Y-109771584D01*
X169508385Y-109752701D01*
X169468971Y-109685344D01*
X169463574Y-109578803D01*
X169490156Y-109470500D01*
X169526857Y-109413523D01*
X169636338Y-109356926D01*
X169768397Y-109355894D01*
X169882775Y-109409246D01*
X169898272Y-109424416D01*
X169963186Y-109547406D01*
X169963186Y-109547406D01*
G36*
X168846500Y-109855000D02*
X168708916Y-109855000D01*
X168602851Y-109838233D01*
X168571333Y-109795463D01*
X168602449Y-109753864D01*
X168656000Y-109758067D01*
X168722082Y-109756872D01*
X168740640Y-109692271D01*
X168740666Y-109687751D01*
X168725198Y-109620993D01*
X168665035Y-109619427D01*
X168655999Y-109622166D01*
X168587824Y-109626215D01*
X168571333Y-109603852D01*
X168606762Y-109567150D01*
X168656000Y-109558666D01*
X168726298Y-109529215D01*
X168740666Y-109471147D01*
X168723775Y-109407873D01*
X168659477Y-109409414D01*
X168655999Y-109410500D01*
X168587824Y-109414548D01*
X168571333Y-109392186D01*
X168608335Y-109361434D01*
X168698466Y-109347130D01*
X168708916Y-109347000D01*
X168846500Y-109347000D01*
X168846500Y-109601000D01*
X168846500Y-109855000D01*
X168846500Y-109855000D01*
X168846500Y-109855000D01*
G37*
X168846500Y-109855000D02*
X168708916Y-109855000D01*
X168602851Y-109838233D01*
X168571333Y-109795463D01*
X168602449Y-109753864D01*
X168656000Y-109758067D01*
X168722082Y-109756872D01*
X168740640Y-109692271D01*
X168740666Y-109687751D01*
X168725198Y-109620993D01*
X168665035Y-109619427D01*
X168655999Y-109622166D01*
X168587824Y-109626215D01*
X168571333Y-109603852D01*
X168606762Y-109567150D01*
X168656000Y-109558666D01*
X168726298Y-109529215D01*
X168740666Y-109471147D01*
X168723775Y-109407873D01*
X168659477Y-109409414D01*
X168655999Y-109410500D01*
X168587824Y-109414548D01*
X168571333Y-109392186D01*
X168608335Y-109361434D01*
X168698466Y-109347130D01*
X168708916Y-109347000D01*
X168846500Y-109347000D01*
X168846500Y-109601000D01*
X168846500Y-109855000D01*
X168846500Y-109855000D01*
G36*
X169388062Y-109417776D02*
X169378592Y-109535676D01*
X169377000Y-109548271D01*
X169355110Y-109678862D01*
X169329480Y-109777377D01*
X169318591Y-109802271D01*
X169249320Y-109845051D01*
X169143615Y-109850552D01*
X169042047Y-109816685D01*
X169041802Y-109816530D01*
X169001676Y-109756955D01*
X168973038Y-109653705D01*
X168958337Y-109534393D01*
X168960021Y-109426632D01*
X168980540Y-109358036D01*
X169000169Y-109347000D01*
X169037321Y-109372428D01*
X169047928Y-109458246D01*
X169044276Y-109529318D01*
X169047619Y-109674999D01*
X169089024Y-109760232D01*
X169096887Y-109767335D01*
X169179262Y-109800733D01*
X169243234Y-109761007D01*
X169280189Y-109659133D01*
X169283723Y-109529318D01*
X169281019Y-109411413D01*
X169301389Y-109357256D01*
X169336022Y-109347000D01*
X169375203Y-109361424D01*
X169388062Y-109417776D01*
X169388062Y-109417776D01*
X169388062Y-109417776D01*
G37*
X169388062Y-109417776D02*
X169378592Y-109535676D01*
X169377000Y-109548271D01*
X169355110Y-109678862D01*
X169329480Y-109777377D01*
X169318591Y-109802271D01*
X169249320Y-109845051D01*
X169143615Y-109850552D01*
X169042047Y-109816685D01*
X169041802Y-109816530D01*
X169001676Y-109756955D01*
X168973038Y-109653705D01*
X168958337Y-109534393D01*
X168960021Y-109426632D01*
X168980540Y-109358036D01*
X169000169Y-109347000D01*
X169037321Y-109372428D01*
X169047928Y-109458246D01*
X169044276Y-109529318D01*
X169047619Y-109674999D01*
X169089024Y-109760232D01*
X169096887Y-109767335D01*
X169179262Y-109800733D01*
X169243234Y-109761007D01*
X169280189Y-109659133D01*
X169283723Y-109529318D01*
X169281019Y-109411413D01*
X169301389Y-109357256D01*
X169336022Y-109347000D01*
X169375203Y-109361424D01*
X169388062Y-109417776D01*
X169388062Y-109417776D01*
G36*
X170201166Y-109601000D02*
X170196289Y-109748486D01*
X170179002Y-109827670D01*
X170145317Y-109854499D01*
X170137666Y-109855000D01*
X170100795Y-109835493D01*
X170080998Y-109766342D01*
X170074291Y-109631604D01*
X170074166Y-109601000D01*
X170079043Y-109453513D01*
X170096330Y-109374329D01*
X170130015Y-109347500D01*
X170137666Y-109347000D01*
X170174538Y-109366506D01*
X170194334Y-109435657D01*
X170201041Y-109570395D01*
X170201166Y-109601000D01*
X170201166Y-109601000D01*
X170201166Y-109601000D01*
G37*
X170201166Y-109601000D02*
X170196289Y-109748486D01*
X170179002Y-109827670D01*
X170145317Y-109854499D01*
X170137666Y-109855000D01*
X170100795Y-109835493D01*
X170080998Y-109766342D01*
X170074291Y-109631604D01*
X170074166Y-109601000D01*
X170079043Y-109453513D01*
X170096330Y-109374329D01*
X170130015Y-109347500D01*
X170137666Y-109347000D01*
X170174538Y-109366506D01*
X170194334Y-109435657D01*
X170201041Y-109570395D01*
X170201166Y-109601000D01*
X170201166Y-109601000D01*
G36*
X170798362Y-109788037D02*
X170795241Y-109845296D01*
X170765493Y-109855000D01*
X170728481Y-109829938D01*
X170718642Y-109745032D01*
X170722877Y-109675083D01*
X170738825Y-109495166D01*
X170548085Y-109679965D01*
X170357345Y-109864764D01*
X170342756Y-109605805D01*
X170338293Y-109459659D01*
X170348070Y-109380009D01*
X170375531Y-109349377D01*
X170393749Y-109346922D01*
X170436250Y-109367197D01*
X170447074Y-109440399D01*
X170442065Y-109505750D01*
X170424799Y-109664500D01*
X170598733Y-109497158D01*
X170772666Y-109329817D01*
X170772666Y-109525446D01*
X170778032Y-109658722D01*
X170791532Y-109763178D01*
X170798362Y-109788037D01*
X170798362Y-109788037D01*
X170798362Y-109788037D01*
G37*
X170798362Y-109788037D02*
X170795241Y-109845296D01*
X170765493Y-109855000D01*
X170728481Y-109829938D01*
X170718642Y-109745032D01*
X170722877Y-109675083D01*
X170738825Y-109495166D01*
X170548085Y-109679965D01*
X170357345Y-109864764D01*
X170342756Y-109605805D01*
X170338293Y-109459659D01*
X170348070Y-109380009D01*
X170375531Y-109349377D01*
X170393749Y-109346922D01*
X170436250Y-109367197D01*
X170447074Y-109440399D01*
X170442065Y-109505750D01*
X170424799Y-109664500D01*
X170598733Y-109497158D01*
X170772666Y-109329817D01*
X170772666Y-109525446D01*
X170778032Y-109658722D01*
X170791532Y-109763178D01*
X170798362Y-109788037D01*
X170798362Y-109788037D01*
G36*
X171386500Y-109601000D02*
X171382041Y-109746853D01*
X171365677Y-109825418D01*
X171332928Y-109853746D01*
X171319748Y-109855000D01*
X171273986Y-109832496D01*
X171268402Y-109753111D01*
X171271636Y-109728000D01*
X171276815Y-109640479D01*
X171241080Y-109606483D01*
X171155107Y-109601000D01*
X171063503Y-109607448D01*
X171035264Y-109643508D01*
X171047833Y-109728000D01*
X171058813Y-109817871D01*
X171030571Y-109851824D01*
X170998280Y-109855077D01*
X170955571Y-109845181D01*
X170934547Y-109802661D01*
X170930467Y-109708430D01*
X170935176Y-109601077D01*
X170950194Y-109448216D01*
X170975825Y-109367661D01*
X171010066Y-109347000D01*
X171050817Y-109372477D01*
X171044050Y-109452833D01*
X171034551Y-109525467D01*
X171070797Y-109554048D01*
X171154012Y-109558666D01*
X171246511Y-109551308D01*
X171276635Y-109515943D01*
X171270305Y-109452833D01*
X171270033Y-109370830D01*
X171318287Y-109347000D01*
X171357298Y-109363000D01*
X171378331Y-109422620D01*
X171386067Y-109543289D01*
X171386500Y-109601000D01*
X171386500Y-109601000D01*
X171386500Y-109601000D01*
G37*
X171386500Y-109601000D02*
X171382041Y-109746853D01*
X171365677Y-109825418D01*
X171332928Y-109853746D01*
X171319748Y-109855000D01*
X171273986Y-109832496D01*
X171268402Y-109753111D01*
X171271636Y-109728000D01*
X171276815Y-109640479D01*
X171241080Y-109606483D01*
X171155107Y-109601000D01*
X171063503Y-109607448D01*
X171035264Y-109643508D01*
X171047833Y-109728000D01*
X171058813Y-109817871D01*
X171030571Y-109851824D01*
X170998280Y-109855077D01*
X170955571Y-109845181D01*
X170934547Y-109802661D01*
X170930467Y-109708430D01*
X170935176Y-109601077D01*
X170950194Y-109448216D01*
X170975825Y-109367661D01*
X171010066Y-109347000D01*
X171050817Y-109372477D01*
X171044050Y-109452833D01*
X171034551Y-109525467D01*
X171070797Y-109554048D01*
X171154012Y-109558666D01*
X171246511Y-109551308D01*
X171276635Y-109515943D01*
X171270305Y-109452833D01*
X171270033Y-109370830D01*
X171318287Y-109347000D01*
X171357298Y-109363000D01*
X171378331Y-109422620D01*
X171386067Y-109543289D01*
X171386500Y-109601000D01*
X171386500Y-109601000D01*
G36*
X171924590Y-109649981D02*
X171884786Y-109761473D01*
X171851131Y-109797492D01*
X171756149Y-109840245D01*
X171645772Y-109855498D01*
X171549205Y-109843860D01*
X171495649Y-109805940D01*
X171492333Y-109790010D01*
X171510965Y-109747239D01*
X171566416Y-109763123D01*
X171682255Y-109787190D01*
X171771975Y-109737804D01*
X171823129Y-109625069D01*
X171830351Y-109548889D01*
X171797641Y-109450972D01*
X171718428Y-109397670D01*
X171623055Y-109399154D01*
X171549246Y-109454682D01*
X171506193Y-109506515D01*
X171493163Y-109483827D01*
X171492333Y-109439757D01*
X171504625Y-109378851D01*
X171557018Y-109352334D01*
X171656483Y-109347000D01*
X171787716Y-109364643D01*
X171873181Y-109410416D01*
X171875205Y-109412755D01*
X171922207Y-109520786D01*
X171924590Y-109649981D01*
X171924590Y-109649981D01*
X171924590Y-109649981D01*
G37*
X171924590Y-109649981D02*
X171884786Y-109761473D01*
X171851131Y-109797492D01*
X171756149Y-109840245D01*
X171645772Y-109855498D01*
X171549205Y-109843860D01*
X171495649Y-109805940D01*
X171492333Y-109790010D01*
X171510965Y-109747239D01*
X171566416Y-109763123D01*
X171682255Y-109787190D01*
X171771975Y-109737804D01*
X171823129Y-109625069D01*
X171830351Y-109548889D01*
X171797641Y-109450972D01*
X171718428Y-109397670D01*
X171623055Y-109399154D01*
X171549246Y-109454682D01*
X171506193Y-109506515D01*
X171493163Y-109483827D01*
X171492333Y-109439757D01*
X171504625Y-109378851D01*
X171557018Y-109352334D01*
X171656483Y-109347000D01*
X171787716Y-109364643D01*
X171873181Y-109410416D01*
X171875205Y-109412755D01*
X171922207Y-109520786D01*
X171924590Y-109649981D01*
X171924590Y-109649981D01*
G36*
X172275500Y-109855000D02*
X172137916Y-109855000D01*
X172031851Y-109838233D01*
X172000333Y-109795463D01*
X172031449Y-109753864D01*
X172085000Y-109758067D01*
X172150754Y-109757064D01*
X172169605Y-109693102D01*
X172169666Y-109686074D01*
X172152027Y-109617464D01*
X172107522Y-109615788D01*
X172039403Y-109615337D01*
X172020357Y-109599151D01*
X172034293Y-109567251D01*
X172082501Y-109558666D01*
X172154507Y-109530442D01*
X172169666Y-109471147D01*
X172152775Y-109407873D01*
X172088477Y-109409414D01*
X172085000Y-109410500D01*
X172016824Y-109414548D01*
X172000333Y-109392186D01*
X172037335Y-109361434D01*
X172127466Y-109347130D01*
X172137916Y-109347000D01*
X172275500Y-109347000D01*
X172275500Y-109601000D01*
X172275500Y-109855000D01*
X172275500Y-109855000D01*
X172275500Y-109855000D01*
G37*
X172275500Y-109855000D02*
X172137916Y-109855000D01*
X172031851Y-109838233D01*
X172000333Y-109795463D01*
X172031449Y-109753864D01*
X172085000Y-109758067D01*
X172150754Y-109757064D01*
X172169605Y-109693102D01*
X172169666Y-109686074D01*
X172152027Y-109617464D01*
X172107522Y-109615788D01*
X172039403Y-109615337D01*
X172020357Y-109599151D01*
X172034293Y-109567251D01*
X172082501Y-109558666D01*
X172154507Y-109530442D01*
X172169666Y-109471147D01*
X172152775Y-109407873D01*
X172088477Y-109409414D01*
X172085000Y-109410500D01*
X172016824Y-109414548D01*
X172000333Y-109392186D01*
X172037335Y-109361434D01*
X172127466Y-109347130D01*
X172137916Y-109347000D01*
X172275500Y-109347000D01*
X172275500Y-109601000D01*
X172275500Y-109855000D01*
X172275500Y-109855000D01*
G36*
X173191303Y-109386401D02*
X173146677Y-109462577D01*
X173117921Y-109505449D01*
X173048428Y-109637376D01*
X173027074Y-109747157D01*
X173028660Y-109759449D01*
X173024648Y-109835588D01*
X172975461Y-109855000D01*
X172926097Y-109834775D01*
X172918490Y-109760809D01*
X172922220Y-109730837D01*
X172908778Y-109586376D01*
X172835205Y-109471251D01*
X172718168Y-109409475D01*
X172696894Y-109406186D01*
X172633270Y-109403540D01*
X172601766Y-109426397D01*
X172593601Y-109494522D01*
X172599809Y-109624709D01*
X172603519Y-109761823D01*
X172590233Y-109832746D01*
X172556235Y-109854905D01*
X172550666Y-109855115D01*
X172514391Y-109837978D01*
X172498734Y-109774996D01*
X172500125Y-109648808D01*
X172501909Y-109618051D01*
X172508061Y-109484394D01*
X172500801Y-109417287D01*
X172473809Y-109398910D01*
X172427826Y-109409179D01*
X172356492Y-109414944D01*
X172339000Y-109392186D01*
X172378792Y-109366648D01*
X172488665Y-109350927D01*
X172611313Y-109347000D01*
X172762442Y-109350490D01*
X172849744Y-109364864D01*
X172893910Y-109395977D01*
X172910500Y-109431666D01*
X172950191Y-109500130D01*
X172980815Y-109516333D01*
X173025291Y-109481025D01*
X173046400Y-109431666D01*
X173097408Y-109362770D01*
X173146994Y-109347000D01*
X173190311Y-109353858D01*
X173191303Y-109386401D01*
X173191303Y-109386401D01*
X173191303Y-109386401D01*
G37*
X173191303Y-109386401D02*
X173146677Y-109462577D01*
X173117921Y-109505449D01*
X173048428Y-109637376D01*
X173027074Y-109747157D01*
X173028660Y-109759449D01*
X173024648Y-109835588D01*
X172975461Y-109855000D01*
X172926097Y-109834775D01*
X172918490Y-109760809D01*
X172922220Y-109730837D01*
X172908778Y-109586376D01*
X172835205Y-109471251D01*
X172718168Y-109409475D01*
X172696894Y-109406186D01*
X172633270Y-109403540D01*
X172601766Y-109426397D01*
X172593601Y-109494522D01*
X172599809Y-109624709D01*
X172603519Y-109761823D01*
X172590233Y-109832746D01*
X172556235Y-109854905D01*
X172550666Y-109855115D01*
X172514391Y-109837978D01*
X172498734Y-109774996D01*
X172500125Y-109648808D01*
X172501909Y-109618051D01*
X172508061Y-109484394D01*
X172500801Y-109417287D01*
X172473809Y-109398910D01*
X172427826Y-109409179D01*
X172356492Y-109414944D01*
X172339000Y-109392186D01*
X172378792Y-109366648D01*
X172488665Y-109350927D01*
X172611313Y-109347000D01*
X172762442Y-109350490D01*
X172849744Y-109364864D01*
X172893910Y-109395977D01*
X172910500Y-109431666D01*
X172950191Y-109500130D01*
X172980815Y-109516333D01*
X173025291Y-109481025D01*
X173046400Y-109431666D01*
X173097408Y-109362770D01*
X173146994Y-109347000D01*
X173190311Y-109353858D01*
X173191303Y-109386401D01*
X173191303Y-109386401D01*
G36*
X173460833Y-109855039D02*
X173323250Y-109855019D01*
X173217190Y-109838237D01*
X173185666Y-109795463D01*
X173216667Y-109754055D01*
X173274831Y-109759243D01*
X173326511Y-109766304D01*
X173350677Y-109739527D01*
X173354466Y-109660180D01*
X173348914Y-109564754D01*
X173344992Y-109432324D01*
X173359550Y-109365653D01*
X173396514Y-109347094D01*
X173397333Y-109347092D01*
X173434219Y-109366725D01*
X173454017Y-109436041D01*
X173460711Y-109570985D01*
X173460833Y-109601137D01*
X173460833Y-109855039D01*
X173460833Y-109855039D01*
X173460833Y-109855039D01*
G37*
X173460833Y-109855039D02*
X173323250Y-109855019D01*
X173217190Y-109838237D01*
X173185666Y-109795463D01*
X173216667Y-109754055D01*
X173274831Y-109759243D01*
X173326511Y-109766304D01*
X173350677Y-109739527D01*
X173354466Y-109660180D01*
X173348914Y-109564754D01*
X173344992Y-109432324D01*
X173359550Y-109365653D01*
X173396514Y-109347094D01*
X173397333Y-109347092D01*
X173434219Y-109366725D01*
X173454017Y-109436041D01*
X173460711Y-109570985D01*
X173460833Y-109601137D01*
X173460833Y-109855039D01*
X173460833Y-109855039D01*
G36*
X174074666Y-109608355D02*
X174039066Y-109731174D01*
X173982498Y-109784533D01*
X173982498Y-109536388D01*
X173940947Y-109441874D01*
X173861152Y-109391672D01*
X173836390Y-109389333D01*
X173753365Y-109424678D01*
X173681461Y-109507333D01*
X173651333Y-109601000D01*
X173678922Y-109688310D01*
X173742521Y-109770672D01*
X173813375Y-109812143D01*
X173820666Y-109812666D01*
X173876656Y-109785773D01*
X173923476Y-109746142D01*
X173978956Y-109647162D01*
X173982498Y-109536388D01*
X173982498Y-109784533D01*
X173949287Y-109815861D01*
X173830861Y-109852551D01*
X173709319Y-109831376D01*
X173636727Y-109777583D01*
X173577361Y-109659652D01*
X173575638Y-109525975D01*
X173631927Y-109414799D01*
X173633190Y-109413523D01*
X173746296Y-109350829D01*
X173870857Y-109354207D01*
X173982629Y-109412959D01*
X174057366Y-109516384D01*
X174074666Y-109608355D01*
X174074666Y-109608355D01*
X174074666Y-109608355D01*
G37*
X174074666Y-109608355D02*
X174039066Y-109731174D01*
X173982498Y-109784533D01*
X173982498Y-109536388D01*
X173940947Y-109441874D01*
X173861152Y-109391672D01*
X173836390Y-109389333D01*
X173753365Y-109424678D01*
X173681461Y-109507333D01*
X173651333Y-109601000D01*
X173678922Y-109688310D01*
X173742521Y-109770672D01*
X173813375Y-109812143D01*
X173820666Y-109812666D01*
X173876656Y-109785773D01*
X173923476Y-109746142D01*
X173978956Y-109647162D01*
X173982498Y-109536388D01*
X173982498Y-109784533D01*
X173949287Y-109815861D01*
X173830861Y-109852551D01*
X173709319Y-109831376D01*
X173636727Y-109777583D01*
X173577361Y-109659652D01*
X173575638Y-109525975D01*
X173631927Y-109414799D01*
X173633190Y-109413523D01*
X173746296Y-109350829D01*
X173870857Y-109354207D01*
X173982629Y-109412959D01*
X174057366Y-109516384D01*
X174074666Y-109608355D01*
X174074666Y-109608355D01*
G36*
X174434500Y-109601000D02*
X174430203Y-109746264D01*
X174414191Y-109824584D01*
X174381785Y-109853389D01*
X174366287Y-109855000D01*
X174328666Y-109836379D01*
X174328666Y-109486095D01*
X174323759Y-109408631D01*
X174298322Y-109404829D01*
X174260157Y-109439699D01*
X174217403Y-109510967D01*
X174220322Y-109554604D01*
X174272922Y-109600404D01*
X174313905Y-109570925D01*
X174328666Y-109486095D01*
X174328666Y-109836379D01*
X174318002Y-109831101D01*
X174318305Y-109749166D01*
X174318401Y-109666848D01*
X174271591Y-109643333D01*
X174200731Y-109609551D01*
X174157885Y-109555960D01*
X174139002Y-109454591D01*
X174192229Y-109380162D01*
X174305889Y-109347426D01*
X174323266Y-109347000D01*
X174384874Y-109351742D01*
X174418132Y-109379251D01*
X174431763Y-109449445D01*
X174434491Y-109582245D01*
X174434500Y-109601000D01*
X174434500Y-109601000D01*
X174434500Y-109601000D01*
G37*
X174434500Y-109601000D02*
X174430203Y-109746264D01*
X174414191Y-109824584D01*
X174381785Y-109853389D01*
X174366287Y-109855000D01*
X174328666Y-109836379D01*
X174328666Y-109486095D01*
X174323759Y-109408631D01*
X174298322Y-109404829D01*
X174260157Y-109439699D01*
X174217403Y-109510967D01*
X174220322Y-109554604D01*
X174272922Y-109600404D01*
X174313905Y-109570925D01*
X174328666Y-109486095D01*
X174328666Y-109836379D01*
X174318002Y-109831101D01*
X174318305Y-109749166D01*
X174318401Y-109666848D01*
X174271591Y-109643333D01*
X174200731Y-109609551D01*
X174157885Y-109555960D01*
X174139002Y-109454591D01*
X174192229Y-109380162D01*
X174305889Y-109347426D01*
X174323266Y-109347000D01*
X174384874Y-109351742D01*
X174418132Y-109379251D01*
X174431763Y-109449445D01*
X174434491Y-109582245D01*
X174434500Y-109601000D01*
X174434500Y-109601000D01*
G36*
X175027166Y-109855000D02*
X174889583Y-109855000D01*
X174783518Y-109838233D01*
X174752000Y-109795463D01*
X174783116Y-109753864D01*
X174836666Y-109758067D01*
X174902749Y-109756872D01*
X174921306Y-109692271D01*
X174921333Y-109687751D01*
X174905864Y-109620993D01*
X174845701Y-109619427D01*
X174836666Y-109622166D01*
X174768491Y-109626215D01*
X174752000Y-109603852D01*
X174787428Y-109567150D01*
X174836666Y-109558666D01*
X174906964Y-109529215D01*
X174921333Y-109471147D01*
X174904442Y-109407873D01*
X174840144Y-109409414D01*
X174836666Y-109410500D01*
X174768491Y-109414548D01*
X174752000Y-109392186D01*
X174789002Y-109361434D01*
X174879133Y-109347130D01*
X174889583Y-109347000D01*
X175027166Y-109347000D01*
X175027166Y-109601000D01*
X175027166Y-109855000D01*
X175027166Y-109855000D01*
X175027166Y-109855000D01*
G37*
X175027166Y-109855000D02*
X174889583Y-109855000D01*
X174783518Y-109838233D01*
X174752000Y-109795463D01*
X174783116Y-109753864D01*
X174836666Y-109758067D01*
X174902749Y-109756872D01*
X174921306Y-109692271D01*
X174921333Y-109687751D01*
X174905864Y-109620993D01*
X174845701Y-109619427D01*
X174836666Y-109622166D01*
X174768491Y-109626215D01*
X174752000Y-109603852D01*
X174787428Y-109567150D01*
X174836666Y-109558666D01*
X174906964Y-109529215D01*
X174921333Y-109471147D01*
X174904442Y-109407873D01*
X174840144Y-109409414D01*
X174836666Y-109410500D01*
X174768491Y-109414548D01*
X174752000Y-109392186D01*
X174789002Y-109361434D01*
X174879133Y-109347130D01*
X174889583Y-109347000D01*
X175027166Y-109347000D01*
X175027166Y-109601000D01*
X175027166Y-109855000D01*
X175027166Y-109855000D01*
G36*
X175387000Y-109855000D02*
X175238833Y-109855000D01*
X175125796Y-109839426D01*
X175090666Y-109795463D01*
X175121667Y-109754055D01*
X175179831Y-109759243D01*
X175231511Y-109766304D01*
X175255677Y-109739527D01*
X175259466Y-109660180D01*
X175253914Y-109564754D01*
X175249149Y-109435192D01*
X175261738Y-109369536D01*
X175297074Y-109347871D01*
X175312916Y-109346973D01*
X175354778Y-109359893D01*
X175377389Y-109410932D01*
X175386139Y-109518567D01*
X175387000Y-109601000D01*
X175387000Y-109855000D01*
X175387000Y-109855000D01*
X175387000Y-109855000D01*
G37*
X175387000Y-109855000D02*
X175238833Y-109855000D01*
X175125796Y-109839426D01*
X175090666Y-109795463D01*
X175121667Y-109754055D01*
X175179831Y-109759243D01*
X175231511Y-109766304D01*
X175255677Y-109739527D01*
X175259466Y-109660180D01*
X175253914Y-109564754D01*
X175249149Y-109435192D01*
X175261738Y-109369536D01*
X175297074Y-109347871D01*
X175312916Y-109346973D01*
X175354778Y-109359893D01*
X175377389Y-109410932D01*
X175386139Y-109518567D01*
X175387000Y-109601000D01*
X175387000Y-109855000D01*
X175387000Y-109855000D01*
G36*
X175993777Y-109609247D02*
X175959518Y-109739352D01*
X175893969Y-109802625D01*
X175893969Y-109582580D01*
X175865059Y-109474261D01*
X175827951Y-109428721D01*
X175747702Y-109401176D01*
X175674768Y-109437165D01*
X175621169Y-109515684D01*
X175598922Y-109615731D01*
X175620045Y-109716303D01*
X175643124Y-109751726D01*
X175692825Y-109802241D01*
X175741785Y-109803551D01*
X175813116Y-109768843D01*
X175876109Y-109693277D01*
X175893969Y-109582580D01*
X175893969Y-109802625D01*
X175871871Y-109823956D01*
X175753533Y-109854702D01*
X175627202Y-109823230D01*
X175556333Y-109770333D01*
X175485617Y-109651614D01*
X175485838Y-109528820D01*
X175547322Y-109423767D01*
X175660395Y-109358270D01*
X175744050Y-109347000D01*
X175885710Y-109376735D01*
X175968453Y-109466934D01*
X175993777Y-109609247D01*
X175993777Y-109609247D01*
X175993777Y-109609247D01*
G37*
X175993777Y-109609247D02*
X175959518Y-109739352D01*
X175893969Y-109802625D01*
X175893969Y-109582580D01*
X175865059Y-109474261D01*
X175827951Y-109428721D01*
X175747702Y-109401176D01*
X175674768Y-109437165D01*
X175621169Y-109515684D01*
X175598922Y-109615731D01*
X175620045Y-109716303D01*
X175643124Y-109751726D01*
X175692825Y-109802241D01*
X175741785Y-109803551D01*
X175813116Y-109768843D01*
X175876109Y-109693277D01*
X175893969Y-109582580D01*
X175893969Y-109802625D01*
X175871871Y-109823956D01*
X175753533Y-109854702D01*
X175627202Y-109823230D01*
X175556333Y-109770333D01*
X175485617Y-109651614D01*
X175485838Y-109528820D01*
X175547322Y-109423767D01*
X175660395Y-109358270D01*
X175744050Y-109347000D01*
X175885710Y-109376735D01*
X175968453Y-109466934D01*
X175993777Y-109609247D01*
X175993777Y-109609247D01*
G36*
X176487996Y-109581000D02*
X176470674Y-109703039D01*
X176421142Y-109788476D01*
X176338365Y-109835923D01*
X176232771Y-109855500D01*
X176134143Y-109847385D01*
X176072260Y-109811761D01*
X176064333Y-109786316D01*
X176075534Y-109741405D01*
X176121886Y-109765453D01*
X176127621Y-109770157D01*
X176189273Y-109798685D01*
X176265533Y-109772594D01*
X176299510Y-109751523D01*
X176374890Y-109667465D01*
X176394936Y-109568613D01*
X176369277Y-109476082D01*
X176307542Y-109410989D01*
X176219360Y-109394452D01*
X176149146Y-109421750D01*
X176085080Y-109452910D01*
X176065025Y-109427962D01*
X176064333Y-109410858D01*
X176100169Y-109366213D01*
X176188510Y-109347040D01*
X176300602Y-109355024D01*
X176405783Y-109390822D01*
X176465915Y-109465261D01*
X176487996Y-109581000D01*
X176487996Y-109581000D01*
X176487996Y-109581000D01*
G37*
X176487996Y-109581000D02*
X176470674Y-109703039D01*
X176421142Y-109788476D01*
X176338365Y-109835923D01*
X176232771Y-109855500D01*
X176134143Y-109847385D01*
X176072260Y-109811761D01*
X176064333Y-109786316D01*
X176075534Y-109741405D01*
X176121886Y-109765453D01*
X176127621Y-109770157D01*
X176189273Y-109798685D01*
X176265533Y-109772594D01*
X176299510Y-109751523D01*
X176374890Y-109667465D01*
X176394936Y-109568613D01*
X176369277Y-109476082D01*
X176307542Y-109410989D01*
X176219360Y-109394452D01*
X176149146Y-109421750D01*
X176085080Y-109452910D01*
X176065025Y-109427962D01*
X176064333Y-109410858D01*
X176100169Y-109366213D01*
X176188510Y-109347040D01*
X176300602Y-109355024D01*
X176405783Y-109390822D01*
X176465915Y-109465261D01*
X176487996Y-109581000D01*
X176487996Y-109581000D01*
G36*
X176847500Y-109855000D02*
X176709916Y-109855000D01*
X176603851Y-109838233D01*
X176572333Y-109795463D01*
X176603449Y-109753864D01*
X176657000Y-109758067D01*
X176723082Y-109756872D01*
X176741640Y-109692271D01*
X176741666Y-109687751D01*
X176726198Y-109620993D01*
X176666035Y-109619427D01*
X176657000Y-109622166D01*
X176588824Y-109626215D01*
X176572333Y-109603852D01*
X176607762Y-109567150D01*
X176657000Y-109558666D01*
X176727298Y-109529215D01*
X176741666Y-109471147D01*
X176724775Y-109407873D01*
X176660477Y-109409414D01*
X176657000Y-109410500D01*
X176588824Y-109414548D01*
X176572333Y-109392186D01*
X176607274Y-109353562D01*
X176646416Y-109346351D01*
X176694982Y-109339102D01*
X176663403Y-109309622D01*
X176658225Y-109306320D01*
X176617527Y-109261232D01*
X176621436Y-109241452D01*
X176666862Y-109246693D01*
X176712436Y-109281484D01*
X176779449Y-109334263D01*
X176812726Y-109347000D01*
X176831066Y-109385460D01*
X176843667Y-109485425D01*
X176847500Y-109601000D01*
X176847500Y-109855000D01*
X176847500Y-109855000D01*
X176847500Y-109855000D01*
G37*
X176847500Y-109855000D02*
X176709916Y-109855000D01*
X176603851Y-109838233D01*
X176572333Y-109795463D01*
X176603449Y-109753864D01*
X176657000Y-109758067D01*
X176723082Y-109756872D01*
X176741640Y-109692271D01*
X176741666Y-109687751D01*
X176726198Y-109620993D01*
X176666035Y-109619427D01*
X176657000Y-109622166D01*
X176588824Y-109626215D01*
X176572333Y-109603852D01*
X176607762Y-109567150D01*
X176657000Y-109558666D01*
X176727298Y-109529215D01*
X176741666Y-109471147D01*
X176724775Y-109407873D01*
X176660477Y-109409414D01*
X176657000Y-109410500D01*
X176588824Y-109414548D01*
X176572333Y-109392186D01*
X176607274Y-109353562D01*
X176646416Y-109346351D01*
X176694982Y-109339102D01*
X176663403Y-109309622D01*
X176658225Y-109306320D01*
X176617527Y-109261232D01*
X176621436Y-109241452D01*
X176666862Y-109246693D01*
X176712436Y-109281484D01*
X176779449Y-109334263D01*
X176812726Y-109347000D01*
X176831066Y-109385460D01*
X176843667Y-109485425D01*
X176847500Y-109601000D01*
X176847500Y-109855000D01*
X176847500Y-109855000D01*
G36*
X171323000Y-106595333D02*
X171322264Y-107283250D01*
X171315631Y-107670834D01*
X171295101Y-107989320D01*
X171258362Y-108253482D01*
X171203100Y-108478091D01*
X171127003Y-108677921D01*
X171092717Y-108749298D01*
X170982907Y-108966000D01*
X169777120Y-108966000D01*
X168571333Y-108966000D01*
X168571333Y-107780666D01*
X168571333Y-106595333D01*
X169947166Y-106595333D01*
X171323000Y-106595333D01*
X171323000Y-106595333D01*
X171323000Y-106595333D01*
G37*
X171323000Y-106595333D02*
X171322264Y-107283250D01*
X171315631Y-107670834D01*
X171295101Y-107989320D01*
X171258362Y-108253482D01*
X171203100Y-108478091D01*
X171127003Y-108677921D01*
X171092717Y-108749298D01*
X170982907Y-108966000D01*
X169777120Y-108966000D01*
X168571333Y-108966000D01*
X168571333Y-107780666D01*
X168571333Y-106595333D01*
X169947166Y-106595333D01*
X171323000Y-106595333D01*
X171323000Y-106595333D01*
G36*
X171831000Y-106595333D02*
X171830497Y-107389083D01*
X171827372Y-107734817D01*
X171817059Y-108011221D01*
X171797423Y-108233478D01*
X171766327Y-108416775D01*
X171721634Y-108576296D01*
X171661208Y-108727225D01*
X171634173Y-108784469D01*
X171571507Y-108890333D01*
X171499233Y-108940220D01*
X171391444Y-108958308D01*
X171284667Y-108960020D01*
X171247319Y-108938618D01*
X171251468Y-108915974D01*
X171338161Y-108718451D01*
X171403390Y-108564806D01*
X171450383Y-108437904D01*
X171482369Y-108320606D01*
X171502576Y-108195779D01*
X171514231Y-108046284D01*
X171520562Y-107854987D01*
X171524798Y-107604750D01*
X171527132Y-107452583D01*
X171540907Y-106595333D01*
X171685953Y-106595333D01*
X171831000Y-106595333D01*
X171831000Y-106595333D01*
X171831000Y-106595333D01*
G37*
X171831000Y-106595333D02*
X171830497Y-107389083D01*
X171827372Y-107734817D01*
X171817059Y-108011221D01*
X171797423Y-108233478D01*
X171766327Y-108416775D01*
X171721634Y-108576296D01*
X171661208Y-108727225D01*
X171634173Y-108784469D01*
X171571507Y-108890333D01*
X171499233Y-108940220D01*
X171391444Y-108958308D01*
X171284667Y-108960020D01*
X171247319Y-108938618D01*
X171251468Y-108915974D01*
X171338161Y-108718451D01*
X171403390Y-108564806D01*
X171450383Y-108437904D01*
X171482369Y-108320606D01*
X171502576Y-108195779D01*
X171514231Y-108046284D01*
X171520562Y-107854987D01*
X171524798Y-107604750D01*
X171527132Y-107452583D01*
X171540907Y-106595333D01*
X171685953Y-106595333D01*
X171831000Y-106595333D01*
X171831000Y-106595333D01*
G36*
X172550666Y-108966000D02*
X172402500Y-108966000D01*
X172254333Y-108966000D01*
X172254333Y-108436833D01*
X172254333Y-107907666D01*
X172106166Y-107907666D01*
X172006619Y-107900586D01*
X171965788Y-107864676D01*
X171958000Y-107780666D01*
X171966259Y-107695340D01*
X172008154Y-107660342D01*
X172106166Y-107653666D01*
X172210451Y-107642802D01*
X172251112Y-107603860D01*
X172253830Y-107579583D01*
X172237914Y-107462714D01*
X172196761Y-107296335D01*
X172138588Y-107108717D01*
X172071608Y-106928129D01*
X172049232Y-106875483D01*
X171997822Y-106752794D01*
X171964735Y-106661408D01*
X171958000Y-106632285D01*
X171995257Y-106607954D01*
X172086980Y-106595687D01*
X172107671Y-106595333D01*
X172199349Y-106602311D01*
X172258504Y-106636740D01*
X172308905Y-106718857D01*
X172343378Y-106796049D01*
X172418016Y-106989887D01*
X172473251Y-107185579D01*
X172511571Y-107400448D01*
X172535463Y-107651821D01*
X172547414Y-107957024D01*
X172550040Y-108235750D01*
X172550666Y-108966000D01*
X172550666Y-108966000D01*
X172550666Y-108966000D01*
G37*
X172550666Y-108966000D02*
X172402500Y-108966000D01*
X172254333Y-108966000D01*
X172254333Y-108436833D01*
X172254333Y-107907666D01*
X172106166Y-107907666D01*
X172006619Y-107900586D01*
X171965788Y-107864676D01*
X171958000Y-107780666D01*
X171966259Y-107695340D01*
X172008154Y-107660342D01*
X172106166Y-107653666D01*
X172210451Y-107642802D01*
X172251112Y-107603860D01*
X172253830Y-107579583D01*
X172237914Y-107462714D01*
X172196761Y-107296335D01*
X172138588Y-107108717D01*
X172071608Y-106928129D01*
X172049232Y-106875483D01*
X171997822Y-106752794D01*
X171964735Y-106661408D01*
X171958000Y-106632285D01*
X171995257Y-106607954D01*
X172086980Y-106595687D01*
X172107671Y-106595333D01*
X172199349Y-106602311D01*
X172258504Y-106636740D01*
X172308905Y-106718857D01*
X172343378Y-106796049D01*
X172418016Y-106989887D01*
X172473251Y-107185579D01*
X172511571Y-107400448D01*
X172535463Y-107651821D01*
X172547414Y-107957024D01*
X172550040Y-108235750D01*
X172550666Y-108966000D01*
X172550666Y-108966000D01*
G36*
X173439666Y-108966000D02*
X173291500Y-108966000D01*
X173143333Y-108966000D01*
X173143333Y-107780666D01*
X173143333Y-106595333D01*
X173291500Y-106595333D01*
X173439666Y-106595333D01*
X173439666Y-107780666D01*
X173439666Y-108966000D01*
X173439666Y-108966000D01*
X173439666Y-108966000D01*
G37*
X173439666Y-108966000D02*
X173291500Y-108966000D01*
X173143333Y-108966000D01*
X173143333Y-107780666D01*
X173143333Y-106595333D01*
X173291500Y-106595333D01*
X173439666Y-106595333D01*
X173439666Y-107780666D01*
X173439666Y-108966000D01*
X173439666Y-108966000D01*
G36*
X174212706Y-107801833D02*
X174202848Y-108108212D01*
X174162714Y-108368493D01*
X174085384Y-108617958D01*
X174023779Y-108764916D01*
X173965626Y-108883286D01*
X173913543Y-108942911D01*
X173842430Y-108963768D01*
X173771096Y-108966000D01*
X173667714Y-108960760D01*
X173612080Y-108947737D01*
X173609000Y-108943343D01*
X173629469Y-108894566D01*
X173669338Y-108826927D01*
X173733288Y-108699254D01*
X173798791Y-108523957D01*
X173855845Y-108333655D01*
X173894451Y-108160966D01*
X173905333Y-108057168D01*
X173898414Y-107957036D01*
X173863170Y-107915729D01*
X173778333Y-107907666D01*
X173688379Y-107897177D01*
X173655224Y-107847696D01*
X173651333Y-107780666D01*
X173661822Y-107690712D01*
X173711303Y-107657557D01*
X173778333Y-107653666D01*
X173868511Y-107642878D01*
X173901477Y-107594323D01*
X173904766Y-107537250D01*
X173890240Y-107448343D01*
X173851833Y-107302752D01*
X173796527Y-107122634D01*
X173731304Y-106930147D01*
X173663145Y-106747446D01*
X173631303Y-106669416D01*
X173623148Y-106620015D01*
X173667428Y-106599017D01*
X173751550Y-106595333D01*
X173835710Y-106603239D01*
X173901650Y-106635488D01*
X173958188Y-106704874D01*
X174014139Y-106824193D01*
X174078319Y-107006240D01*
X174116161Y-107124500D01*
X174183109Y-107408032D01*
X174211195Y-107723355D01*
X174212706Y-107801833D01*
X174212706Y-107801833D01*
X174212706Y-107801833D01*
G37*
X174212706Y-107801833D02*
X174202848Y-108108212D01*
X174162714Y-108368493D01*
X174085384Y-108617958D01*
X174023779Y-108764916D01*
X173965626Y-108883286D01*
X173913543Y-108942911D01*
X173842430Y-108963768D01*
X173771096Y-108966000D01*
X173667714Y-108960760D01*
X173612080Y-108947737D01*
X173609000Y-108943343D01*
X173629469Y-108894566D01*
X173669338Y-108826927D01*
X173733288Y-108699254D01*
X173798791Y-108523957D01*
X173855845Y-108333655D01*
X173894451Y-108160966D01*
X173905333Y-108057168D01*
X173898414Y-107957036D01*
X173863170Y-107915729D01*
X173778333Y-107907666D01*
X173688379Y-107897177D01*
X173655224Y-107847696D01*
X173651333Y-107780666D01*
X173661822Y-107690712D01*
X173711303Y-107657557D01*
X173778333Y-107653666D01*
X173868511Y-107642878D01*
X173901477Y-107594323D01*
X173904766Y-107537250D01*
X173890240Y-107448343D01*
X173851833Y-107302752D01*
X173796527Y-107122634D01*
X173731304Y-106930147D01*
X173663145Y-106747446D01*
X173631303Y-106669416D01*
X173623148Y-106620015D01*
X173667428Y-106599017D01*
X173751550Y-106595333D01*
X173835710Y-106603239D01*
X173901650Y-106635488D01*
X173958188Y-106704874D01*
X174014139Y-106824193D01*
X174078319Y-107006240D01*
X174116161Y-107124500D01*
X174183109Y-107408032D01*
X174211195Y-107723355D01*
X174212706Y-107801833D01*
X174212706Y-107801833D01*
G36*
X176868666Y-108966000D02*
X175515947Y-108966000D01*
X174163228Y-108966000D01*
X174266258Y-108743750D01*
X174399350Y-108358740D01*
X174452793Y-107949033D01*
X174426547Y-107513677D01*
X174320574Y-107051722D01*
X174181328Y-106669416D01*
X174177046Y-106648969D01*
X174188780Y-106632663D01*
X174224882Y-106620033D01*
X174293709Y-106610612D01*
X174403614Y-106603935D01*
X174562953Y-106599535D01*
X174780079Y-106596947D01*
X175063348Y-106595704D01*
X175421114Y-106595341D01*
X175509470Y-106595333D01*
X176868666Y-106595333D01*
X176868666Y-107780666D01*
X176868666Y-108966000D01*
X176868666Y-108966000D01*
X176868666Y-108966000D01*
G37*
X176868666Y-108966000D02*
X175515947Y-108966000D01*
X174163228Y-108966000D01*
X174266258Y-108743750D01*
X174399350Y-108358740D01*
X174452793Y-107949033D01*
X174426547Y-107513677D01*
X174320574Y-107051722D01*
X174181328Y-106669416D01*
X174177046Y-106648969D01*
X174188780Y-106632663D01*
X174224882Y-106620033D01*
X174293709Y-106610612D01*
X174403614Y-106603935D01*
X174562953Y-106599535D01*
X174780079Y-106596947D01*
X175063348Y-106595704D01*
X175421114Y-106595341D01*
X175509470Y-106595333D01*
X176868666Y-106595333D01*
X176868666Y-107780666D01*
X176868666Y-108966000D01*
X176868666Y-108966000D01*
G36*
X173101000Y-107806456D02*
X173063686Y-107817328D01*
X172971771Y-107822833D01*
X172950452Y-107823000D01*
X172858341Y-107816018D01*
X172798456Y-107781679D01*
X172746865Y-107699894D01*
X172710921Y-107621916D01*
X172638074Y-107370285D01*
X172627625Y-107105646D01*
X172679384Y-106857594D01*
X172716358Y-106771805D01*
X172780297Y-106661935D01*
X172842006Y-106610180D01*
X172929618Y-106595622D01*
X172953693Y-106595333D01*
X173051352Y-106599517D01*
X173099833Y-106609797D01*
X173101000Y-106611877D01*
X173085043Y-106656728D01*
X173044488Y-106752057D01*
X173017263Y-106812960D01*
X172961235Y-106988290D01*
X172934207Y-107179313D01*
X172933526Y-107209166D01*
X172954040Y-107396001D01*
X173006047Y-107578932D01*
X173017263Y-107605372D01*
X173066285Y-107716561D01*
X173096429Y-107791004D01*
X173101000Y-107806456D01*
X173101000Y-107806456D01*
X173101000Y-107806456D01*
G37*
X173101000Y-107806456D02*
X173063686Y-107817328D01*
X172971771Y-107822833D01*
X172950452Y-107823000D01*
X172858341Y-107816018D01*
X172798456Y-107781679D01*
X172746865Y-107699894D01*
X172710921Y-107621916D01*
X172638074Y-107370285D01*
X172627625Y-107105646D01*
X172679384Y-106857594D01*
X172716358Y-106771805D01*
X172780297Y-106661935D01*
X172842006Y-106610180D01*
X172929618Y-106595622D01*
X172953693Y-106595333D01*
X173051352Y-106599517D01*
X173099833Y-106609797D01*
X173101000Y-106611877D01*
X173085043Y-106656728D01*
X173044488Y-106752057D01*
X173017263Y-106812960D01*
X172961235Y-106988290D01*
X172934207Y-107179313D01*
X172933526Y-107209166D01*
X172954040Y-107396001D01*
X173006047Y-107578932D01*
X173017263Y-107605372D01*
X173066285Y-107716561D01*
X173096429Y-107791004D01*
X173101000Y-107806456D01*
X173101000Y-107806456D01*
D12*
X187614571Y-95142857D02*
X187400285Y-95214286D01*
X187328857Y-95285714D01*
X187257428Y-95428571D01*
X187257428Y-95642857D01*
X187328857Y-95785714D01*
X187400285Y-95857143D01*
X187543143Y-95928571D01*
X188114571Y-95928571D01*
X188114571Y-94428571D01*
X187614571Y-94428571D01*
X187471714Y-94500000D01*
X187400285Y-94571429D01*
X187328857Y-94714286D01*
X187328857Y-94857143D01*
X187400285Y-95000000D01*
X187471714Y-95071429D01*
X187614571Y-95142857D01*
X188114571Y-95142857D01*
X186828857Y-94428571D02*
X185971714Y-94428571D01*
X186400285Y-95928571D02*
X186400285Y-94428571D01*
X184686000Y-95928571D02*
X185543143Y-95928571D01*
X185114571Y-95928571D02*
X185114571Y-94428571D01*
X185257428Y-94642857D01*
X185400286Y-94785714D01*
X185543143Y-94857143D01*
M02*
