M48
INCH,TZ
T1C0.025
T2C0.039
T3C0.040
T4C0.120
%
G90
G05
T1
X42250Y-41500
X42250Y-44500
X43250Y-41500
X43250Y-44500
X53250Y-41250
X53250Y-42250
X53250Y-43250
X55000Y-42250
X55250Y-38250
X55750Y-40000
X56250Y-41250
X56500Y-35000
X56500Y-39000
X57250Y-43500
X58000Y-41250
X58750Y-35000
X59500Y-41250
X60000Y-39000
X60750Y-33250
X62000Y-35000
X63000Y-39000
X68000Y-31250
X71750Y-29250
T2
X70687Y-41687
X70687Y-43813
X71750Y-42750
X72813Y-41687
X72813Y-43813
T3
X47750Y-44500
X48000Y-27250
X48000Y-28250
X48000Y-46250
X48000Y-47250
X48750Y-44500
X49000Y-27250
X49000Y-28250
X49000Y-46250
X49000Y-47250
X50000Y-27250
X50000Y-28250
X50000Y-46250
X50000Y-47250
X51000Y-27250
X51000Y-28250
X51000Y-46250
X51000Y-47250
X51250Y-32250
X51250Y-33250
X51250Y-34250
X51250Y-35250
X51250Y-36250
X51250Y-37250
X51250Y-38250
X51250Y-39250
X52000Y-27250
X52000Y-28250
X52000Y-46250
X52000Y-47250
X52250Y-32250
X52250Y-33250
X52250Y-34250
X52250Y-35250
X52250Y-36250
X52250Y-37250
X52250Y-38250
X52250Y-39250
X53000Y-27250
X53000Y-28250
X53000Y-46250
X53000Y-47250
X53250Y-32250
X53250Y-33250
X53250Y-34250
X53250Y-35250
X53250Y-36250
X53250Y-37250
X53250Y-38250
X53250Y-39250
X54000Y-27250
X54000Y-28250
X54000Y-46250
X54000Y-47250
X55000Y-27250
X55000Y-28250
X55000Y-46250
X55000Y-47250
X55250Y-32250
X55250Y-33250
X55250Y-34250
X55250Y-35250
X55250Y-36250
X56000Y-27250
X56000Y-28250
X56000Y-46250
X56000Y-47250
X56750Y-42500
X57000Y-27250
X57000Y-28250
X57000Y-46250
X57000Y-47250
X57750Y-42500
X58000Y-27250
X58000Y-28250
X58000Y-46250
X58000Y-47250
X58750Y-42500
X59000Y-27250
X59000Y-28250
X59000Y-46250
X59000Y-47250
X59750Y-42500
X60000Y-27250
X60000Y-28250
X60000Y-46250
X60000Y-47250
X61000Y-27250
X61000Y-28250
X61000Y-46250
X61000Y-47250
X62000Y-27250
X62000Y-28250
X62000Y-46250
X62000Y-47250
X62500Y-29750
X62500Y-30750
X62500Y-31750
X62500Y-32750
X63000Y-27250
X63000Y-28250
X63000Y-46250
X63000Y-47250
X64000Y-27250
X64000Y-28250
X64000Y-46250
X64000Y-47250
X65000Y-27250
X65000Y-28250
X65000Y-46250
X65000Y-47250
X66000Y-27250
X66000Y-28250
X66000Y-46250
X66000Y-47250
X67000Y-27250
X67000Y-28250
X67000Y-46250
X67000Y-47250
X68000Y-27250
X68000Y-28250
X68000Y-46250
X68000Y-47250
X69000Y-27250
X69000Y-28250
X69000Y-46250
X69000Y-47250
X70000Y-27250
X70000Y-28250
X70000Y-46250
X70000Y-47250
T4
X67500Y-35000
T0
M30
