%FSLAX46Y46*%
G04 Gerber Fmt 4.6, Leading zero omitted, Abs format (unit mm)*
G04 Created by KiCad (PCBNEW (2014-09-22 BZR 5144)-product) date Wed 01 Oct 2014 10:30:45 AM CEST*
%MOMM*%
G01*
G04 APERTURE LIST*
%ADD10C,0.100000*%
%ADD11R,0.889000X1.397000*%
%ADD12R,1.397000X0.889000*%
%ADD13C,1.998980*%
%ADD14R,2.032000X2.032000*%
%ADD15O,2.032000X2.032000*%
%ADD16R,1.727200X2.032000*%
%ADD17O,1.727200X2.032000*%
%ADD18R,1.727200X1.727200*%
%ADD19O,1.727200X1.727200*%
%ADD20R,2.032000X1.727200*%
%ADD21O,2.032000X1.727200*%
%ADD22C,1.778000*%
%ADD23R,0.800000X0.350000*%
%ADD24R,0.350000X0.850000*%
%ADD25R,1.000000X2.000000*%
%ADD26R,0.800000X0.300000*%
%ADD27R,0.300000X0.800000*%
%ADD28R,1.143000X0.508000*%
%ADD29R,1.524000X2.032000*%
%ADD30C,4.064000*%
G04 APERTURE END LIST*
D10*
D11*
X152717500Y-90805000D03*
X150812500Y-90805000D03*
X145732500Y-90805000D03*
X147637500Y-90805000D03*
X152717500Y-84455000D03*
X150812500Y-84455000D03*
X150812500Y-87630000D03*
X152717500Y-87630000D03*
D12*
X177165000Y-77787500D03*
X177165000Y-75882500D03*
D11*
X123507500Y-103505000D03*
X121602500Y-103505000D03*
D12*
X149225000Y-101663500D03*
X149225000Y-103568500D03*
X111442500Y-76835000D03*
X111442500Y-74930000D03*
X113982500Y-76835000D03*
X113982500Y-74930000D03*
X116522500Y-76835000D03*
X116522500Y-74930000D03*
X119062500Y-76835000D03*
X119062500Y-74930000D03*
X121602500Y-76835000D03*
X121602500Y-74930000D03*
X124142500Y-76835000D03*
X124142500Y-74930000D03*
D13*
X182245000Y-108585000D03*
X184945020Y-111285020D03*
X184945020Y-105884980D03*
X179544980Y-105884980D03*
X179544980Y-111285020D03*
D14*
X121285000Y-113030000D03*
D15*
X123825000Y-113030000D03*
D16*
X130175000Y-81915000D03*
D17*
X132715000Y-81915000D03*
X135255000Y-81915000D03*
D16*
X130175000Y-84455000D03*
D17*
X132715000Y-84455000D03*
X135255000Y-84455000D03*
D16*
X130175000Y-86995000D03*
D17*
X132715000Y-86995000D03*
X135255000Y-86995000D03*
D16*
X130175000Y-89535000D03*
D17*
X132715000Y-89535000D03*
X135255000Y-89535000D03*
D16*
X130175000Y-92075000D03*
D17*
X132715000Y-92075000D03*
X135255000Y-92075000D03*
D16*
X130175000Y-94615000D03*
D17*
X132715000Y-94615000D03*
X135255000Y-94615000D03*
D16*
X130175000Y-97155000D03*
D17*
X132715000Y-97155000D03*
X135255000Y-97155000D03*
D18*
X121920000Y-71755000D03*
D19*
X121920000Y-69215000D03*
X124460000Y-71755000D03*
X124460000Y-69215000D03*
X127000000Y-71755000D03*
X127000000Y-69215000D03*
X129540000Y-71755000D03*
X129540000Y-69215000D03*
X132080000Y-71755000D03*
X132080000Y-69215000D03*
X134620000Y-71755000D03*
X134620000Y-69215000D03*
X137160000Y-71755000D03*
X137160000Y-69215000D03*
X139700000Y-71755000D03*
X139700000Y-69215000D03*
X142240000Y-71755000D03*
X142240000Y-69215000D03*
X144780000Y-71755000D03*
X144780000Y-69215000D03*
X147320000Y-71755000D03*
X147320000Y-69215000D03*
X149860000Y-71755000D03*
X149860000Y-69215000D03*
X152400000Y-71755000D03*
X152400000Y-69215000D03*
X154940000Y-71755000D03*
X154940000Y-69215000D03*
X157480000Y-71755000D03*
X157480000Y-69215000D03*
X160020000Y-71755000D03*
X160020000Y-69215000D03*
X162560000Y-71755000D03*
X162560000Y-69215000D03*
X165100000Y-71755000D03*
X165100000Y-69215000D03*
X167640000Y-71755000D03*
X167640000Y-69215000D03*
X170180000Y-71755000D03*
X170180000Y-69215000D03*
X172720000Y-71755000D03*
X172720000Y-69215000D03*
X175260000Y-71755000D03*
X175260000Y-69215000D03*
X177800000Y-71755000D03*
X177800000Y-69215000D03*
D18*
X121920000Y-120015000D03*
D19*
X121920000Y-117475000D03*
X124460000Y-120015000D03*
X124460000Y-117475000D03*
X127000000Y-120015000D03*
X127000000Y-117475000D03*
X129540000Y-120015000D03*
X129540000Y-117475000D03*
X132080000Y-120015000D03*
X132080000Y-117475000D03*
X134620000Y-120015000D03*
X134620000Y-117475000D03*
X137160000Y-120015000D03*
X137160000Y-117475000D03*
X139700000Y-120015000D03*
X139700000Y-117475000D03*
X142240000Y-120015000D03*
X142240000Y-117475000D03*
X144780000Y-120015000D03*
X144780000Y-117475000D03*
X147320000Y-120015000D03*
X147320000Y-117475000D03*
X149860000Y-120015000D03*
X149860000Y-117475000D03*
X152400000Y-120015000D03*
X152400000Y-117475000D03*
X154940000Y-120015000D03*
X154940000Y-117475000D03*
X157480000Y-120015000D03*
X157480000Y-117475000D03*
X160020000Y-120015000D03*
X160020000Y-117475000D03*
X162560000Y-120015000D03*
X162560000Y-117475000D03*
X165100000Y-120015000D03*
X165100000Y-117475000D03*
X167640000Y-120015000D03*
X167640000Y-117475000D03*
X170180000Y-120015000D03*
X170180000Y-117475000D03*
X172720000Y-120015000D03*
X172720000Y-117475000D03*
X175260000Y-120015000D03*
X175260000Y-117475000D03*
X177800000Y-120015000D03*
X177800000Y-117475000D03*
D16*
X130175000Y-99695000D03*
D17*
X132715000Y-99695000D03*
X135255000Y-99695000D03*
D20*
X158750000Y-83185000D03*
D21*
X158750000Y-80645000D03*
X158750000Y-78105000D03*
X158750000Y-75565000D03*
D20*
X140335000Y-92075000D03*
D21*
X140335000Y-89535000D03*
X140335000Y-86995000D03*
X140335000Y-84455000D03*
X140335000Y-81915000D03*
D16*
X151765000Y-107950000D03*
D17*
X149225000Y-107950000D03*
X146685000Y-107950000D03*
X144145000Y-107950000D03*
D12*
X173990000Y-77787500D03*
X173990000Y-75882500D03*
D11*
X161607500Y-75565000D03*
X163512500Y-75565000D03*
X161607500Y-78105000D03*
X163512500Y-78105000D03*
X115887500Y-104775000D03*
X113982500Y-104775000D03*
X115887500Y-107950000D03*
X113982500Y-107950000D03*
X115887500Y-111125000D03*
X113982500Y-111125000D03*
D12*
X152400000Y-101663500D03*
X152400000Y-103568500D03*
D11*
X115887500Y-114300000D03*
X113982500Y-114300000D03*
D12*
X129540000Y-108267500D03*
X129540000Y-106362500D03*
X132715000Y-108267500D03*
X132715000Y-106362500D03*
D22*
X107315000Y-113030000D03*
X109855000Y-113030000D03*
X109855000Y-105410000D03*
X107315000Y-105410000D03*
D23*
X144526000Y-84951000D03*
X144526000Y-85451000D03*
X144526000Y-85951000D03*
X144526000Y-86451000D03*
X144526000Y-86951000D03*
X144526000Y-87451000D03*
D24*
X145276000Y-88176000D03*
X145776000Y-88176000D03*
X146276000Y-88176000D03*
X146776000Y-88176000D03*
X147276000Y-88176000D03*
X147776000Y-88176000D03*
X145276000Y-84226000D03*
X145776000Y-84226000D03*
X146276000Y-84226000D03*
X146776000Y-84226000D03*
X147276000Y-84226000D03*
X147776000Y-84226000D03*
D23*
X148526000Y-84951000D03*
X148526000Y-85451000D03*
X148526000Y-85951000D03*
X148526000Y-86451000D03*
X148526000Y-86951000D03*
X148526000Y-87451000D03*
D25*
X177185000Y-80899000D03*
X175685000Y-80899000D03*
X174185000Y-80899000D03*
X172685000Y-80899000D03*
X171185000Y-80899000D03*
X169685000Y-80899000D03*
X168185000Y-80899000D03*
X166685000Y-80899000D03*
X165185000Y-80899000D03*
X163685000Y-80899000D03*
X177185000Y-96899000D03*
X175685000Y-96899000D03*
X174185000Y-96899000D03*
X172685000Y-96899000D03*
X171185000Y-96899000D03*
X169685000Y-96899000D03*
X168185000Y-96899000D03*
X166685000Y-96899000D03*
X165185000Y-96899000D03*
X163685000Y-96899000D03*
D26*
X143306000Y-101592000D03*
X143306000Y-102092000D03*
X143306000Y-102592000D03*
X143306000Y-103092000D03*
X143306000Y-103592000D03*
X146206000Y-103592000D03*
X146206000Y-103092000D03*
X146206000Y-102592000D03*
X146206000Y-102092000D03*
X146206000Y-101592000D03*
D27*
X144256000Y-104042000D03*
X144756000Y-104042000D03*
X145256000Y-104042000D03*
X145256000Y-101142000D03*
X144756000Y-101142000D03*
X144256000Y-101142000D03*
D28*
X125730000Y-106045000D03*
X125730000Y-107315000D03*
X125730000Y-108585000D03*
X125730000Y-109855000D03*
X119380000Y-109855000D03*
X119380000Y-108585000D03*
X119380000Y-107315000D03*
X119380000Y-106045000D03*
D29*
X170561000Y-76835000D03*
X167259000Y-76835000D03*
D30*
X171450000Y-88900000D03*
M02*
