%FSLAX46Y46*%
G04 Gerber Fmt 4.6, Leading zero omitted, Abs format (unit mm)*
G04 Created by KiCad (PCBNEW (2014-09-22 BZR 5144)-product) date Wed 01 Oct 2014 10:30:45 AM CEST*
%MOMM*%
G01*
G04 APERTURE LIST*
%ADD10C,0.100000*%
%ADD11C,0.200000*%
%ADD12C,0.099060*%
%ADD13C,0.381000*%
%ADD14C,0.150000*%
%ADD15C,0.050000*%
%ADD16C,0.127000*%
%ADD17C,0.109220*%
%ADD18C,0.203200*%
%ADD19C,0.304800*%
G04 APERTURE END LIST*
D10*
D11*
X156845000Y-93980000D02*
X156845000Y-85090000D01*
X175895000Y-113030000D02*
X156845000Y-93980000D01*
X175895000Y-113030000D02*
X186690000Y-113030000D01*
X108759524Y-80932381D02*
X108426190Y-80456190D01*
X108188095Y-80932381D02*
X108188095Y-79932381D01*
X108569048Y-79932381D01*
X108664286Y-79980000D01*
X108711905Y-80027619D01*
X108759524Y-80122857D01*
X108759524Y-80265714D01*
X108711905Y-80360952D01*
X108664286Y-80408571D01*
X108569048Y-80456190D01*
X108188095Y-80456190D01*
X109330952Y-80932381D02*
X109235714Y-80884762D01*
X109188095Y-80837143D01*
X109140476Y-80741905D01*
X109140476Y-80456190D01*
X109188095Y-80360952D01*
X109235714Y-80313333D01*
X109330952Y-80265714D01*
X109473810Y-80265714D01*
X109569048Y-80313333D01*
X109616667Y-80360952D01*
X109664286Y-80456190D01*
X109664286Y-80741905D01*
X109616667Y-80837143D01*
X109569048Y-80884762D01*
X109473810Y-80932381D01*
X109330952Y-80932381D01*
X110092857Y-80932381D02*
X110092857Y-79932381D01*
X110092857Y-80313333D02*
X110188095Y-80265714D01*
X110378572Y-80265714D01*
X110473810Y-80313333D01*
X110521429Y-80360952D01*
X110569048Y-80456190D01*
X110569048Y-80741905D01*
X110521429Y-80837143D01*
X110473810Y-80884762D01*
X110378572Y-80932381D01*
X110188095Y-80932381D01*
X110092857Y-80884762D01*
X111140476Y-80932381D02*
X111045238Y-80884762D01*
X110997619Y-80837143D01*
X110950000Y-80741905D01*
X110950000Y-80456190D01*
X110997619Y-80360952D01*
X111045238Y-80313333D01*
X111140476Y-80265714D01*
X111283334Y-80265714D01*
X111378572Y-80313333D01*
X111426191Y-80360952D01*
X111473810Y-80456190D01*
X111473810Y-80741905D01*
X111426191Y-80837143D01*
X111378572Y-80884762D01*
X111283334Y-80932381D01*
X111140476Y-80932381D01*
X111759524Y-80265714D02*
X112140476Y-80265714D01*
X111902381Y-79932381D02*
X111902381Y-80789524D01*
X111950000Y-80884762D01*
X112045238Y-80932381D01*
X112140476Y-80932381D01*
X112426191Y-80884762D02*
X112521429Y-80932381D01*
X112711905Y-80932381D01*
X112807144Y-80884762D01*
X112854763Y-80789524D01*
X112854763Y-80741905D01*
X112807144Y-80646667D01*
X112711905Y-80599048D01*
X112569048Y-80599048D01*
X112473810Y-80551429D01*
X112426191Y-80456190D01*
X112426191Y-80408571D01*
X112473810Y-80313333D01*
X112569048Y-80265714D01*
X112711905Y-80265714D01*
X112807144Y-80313333D01*
X113997620Y-80646667D02*
X114473811Y-80646667D01*
X113902382Y-80932381D02*
X114235715Y-79932381D01*
X114569049Y-80932381D01*
X114902382Y-80932381D02*
X114902382Y-80265714D01*
X114902382Y-80456190D02*
X114950001Y-80360952D01*
X114997620Y-80313333D01*
X115092858Y-80265714D01*
X115188097Y-80265714D01*
X115902383Y-80884762D02*
X115807145Y-80932381D01*
X115616668Y-80932381D01*
X115521430Y-80884762D01*
X115473811Y-80789524D01*
X115473811Y-80408571D01*
X115521430Y-80313333D01*
X115616668Y-80265714D01*
X115807145Y-80265714D01*
X115902383Y-80313333D01*
X115950002Y-80408571D01*
X115950002Y-80503810D01*
X115473811Y-80599048D01*
X116378573Y-80265714D02*
X116378573Y-80932381D01*
X116378573Y-80360952D02*
X116426192Y-80313333D01*
X116521430Y-80265714D01*
X116664288Y-80265714D01*
X116759526Y-80313333D01*
X116807145Y-80408571D01*
X116807145Y-80932381D01*
X117711907Y-80932381D02*
X117711907Y-80408571D01*
X117664288Y-80313333D01*
X117569050Y-80265714D01*
X117378573Y-80265714D01*
X117283335Y-80313333D01*
X117711907Y-80884762D02*
X117616669Y-80932381D01*
X117378573Y-80932381D01*
X117283335Y-80884762D01*
X117235716Y-80789524D01*
X117235716Y-80694286D01*
X117283335Y-80599048D01*
X117378573Y-80551429D01*
X117616669Y-80551429D01*
X117711907Y-80503810D01*
X108140476Y-82484762D02*
X108283333Y-82532381D01*
X108521429Y-82532381D01*
X108616667Y-82484762D01*
X108664286Y-82437143D01*
X108711905Y-82341905D01*
X108711905Y-82246667D01*
X108664286Y-82151429D01*
X108616667Y-82103810D01*
X108521429Y-82056190D01*
X108330952Y-82008571D01*
X108235714Y-81960952D01*
X108188095Y-81913333D01*
X108140476Y-81818095D01*
X108140476Y-81722857D01*
X108188095Y-81627619D01*
X108235714Y-81580000D01*
X108330952Y-81532381D01*
X108569048Y-81532381D01*
X108711905Y-81580000D01*
X109569048Y-82532381D02*
X109569048Y-82008571D01*
X109521429Y-81913333D01*
X109426191Y-81865714D01*
X109235714Y-81865714D01*
X109140476Y-81913333D01*
X109569048Y-82484762D02*
X109473810Y-82532381D01*
X109235714Y-82532381D01*
X109140476Y-82484762D01*
X109092857Y-82389524D01*
X109092857Y-82294286D01*
X109140476Y-82199048D01*
X109235714Y-82151429D01*
X109473810Y-82151429D01*
X109569048Y-82103810D01*
X110188095Y-82532381D02*
X110092857Y-82484762D01*
X110045238Y-82389524D01*
X110045238Y-81532381D01*
X110997620Y-82532381D02*
X110997620Y-82008571D01*
X110950001Y-81913333D01*
X110854763Y-81865714D01*
X110664286Y-81865714D01*
X110569048Y-81913333D01*
X110997620Y-82484762D02*
X110902382Y-82532381D01*
X110664286Y-82532381D01*
X110569048Y-82484762D01*
X110521429Y-82389524D01*
X110521429Y-82294286D01*
X110569048Y-82199048D01*
X110664286Y-82151429D01*
X110902382Y-82151429D01*
X110997620Y-82103810D01*
X111473810Y-82532381D02*
X111473810Y-81532381D01*
X111902382Y-82532381D02*
X111902382Y-82008571D01*
X111854763Y-81913333D01*
X111759525Y-81865714D01*
X111616667Y-81865714D01*
X111521429Y-81913333D01*
X111473810Y-81960952D01*
X112759525Y-82484762D02*
X112664287Y-82532381D01*
X112473810Y-82532381D01*
X112378572Y-82484762D01*
X112330953Y-82389524D01*
X112330953Y-82008571D01*
X112378572Y-81913333D01*
X112473810Y-81865714D01*
X112664287Y-81865714D01*
X112759525Y-81913333D01*
X112807144Y-82008571D01*
X112807144Y-82103810D01*
X112330953Y-82199048D01*
X113664287Y-82532381D02*
X113664287Y-81532381D01*
X113664287Y-82484762D02*
X113569049Y-82532381D01*
X113378572Y-82532381D01*
X113283334Y-82484762D01*
X113235715Y-82437143D01*
X113188096Y-82341905D01*
X113188096Y-82056190D01*
X113235715Y-81960952D01*
X113283334Y-81913333D01*
X113378572Y-81865714D01*
X113569049Y-81865714D01*
X113664287Y-81913333D01*
X114569049Y-82532381D02*
X114569049Y-81532381D01*
X114569049Y-82484762D02*
X114473811Y-82532381D01*
X114283334Y-82532381D01*
X114188096Y-82484762D01*
X114140477Y-82437143D01*
X114092858Y-82341905D01*
X114092858Y-82056190D01*
X114140477Y-81960952D01*
X114188096Y-81913333D01*
X114283334Y-81865714D01*
X114473811Y-81865714D01*
X114569049Y-81913333D01*
X115045239Y-82532381D02*
X115045239Y-81865714D01*
X115045239Y-81532381D02*
X114997620Y-81580000D01*
X115045239Y-81627619D01*
X115092858Y-81580000D01*
X115045239Y-81532381D01*
X115045239Y-81627619D01*
X115521429Y-81865714D02*
X115521429Y-82532381D01*
X115521429Y-81960952D02*
X115569048Y-81913333D01*
X115664286Y-81865714D01*
X115807144Y-81865714D01*
X115902382Y-81913333D01*
X115950001Y-82008571D01*
X115950001Y-82532381D01*
X116807144Y-82484762D02*
X116711906Y-82532381D01*
X116521429Y-82532381D01*
X116426191Y-82484762D01*
X116378572Y-82389524D01*
X116378572Y-82008571D01*
X116426191Y-81913333D01*
X116521429Y-81865714D01*
X116711906Y-81865714D01*
X116807144Y-81913333D01*
X116854763Y-82008571D01*
X116854763Y-82103810D01*
X116378572Y-82199048D01*
X118045239Y-82532381D02*
X118045239Y-81532381D01*
X118378573Y-82246667D01*
X118711906Y-81532381D01*
X118711906Y-82532381D01*
X119188096Y-82532381D02*
X119188096Y-81865714D01*
X119188096Y-81532381D02*
X119140477Y-81580000D01*
X119188096Y-81627619D01*
X119235715Y-81580000D01*
X119188096Y-81532381D01*
X119188096Y-81627619D01*
X119616667Y-82484762D02*
X119711905Y-82532381D01*
X119902381Y-82532381D01*
X119997620Y-82484762D01*
X120045239Y-82389524D01*
X120045239Y-82341905D01*
X119997620Y-82246667D01*
X119902381Y-82199048D01*
X119759524Y-82199048D01*
X119664286Y-82151429D01*
X119616667Y-82056190D01*
X119616667Y-82008571D01*
X119664286Y-81913333D01*
X119759524Y-81865714D01*
X119902381Y-81865714D01*
X119997620Y-81913333D01*
X120426191Y-82484762D02*
X120521429Y-82532381D01*
X120711905Y-82532381D01*
X120807144Y-82484762D01*
X120854763Y-82389524D01*
X120854763Y-82341905D01*
X120807144Y-82246667D01*
X120711905Y-82199048D01*
X120569048Y-82199048D01*
X120473810Y-82151429D01*
X120426191Y-82056190D01*
X120426191Y-82008571D01*
X120473810Y-81913333D01*
X120569048Y-81865714D01*
X120711905Y-81865714D01*
X120807144Y-81913333D01*
X121283334Y-82532381D02*
X121283334Y-81865714D01*
X121283334Y-82056190D02*
X121330953Y-81960952D01*
X121378572Y-81913333D01*
X121473810Y-81865714D01*
X121569049Y-81865714D01*
X121902382Y-82532381D02*
X121902382Y-81865714D01*
X121902382Y-81532381D02*
X121854763Y-81580000D01*
X121902382Y-81627619D01*
X121950001Y-81580000D01*
X121902382Y-81532381D01*
X121902382Y-81627619D01*
X127413095Y-102798571D02*
X127746429Y-102798571D01*
X127889286Y-103322381D02*
X127413095Y-103322381D01*
X127413095Y-102322381D01*
X127889286Y-102322381D01*
X128317857Y-102798571D02*
X128651191Y-102798571D01*
X128794048Y-103322381D02*
X128317857Y-103322381D01*
X128317857Y-102322381D01*
X128794048Y-102322381D01*
X129222619Y-103322381D02*
X129222619Y-102322381D01*
X129603572Y-102322381D01*
X129698810Y-102370000D01*
X129746429Y-102417619D01*
X129794048Y-102512857D01*
X129794048Y-102655714D01*
X129746429Y-102750952D01*
X129698810Y-102798571D01*
X129603572Y-102846190D01*
X129222619Y-102846190D01*
X130794048Y-103322381D02*
X130460714Y-102846190D01*
X130222619Y-103322381D02*
X130222619Y-102322381D01*
X130603572Y-102322381D01*
X130698810Y-102370000D01*
X130746429Y-102417619D01*
X130794048Y-102512857D01*
X130794048Y-102655714D01*
X130746429Y-102750952D01*
X130698810Y-102798571D01*
X130603572Y-102846190D01*
X130222619Y-102846190D01*
X131413095Y-102322381D02*
X131603572Y-102322381D01*
X131698810Y-102370000D01*
X131794048Y-102465238D01*
X131841667Y-102655714D01*
X131841667Y-102989048D01*
X131794048Y-103179524D01*
X131698810Y-103274762D01*
X131603572Y-103322381D01*
X131413095Y-103322381D01*
X131317857Y-103274762D01*
X131222619Y-103179524D01*
X131175000Y-102989048D01*
X131175000Y-102655714D01*
X131222619Y-102465238D01*
X131317857Y-102370000D01*
X131413095Y-102322381D01*
X132270238Y-103322381D02*
X132270238Y-102322381D01*
X132603572Y-103036667D01*
X132936905Y-102322381D01*
X132936905Y-103322381D01*
X104775000Y-101600000D02*
X104775000Y-102235000D01*
X133985000Y-101600000D02*
X104775000Y-101600000D01*
X133985000Y-102235000D02*
X133985000Y-101600000D01*
X104775000Y-115570000D02*
X104775000Y-102235000D01*
X133985000Y-115570000D02*
X104775000Y-115570000D01*
X133985000Y-102235000D02*
X133985000Y-115570000D01*
X170100715Y-99830000D02*
X170005477Y-99782381D01*
X169862620Y-99782381D01*
X169719762Y-99830000D01*
X169624524Y-99925238D01*
X169576905Y-100020476D01*
X169529286Y-100210952D01*
X169529286Y-100353810D01*
X169576905Y-100544286D01*
X169624524Y-100639524D01*
X169719762Y-100734762D01*
X169862620Y-100782381D01*
X169957858Y-100782381D01*
X170100715Y-100734762D01*
X170148334Y-100687143D01*
X170148334Y-100353810D01*
X169957858Y-100353810D01*
X170576905Y-100782381D02*
X170576905Y-99782381D01*
X170957858Y-99782381D01*
X171053096Y-99830000D01*
X171100715Y-99877619D01*
X171148334Y-99972857D01*
X171148334Y-100115714D01*
X171100715Y-100210952D01*
X171053096Y-100258571D01*
X170957858Y-100306190D01*
X170576905Y-100306190D01*
X171529286Y-100734762D02*
X171672143Y-100782381D01*
X171910239Y-100782381D01*
X172005477Y-100734762D01*
X172053096Y-100687143D01*
X172100715Y-100591905D01*
X172100715Y-100496667D01*
X172053096Y-100401429D01*
X172005477Y-100353810D01*
X171910239Y-100306190D01*
X171719762Y-100258571D01*
X171624524Y-100210952D01*
X171576905Y-100163333D01*
X171529286Y-100068095D01*
X171529286Y-99972857D01*
X171576905Y-99877619D01*
X171624524Y-99830000D01*
X171719762Y-99782381D01*
X171957858Y-99782381D01*
X172100715Y-99830000D01*
X186690000Y-73660000D02*
X156845000Y-73660000D01*
X186690000Y-113030000D02*
X186690000Y-73660000D01*
X156845000Y-73660000D02*
X156845000Y-85090000D01*
X153670000Y-97155000D02*
X142240000Y-97155000D01*
X153670000Y-109855000D02*
X153670000Y-97155000D01*
X142240000Y-109855000D02*
X153670000Y-109855000D01*
X142240000Y-97155000D02*
X142240000Y-109855000D01*
X153670000Y-80010000D02*
X138430000Y-80010000D01*
X153670000Y-93980000D02*
X153670000Y-80010000D01*
X138430000Y-93980000D02*
X153670000Y-93980000D01*
X138430000Y-80010000D02*
X138430000Y-93980000D01*
X144954999Y-98877381D02*
X144954999Y-97877381D01*
X145335952Y-97877381D01*
X145431190Y-97925000D01*
X145478809Y-97972619D01*
X145526428Y-98067857D01*
X145526428Y-98210714D01*
X145478809Y-98305952D01*
X145431190Y-98353571D01*
X145335952Y-98401190D01*
X144954999Y-98401190D01*
X145954999Y-98877381D02*
X145954999Y-98210714D01*
X145954999Y-98401190D02*
X146002618Y-98305952D01*
X146050237Y-98258333D01*
X146145475Y-98210714D01*
X146240714Y-98210714D01*
X146955000Y-98829762D02*
X146859762Y-98877381D01*
X146669285Y-98877381D01*
X146574047Y-98829762D01*
X146526428Y-98734524D01*
X146526428Y-98353571D01*
X146574047Y-98258333D01*
X146669285Y-98210714D01*
X146859762Y-98210714D01*
X146955000Y-98258333D01*
X147002619Y-98353571D01*
X147002619Y-98448810D01*
X146526428Y-98544048D01*
X147383571Y-98829762D02*
X147478809Y-98877381D01*
X147669285Y-98877381D01*
X147764524Y-98829762D01*
X147812143Y-98734524D01*
X147812143Y-98686905D01*
X147764524Y-98591667D01*
X147669285Y-98544048D01*
X147526428Y-98544048D01*
X147431190Y-98496429D01*
X147383571Y-98401190D01*
X147383571Y-98353571D01*
X147431190Y-98258333D01*
X147526428Y-98210714D01*
X147669285Y-98210714D01*
X147764524Y-98258333D01*
X148193095Y-98829762D02*
X148288333Y-98877381D01*
X148478809Y-98877381D01*
X148574048Y-98829762D01*
X148621667Y-98734524D01*
X148621667Y-98686905D01*
X148574048Y-98591667D01*
X148478809Y-98544048D01*
X148335952Y-98544048D01*
X148240714Y-98496429D01*
X148193095Y-98401190D01*
X148193095Y-98353571D01*
X148240714Y-98258333D01*
X148335952Y-98210714D01*
X148478809Y-98210714D01*
X148574048Y-98258333D01*
X149478810Y-98210714D02*
X149478810Y-98877381D01*
X149050238Y-98210714D02*
X149050238Y-98734524D01*
X149097857Y-98829762D01*
X149193095Y-98877381D01*
X149335953Y-98877381D01*
X149431191Y-98829762D01*
X149478810Y-98782143D01*
X149955000Y-98877381D02*
X149955000Y-98210714D01*
X149955000Y-98401190D02*
X150002619Y-98305952D01*
X150050238Y-98258333D01*
X150145476Y-98210714D01*
X150240715Y-98210714D01*
X150955001Y-98829762D02*
X150859763Y-98877381D01*
X150669286Y-98877381D01*
X150574048Y-98829762D01*
X150526429Y-98734524D01*
X150526429Y-98353571D01*
X150574048Y-98258333D01*
X150669286Y-98210714D01*
X150859763Y-98210714D01*
X150955001Y-98258333D01*
X151002620Y-98353571D01*
X151002620Y-98448810D01*
X150526429Y-98544048D01*
X150669762Y-81732381D02*
X150669762Y-80732381D01*
X151145952Y-81732381D02*
X151145952Y-80732381D01*
X151479286Y-81446667D01*
X151812619Y-80732381D01*
X151812619Y-81732381D01*
X152288809Y-80732381D02*
X152288809Y-81541905D01*
X152336428Y-81637143D01*
X152384047Y-81684762D01*
X152479285Y-81732381D01*
X152669762Y-81732381D01*
X152765000Y-81684762D01*
X152812619Y-81637143D01*
X152860238Y-81541905D01*
X152860238Y-80732381D01*
X124103095Y-100147381D02*
X124103095Y-99147381D01*
X124484048Y-99147381D01*
X124579286Y-99195000D01*
X124626905Y-99242619D01*
X124674524Y-99337857D01*
X124674524Y-99480714D01*
X124626905Y-99575952D01*
X124579286Y-99623571D01*
X124484048Y-99671190D01*
X124103095Y-99671190D01*
X125007857Y-99147381D02*
X125245952Y-100147381D01*
X125436429Y-99433095D01*
X125626905Y-100147381D01*
X125865000Y-99147381D01*
X126245952Y-100147381D02*
X126245952Y-99147381D01*
X126579286Y-99861667D01*
X126912619Y-99147381D01*
X126912619Y-100147381D01*
X127150714Y-100242619D02*
X127912619Y-100242619D01*
X128293571Y-99575952D02*
X128198333Y-99528333D01*
X128150714Y-99480714D01*
X128103095Y-99385476D01*
X128103095Y-99337857D01*
X128150714Y-99242619D01*
X128198333Y-99195000D01*
X128293571Y-99147381D01*
X128484048Y-99147381D01*
X128579286Y-99195000D01*
X128626905Y-99242619D01*
X128674524Y-99337857D01*
X128674524Y-99385476D01*
X128626905Y-99480714D01*
X128579286Y-99528333D01*
X128484048Y-99575952D01*
X128293571Y-99575952D01*
X128198333Y-99623571D01*
X128150714Y-99671190D01*
X128103095Y-99766429D01*
X128103095Y-99956905D01*
X128150714Y-100052143D01*
X128198333Y-100099762D01*
X128293571Y-100147381D01*
X128484048Y-100147381D01*
X128579286Y-100099762D01*
X128626905Y-100052143D01*
X128674524Y-99956905D01*
X128674524Y-99766429D01*
X128626905Y-99671190D01*
X128579286Y-99623571D01*
X128484048Y-99575952D01*
X124103095Y-97607381D02*
X124103095Y-96607381D01*
X124484048Y-96607381D01*
X124579286Y-96655000D01*
X124626905Y-96702619D01*
X124674524Y-96797857D01*
X124674524Y-96940714D01*
X124626905Y-97035952D01*
X124579286Y-97083571D01*
X124484048Y-97131190D01*
X124103095Y-97131190D01*
X125007857Y-96607381D02*
X125245952Y-97607381D01*
X125436429Y-96893095D01*
X125626905Y-97607381D01*
X125865000Y-96607381D01*
X126245952Y-97607381D02*
X126245952Y-96607381D01*
X126579286Y-97321667D01*
X126912619Y-96607381D01*
X126912619Y-97607381D01*
X127150714Y-97702619D02*
X127912619Y-97702619D01*
X128055476Y-96607381D02*
X128722143Y-96607381D01*
X128293571Y-97607381D01*
X124103095Y-95067381D02*
X124103095Y-94067381D01*
X124484048Y-94067381D01*
X124579286Y-94115000D01*
X124626905Y-94162619D01*
X124674524Y-94257857D01*
X124674524Y-94400714D01*
X124626905Y-94495952D01*
X124579286Y-94543571D01*
X124484048Y-94591190D01*
X124103095Y-94591190D01*
X125007857Y-94067381D02*
X125245952Y-95067381D01*
X125436429Y-94353095D01*
X125626905Y-95067381D01*
X125865000Y-94067381D01*
X126245952Y-95067381D02*
X126245952Y-94067381D01*
X126579286Y-94781667D01*
X126912619Y-94067381D01*
X126912619Y-95067381D01*
X127150714Y-95162619D02*
X127912619Y-95162619D01*
X128579286Y-94067381D02*
X128388809Y-94067381D01*
X128293571Y-94115000D01*
X128245952Y-94162619D01*
X128150714Y-94305476D01*
X128103095Y-94495952D01*
X128103095Y-94876905D01*
X128150714Y-94972143D01*
X128198333Y-95019762D01*
X128293571Y-95067381D01*
X128484048Y-95067381D01*
X128579286Y-95019762D01*
X128626905Y-94972143D01*
X128674524Y-94876905D01*
X128674524Y-94638810D01*
X128626905Y-94543571D01*
X128579286Y-94495952D01*
X128484048Y-94448333D01*
X128293571Y-94448333D01*
X128198333Y-94495952D01*
X128150714Y-94543571D01*
X128103095Y-94638810D01*
X124103095Y-92527381D02*
X124103095Y-91527381D01*
X124484048Y-91527381D01*
X124579286Y-91575000D01*
X124626905Y-91622619D01*
X124674524Y-91717857D01*
X124674524Y-91860714D01*
X124626905Y-91955952D01*
X124579286Y-92003571D01*
X124484048Y-92051190D01*
X124103095Y-92051190D01*
X125007857Y-91527381D02*
X125245952Y-92527381D01*
X125436429Y-91813095D01*
X125626905Y-92527381D01*
X125865000Y-91527381D01*
X126245952Y-92527381D02*
X126245952Y-91527381D01*
X126579286Y-92241667D01*
X126912619Y-91527381D01*
X126912619Y-92527381D01*
X127150714Y-92622619D02*
X127912619Y-92622619D01*
X128626905Y-91527381D02*
X128150714Y-91527381D01*
X128103095Y-92003571D01*
X128150714Y-91955952D01*
X128245952Y-91908333D01*
X128484048Y-91908333D01*
X128579286Y-91955952D01*
X128626905Y-92003571D01*
X128674524Y-92098810D01*
X128674524Y-92336905D01*
X128626905Y-92432143D01*
X128579286Y-92479762D01*
X128484048Y-92527381D01*
X128245952Y-92527381D01*
X128150714Y-92479762D01*
X128103095Y-92432143D01*
X124103095Y-89987381D02*
X124103095Y-88987381D01*
X124484048Y-88987381D01*
X124579286Y-89035000D01*
X124626905Y-89082619D01*
X124674524Y-89177857D01*
X124674524Y-89320714D01*
X124626905Y-89415952D01*
X124579286Y-89463571D01*
X124484048Y-89511190D01*
X124103095Y-89511190D01*
X125007857Y-88987381D02*
X125245952Y-89987381D01*
X125436429Y-89273095D01*
X125626905Y-89987381D01*
X125865000Y-88987381D01*
X126245952Y-89987381D02*
X126245952Y-88987381D01*
X126579286Y-89701667D01*
X126912619Y-88987381D01*
X126912619Y-89987381D01*
X127150714Y-90082619D02*
X127912619Y-90082619D01*
X128579286Y-89320714D02*
X128579286Y-89987381D01*
X128341190Y-88939762D02*
X128103095Y-89654048D01*
X128722143Y-89654048D01*
X124103095Y-87447381D02*
X124103095Y-86447381D01*
X124484048Y-86447381D01*
X124579286Y-86495000D01*
X124626905Y-86542619D01*
X124674524Y-86637857D01*
X124674524Y-86780714D01*
X124626905Y-86875952D01*
X124579286Y-86923571D01*
X124484048Y-86971190D01*
X124103095Y-86971190D01*
X125007857Y-86447381D02*
X125245952Y-87447381D01*
X125436429Y-86733095D01*
X125626905Y-87447381D01*
X125865000Y-86447381D01*
X126245952Y-87447381D02*
X126245952Y-86447381D01*
X126579286Y-87161667D01*
X126912619Y-86447381D01*
X126912619Y-87447381D01*
X127150714Y-87542619D02*
X127912619Y-87542619D01*
X128055476Y-86447381D02*
X128674524Y-86447381D01*
X128341190Y-86828333D01*
X128484048Y-86828333D01*
X128579286Y-86875952D01*
X128626905Y-86923571D01*
X128674524Y-87018810D01*
X128674524Y-87256905D01*
X128626905Y-87352143D01*
X128579286Y-87399762D01*
X128484048Y-87447381D01*
X128198333Y-87447381D01*
X128103095Y-87399762D01*
X128055476Y-87352143D01*
X124103095Y-84907381D02*
X124103095Y-83907381D01*
X124484048Y-83907381D01*
X124579286Y-83955000D01*
X124626905Y-84002619D01*
X124674524Y-84097857D01*
X124674524Y-84240714D01*
X124626905Y-84335952D01*
X124579286Y-84383571D01*
X124484048Y-84431190D01*
X124103095Y-84431190D01*
X125007857Y-83907381D02*
X125245952Y-84907381D01*
X125436429Y-84193095D01*
X125626905Y-84907381D01*
X125865000Y-83907381D01*
X126245952Y-84907381D02*
X126245952Y-83907381D01*
X126579286Y-84621667D01*
X126912619Y-83907381D01*
X126912619Y-84907381D01*
X127150714Y-85002619D02*
X127912619Y-85002619D01*
X128103095Y-84002619D02*
X128150714Y-83955000D01*
X128245952Y-83907381D01*
X128484048Y-83907381D01*
X128579286Y-83955000D01*
X128626905Y-84002619D01*
X128674524Y-84097857D01*
X128674524Y-84193095D01*
X128626905Y-84335952D01*
X128055476Y-84907381D01*
X128674524Y-84907381D01*
X124103095Y-82367381D02*
X124103095Y-81367381D01*
X124484048Y-81367381D01*
X124579286Y-81415000D01*
X124626905Y-81462619D01*
X124674524Y-81557857D01*
X124674524Y-81700714D01*
X124626905Y-81795952D01*
X124579286Y-81843571D01*
X124484048Y-81891190D01*
X124103095Y-81891190D01*
X125007857Y-81367381D02*
X125245952Y-82367381D01*
X125436429Y-81653095D01*
X125626905Y-82367381D01*
X125865000Y-81367381D01*
X126245952Y-82367381D02*
X126245952Y-81367381D01*
X126579286Y-82081667D01*
X126912619Y-81367381D01*
X126912619Y-82367381D01*
X127150714Y-82462619D02*
X127912619Y-82462619D01*
X128674524Y-82367381D02*
X128103095Y-82367381D01*
X128388809Y-82367381D02*
X128388809Y-81367381D01*
X128293571Y-81510238D01*
X128198333Y-81605476D01*
X128103095Y-81653095D01*
D12*
X153543000Y-90043000D02*
G75*
G03X153543000Y-90043000I-127000J0D01*
G74*
G01*
X152273000Y-90043000D02*
X153289000Y-90043000D01*
X153289000Y-90043000D02*
X153289000Y-91567000D01*
X153289000Y-91567000D02*
X152273000Y-91567000D01*
X151257000Y-91567000D02*
X150241000Y-91567000D01*
X150241000Y-91567000D02*
X150241000Y-90043000D01*
X150241000Y-90043000D02*
X151257000Y-90043000D01*
X145161000Y-91567000D02*
G75*
G03X145161000Y-91567000I-127000J0D01*
G74*
G01*
X146177000Y-91567000D02*
X145161000Y-91567000D01*
X145161000Y-91567000D02*
X145161000Y-90043000D01*
X145161000Y-90043000D02*
X146177000Y-90043000D01*
X147193000Y-90043000D02*
X148209000Y-90043000D01*
X148209000Y-90043000D02*
X148209000Y-91567000D01*
X148209000Y-91567000D02*
X147193000Y-91567000D01*
X153543000Y-83693000D02*
G75*
G03X153543000Y-83693000I-127000J0D01*
G74*
G01*
X152273000Y-83693000D02*
X153289000Y-83693000D01*
X153289000Y-83693000D02*
X153289000Y-85217000D01*
X153289000Y-85217000D02*
X152273000Y-85217000D01*
X151257000Y-85217000D02*
X150241000Y-85217000D01*
X150241000Y-85217000D02*
X150241000Y-83693000D01*
X150241000Y-83693000D02*
X151257000Y-83693000D01*
X150241000Y-88392000D02*
G75*
G03X150241000Y-88392000I-127000J0D01*
G74*
G01*
X151257000Y-88392000D02*
X150241000Y-88392000D01*
X150241000Y-88392000D02*
X150241000Y-86868000D01*
X150241000Y-86868000D02*
X151257000Y-86868000D01*
X152273000Y-86868000D02*
X153289000Y-86868000D01*
X153289000Y-86868000D02*
X153289000Y-88392000D01*
X153289000Y-88392000D02*
X152273000Y-88392000D01*
X178054000Y-78486000D02*
G75*
G03X178054000Y-78486000I-127000J0D01*
G74*
G01*
X177927000Y-77343000D02*
X177927000Y-78359000D01*
X177927000Y-78359000D02*
X176403000Y-78359000D01*
X176403000Y-78359000D02*
X176403000Y-77343000D01*
X176403000Y-76327000D02*
X176403000Y-75311000D01*
X176403000Y-75311000D02*
X177927000Y-75311000D01*
X177927000Y-75311000D02*
X177927000Y-76327000D01*
X124333000Y-102743000D02*
G75*
G03X124333000Y-102743000I-127000J0D01*
G74*
G01*
X123063000Y-102743000D02*
X124079000Y-102743000D01*
X124079000Y-102743000D02*
X124079000Y-104267000D01*
X124079000Y-104267000D02*
X123063000Y-104267000D01*
X122047000Y-104267000D02*
X121031000Y-104267000D01*
X121031000Y-104267000D02*
X121031000Y-102743000D01*
X121031000Y-102743000D02*
X122047000Y-102743000D01*
X148590000Y-100965000D02*
G75*
G03X148590000Y-100965000I-127000J0D01*
G74*
G01*
X148463000Y-102108000D02*
X148463000Y-101092000D01*
X148463000Y-101092000D02*
X149987000Y-101092000D01*
X149987000Y-101092000D02*
X149987000Y-102108000D01*
X149987000Y-103124000D02*
X149987000Y-104140000D01*
X149987000Y-104140000D02*
X148463000Y-104140000D01*
X148463000Y-104140000D02*
X148463000Y-103124000D01*
X112331500Y-77533500D02*
G75*
G03X112331500Y-77533500I-127000J0D01*
G74*
G01*
X112204500Y-76390500D02*
X112204500Y-77406500D01*
X112204500Y-77406500D02*
X110680500Y-77406500D01*
X110680500Y-77406500D02*
X110680500Y-76390500D01*
X110680500Y-75374500D02*
X110680500Y-74358500D01*
X110680500Y-74358500D02*
X112204500Y-74358500D01*
X112204500Y-74358500D02*
X112204500Y-75374500D01*
X114871500Y-77533500D02*
G75*
G03X114871500Y-77533500I-127000J0D01*
G74*
G01*
X114744500Y-76390500D02*
X114744500Y-77406500D01*
X114744500Y-77406500D02*
X113220500Y-77406500D01*
X113220500Y-77406500D02*
X113220500Y-76390500D01*
X113220500Y-75374500D02*
X113220500Y-74358500D01*
X113220500Y-74358500D02*
X114744500Y-74358500D01*
X114744500Y-74358500D02*
X114744500Y-75374500D01*
X117411500Y-77533500D02*
G75*
G03X117411500Y-77533500I-127000J0D01*
G74*
G01*
X117284500Y-76390500D02*
X117284500Y-77406500D01*
X117284500Y-77406500D02*
X115760500Y-77406500D01*
X115760500Y-77406500D02*
X115760500Y-76390500D01*
X115760500Y-75374500D02*
X115760500Y-74358500D01*
X115760500Y-74358500D02*
X117284500Y-74358500D01*
X117284500Y-74358500D02*
X117284500Y-75374500D01*
X119951500Y-77533500D02*
G75*
G03X119951500Y-77533500I-127000J0D01*
G74*
G01*
X119824500Y-76390500D02*
X119824500Y-77406500D01*
X119824500Y-77406500D02*
X118300500Y-77406500D01*
X118300500Y-77406500D02*
X118300500Y-76390500D01*
X118300500Y-75374500D02*
X118300500Y-74358500D01*
X118300500Y-74358500D02*
X119824500Y-74358500D01*
X119824500Y-74358500D02*
X119824500Y-75374500D01*
X122491500Y-77533500D02*
G75*
G03X122491500Y-77533500I-127000J0D01*
G74*
G01*
X122364500Y-76390500D02*
X122364500Y-77406500D01*
X122364500Y-77406500D02*
X120840500Y-77406500D01*
X120840500Y-77406500D02*
X120840500Y-76390500D01*
X120840500Y-75374500D02*
X120840500Y-74358500D01*
X120840500Y-74358500D02*
X122364500Y-74358500D01*
X122364500Y-74358500D02*
X122364500Y-75374500D01*
X125031500Y-77533500D02*
G75*
G03X125031500Y-77533500I-127000J0D01*
G74*
G01*
X124904500Y-76390500D02*
X124904500Y-77406500D01*
X124904500Y-77406500D02*
X123380500Y-77406500D01*
X123380500Y-77406500D02*
X123380500Y-76390500D01*
X123380500Y-75374500D02*
X123380500Y-74358500D01*
X123380500Y-74358500D02*
X124904500Y-74358500D01*
X124904500Y-74358500D02*
X124904500Y-75374500D01*
D13*
X193901060Y-111244380D02*
X194845940Y-111244380D01*
X193901060Y-105925620D02*
X194845940Y-105925620D01*
X185394600Y-105925620D02*
X189174120Y-105925620D01*
X185394600Y-111244380D02*
X189174120Y-111244380D01*
X193586100Y-105392220D02*
X193901060Y-108851700D01*
X189804040Y-111777780D02*
X189174120Y-105925620D01*
X189804040Y-105392220D02*
X190433960Y-111777780D01*
X190433960Y-105392220D02*
X191063880Y-111777780D01*
X191063880Y-105392220D02*
X191693800Y-111777780D01*
X191693800Y-105392220D02*
X192326260Y-111777780D01*
X192326260Y-105392220D02*
X192956180Y-111777780D01*
X192956180Y-105392220D02*
X193586100Y-111777780D01*
X193586100Y-105392220D02*
X193901060Y-105925620D01*
X193901060Y-105925620D02*
X193901060Y-111244380D01*
X193901060Y-111244380D02*
X193586100Y-111777780D01*
X193586100Y-111777780D02*
X189489080Y-111777780D01*
X189489080Y-111777780D02*
X189174120Y-111244380D01*
X189174120Y-111244380D02*
X189174120Y-105925620D01*
X189174120Y-105925620D02*
X189489080Y-105392220D01*
X189489080Y-105392220D02*
X193586100Y-105392220D01*
X194845940Y-111244380D02*
X194845940Y-105925620D01*
X185394600Y-105435400D02*
X185394600Y-111734600D01*
X185394600Y-111734600D02*
X179095400Y-111734600D01*
X179095400Y-111734600D02*
X179095400Y-105435400D01*
X179095400Y-105435400D02*
X185394600Y-105435400D01*
D14*
X122555000Y-111760000D02*
X122555000Y-114300000D01*
X120015000Y-111760000D02*
X120015000Y-114300000D01*
X120015000Y-114300000D02*
X122555000Y-114300000D01*
X122555000Y-114300000D02*
X125095000Y-114300000D01*
X125095000Y-114300000D02*
X125095000Y-111760000D01*
X125095000Y-111760000D02*
X120015000Y-111760000D01*
X131445000Y-83185000D02*
X136525000Y-83185000D01*
X136525000Y-83185000D02*
X136525000Y-80645000D01*
X136525000Y-80645000D02*
X131445000Y-80645000D01*
X128905000Y-80645000D02*
X131445000Y-80645000D01*
X131445000Y-80645000D02*
X131445000Y-83185000D01*
X128905000Y-80645000D02*
X128905000Y-83185000D01*
X128905000Y-83185000D02*
X131445000Y-83185000D01*
X131445000Y-85725000D02*
X136525000Y-85725000D01*
X136525000Y-85725000D02*
X136525000Y-83185000D01*
X136525000Y-83185000D02*
X131445000Y-83185000D01*
X128905000Y-83185000D02*
X131445000Y-83185000D01*
X131445000Y-83185000D02*
X131445000Y-85725000D01*
X128905000Y-83185000D02*
X128905000Y-85725000D01*
X128905000Y-85725000D02*
X131445000Y-85725000D01*
X131445000Y-88265000D02*
X136525000Y-88265000D01*
X136525000Y-88265000D02*
X136525000Y-85725000D01*
X136525000Y-85725000D02*
X131445000Y-85725000D01*
X128905000Y-85725000D02*
X131445000Y-85725000D01*
X131445000Y-85725000D02*
X131445000Y-88265000D01*
X128905000Y-85725000D02*
X128905000Y-88265000D01*
X128905000Y-88265000D02*
X131445000Y-88265000D01*
X131445000Y-90805000D02*
X136525000Y-90805000D01*
X136525000Y-90805000D02*
X136525000Y-88265000D01*
X136525000Y-88265000D02*
X131445000Y-88265000D01*
X128905000Y-88265000D02*
X131445000Y-88265000D01*
X131445000Y-88265000D02*
X131445000Y-90805000D01*
X128905000Y-88265000D02*
X128905000Y-90805000D01*
X128905000Y-90805000D02*
X131445000Y-90805000D01*
X131445000Y-93345000D02*
X136525000Y-93345000D01*
X136525000Y-93345000D02*
X136525000Y-90805000D01*
X136525000Y-90805000D02*
X131445000Y-90805000D01*
X128905000Y-90805000D02*
X131445000Y-90805000D01*
X131445000Y-90805000D02*
X131445000Y-93345000D01*
X128905000Y-90805000D02*
X128905000Y-93345000D01*
X128905000Y-93345000D02*
X131445000Y-93345000D01*
X131445000Y-95885000D02*
X136525000Y-95885000D01*
X136525000Y-95885000D02*
X136525000Y-93345000D01*
X136525000Y-93345000D02*
X131445000Y-93345000D01*
X128905000Y-93345000D02*
X131445000Y-93345000D01*
X131445000Y-93345000D02*
X131445000Y-95885000D01*
X128905000Y-93345000D02*
X128905000Y-95885000D01*
X128905000Y-95885000D02*
X131445000Y-95885000D01*
X131445000Y-98425000D02*
X136525000Y-98425000D01*
X136525000Y-98425000D02*
X136525000Y-95885000D01*
X136525000Y-95885000D02*
X131445000Y-95885000D01*
X128905000Y-95885000D02*
X131445000Y-95885000D01*
X131445000Y-95885000D02*
X131445000Y-98425000D01*
X128905000Y-95885000D02*
X128905000Y-98425000D01*
X128905000Y-98425000D02*
X131445000Y-98425000D01*
X179070000Y-67945000D02*
X120650000Y-67945000D01*
X179070000Y-73025000D02*
X123190000Y-73025000D01*
X179070000Y-67945000D02*
X179070000Y-73025000D01*
X120650000Y-67945000D02*
X120650000Y-70485000D01*
X120650000Y-73025000D02*
X123190000Y-73025000D01*
X120650000Y-70485000D02*
X123190000Y-70485000D01*
X123190000Y-70485000D02*
X123190000Y-73025000D01*
X120650000Y-73025000D02*
X120650000Y-70485000D01*
X179070000Y-116205000D02*
X120650000Y-116205000D01*
X179070000Y-121285000D02*
X123190000Y-121285000D01*
X179070000Y-116205000D02*
X179070000Y-121285000D01*
X120650000Y-116205000D02*
X120650000Y-118745000D01*
X120650000Y-121285000D02*
X123190000Y-121285000D01*
X120650000Y-118745000D02*
X123190000Y-118745000D01*
X123190000Y-118745000D02*
X123190000Y-121285000D01*
X120650000Y-121285000D02*
X120650000Y-118745000D01*
X131445000Y-100965000D02*
X136525000Y-100965000D01*
X136525000Y-100965000D02*
X136525000Y-98425000D01*
X136525000Y-98425000D02*
X131445000Y-98425000D01*
X128905000Y-98425000D02*
X131445000Y-98425000D01*
X131445000Y-98425000D02*
X131445000Y-100965000D01*
X128905000Y-98425000D02*
X128905000Y-100965000D01*
X128905000Y-100965000D02*
X131445000Y-100965000D01*
X160020000Y-81915000D02*
X160020000Y-74295000D01*
X157480000Y-81915000D02*
X157480000Y-74295000D01*
X157480000Y-84455000D02*
X157480000Y-81915000D01*
X160020000Y-74295000D02*
X157480000Y-74295000D01*
X157480000Y-81915000D02*
X160020000Y-81915000D01*
X157480000Y-84455000D02*
X160020000Y-84455000D01*
X160020000Y-84455000D02*
X160020000Y-81915000D01*
X139065000Y-90805000D02*
X139065000Y-80645000D01*
X139065000Y-80645000D02*
X141605000Y-80645000D01*
X141605000Y-80645000D02*
X141605000Y-90805000D01*
X139065000Y-93345000D02*
X139065000Y-90805000D01*
X139065000Y-90805000D02*
X141605000Y-90805000D01*
X139065000Y-93345000D02*
X141605000Y-93345000D01*
X141605000Y-93345000D02*
X141605000Y-90805000D01*
X150495000Y-106680000D02*
X142875000Y-106680000D01*
X150495000Y-109220000D02*
X142875000Y-109220000D01*
X153035000Y-109220000D02*
X150495000Y-109220000D01*
X142875000Y-106680000D02*
X142875000Y-109220000D01*
X150495000Y-109220000D02*
X150495000Y-106680000D01*
X153035000Y-109220000D02*
X153035000Y-106680000D01*
X153035000Y-106680000D02*
X150495000Y-106680000D01*
D12*
X174879000Y-78486000D02*
G75*
G03X174879000Y-78486000I-127000J0D01*
G74*
G01*
X174752000Y-77343000D02*
X174752000Y-78359000D01*
X174752000Y-78359000D02*
X173228000Y-78359000D01*
X173228000Y-78359000D02*
X173228000Y-77343000D01*
X173228000Y-76327000D02*
X173228000Y-75311000D01*
X173228000Y-75311000D02*
X174752000Y-75311000D01*
X174752000Y-75311000D02*
X174752000Y-76327000D01*
X161036000Y-76327000D02*
G75*
G03X161036000Y-76327000I-127000J0D01*
G74*
G01*
X162052000Y-76327000D02*
X161036000Y-76327000D01*
X161036000Y-76327000D02*
X161036000Y-74803000D01*
X161036000Y-74803000D02*
X162052000Y-74803000D01*
X163068000Y-74803000D02*
X164084000Y-74803000D01*
X164084000Y-74803000D02*
X164084000Y-76327000D01*
X164084000Y-76327000D02*
X163068000Y-76327000D01*
X161036000Y-78867000D02*
G75*
G03X161036000Y-78867000I-127000J0D01*
G74*
G01*
X162052000Y-78867000D02*
X161036000Y-78867000D01*
X161036000Y-78867000D02*
X161036000Y-77343000D01*
X161036000Y-77343000D02*
X162052000Y-77343000D01*
X163068000Y-77343000D02*
X164084000Y-77343000D01*
X164084000Y-77343000D02*
X164084000Y-78867000D01*
X164084000Y-78867000D02*
X163068000Y-78867000D01*
X116713000Y-104013000D02*
G75*
G03X116713000Y-104013000I-127000J0D01*
G74*
G01*
X115443000Y-104013000D02*
X116459000Y-104013000D01*
X116459000Y-104013000D02*
X116459000Y-105537000D01*
X116459000Y-105537000D02*
X115443000Y-105537000D01*
X114427000Y-105537000D02*
X113411000Y-105537000D01*
X113411000Y-105537000D02*
X113411000Y-104013000D01*
X113411000Y-104013000D02*
X114427000Y-104013000D01*
X116713000Y-107188000D02*
G75*
G03X116713000Y-107188000I-127000J0D01*
G74*
G01*
X115443000Y-107188000D02*
X116459000Y-107188000D01*
X116459000Y-107188000D02*
X116459000Y-108712000D01*
X116459000Y-108712000D02*
X115443000Y-108712000D01*
X114427000Y-108712000D02*
X113411000Y-108712000D01*
X113411000Y-108712000D02*
X113411000Y-107188000D01*
X113411000Y-107188000D02*
X114427000Y-107188000D01*
X116713000Y-110363000D02*
G75*
G03X116713000Y-110363000I-127000J0D01*
G74*
G01*
X115443000Y-110363000D02*
X116459000Y-110363000D01*
X116459000Y-110363000D02*
X116459000Y-111887000D01*
X116459000Y-111887000D02*
X115443000Y-111887000D01*
X114427000Y-111887000D02*
X113411000Y-111887000D01*
X113411000Y-111887000D02*
X113411000Y-110363000D01*
X113411000Y-110363000D02*
X114427000Y-110363000D01*
X151765000Y-100965000D02*
G75*
G03X151765000Y-100965000I-127000J0D01*
G74*
G01*
X151638000Y-102108000D02*
X151638000Y-101092000D01*
X151638000Y-101092000D02*
X153162000Y-101092000D01*
X153162000Y-101092000D02*
X153162000Y-102108000D01*
X153162000Y-103124000D02*
X153162000Y-104140000D01*
X153162000Y-104140000D02*
X151638000Y-104140000D01*
X151638000Y-104140000D02*
X151638000Y-103124000D01*
X116713000Y-113538000D02*
G75*
G03X116713000Y-113538000I-127000J0D01*
G74*
G01*
X115443000Y-113538000D02*
X116459000Y-113538000D01*
X116459000Y-113538000D02*
X116459000Y-115062000D01*
X116459000Y-115062000D02*
X115443000Y-115062000D01*
X114427000Y-115062000D02*
X113411000Y-115062000D01*
X113411000Y-115062000D02*
X113411000Y-113538000D01*
X113411000Y-113538000D02*
X114427000Y-113538000D01*
X130429000Y-108966000D02*
G75*
G03X130429000Y-108966000I-127000J0D01*
G74*
G01*
X130302000Y-107823000D02*
X130302000Y-108839000D01*
X130302000Y-108839000D02*
X128778000Y-108839000D01*
X128778000Y-108839000D02*
X128778000Y-107823000D01*
X128778000Y-106807000D02*
X128778000Y-105791000D01*
X128778000Y-105791000D02*
X130302000Y-105791000D01*
X130302000Y-105791000D02*
X130302000Y-106807000D01*
X133604000Y-108966000D02*
G75*
G03X133604000Y-108966000I-127000J0D01*
G74*
G01*
X133477000Y-107823000D02*
X133477000Y-108839000D01*
X133477000Y-108839000D02*
X131953000Y-108839000D01*
X131953000Y-108839000D02*
X131953000Y-107823000D01*
X131953000Y-106807000D02*
X131953000Y-105791000D01*
X131953000Y-105791000D02*
X133477000Y-105791000D01*
X133477000Y-105791000D02*
X133477000Y-106807000D01*
D13*
X105283000Y-114300000D02*
X111887000Y-114300000D01*
X105283000Y-104140000D02*
X111887000Y-104140000D01*
X105283000Y-104140000D02*
X105283000Y-114300000D01*
X111887000Y-104140000D02*
X111887000Y-114300000D01*
D14*
X145417421Y-84951000D02*
G75*
G03X145417421Y-84951000I-141421J0D01*
G74*
G01*
X144526000Y-84201000D02*
X144526000Y-88201000D01*
X144526000Y-88201000D02*
X148526000Y-88201000D01*
X148526000Y-88201000D02*
X148526000Y-84201000D01*
X148526000Y-84201000D02*
X144526000Y-84201000D01*
X177685000Y-82899000D02*
G75*
G03X177685000Y-82899000I-250000J0D01*
G74*
G01*
X172435000Y-88699000D02*
G75*
G03X172435000Y-88699000I-1200000J0D01*
G74*
G01*
X178308000Y-80899000D02*
X178435000Y-80899000D01*
X178308000Y-80899000D02*
X162433000Y-80899000D01*
X162435000Y-80899000D02*
X162435000Y-96899000D01*
X162435000Y-96899000D02*
X178435000Y-96899000D01*
X178435000Y-96899000D02*
X178435000Y-80899000D01*
D15*
X144031000Y-101317000D02*
G75*
G03X144031000Y-101317000I-150000J0D01*
G74*
G01*
D10*
X143256000Y-101092000D02*
X143256000Y-104092000D01*
X146256000Y-104092000D02*
X143256000Y-104092000D01*
X146256000Y-101092000D02*
X146256000Y-104092000D01*
X143256000Y-101092000D02*
X146256000Y-101092000D01*
D16*
X124841000Y-105410000D02*
X124841000Y-110490000D01*
X124841000Y-110490000D02*
X120269000Y-110490000D01*
X120269000Y-110490000D02*
X120269000Y-105410000D01*
X120269000Y-105410000D02*
X124841000Y-105410000D01*
X123317000Y-105410000D02*
X123317000Y-105918000D01*
X123317000Y-105918000D02*
X122047000Y-105918000D01*
X122047000Y-105918000D02*
X122047000Y-105410000D01*
X171450000Y-77978000D02*
X171704000Y-77978000D01*
X171704000Y-77978000D02*
X171704000Y-75692000D01*
X171704000Y-75692000D02*
X171450000Y-75692000D01*
X171450000Y-77978000D02*
X171450000Y-75692000D01*
X171450000Y-75692000D02*
X169799000Y-75692000D01*
X168021000Y-77978000D02*
X166370000Y-77978000D01*
X166370000Y-77978000D02*
X166370000Y-75692000D01*
X166370000Y-75692000D02*
X168021000Y-75692000D01*
X169799000Y-77978000D02*
X171450000Y-77978000D01*
D10*
G36*
X108542666Y-71602870D02*
X108511743Y-71644253D01*
X108453280Y-71639031D01*
X108394040Y-71631770D01*
X108379153Y-71668075D01*
X108393144Y-71748828D01*
X108404728Y-71843707D01*
X108378787Y-71879729D01*
X108359290Y-71882000D01*
X108320599Y-71858503D01*
X108296219Y-71778652D01*
X108281870Y-71628405D01*
X108281843Y-71627922D01*
X108267500Y-71373845D01*
X108405083Y-71373922D01*
X108498744Y-71384302D01*
X108542277Y-71409478D01*
X108542666Y-71412370D01*
X108508953Y-71434145D01*
X108457999Y-71428599D01*
X108388631Y-71431421D01*
X108373333Y-71474895D01*
X108408625Y-71531897D01*
X108458000Y-71543333D01*
X108526653Y-71568132D01*
X108542666Y-71602870D01*
X108542666Y-71602870D01*
X108542666Y-71602870D01*
G37*
X108542666Y-71602870D02*
X108511743Y-71644253D01*
X108453280Y-71639031D01*
X108394040Y-71631770D01*
X108379153Y-71668075D01*
X108393144Y-71748828D01*
X108404728Y-71843707D01*
X108378787Y-71879729D01*
X108359290Y-71882000D01*
X108320599Y-71858503D01*
X108296219Y-71778652D01*
X108281870Y-71628405D01*
X108281843Y-71627922D01*
X108267500Y-71373845D01*
X108405083Y-71373922D01*
X108498744Y-71384302D01*
X108542277Y-71409478D01*
X108542666Y-71412370D01*
X108508953Y-71434145D01*
X108457999Y-71428599D01*
X108388631Y-71431421D01*
X108373333Y-71474895D01*
X108408625Y-71531897D01*
X108458000Y-71543333D01*
X108526653Y-71568132D01*
X108542666Y-71602870D01*
X108542666Y-71602870D01*
G36*
X108923666Y-71419186D02*
X108890708Y-71445110D01*
X108839000Y-71437500D01*
X108770338Y-71434539D01*
X108754333Y-71476980D01*
X108786975Y-71534916D01*
X108817833Y-71543333D01*
X108873973Y-71576539D01*
X108881333Y-71605504D01*
X108853284Y-71648212D01*
X108817833Y-71643308D01*
X108767255Y-71649406D01*
X108754333Y-71713074D01*
X108770429Y-71781775D01*
X108832519Y-71786639D01*
X108841417Y-71784435D01*
X108906524Y-71783174D01*
X108912240Y-71811247D01*
X108862737Y-71850664D01*
X108772239Y-71873309D01*
X108648500Y-71885785D01*
X108648500Y-71629892D01*
X108648500Y-71374000D01*
X108786083Y-71374000D01*
X108879716Y-71386152D01*
X108923270Y-71415753D01*
X108923666Y-71419186D01*
X108923666Y-71419186D01*
X108923666Y-71419186D01*
G37*
X108923666Y-71419186D02*
X108890708Y-71445110D01*
X108839000Y-71437500D01*
X108770338Y-71434539D01*
X108754333Y-71476980D01*
X108786975Y-71534916D01*
X108817833Y-71543333D01*
X108873973Y-71576539D01*
X108881333Y-71605504D01*
X108853284Y-71648212D01*
X108817833Y-71643308D01*
X108767255Y-71649406D01*
X108754333Y-71713074D01*
X108770429Y-71781775D01*
X108832519Y-71786639D01*
X108841417Y-71784435D01*
X108906524Y-71783174D01*
X108912240Y-71811247D01*
X108862737Y-71850664D01*
X108772239Y-71873309D01*
X108648500Y-71885785D01*
X108648500Y-71629892D01*
X108648500Y-71374000D01*
X108786083Y-71374000D01*
X108879716Y-71386152D01*
X108923270Y-71415753D01*
X108923666Y-71419186D01*
X108923666Y-71419186D01*
G36*
X109516333Y-71601507D02*
X109479069Y-71704737D01*
X109405057Y-71779916D01*
X109405057Y-71606404D01*
X109361567Y-71502464D01*
X109279439Y-71430558D01*
X109219024Y-71416333D01*
X109166667Y-71429112D01*
X109141917Y-71481743D01*
X109135354Y-71595667D01*
X109135333Y-71606833D01*
X109139781Y-71724440D01*
X109161394Y-71780162D01*
X109212577Y-71796644D01*
X109239677Y-71797333D01*
X109345804Y-71761436D01*
X109390852Y-71709827D01*
X109405057Y-71606404D01*
X109405057Y-71779916D01*
X109385279Y-71800006D01*
X109261963Y-71865508D01*
X109169007Y-71882000D01*
X109029500Y-71882000D01*
X109029500Y-71628000D01*
X109029500Y-71374000D01*
X109202855Y-71374000D01*
X109361521Y-71401549D01*
X109470924Y-71476886D01*
X109515952Y-71589043D01*
X109516333Y-71601507D01*
X109516333Y-71601507D01*
X109516333Y-71601507D01*
G37*
X109516333Y-71601507D02*
X109479069Y-71704737D01*
X109405057Y-71779916D01*
X109405057Y-71606404D01*
X109361567Y-71502464D01*
X109279439Y-71430558D01*
X109219024Y-71416333D01*
X109166667Y-71429112D01*
X109141917Y-71481743D01*
X109135354Y-71595667D01*
X109135333Y-71606833D01*
X109139781Y-71724440D01*
X109161394Y-71780162D01*
X109212577Y-71796644D01*
X109239677Y-71797333D01*
X109345804Y-71761436D01*
X109390852Y-71709827D01*
X109405057Y-71606404D01*
X109405057Y-71779916D01*
X109385279Y-71800006D01*
X109261963Y-71865508D01*
X109169007Y-71882000D01*
X109029500Y-71882000D01*
X109029500Y-71628000D01*
X109029500Y-71374000D01*
X109202855Y-71374000D01*
X109361521Y-71401549D01*
X109470924Y-71476886D01*
X109515952Y-71589043D01*
X109516333Y-71601507D01*
X109516333Y-71601507D01*
G36*
X109855000Y-71419186D02*
X109822042Y-71445110D01*
X109770333Y-71437500D01*
X109701671Y-71434539D01*
X109685666Y-71476980D01*
X109718308Y-71534916D01*
X109749166Y-71543333D01*
X109805306Y-71576539D01*
X109812666Y-71605504D01*
X109784617Y-71648212D01*
X109749166Y-71643308D01*
X109698588Y-71649406D01*
X109685666Y-71713074D01*
X109701763Y-71781775D01*
X109763853Y-71786639D01*
X109772750Y-71784435D01*
X109837858Y-71783174D01*
X109843573Y-71811247D01*
X109794070Y-71850670D01*
X109703573Y-71873328D01*
X109579833Y-71885823D01*
X109579833Y-71630030D01*
X109579833Y-71374236D01*
X109717416Y-71374118D01*
X109811047Y-71386189D01*
X109854603Y-71415752D01*
X109855000Y-71419186D01*
X109855000Y-71419186D01*
X109855000Y-71419186D01*
G37*
X109855000Y-71419186D02*
X109822042Y-71445110D01*
X109770333Y-71437500D01*
X109701671Y-71434539D01*
X109685666Y-71476980D01*
X109718308Y-71534916D01*
X109749166Y-71543333D01*
X109805306Y-71576539D01*
X109812666Y-71605504D01*
X109784617Y-71648212D01*
X109749166Y-71643308D01*
X109698588Y-71649406D01*
X109685666Y-71713074D01*
X109701763Y-71781775D01*
X109763853Y-71786639D01*
X109772750Y-71784435D01*
X109837858Y-71783174D01*
X109843573Y-71811247D01*
X109794070Y-71850670D01*
X109703573Y-71873328D01*
X109579833Y-71885823D01*
X109579833Y-71630030D01*
X109579833Y-71374236D01*
X109717416Y-71374118D01*
X109811047Y-71386189D01*
X109854603Y-71415752D01*
X109855000Y-71419186D01*
X109855000Y-71419186D01*
G36*
X110807933Y-71856092D02*
X110793266Y-71880007D01*
X110765094Y-71882000D01*
X110702818Y-71846583D01*
X110659333Y-71776166D01*
X110607772Y-71697341D01*
X110565622Y-71675952D01*
X110565622Y-71563649D01*
X110560555Y-71557444D01*
X110535388Y-71563255D01*
X110532333Y-71585666D01*
X110547822Y-71620511D01*
X110560555Y-71613888D01*
X110565622Y-71563649D01*
X110565622Y-71675952D01*
X110554547Y-71670333D01*
X110502388Y-71707027D01*
X110490000Y-71776166D01*
X110470477Y-71858820D01*
X110403409Y-71882000D01*
X110315578Y-71853303D01*
X110218509Y-71783485D01*
X110210984Y-71776166D01*
X110186187Y-71753339D01*
X110186187Y-71515091D01*
X110150835Y-71444526D01*
X110101921Y-71428759D01*
X110069003Y-71472148D01*
X110066666Y-71497472D01*
X110093559Y-71570246D01*
X110133270Y-71585666D01*
X110184133Y-71553927D01*
X110186187Y-71515091D01*
X110186187Y-71753339D01*
X110134476Y-71705739D01*
X110084897Y-71671080D01*
X110081319Y-71670333D01*
X110072432Y-71705271D01*
X110084050Y-71776166D01*
X110091431Y-71855742D01*
X110050074Y-71881463D01*
X110035723Y-71882019D01*
X109993582Y-71869558D01*
X109970750Y-71819795D01*
X109961802Y-71714201D01*
X109960833Y-71626214D01*
X109960833Y-71370390D01*
X110109000Y-71382778D01*
X110207704Y-71397649D01*
X110245577Y-71437356D01*
X110246426Y-71528922D01*
X110245716Y-71537951D01*
X110255237Y-71663287D01*
X110296928Y-71758750D01*
X110358907Y-71797325D01*
X110359820Y-71797333D01*
X110388943Y-71761035D01*
X110432926Y-71667782D01*
X110464722Y-71585666D01*
X110513225Y-71467408D01*
X110556207Y-71390582D01*
X110575635Y-71374000D01*
X110609203Y-71410256D01*
X110649818Y-71500506D01*
X110660768Y-71532750D01*
X110710182Y-71664271D01*
X110764590Y-71776357D01*
X110770860Y-71786750D01*
X110807933Y-71856092D01*
X110807933Y-71856092D01*
X110807933Y-71856092D01*
G37*
X110807933Y-71856092D02*
X110793266Y-71880007D01*
X110765094Y-71882000D01*
X110702818Y-71846583D01*
X110659333Y-71776166D01*
X110607772Y-71697341D01*
X110565622Y-71675952D01*
X110565622Y-71563649D01*
X110560555Y-71557444D01*
X110535388Y-71563255D01*
X110532333Y-71585666D01*
X110547822Y-71620511D01*
X110560555Y-71613888D01*
X110565622Y-71563649D01*
X110565622Y-71675952D01*
X110554547Y-71670333D01*
X110502388Y-71707027D01*
X110490000Y-71776166D01*
X110470477Y-71858820D01*
X110403409Y-71882000D01*
X110315578Y-71853303D01*
X110218509Y-71783485D01*
X110210984Y-71776166D01*
X110186187Y-71753339D01*
X110186187Y-71515091D01*
X110150835Y-71444526D01*
X110101921Y-71428759D01*
X110069003Y-71472148D01*
X110066666Y-71497472D01*
X110093559Y-71570246D01*
X110133270Y-71585666D01*
X110184133Y-71553927D01*
X110186187Y-71515091D01*
X110186187Y-71753339D01*
X110134476Y-71705739D01*
X110084897Y-71671080D01*
X110081319Y-71670333D01*
X110072432Y-71705271D01*
X110084050Y-71776166D01*
X110091431Y-71855742D01*
X110050074Y-71881463D01*
X110035723Y-71882019D01*
X109993582Y-71869558D01*
X109970750Y-71819795D01*
X109961802Y-71714201D01*
X109960833Y-71626214D01*
X109960833Y-71370390D01*
X110109000Y-71382778D01*
X110207704Y-71397649D01*
X110245577Y-71437356D01*
X110246426Y-71528922D01*
X110245716Y-71537951D01*
X110255237Y-71663287D01*
X110296928Y-71758750D01*
X110358907Y-71797325D01*
X110359820Y-71797333D01*
X110388943Y-71761035D01*
X110432926Y-71667782D01*
X110464722Y-71585666D01*
X110513225Y-71467408D01*
X110556207Y-71390582D01*
X110575635Y-71374000D01*
X110609203Y-71410256D01*
X110649818Y-71500506D01*
X110660768Y-71532750D01*
X110710182Y-71664271D01*
X110764590Y-71776357D01*
X110770860Y-71786750D01*
X110807933Y-71856092D01*
X110807933Y-71856092D01*
G36*
X111151754Y-71815914D02*
X111102336Y-71851278D01*
X111009203Y-71873809D01*
X110878761Y-71886785D01*
X110864297Y-71630315D01*
X110860108Y-71484183D01*
X110870604Y-71404924D01*
X110899039Y-71375519D01*
X110913333Y-71373854D01*
X110954180Y-71397574D01*
X110973503Y-71479003D01*
X110976833Y-71575014D01*
X110980940Y-71696755D01*
X111000254Y-71755463D01*
X111045262Y-71772638D01*
X111073245Y-71772680D01*
X111145516Y-71784253D01*
X111151754Y-71815914D01*
X111151754Y-71815914D01*
X111151754Y-71815914D01*
G37*
X111151754Y-71815914D02*
X111102336Y-71851278D01*
X111009203Y-71873809D01*
X110878761Y-71886785D01*
X110864297Y-71630315D01*
X110860108Y-71484183D01*
X110870604Y-71404924D01*
X110899039Y-71375519D01*
X110913333Y-71373854D01*
X110954180Y-71397574D01*
X110973503Y-71479003D01*
X110976833Y-71575014D01*
X110980940Y-71696755D01*
X111000254Y-71755463D01*
X111045262Y-71772638D01*
X111073245Y-71772680D01*
X111145516Y-71784253D01*
X111151754Y-71815914D01*
X111151754Y-71815914D01*
G36*
X111506000Y-71419186D02*
X111473042Y-71445110D01*
X111421333Y-71437500D01*
X111352671Y-71434539D01*
X111336666Y-71476980D01*
X111369308Y-71534916D01*
X111400166Y-71543333D01*
X111456306Y-71576539D01*
X111463666Y-71605504D01*
X111435617Y-71648212D01*
X111400166Y-71643308D01*
X111349588Y-71649406D01*
X111336666Y-71713074D01*
X111352763Y-71781775D01*
X111414853Y-71786639D01*
X111423750Y-71784435D01*
X111488858Y-71783174D01*
X111494573Y-71811247D01*
X111445070Y-71850664D01*
X111354573Y-71873309D01*
X111230833Y-71885785D01*
X111230833Y-71629892D01*
X111230833Y-71374000D01*
X111368416Y-71374000D01*
X111462049Y-71386152D01*
X111505604Y-71415753D01*
X111506000Y-71419186D01*
X111506000Y-71419186D01*
X111506000Y-71419186D01*
G37*
X111506000Y-71419186D02*
X111473042Y-71445110D01*
X111421333Y-71437500D01*
X111352671Y-71434539D01*
X111336666Y-71476980D01*
X111369308Y-71534916D01*
X111400166Y-71543333D01*
X111456306Y-71576539D01*
X111463666Y-71605504D01*
X111435617Y-71648212D01*
X111400166Y-71643308D01*
X111349588Y-71649406D01*
X111336666Y-71713074D01*
X111352763Y-71781775D01*
X111414853Y-71786639D01*
X111423750Y-71784435D01*
X111488858Y-71783174D01*
X111494573Y-71811247D01*
X111445070Y-71850664D01*
X111354573Y-71873309D01*
X111230833Y-71885785D01*
X111230833Y-71629892D01*
X111230833Y-71374000D01*
X111368416Y-71374000D01*
X111462049Y-71386152D01*
X111505604Y-71415753D01*
X111506000Y-71419186D01*
X111506000Y-71419186D01*
G36*
X112278583Y-71614988D02*
X112240229Y-71739082D01*
X112175808Y-71799105D01*
X112175808Y-71657190D01*
X112161725Y-71525029D01*
X112093366Y-71439416D01*
X112008816Y-71416333D01*
X111959105Y-71430429D01*
X111935464Y-71486592D01*
X111929336Y-71605632D01*
X111929333Y-71609645D01*
X111932666Y-71727409D01*
X111951782Y-71781668D01*
X112000357Y-71793558D01*
X112045750Y-71789561D01*
X112135566Y-71759996D01*
X112172356Y-71681645D01*
X112175808Y-71657190D01*
X112175808Y-71799105D01*
X112139229Y-71833188D01*
X111996675Y-71879825D01*
X111956393Y-71882019D01*
X111823500Y-71882039D01*
X111823500Y-71628137D01*
X111823500Y-71374236D01*
X111998233Y-71374118D01*
X112154830Y-71397030D01*
X112245939Y-71469896D01*
X112278315Y-71598520D01*
X112278583Y-71614988D01*
X112278583Y-71614988D01*
X112278583Y-71614988D01*
G37*
X112278583Y-71614988D02*
X112240229Y-71739082D01*
X112175808Y-71799105D01*
X112175808Y-71657190D01*
X112161725Y-71525029D01*
X112093366Y-71439416D01*
X112008816Y-71416333D01*
X111959105Y-71430429D01*
X111935464Y-71486592D01*
X111929336Y-71605632D01*
X111929333Y-71609645D01*
X111932666Y-71727409D01*
X111951782Y-71781668D01*
X112000357Y-71793558D01*
X112045750Y-71789561D01*
X112135566Y-71759996D01*
X112172356Y-71681645D01*
X112175808Y-71657190D01*
X112175808Y-71799105D01*
X112139229Y-71833188D01*
X111996675Y-71879825D01*
X111956393Y-71882019D01*
X111823500Y-71882039D01*
X111823500Y-71628137D01*
X111823500Y-71374236D01*
X111998233Y-71374118D01*
X112154830Y-71397030D01*
X112245939Y-71469896D01*
X112278315Y-71598520D01*
X112278583Y-71614988D01*
X112278583Y-71614988D01*
G36*
X112649000Y-71822463D02*
X112611060Y-71868742D01*
X112525760Y-71882000D01*
X112457325Y-71877815D01*
X112419034Y-71851991D01*
X112400109Y-71784617D01*
X112389767Y-71655786D01*
X112388176Y-71627922D01*
X112373833Y-71373845D01*
X112511416Y-71373922D01*
X112605078Y-71384302D01*
X112648610Y-71409478D01*
X112649000Y-71412370D01*
X112615286Y-71434145D01*
X112564333Y-71428599D01*
X112494965Y-71431421D01*
X112479666Y-71474895D01*
X112514959Y-71531897D01*
X112564333Y-71543333D01*
X112634295Y-71571068D01*
X112649000Y-71609686D01*
X112624969Y-71655868D01*
X112564333Y-71649166D01*
X112498704Y-71645228D01*
X112479784Y-71704922D01*
X112479666Y-71714751D01*
X112496585Y-71782489D01*
X112560187Y-71786122D01*
X112564333Y-71785067D01*
X112635061Y-71788452D01*
X112649000Y-71822463D01*
X112649000Y-71822463D01*
X112649000Y-71822463D01*
G37*
X112649000Y-71822463D02*
X112611060Y-71868742D01*
X112525760Y-71882000D01*
X112457325Y-71877815D01*
X112419034Y-71851991D01*
X112400109Y-71784617D01*
X112389767Y-71655786D01*
X112388176Y-71627922D01*
X112373833Y-71373845D01*
X112511416Y-71373922D01*
X112605078Y-71384302D01*
X112648610Y-71409478D01*
X112649000Y-71412370D01*
X112615286Y-71434145D01*
X112564333Y-71428599D01*
X112494965Y-71431421D01*
X112479666Y-71474895D01*
X112514959Y-71531897D01*
X112564333Y-71543333D01*
X112634295Y-71571068D01*
X112649000Y-71609686D01*
X112624969Y-71655868D01*
X112564333Y-71649166D01*
X112498704Y-71645228D01*
X112479784Y-71704922D01*
X112479666Y-71714751D01*
X112496585Y-71782489D01*
X112560187Y-71786122D01*
X112564333Y-71785067D01*
X112635061Y-71788452D01*
X112649000Y-71822463D01*
X112649000Y-71822463D01*
G36*
X113262848Y-71800207D02*
X113257176Y-71817976D01*
X113197572Y-71866375D01*
X113099554Y-71882000D01*
X112966500Y-71882000D01*
X112966500Y-71628000D01*
X112971378Y-71480505D01*
X112988670Y-71401312D01*
X113022362Y-71374476D01*
X113030000Y-71373973D01*
X113067398Y-71392011D01*
X113082279Y-71457936D01*
X113078580Y-71589402D01*
X113078445Y-71591351D01*
X113071655Y-71718088D01*
X113080435Y-71779125D01*
X113114067Y-71793195D01*
X113172568Y-71781354D01*
X113248851Y-71770808D01*
X113262848Y-71800207D01*
X113262848Y-71800207D01*
X113262848Y-71800207D01*
G37*
X113262848Y-71800207D02*
X113257176Y-71817976D01*
X113197572Y-71866375D01*
X113099554Y-71882000D01*
X112966500Y-71882000D01*
X112966500Y-71628000D01*
X112971378Y-71480505D01*
X112988670Y-71401312D01*
X113022362Y-71374476D01*
X113030000Y-71373973D01*
X113067398Y-71392011D01*
X113082279Y-71457936D01*
X113078580Y-71589402D01*
X113078445Y-71591351D01*
X113071655Y-71718088D01*
X113080435Y-71779125D01*
X113114067Y-71793195D01*
X113172568Y-71781354D01*
X113248851Y-71770808D01*
X113262848Y-71800207D01*
X113262848Y-71800207D01*
G36*
X113691749Y-71870079D02*
X113668481Y-71882000D01*
X113619556Y-71846876D01*
X113580333Y-71776166D01*
X113524670Y-71692883D01*
X113486622Y-71682334D01*
X113486622Y-71563649D01*
X113481555Y-71557444D01*
X113456388Y-71563255D01*
X113453333Y-71585666D01*
X113468822Y-71620511D01*
X113481555Y-71613888D01*
X113486622Y-71563649D01*
X113486622Y-71682334D01*
X113461057Y-71675247D01*
X113412826Y-71725091D01*
X113403360Y-71762267D01*
X113377251Y-71824587D01*
X113333018Y-71874156D01*
X113294608Y-71889738D01*
X113284000Y-71868128D01*
X113299308Y-71805236D01*
X113337797Y-71700391D01*
X113388313Y-71579397D01*
X113439703Y-71468061D01*
X113480814Y-71392190D01*
X113497562Y-71374000D01*
X113529694Y-71410157D01*
X113573281Y-71501520D01*
X113593042Y-71553916D01*
X113638757Y-71681832D01*
X113677276Y-71785243D01*
X113686218Y-71807916D01*
X113691749Y-71870079D01*
X113691749Y-71870079D01*
X113691749Y-71870079D01*
G37*
X113691749Y-71870079D02*
X113668481Y-71882000D01*
X113619556Y-71846876D01*
X113580333Y-71776166D01*
X113524670Y-71692883D01*
X113486622Y-71682334D01*
X113486622Y-71563649D01*
X113481555Y-71557444D01*
X113456388Y-71563255D01*
X113453333Y-71585666D01*
X113468822Y-71620511D01*
X113481555Y-71613888D01*
X113486622Y-71563649D01*
X113486622Y-71682334D01*
X113461057Y-71675247D01*
X113412826Y-71725091D01*
X113403360Y-71762267D01*
X113377251Y-71824587D01*
X113333018Y-71874156D01*
X113294608Y-71889738D01*
X113284000Y-71868128D01*
X113299308Y-71805236D01*
X113337797Y-71700391D01*
X113388313Y-71579397D01*
X113439703Y-71468061D01*
X113480814Y-71392190D01*
X113497562Y-71374000D01*
X113529694Y-71410157D01*
X113573281Y-71501520D01*
X113593042Y-71553916D01*
X113638757Y-71681832D01*
X113677276Y-71785243D01*
X113686218Y-71807916D01*
X113691749Y-71870079D01*
X113691749Y-71870079D01*
G36*
X114184904Y-71441557D02*
X114176781Y-71554917D01*
X114172527Y-71589353D01*
X114130596Y-71762285D01*
X114060698Y-71859542D01*
X113965859Y-71878773D01*
X113863898Y-71829083D01*
X113813975Y-71757530D01*
X113769780Y-71637459D01*
X113755439Y-71575083D01*
X113736518Y-71454010D01*
X113741225Y-71394342D01*
X113773703Y-71375087D01*
X113795145Y-71374000D01*
X113844301Y-71391039D01*
X113871562Y-71455064D01*
X113884930Y-71575083D01*
X113898597Y-71699043D01*
X113925411Y-71759122D01*
X113975428Y-71776049D01*
X113982500Y-71776166D01*
X114034301Y-71764408D01*
X114059498Y-71715017D01*
X114067003Y-71606818D01*
X114067166Y-71575014D01*
X114074072Y-71447320D01*
X114098572Y-71386291D01*
X114133660Y-71373931D01*
X114171689Y-71387652D01*
X114184904Y-71441557D01*
X114184904Y-71441557D01*
X114184904Y-71441557D01*
G37*
X114184904Y-71441557D02*
X114176781Y-71554917D01*
X114172527Y-71589353D01*
X114130596Y-71762285D01*
X114060698Y-71859542D01*
X113965859Y-71878773D01*
X113863898Y-71829083D01*
X113813975Y-71757530D01*
X113769780Y-71637459D01*
X113755439Y-71575083D01*
X113736518Y-71454010D01*
X113741225Y-71394342D01*
X113773703Y-71375087D01*
X113795145Y-71374000D01*
X113844301Y-71391039D01*
X113871562Y-71455064D01*
X113884930Y-71575083D01*
X113898597Y-71699043D01*
X113925411Y-71759122D01*
X113975428Y-71776049D01*
X113982500Y-71776166D01*
X114034301Y-71764408D01*
X114059498Y-71715017D01*
X114067003Y-71606818D01*
X114067166Y-71575014D01*
X114074072Y-71447320D01*
X114098572Y-71386291D01*
X114133660Y-71373931D01*
X114171689Y-71387652D01*
X114184904Y-71441557D01*
X114184904Y-71441557D01*
G36*
X114548990Y-71401847D02*
X114540272Y-71438480D01*
X114472440Y-71438459D01*
X114469333Y-71437500D01*
X114402047Y-71427169D01*
X114384666Y-71438553D01*
X114408368Y-71488014D01*
X114465767Y-71569556D01*
X114469333Y-71574115D01*
X114541153Y-71692024D01*
X114540147Y-71777512D01*
X114472116Y-71838177D01*
X114363412Y-71879333D01*
X114292829Y-71860157D01*
X114285888Y-71853777D01*
X114256754Y-71797385D01*
X114297916Y-71772360D01*
X114363500Y-71779949D01*
X114447525Y-71785139D01*
X114462992Y-71746613D01*
X114408667Y-71671996D01*
X114384666Y-71649166D01*
X114315816Y-71551359D01*
X114304073Y-71453589D01*
X114341484Y-71377685D01*
X114420096Y-71345479D01*
X114490500Y-71358691D01*
X114548990Y-71401847D01*
X114548990Y-71401847D01*
X114548990Y-71401847D01*
G37*
X114548990Y-71401847D02*
X114540272Y-71438480D01*
X114472440Y-71438459D01*
X114469333Y-71437500D01*
X114402047Y-71427169D01*
X114384666Y-71438553D01*
X114408368Y-71488014D01*
X114465767Y-71569556D01*
X114469333Y-71574115D01*
X114541153Y-71692024D01*
X114540147Y-71777512D01*
X114472116Y-71838177D01*
X114363412Y-71879333D01*
X114292829Y-71860157D01*
X114285888Y-71853777D01*
X114256754Y-71797385D01*
X114297916Y-71772360D01*
X114363500Y-71779949D01*
X114447525Y-71785139D01*
X114462992Y-71746613D01*
X114408667Y-71671996D01*
X114384666Y-71649166D01*
X114315816Y-71551359D01*
X114304073Y-71453589D01*
X114341484Y-71377685D01*
X114420096Y-71345479D01*
X114490500Y-71358691D01*
X114548990Y-71401847D01*
X114548990Y-71401847D01*
G36*
X115537819Y-71541910D02*
X115534332Y-71606775D01*
X115520884Y-71734320D01*
X115501414Y-71818912D01*
X115486341Y-71839666D01*
X115441480Y-71810680D01*
X115362029Y-71736194D01*
X115299759Y-71670211D01*
X115211924Y-71575246D01*
X115166371Y-71538161D01*
X115149240Y-71553458D01*
X115146666Y-71609494D01*
X115163939Y-71728130D01*
X115190489Y-71800116D01*
X115210525Y-71854372D01*
X115179798Y-71877315D01*
X115083748Y-71882000D01*
X114969884Y-71867758D01*
X114904825Y-71813403D01*
X114884963Y-71776166D01*
X114832396Y-71698141D01*
X114801348Y-71680089D01*
X114801348Y-71559876D01*
X114794585Y-71535395D01*
X114775787Y-71519360D01*
X114769008Y-71560972D01*
X114776792Y-71615879D01*
X114791243Y-71616534D01*
X114801348Y-71559876D01*
X114801348Y-71680089D01*
X114784567Y-71670333D01*
X114727165Y-71705168D01*
X114695208Y-71779961D01*
X114704527Y-71843486D01*
X114688912Y-71873294D01*
X114635981Y-71882000D01*
X114573430Y-71869585D01*
X114583860Y-71829083D01*
X114621453Y-71760026D01*
X114671774Y-71643980D01*
X114698378Y-71575083D01*
X114745850Y-71460463D01*
X114785858Y-71387648D01*
X114801210Y-71374000D01*
X114830698Y-71410092D01*
X114877074Y-71503303D01*
X114915613Y-71596250D01*
X114969108Y-71717487D01*
X115017481Y-71798211D01*
X115042320Y-71818500D01*
X115067347Y-71780294D01*
X115087822Y-71682164D01*
X115095962Y-71596250D01*
X115107990Y-71472056D01*
X115125163Y-71391389D01*
X115137141Y-71374000D01*
X115178359Y-71403294D01*
X115255132Y-71478930D01*
X115323623Y-71553916D01*
X115420347Y-71650522D01*
X115474900Y-71673812D01*
X115485888Y-71624610D01*
X115451921Y-71503742D01*
X115444047Y-71482589D01*
X115422830Y-71403636D01*
X115449019Y-71375881D01*
X115475797Y-71373942D01*
X115517447Y-71386136D01*
X115536502Y-71435686D01*
X115537819Y-71541910D01*
X115537819Y-71541910D01*
X115537819Y-71541910D01*
G37*
X115537819Y-71541910D02*
X115534332Y-71606775D01*
X115520884Y-71734320D01*
X115501414Y-71818912D01*
X115486341Y-71839666D01*
X115441480Y-71810680D01*
X115362029Y-71736194D01*
X115299759Y-71670211D01*
X115211924Y-71575246D01*
X115166371Y-71538161D01*
X115149240Y-71553458D01*
X115146666Y-71609494D01*
X115163939Y-71728130D01*
X115190489Y-71800116D01*
X115210525Y-71854372D01*
X115179798Y-71877315D01*
X115083748Y-71882000D01*
X114969884Y-71867758D01*
X114904825Y-71813403D01*
X114884963Y-71776166D01*
X114832396Y-71698141D01*
X114801348Y-71680089D01*
X114801348Y-71559876D01*
X114794585Y-71535395D01*
X114775787Y-71519360D01*
X114769008Y-71560972D01*
X114776792Y-71615879D01*
X114791243Y-71616534D01*
X114801348Y-71559876D01*
X114801348Y-71680089D01*
X114784567Y-71670333D01*
X114727165Y-71705168D01*
X114695208Y-71779961D01*
X114704527Y-71843486D01*
X114688912Y-71873294D01*
X114635981Y-71882000D01*
X114573430Y-71869585D01*
X114583860Y-71829083D01*
X114621453Y-71760026D01*
X114671774Y-71643980D01*
X114698378Y-71575083D01*
X114745850Y-71460463D01*
X114785858Y-71387648D01*
X114801210Y-71374000D01*
X114830698Y-71410092D01*
X114877074Y-71503303D01*
X114915613Y-71596250D01*
X114969108Y-71717487D01*
X115017481Y-71798211D01*
X115042320Y-71818500D01*
X115067347Y-71780294D01*
X115087822Y-71682164D01*
X115095962Y-71596250D01*
X115107990Y-71472056D01*
X115125163Y-71391389D01*
X115137141Y-71374000D01*
X115178359Y-71403294D01*
X115255132Y-71478930D01*
X115323623Y-71553916D01*
X115420347Y-71650522D01*
X115474900Y-71673812D01*
X115485888Y-71624610D01*
X115451921Y-71503742D01*
X115444047Y-71482589D01*
X115422830Y-71403636D01*
X115449019Y-71375881D01*
X115475797Y-71373942D01*
X115517447Y-71386136D01*
X115536502Y-71435686D01*
X115537819Y-71541910D01*
X115537819Y-71541910D01*
G36*
X116129668Y-71558968D02*
X116126998Y-71606775D01*
X116114776Y-71734307D01*
X116098464Y-71818899D01*
X116086450Y-71839666D01*
X116043846Y-71812741D01*
X115962028Y-71743492D01*
X115894519Y-71680916D01*
X115728634Y-71522166D01*
X115751122Y-71702083D01*
X115757685Y-71825619D01*
X115735796Y-71878443D01*
X115721238Y-71882000D01*
X115691409Y-71854104D01*
X115682038Y-71763106D01*
X115688185Y-71638583D01*
X115701048Y-71504319D01*
X115714325Y-71408957D01*
X115722660Y-71378285D01*
X115756228Y-71397951D01*
X115827954Y-71466150D01*
X115903760Y-71547618D01*
X116069702Y-71733833D01*
X116037202Y-71553916D01*
X116021646Y-71439960D01*
X116032424Y-71386905D01*
X116073100Y-71373942D01*
X116112233Y-71388266D01*
X116129652Y-71443736D01*
X116129668Y-71558968D01*
X116129668Y-71558968D01*
X116129668Y-71558968D01*
G37*
X116129668Y-71558968D02*
X116126998Y-71606775D01*
X116114776Y-71734307D01*
X116098464Y-71818899D01*
X116086450Y-71839666D01*
X116043846Y-71812741D01*
X115962028Y-71743492D01*
X115894519Y-71680916D01*
X115728634Y-71522166D01*
X115751122Y-71702083D01*
X115757685Y-71825619D01*
X115735796Y-71878443D01*
X115721238Y-71882000D01*
X115691409Y-71854104D01*
X115682038Y-71763106D01*
X115688185Y-71638583D01*
X115701048Y-71504319D01*
X115714325Y-71408957D01*
X115722660Y-71378285D01*
X115756228Y-71397951D01*
X115827954Y-71466150D01*
X115903760Y-71547618D01*
X116069702Y-71733833D01*
X116037202Y-71553916D01*
X116021646Y-71439960D01*
X116032424Y-71386905D01*
X116073100Y-71373942D01*
X116112233Y-71388266D01*
X116129652Y-71443736D01*
X116129668Y-71558968D01*
X116129668Y-71558968D01*
G36*
X116543666Y-71822463D02*
X116504921Y-71868360D01*
X116406083Y-71882000D01*
X116268500Y-71882000D01*
X116268500Y-71628000D01*
X116268500Y-71374000D01*
X116406083Y-71374000D01*
X116499716Y-71386152D01*
X116543270Y-71415753D01*
X116543666Y-71419186D01*
X116510708Y-71445110D01*
X116459000Y-71437500D01*
X116390338Y-71434539D01*
X116374333Y-71476980D01*
X116409621Y-71531854D01*
X116457671Y-71543333D01*
X116518596Y-71564542D01*
X116517667Y-71604160D01*
X116465875Y-71645520D01*
X116434329Y-71641964D01*
X116385814Y-71652237D01*
X116374333Y-71713074D01*
X116390700Y-71781901D01*
X116452664Y-71786655D01*
X116459000Y-71785067D01*
X116529728Y-71788452D01*
X116543666Y-71822463D01*
X116543666Y-71822463D01*
X116543666Y-71822463D01*
G37*
X116543666Y-71822463D02*
X116504921Y-71868360D01*
X116406083Y-71882000D01*
X116268500Y-71882000D01*
X116268500Y-71628000D01*
X116268500Y-71374000D01*
X116406083Y-71374000D01*
X116499716Y-71386152D01*
X116543270Y-71415753D01*
X116543666Y-71419186D01*
X116510708Y-71445110D01*
X116459000Y-71437500D01*
X116390338Y-71434539D01*
X116374333Y-71476980D01*
X116409621Y-71531854D01*
X116457671Y-71543333D01*
X116518596Y-71564542D01*
X116517667Y-71604160D01*
X116465875Y-71645520D01*
X116434329Y-71641964D01*
X116385814Y-71652237D01*
X116374333Y-71713074D01*
X116390700Y-71781901D01*
X116452664Y-71786655D01*
X116459000Y-71785067D01*
X116529728Y-71788452D01*
X116543666Y-71822463D01*
X116543666Y-71822463D01*
G36*
X108881333Y-71289333D02*
X108846875Y-71326485D01*
X108815334Y-71331666D01*
X108771517Y-71311143D01*
X108775500Y-71289333D01*
X108829621Y-71248614D01*
X108841498Y-71247000D01*
X108880193Y-71279289D01*
X108881333Y-71289333D01*
X108881333Y-71289333D01*
X108881333Y-71289333D01*
G37*
X108881333Y-71289333D02*
X108846875Y-71326485D01*
X108815334Y-71331666D01*
X108771517Y-71311143D01*
X108775500Y-71289333D01*
X108829621Y-71248614D01*
X108841498Y-71247000D01*
X108880193Y-71279289D01*
X108881333Y-71289333D01*
X108881333Y-71289333D01*
G36*
X109812666Y-71289333D02*
X109776812Y-71322123D01*
X109717416Y-71331018D01*
X109655559Y-71324334D01*
X109670767Y-71299433D01*
X109685666Y-71289333D01*
X109773270Y-71249941D01*
X109811356Y-71275156D01*
X109812666Y-71289333D01*
X109812666Y-71289333D01*
X109812666Y-71289333D01*
G37*
X109812666Y-71289333D02*
X109776812Y-71322123D01*
X109717416Y-71331018D01*
X109655559Y-71324334D01*
X109670767Y-71299433D01*
X109685666Y-71289333D01*
X109773270Y-71249941D01*
X109811356Y-71275156D01*
X109812666Y-71289333D01*
X109812666Y-71289333D01*
G36*
X116056345Y-71185861D02*
X116035666Y-71204666D01*
X115909220Y-71242170D01*
X115756448Y-71225605D01*
X115654666Y-71183500D01*
X115570000Y-71152092D01*
X115570000Y-70866000D01*
X115541368Y-70772845D01*
X115503476Y-70720857D01*
X115407526Y-70663288D01*
X115322049Y-70672912D01*
X115259666Y-70732281D01*
X115232995Y-70823948D01*
X115254655Y-70930466D01*
X115301394Y-71000249D01*
X115378066Y-71066731D01*
X115442826Y-71061872D01*
X115503476Y-71011142D01*
X115558072Y-70922709D01*
X115570000Y-70866000D01*
X115570000Y-71152092D01*
X115531508Y-71137813D01*
X115417811Y-71121500D01*
X115275938Y-71084063D01*
X115179511Y-70987214D01*
X115146666Y-70858644D01*
X115182760Y-70737381D01*
X115273833Y-70651966D01*
X115394070Y-70612932D01*
X115517656Y-70630810D01*
X115588142Y-70678523D01*
X115635972Y-70765685D01*
X115653254Y-70877374D01*
X115637949Y-70976168D01*
X115606614Y-71017701D01*
X115594173Y-71054409D01*
X115645617Y-71095698D01*
X115741219Y-71132794D01*
X115861259Y-71156924D01*
X115929833Y-71161481D01*
X116031425Y-71167964D01*
X116056345Y-71185861D01*
X116056345Y-71185861D01*
X116056345Y-71185861D01*
G37*
X116056345Y-71185861D02*
X116035666Y-71204666D01*
X115909220Y-71242170D01*
X115756448Y-71225605D01*
X115654666Y-71183500D01*
X115570000Y-71152092D01*
X115570000Y-70866000D01*
X115541368Y-70772845D01*
X115503476Y-70720857D01*
X115407526Y-70663288D01*
X115322049Y-70672912D01*
X115259666Y-70732281D01*
X115232995Y-70823948D01*
X115254655Y-70930466D01*
X115301394Y-71000249D01*
X115378066Y-71066731D01*
X115442826Y-71061872D01*
X115503476Y-71011142D01*
X115558072Y-70922709D01*
X115570000Y-70866000D01*
X115570000Y-71152092D01*
X115531508Y-71137813D01*
X115417811Y-71121500D01*
X115275938Y-71084063D01*
X115179511Y-70987214D01*
X115146666Y-70858644D01*
X115182760Y-70737381D01*
X115273833Y-70651966D01*
X115394070Y-70612932D01*
X115517656Y-70630810D01*
X115588142Y-70678523D01*
X115635972Y-70765685D01*
X115653254Y-70877374D01*
X115637949Y-70976168D01*
X115606614Y-71017701D01*
X115594173Y-71054409D01*
X115645617Y-71095698D01*
X115741219Y-71132794D01*
X115861259Y-71156924D01*
X115929833Y-71161481D01*
X116031425Y-71167964D01*
X116056345Y-71185861D01*
X116056345Y-71185861D01*
G36*
X108542666Y-71060463D02*
X108503921Y-71106360D01*
X108405083Y-71120000D01*
X108267500Y-71120000D01*
X108267500Y-70866000D01*
X108272765Y-70732034D01*
X108286451Y-70639996D01*
X108302273Y-70612000D01*
X108357104Y-70585183D01*
X108402563Y-70546484D01*
X108464072Y-70504683D01*
X108493563Y-70506452D01*
X108486104Y-70546275D01*
X108456774Y-70571320D01*
X108419665Y-70602907D01*
X108462408Y-70611274D01*
X108468583Y-70611351D01*
X108531406Y-70633213D01*
X108542666Y-70657186D01*
X108509708Y-70683110D01*
X108457999Y-70675500D01*
X108391602Y-70671886D01*
X108373351Y-70732557D01*
X108373333Y-70736147D01*
X108401824Y-70808814D01*
X108458000Y-70823666D01*
X108526770Y-70842574D01*
X108542666Y-70868852D01*
X108509708Y-70894777D01*
X108458000Y-70887166D01*
X108392371Y-70883228D01*
X108373451Y-70942922D01*
X108373333Y-70952751D01*
X108390252Y-71020489D01*
X108453853Y-71024122D01*
X108458000Y-71023067D01*
X108528728Y-71026452D01*
X108542666Y-71060463D01*
X108542666Y-71060463D01*
X108542666Y-71060463D01*
G37*
X108542666Y-71060463D02*
X108503921Y-71106360D01*
X108405083Y-71120000D01*
X108267500Y-71120000D01*
X108267500Y-70866000D01*
X108272765Y-70732034D01*
X108286451Y-70639996D01*
X108302273Y-70612000D01*
X108357104Y-70585183D01*
X108402563Y-70546484D01*
X108464072Y-70504683D01*
X108493563Y-70506452D01*
X108486104Y-70546275D01*
X108456774Y-70571320D01*
X108419665Y-70602907D01*
X108462408Y-70611274D01*
X108468583Y-70611351D01*
X108531406Y-70633213D01*
X108542666Y-70657186D01*
X108509708Y-70683110D01*
X108457999Y-70675500D01*
X108391602Y-70671886D01*
X108373351Y-70732557D01*
X108373333Y-70736147D01*
X108401824Y-70808814D01*
X108458000Y-70823666D01*
X108526770Y-70842574D01*
X108542666Y-70868852D01*
X108509708Y-70894777D01*
X108458000Y-70887166D01*
X108392371Y-70883228D01*
X108373451Y-70942922D01*
X108373333Y-70952751D01*
X108390252Y-71020489D01*
X108453853Y-71024122D01*
X108458000Y-71023067D01*
X108528728Y-71026452D01*
X108542666Y-71060463D01*
X108542666Y-71060463D01*
G36*
X109050666Y-71051316D02*
X109015548Y-71099477D01*
X108930049Y-71120210D01*
X108823948Y-71113335D01*
X108727028Y-71078672D01*
X108693857Y-71053476D01*
X108640396Y-70955199D01*
X108627539Y-70832128D01*
X108653934Y-70719263D01*
X108709216Y-70655822D01*
X108816689Y-70619587D01*
X108928587Y-70612163D01*
X109016159Y-70631863D01*
X109050666Y-70675858D01*
X109038913Y-70716755D01*
X108989144Y-70700774D01*
X108965853Y-70686750D01*
X108865178Y-70658171D01*
X108784398Y-70692517D01*
X108733142Y-70768671D01*
X108721039Y-70865517D01*
X108757716Y-70961938D01*
X108815489Y-71016523D01*
X108904008Y-71061331D01*
X108966668Y-71050299D01*
X108987378Y-71035157D01*
X109037328Y-71005859D01*
X109050614Y-71045135D01*
X109050666Y-71051316D01*
X109050666Y-71051316D01*
X109050666Y-71051316D01*
G37*
X109050666Y-71051316D02*
X109015548Y-71099477D01*
X108930049Y-71120210D01*
X108823948Y-71113335D01*
X108727028Y-71078672D01*
X108693857Y-71053476D01*
X108640396Y-70955199D01*
X108627539Y-70832128D01*
X108653934Y-70719263D01*
X108709216Y-70655822D01*
X108816689Y-70619587D01*
X108928587Y-70612163D01*
X109016159Y-70631863D01*
X109050666Y-70675858D01*
X109038913Y-70716755D01*
X108989144Y-70700774D01*
X108965853Y-70686750D01*
X108865178Y-70658171D01*
X108784398Y-70692517D01*
X108733142Y-70768671D01*
X108721039Y-70865517D01*
X108757716Y-70961938D01*
X108815489Y-71016523D01*
X108904008Y-71061331D01*
X108966668Y-71050299D01*
X108987378Y-71035157D01*
X109037328Y-71005859D01*
X109050614Y-71045135D01*
X109050666Y-71051316D01*
X109050666Y-71051316D01*
G36*
X109637532Y-70840649D02*
X109615444Y-70961675D01*
X109558666Y-71035333D01*
X109513551Y-71061406D01*
X109513551Y-70921771D01*
X109507086Y-70819001D01*
X109464496Y-70729421D01*
X109397801Y-70674031D01*
X109319018Y-70673836D01*
X109287048Y-70693721D01*
X109233135Y-70782377D01*
X109223375Y-70896076D01*
X109256966Y-70996280D01*
X109294083Y-71031942D01*
X109378587Y-71071381D01*
X109433515Y-71056966D01*
X109471875Y-71016726D01*
X109513551Y-70921771D01*
X109513551Y-71061406D01*
X109431623Y-71108755D01*
X109289513Y-71106727D01*
X109199868Y-71062492D01*
X109140538Y-70973502D01*
X109122218Y-70848013D01*
X109147342Y-70724896D01*
X109175794Y-70677755D01*
X109270982Y-70621442D01*
X109396750Y-70613675D01*
X109516210Y-70651854D01*
X109577432Y-70706086D01*
X109637532Y-70840649D01*
X109637532Y-70840649D01*
X109637532Y-70840649D01*
G37*
X109637532Y-70840649D02*
X109615444Y-70961675D01*
X109558666Y-71035333D01*
X109513551Y-71061406D01*
X109513551Y-70921771D01*
X109507086Y-70819001D01*
X109464496Y-70729421D01*
X109397801Y-70674031D01*
X109319018Y-70673836D01*
X109287048Y-70693721D01*
X109233135Y-70782377D01*
X109223375Y-70896076D01*
X109256966Y-70996280D01*
X109294083Y-71031942D01*
X109378587Y-71071381D01*
X109433515Y-71056966D01*
X109471875Y-71016726D01*
X109513551Y-70921771D01*
X109513551Y-71061406D01*
X109431623Y-71108755D01*
X109289513Y-71106727D01*
X109199868Y-71062492D01*
X109140538Y-70973502D01*
X109122218Y-70848013D01*
X109147342Y-70724896D01*
X109175794Y-70677755D01*
X109270982Y-70621442D01*
X109396750Y-70613675D01*
X109516210Y-70651854D01*
X109577432Y-70706086D01*
X109637532Y-70840649D01*
X109637532Y-70840649D01*
G36*
X110024333Y-71060463D02*
X109985575Y-71105884D01*
X109876166Y-71120000D01*
X109728000Y-71120000D01*
X109728000Y-70866000D01*
X109731763Y-70722472D01*
X109746648Y-70644942D01*
X109778040Y-70614932D01*
X109802083Y-70611973D01*
X109845295Y-70624324D01*
X109864141Y-70674693D01*
X109864015Y-70782993D01*
X109861085Y-70829754D01*
X109854958Y-70956402D01*
X109864274Y-71017527D01*
X109896170Y-71031863D01*
X109935168Y-71024243D01*
X110009323Y-71025551D01*
X110024333Y-71060463D01*
X110024333Y-71060463D01*
X110024333Y-71060463D01*
G37*
X110024333Y-71060463D02*
X109985575Y-71105884D01*
X109876166Y-71120000D01*
X109728000Y-71120000D01*
X109728000Y-70866000D01*
X109731763Y-70722472D01*
X109746648Y-70644942D01*
X109778040Y-70614932D01*
X109802083Y-70611973D01*
X109845295Y-70624324D01*
X109864141Y-70674693D01*
X109864015Y-70782993D01*
X109861085Y-70829754D01*
X109854958Y-70956402D01*
X109864274Y-71017527D01*
X109896170Y-71031863D01*
X109935168Y-71024243D01*
X110009323Y-71025551D01*
X110024333Y-71060463D01*
X110024333Y-71060463D01*
G36*
X110363000Y-71060463D02*
X110324255Y-71106360D01*
X110225416Y-71120000D01*
X110087833Y-71120000D01*
X110087833Y-70866000D01*
X110087833Y-70612000D01*
X110225416Y-70612000D01*
X110319049Y-70624152D01*
X110362604Y-70653753D01*
X110363000Y-70657186D01*
X110330042Y-70683110D01*
X110278333Y-70675500D01*
X110211935Y-70671886D01*
X110193684Y-70732557D01*
X110193666Y-70736147D01*
X110222157Y-70808814D01*
X110278333Y-70823666D01*
X110347103Y-70842574D01*
X110363000Y-70868852D01*
X110330042Y-70894777D01*
X110278333Y-70887166D01*
X110212704Y-70883228D01*
X110193784Y-70942922D01*
X110193666Y-70952751D01*
X110210585Y-71020489D01*
X110274187Y-71024122D01*
X110278333Y-71023067D01*
X110349061Y-71026452D01*
X110363000Y-71060463D01*
X110363000Y-71060463D01*
X110363000Y-71060463D01*
G37*
X110363000Y-71060463D02*
X110324255Y-71106360D01*
X110225416Y-71120000D01*
X110087833Y-71120000D01*
X110087833Y-70866000D01*
X110087833Y-70612000D01*
X110225416Y-70612000D01*
X110319049Y-70624152D01*
X110362604Y-70653753D01*
X110363000Y-70657186D01*
X110330042Y-70683110D01*
X110278333Y-70675500D01*
X110211935Y-70671886D01*
X110193684Y-70732557D01*
X110193666Y-70736147D01*
X110222157Y-70808814D01*
X110278333Y-70823666D01*
X110347103Y-70842574D01*
X110363000Y-70868852D01*
X110330042Y-70894777D01*
X110278333Y-70887166D01*
X110212704Y-70883228D01*
X110193784Y-70942922D01*
X110193666Y-70952751D01*
X110210585Y-71020489D01*
X110274187Y-71024122D01*
X110278333Y-71023067D01*
X110349061Y-71026452D01*
X110363000Y-71060463D01*
X110363000Y-71060463D01*
G36*
X110973142Y-70708808D02*
X110963651Y-70807690D01*
X110957114Y-70820960D01*
X110894677Y-70889501D01*
X110894677Y-70819604D01*
X110891108Y-70757252D01*
X110854842Y-70704699D01*
X110805730Y-70663817D01*
X110788297Y-70689048D01*
X110786333Y-70751095D01*
X110803801Y-70841201D01*
X110846367Y-70864553D01*
X110894677Y-70819604D01*
X110894677Y-70889501D01*
X110894364Y-70889845D01*
X110843408Y-70908333D01*
X110796064Y-70933058D01*
X110796694Y-71014166D01*
X110796966Y-71096169D01*
X110748712Y-71120000D01*
X110709701Y-71103999D01*
X110688668Y-71044379D01*
X110680932Y-70923710D01*
X110680500Y-70866000D01*
X110682577Y-70725318D01*
X110694623Y-70649374D01*
X110725363Y-70618248D01*
X110783519Y-70612020D01*
X110791733Y-70612000D01*
X110911944Y-70638660D01*
X110973142Y-70708808D01*
X110973142Y-70708808D01*
X110973142Y-70708808D01*
G37*
X110973142Y-70708808D02*
X110963651Y-70807690D01*
X110957114Y-70820960D01*
X110894677Y-70889501D01*
X110894677Y-70819604D01*
X110891108Y-70757252D01*
X110854842Y-70704699D01*
X110805730Y-70663817D01*
X110788297Y-70689048D01*
X110786333Y-70751095D01*
X110803801Y-70841201D01*
X110846367Y-70864553D01*
X110894677Y-70819604D01*
X110894677Y-70889501D01*
X110894364Y-70889845D01*
X110843408Y-70908333D01*
X110796064Y-70933058D01*
X110796694Y-71014166D01*
X110796966Y-71096169D01*
X110748712Y-71120000D01*
X110709701Y-71103999D01*
X110688668Y-71044379D01*
X110680932Y-70923710D01*
X110680500Y-70866000D01*
X110682577Y-70725318D01*
X110694623Y-70649374D01*
X110725363Y-70618248D01*
X110783519Y-70612020D01*
X110791733Y-70612000D01*
X110911944Y-70638660D01*
X110973142Y-70708808D01*
X110973142Y-70708808D01*
G36*
X111548333Y-70862462D02*
X111513717Y-70989949D01*
X111463666Y-71040532D01*
X111463666Y-70866000D01*
X111432764Y-70771037D01*
X111360500Y-70688793D01*
X111278609Y-70654333D01*
X111191372Y-70691664D01*
X111134826Y-70784417D01*
X111125000Y-70850276D01*
X111151485Y-70947015D01*
X111213826Y-71034116D01*
X111286352Y-71077108D01*
X111294333Y-71077666D01*
X111350323Y-71050773D01*
X111397142Y-71011142D01*
X111451739Y-70922709D01*
X111463666Y-70866000D01*
X111463666Y-71040532D01*
X111426011Y-71078588D01*
X111309426Y-71118421D01*
X111188176Y-71099491D01*
X111110394Y-71042583D01*
X111046805Y-70920203D01*
X111052898Y-70793766D01*
X111118187Y-70686445D01*
X111232186Y-70621415D01*
X111305226Y-70612000D01*
X111438906Y-70648431D01*
X111524622Y-70747165D01*
X111548333Y-70862462D01*
X111548333Y-70862462D01*
X111548333Y-70862462D01*
G37*
X111548333Y-70862462D02*
X111513717Y-70989949D01*
X111463666Y-71040532D01*
X111463666Y-70866000D01*
X111432764Y-70771037D01*
X111360500Y-70688793D01*
X111278609Y-70654333D01*
X111191372Y-70691664D01*
X111134826Y-70784417D01*
X111125000Y-70850276D01*
X111151485Y-70947015D01*
X111213826Y-71034116D01*
X111286352Y-71077108D01*
X111294333Y-71077666D01*
X111350323Y-71050773D01*
X111397142Y-71011142D01*
X111451739Y-70922709D01*
X111463666Y-70866000D01*
X111463666Y-71040532D01*
X111426011Y-71078588D01*
X111309426Y-71118421D01*
X111188176Y-71099491D01*
X111110394Y-71042583D01*
X111046805Y-70920203D01*
X111052898Y-70793766D01*
X111118187Y-70686445D01*
X111232186Y-70621415D01*
X111305226Y-70612000D01*
X111438906Y-70648431D01*
X111524622Y-70747165D01*
X111548333Y-70862462D01*
X111548333Y-70862462D01*
G36*
X111929333Y-71060463D02*
X111890587Y-71106364D01*
X111791750Y-71120019D01*
X111654166Y-71120039D01*
X111654166Y-70866137D01*
X111659055Y-70718639D01*
X111676380Y-70639440D01*
X111710125Y-70612595D01*
X111717666Y-70612092D01*
X111755032Y-70630006D01*
X111769928Y-70695740D01*
X111766278Y-70826943D01*
X111766085Y-70829754D01*
X111759958Y-70956402D01*
X111769274Y-71017527D01*
X111801170Y-71031863D01*
X111840168Y-71024243D01*
X111914323Y-71025551D01*
X111929333Y-71060463D01*
X111929333Y-71060463D01*
X111929333Y-71060463D01*
G37*
X111929333Y-71060463D02*
X111890587Y-71106364D01*
X111791750Y-71120019D01*
X111654166Y-71120039D01*
X111654166Y-70866137D01*
X111659055Y-70718639D01*
X111676380Y-70639440D01*
X111710125Y-70612595D01*
X111717666Y-70612092D01*
X111755032Y-70630006D01*
X111769928Y-70695740D01*
X111766278Y-70826943D01*
X111766085Y-70829754D01*
X111759958Y-70956402D01*
X111769274Y-71017527D01*
X111801170Y-71031863D01*
X111840168Y-71024243D01*
X111914323Y-71025551D01*
X111929333Y-71060463D01*
X111929333Y-71060463D01*
G36*
X112776000Y-70657186D02*
X112742826Y-70682944D01*
X112687173Y-70674179D01*
X112637196Y-70664083D01*
X112612600Y-70686790D01*
X112607065Y-70760121D01*
X112613090Y-70883051D01*
X112617169Y-71022455D01*
X112604843Y-71095531D01*
X112572542Y-71119637D01*
X112564333Y-71120115D01*
X112527637Y-71102574D01*
X112512094Y-71038333D01*
X112513986Y-70909964D01*
X112515190Y-70889709D01*
X112521405Y-70757845D01*
X112512911Y-70690672D01*
X112480925Y-70668426D01*
X112418105Y-70671186D01*
X112295748Y-70722384D01*
X112214234Y-70830710D01*
X112190230Y-70972149D01*
X112192779Y-70995837D01*
X112194483Y-71086759D01*
X112156618Y-71118837D01*
X112139538Y-71120000D01*
X112087338Y-71095175D01*
X112086339Y-71024449D01*
X112072970Y-70920586D01*
X112009821Y-70789907D01*
X111997078Y-70770449D01*
X111934725Y-70673563D01*
X111919211Y-70626957D01*
X111947240Y-70612682D01*
X111968005Y-70612000D01*
X112041156Y-70647604D01*
X112068599Y-70696666D01*
X112104677Y-70765350D01*
X112134184Y-70781333D01*
X112180423Y-70746328D01*
X112204500Y-70696666D01*
X112230529Y-70650022D01*
X112284925Y-70624297D01*
X112388378Y-70613636D01*
X112503686Y-70612000D01*
X112657589Y-70618602D01*
X112752332Y-70636834D01*
X112776000Y-70657186D01*
X112776000Y-70657186D01*
X112776000Y-70657186D01*
G37*
X112776000Y-70657186D02*
X112742826Y-70682944D01*
X112687173Y-70674179D01*
X112637196Y-70664083D01*
X112612600Y-70686790D01*
X112607065Y-70760121D01*
X112613090Y-70883051D01*
X112617169Y-71022455D01*
X112604843Y-71095531D01*
X112572542Y-71119637D01*
X112564333Y-71120115D01*
X112527637Y-71102574D01*
X112512094Y-71038333D01*
X112513986Y-70909964D01*
X112515190Y-70889709D01*
X112521405Y-70757845D01*
X112512911Y-70690672D01*
X112480925Y-70668426D01*
X112418105Y-70671186D01*
X112295748Y-70722384D01*
X112214234Y-70830710D01*
X112190230Y-70972149D01*
X112192779Y-70995837D01*
X112194483Y-71086759D01*
X112156618Y-71118837D01*
X112139538Y-71120000D01*
X112087338Y-71095175D01*
X112086339Y-71024449D01*
X112072970Y-70920586D01*
X112009821Y-70789907D01*
X111997078Y-70770449D01*
X111934725Y-70673563D01*
X111919211Y-70626957D01*
X111947240Y-70612682D01*
X111968005Y-70612000D01*
X112041156Y-70647604D01*
X112068599Y-70696666D01*
X112104677Y-70765350D01*
X112134184Y-70781333D01*
X112180423Y-70746328D01*
X112204500Y-70696666D01*
X112230529Y-70650022D01*
X112284925Y-70624297D01*
X112388378Y-70613636D01*
X112503686Y-70612000D01*
X112657589Y-70618602D01*
X112752332Y-70636834D01*
X112776000Y-70657186D01*
X112776000Y-70657186D01*
G36*
X113114666Y-71060463D02*
X113075921Y-71106360D01*
X112977083Y-71120000D01*
X112839500Y-71120000D01*
X112839500Y-70866000D01*
X112839500Y-70612000D01*
X112977083Y-70612000D01*
X113070716Y-70624152D01*
X113114270Y-70653753D01*
X113114666Y-70657186D01*
X113081708Y-70683110D01*
X113030000Y-70675500D01*
X112963602Y-70671886D01*
X112945351Y-70732557D01*
X112945333Y-70736147D01*
X112973443Y-70808445D01*
X113032498Y-70823666D01*
X113091521Y-70839296D01*
X113094642Y-70864151D01*
X113039571Y-70887213D01*
X113007477Y-70880788D01*
X112957713Y-70888411D01*
X112945333Y-70951074D01*
X112961700Y-71019901D01*
X113023664Y-71024655D01*
X113030000Y-71023067D01*
X113100728Y-71026452D01*
X113114666Y-71060463D01*
X113114666Y-71060463D01*
X113114666Y-71060463D01*
G37*
X113114666Y-71060463D02*
X113075921Y-71106360D01*
X112977083Y-71120000D01*
X112839500Y-71120000D01*
X112839500Y-70866000D01*
X112839500Y-70612000D01*
X112977083Y-70612000D01*
X113070716Y-70624152D01*
X113114270Y-70653753D01*
X113114666Y-70657186D01*
X113081708Y-70683110D01*
X113030000Y-70675500D01*
X112963602Y-70671886D01*
X112945351Y-70732557D01*
X112945333Y-70736147D01*
X112973443Y-70808445D01*
X113032498Y-70823666D01*
X113091521Y-70839296D01*
X113094642Y-70864151D01*
X113039571Y-70887213D01*
X113007477Y-70880788D01*
X112957713Y-70888411D01*
X112945333Y-70951074D01*
X112961700Y-71019901D01*
X113023664Y-71024655D01*
X113030000Y-71023067D01*
X113100728Y-71026452D01*
X113114666Y-71060463D01*
X113114666Y-71060463D01*
G36*
X113622666Y-71055010D02*
X113587165Y-71100484D01*
X113500130Y-71119853D01*
X113390766Y-71112510D01*
X113288275Y-71077844D01*
X113263868Y-71062492D01*
X113204538Y-70973502D01*
X113186218Y-70848013D01*
X113211342Y-70724896D01*
X113239794Y-70677755D01*
X113322599Y-70631051D01*
X113452648Y-70612033D01*
X113458516Y-70612000D01*
X113566299Y-70618945D01*
X113613226Y-70648552D01*
X113622666Y-70704757D01*
X113618344Y-70769014D01*
X113593490Y-70756260D01*
X113565753Y-70719682D01*
X113481487Y-70660967D01*
X113386412Y-70666075D01*
X113310869Y-70724839D01*
X113284648Y-70813889D01*
X113312093Y-70954259D01*
X113384269Y-71036282D01*
X113488728Y-71049857D01*
X113548583Y-71028123D01*
X113608262Y-71013774D01*
X113622666Y-71055010D01*
X113622666Y-71055010D01*
X113622666Y-71055010D01*
G37*
X113622666Y-71055010D02*
X113587165Y-71100484D01*
X113500130Y-71119853D01*
X113390766Y-71112510D01*
X113288275Y-71077844D01*
X113263868Y-71062492D01*
X113204538Y-70973502D01*
X113186218Y-70848013D01*
X113211342Y-70724896D01*
X113239794Y-70677755D01*
X113322599Y-70631051D01*
X113452648Y-70612033D01*
X113458516Y-70612000D01*
X113566299Y-70618945D01*
X113613226Y-70648552D01*
X113622666Y-70704757D01*
X113618344Y-70769014D01*
X113593490Y-70756260D01*
X113565753Y-70719682D01*
X113481487Y-70660967D01*
X113386412Y-70666075D01*
X113310869Y-70724839D01*
X113284648Y-70813889D01*
X113312093Y-70954259D01*
X113384269Y-71036282D01*
X113488728Y-71049857D01*
X113548583Y-71028123D01*
X113608262Y-71013774D01*
X113622666Y-71055010D01*
X113622666Y-71055010D01*
G36*
X114184807Y-71008028D02*
X114176178Y-71084866D01*
X114149192Y-71115676D01*
X114116719Y-71120077D01*
X114065073Y-71105662D01*
X114057245Y-71047113D01*
X114067166Y-70993000D01*
X114079499Y-70905600D01*
X114048582Y-70871626D01*
X113959892Y-70866000D01*
X113867799Y-70873202D01*
X113837232Y-70911466D01*
X113843363Y-70993000D01*
X113845236Y-71086350D01*
X113808323Y-71119140D01*
X113795251Y-71120000D01*
X113756920Y-71103034D01*
X113736273Y-71040768D01*
X113728829Y-70916150D01*
X113728500Y-70866000D01*
X113732796Y-70720735D01*
X113748808Y-70642415D01*
X113781214Y-70613610D01*
X113796712Y-70612000D01*
X113844997Y-70635898D01*
X113844694Y-70717833D01*
X113840270Y-70790628D01*
X113880425Y-70819221D01*
X113960987Y-70823666D01*
X114052986Y-70816898D01*
X114081407Y-70783240D01*
X114070949Y-70717833D01*
X114064841Y-70635424D01*
X114104933Y-70612000D01*
X114142873Y-70638809D01*
X114167064Y-70727281D01*
X114179823Y-70866077D01*
X114184807Y-71008028D01*
X114184807Y-71008028D01*
X114184807Y-71008028D01*
G37*
X114184807Y-71008028D02*
X114176178Y-71084866D01*
X114149192Y-71115676D01*
X114116719Y-71120077D01*
X114065073Y-71105662D01*
X114057245Y-71047113D01*
X114067166Y-70993000D01*
X114079499Y-70905600D01*
X114048582Y-70871626D01*
X113959892Y-70866000D01*
X113867799Y-70873202D01*
X113837232Y-70911466D01*
X113843363Y-70993000D01*
X113845236Y-71086350D01*
X113808323Y-71119140D01*
X113795251Y-71120000D01*
X113756920Y-71103034D01*
X113736273Y-71040768D01*
X113728829Y-70916150D01*
X113728500Y-70866000D01*
X113732796Y-70720735D01*
X113748808Y-70642415D01*
X113781214Y-70613610D01*
X113796712Y-70612000D01*
X113844997Y-70635898D01*
X113844694Y-70717833D01*
X113840270Y-70790628D01*
X113880425Y-70819221D01*
X113960987Y-70823666D01*
X114052986Y-70816898D01*
X114081407Y-70783240D01*
X114070949Y-70717833D01*
X114064841Y-70635424D01*
X114104933Y-70612000D01*
X114142873Y-70638809D01*
X114167064Y-70727281D01*
X114179823Y-70866077D01*
X114184807Y-71008028D01*
X114184807Y-71008028D01*
G36*
X114775700Y-70798319D02*
X114772243Y-70870805D01*
X114757654Y-71129764D01*
X114566914Y-70944965D01*
X114376174Y-70760166D01*
X114392122Y-70940083D01*
X114394648Y-71060613D01*
X114371740Y-71113961D01*
X114349506Y-71120000D01*
X114310438Y-71091307D01*
X114316637Y-71053037D01*
X114332306Y-70971352D01*
X114341405Y-70844862D01*
X114342333Y-70790446D01*
X114342333Y-70594817D01*
X114516266Y-70762158D01*
X114690200Y-70929500D01*
X114672934Y-70770750D01*
X114669519Y-70662538D01*
X114694806Y-70617035D01*
X114721250Y-70611922D01*
X114757424Y-70626770D01*
X114774427Y-70683076D01*
X114775700Y-70798319D01*
X114775700Y-70798319D01*
X114775700Y-70798319D01*
G37*
X114775700Y-70798319D02*
X114772243Y-70870805D01*
X114757654Y-71129764D01*
X114566914Y-70944965D01*
X114376174Y-70760166D01*
X114392122Y-70940083D01*
X114394648Y-71060613D01*
X114371740Y-71113961D01*
X114349506Y-71120000D01*
X114310438Y-71091307D01*
X114316637Y-71053037D01*
X114332306Y-70971352D01*
X114341405Y-70844862D01*
X114342333Y-70790446D01*
X114342333Y-70594817D01*
X114516266Y-70762158D01*
X114690200Y-70929500D01*
X114672934Y-70770750D01*
X114669519Y-70662538D01*
X114694806Y-70617035D01*
X114721250Y-70611922D01*
X114757424Y-70626770D01*
X114774427Y-70683076D01*
X114775700Y-70798319D01*
X114775700Y-70798319D01*
G36*
X115040833Y-70866000D02*
X115035956Y-71013486D01*
X115018669Y-71092670D01*
X114984984Y-71119499D01*
X114977333Y-71120000D01*
X114940461Y-71100493D01*
X114920665Y-71031342D01*
X114913958Y-70896604D01*
X114913833Y-70866000D01*
X114918710Y-70718513D01*
X114935997Y-70639329D01*
X114969682Y-70612500D01*
X114977333Y-70612000D01*
X115014204Y-70631506D01*
X115034001Y-70700657D01*
X115040708Y-70835395D01*
X115040833Y-70866000D01*
X115040833Y-70866000D01*
X115040833Y-70866000D01*
G37*
X115040833Y-70866000D02*
X115035956Y-71013486D01*
X115018669Y-71092670D01*
X114984984Y-71119499D01*
X114977333Y-71120000D01*
X114940461Y-71100493D01*
X114920665Y-71031342D01*
X114913958Y-70896604D01*
X114913833Y-70866000D01*
X114918710Y-70718513D01*
X114935997Y-70639329D01*
X114969682Y-70612500D01*
X114977333Y-70612000D01*
X115014204Y-70631506D01*
X115034001Y-70700657D01*
X115040708Y-70835395D01*
X115040833Y-70866000D01*
X115040833Y-70866000D01*
G36*
X116157952Y-70738373D02*
X116151739Y-70854920D01*
X116130275Y-70970222D01*
X116096009Y-71056667D01*
X116073197Y-71081530D01*
X115971699Y-71115513D01*
X115865947Y-71110120D01*
X115796515Y-71067444D01*
X115796408Y-71067271D01*
X115771826Y-70995776D01*
X115747180Y-70875652D01*
X115737999Y-70813271D01*
X115726926Y-70689637D01*
X115737863Y-70629110D01*
X115774807Y-70612072D01*
X115778977Y-70612000D01*
X115820728Y-70630214D01*
X115835213Y-70697568D01*
X115831276Y-70794318D01*
X115837906Y-70941103D01*
X115879008Y-71035234D01*
X115945965Y-71065736D01*
X116018112Y-71032335D01*
X116064433Y-70953335D01*
X116072232Y-70815962D01*
X116070723Y-70794318D01*
X116069205Y-70672453D01*
X116092479Y-70618222D01*
X116114830Y-70612000D01*
X116146465Y-70648195D01*
X116157952Y-70738373D01*
X116157952Y-70738373D01*
X116157952Y-70738373D01*
G37*
X116157952Y-70738373D02*
X116151739Y-70854920D01*
X116130275Y-70970222D01*
X116096009Y-71056667D01*
X116073197Y-71081530D01*
X115971699Y-71115513D01*
X115865947Y-71110120D01*
X115796515Y-71067444D01*
X115796408Y-71067271D01*
X115771826Y-70995776D01*
X115747180Y-70875652D01*
X115737999Y-70813271D01*
X115726926Y-70689637D01*
X115737863Y-70629110D01*
X115774807Y-70612072D01*
X115778977Y-70612000D01*
X115820728Y-70630214D01*
X115835213Y-70697568D01*
X115831276Y-70794318D01*
X115837906Y-70941103D01*
X115879008Y-71035234D01*
X115945965Y-71065736D01*
X116018112Y-71032335D01*
X116064433Y-70953335D01*
X116072232Y-70815962D01*
X116070723Y-70794318D01*
X116069205Y-70672453D01*
X116092479Y-70618222D01*
X116114830Y-70612000D01*
X116146465Y-70648195D01*
X116157952Y-70738373D01*
X116157952Y-70738373D01*
G36*
X116543666Y-71060463D02*
X116504921Y-71106360D01*
X116406083Y-71120000D01*
X116268500Y-71120000D01*
X116268500Y-70866000D01*
X116268500Y-70612000D01*
X116406083Y-70612000D01*
X116499716Y-70624152D01*
X116543270Y-70653753D01*
X116543666Y-70657186D01*
X116510708Y-70683110D01*
X116459000Y-70675500D01*
X116392602Y-70671886D01*
X116374351Y-70732557D01*
X116374333Y-70736147D01*
X116402824Y-70808814D01*
X116459000Y-70823666D01*
X116527770Y-70842574D01*
X116543666Y-70868852D01*
X116510708Y-70894777D01*
X116459000Y-70887166D01*
X116393371Y-70883228D01*
X116374451Y-70942922D01*
X116374333Y-70952751D01*
X116391252Y-71020489D01*
X116454853Y-71024122D01*
X116459000Y-71023067D01*
X116529728Y-71026452D01*
X116543666Y-71060463D01*
X116543666Y-71060463D01*
X116543666Y-71060463D01*
G37*
X116543666Y-71060463D02*
X116504921Y-71106360D01*
X116406083Y-71120000D01*
X116268500Y-71120000D01*
X116268500Y-70866000D01*
X116268500Y-70612000D01*
X116406083Y-70612000D01*
X116499716Y-70624152D01*
X116543270Y-70653753D01*
X116543666Y-70657186D01*
X116510708Y-70683110D01*
X116459000Y-70675500D01*
X116392602Y-70671886D01*
X116374351Y-70732557D01*
X116374333Y-70736147D01*
X116402824Y-70808814D01*
X116459000Y-70823666D01*
X116527770Y-70842574D01*
X116543666Y-70868852D01*
X116510708Y-70894777D01*
X116459000Y-70887166D01*
X116393371Y-70883228D01*
X116374451Y-70942922D01*
X116374333Y-70952751D01*
X116391252Y-71020489D01*
X116454853Y-71024122D01*
X116459000Y-71023067D01*
X116529728Y-71026452D01*
X116543666Y-71060463D01*
X116543666Y-71060463D01*
G36*
X110951771Y-70231000D02*
X109599052Y-70231000D01*
X108246333Y-70231000D01*
X108246333Y-69045666D01*
X108246333Y-67860333D01*
X109605529Y-67860333D01*
X109980577Y-67860567D01*
X110279314Y-67861579D01*
X110510094Y-67863835D01*
X110681272Y-67867802D01*
X110801202Y-67873945D01*
X110878240Y-67882730D01*
X110920739Y-67894624D01*
X110937054Y-67910092D01*
X110935540Y-67929600D01*
X110933671Y-67934416D01*
X110765018Y-68417943D01*
X110676123Y-68874122D01*
X110666947Y-69303904D01*
X110737451Y-69708242D01*
X110848741Y-70008750D01*
X110951771Y-70231000D01*
X110951771Y-70231000D01*
X110951771Y-70231000D01*
G37*
X110951771Y-70231000D02*
X109599052Y-70231000D01*
X108246333Y-70231000D01*
X108246333Y-69045666D01*
X108246333Y-67860333D01*
X109605529Y-67860333D01*
X109980577Y-67860567D01*
X110279314Y-67861579D01*
X110510094Y-67863835D01*
X110681272Y-67867802D01*
X110801202Y-67873945D01*
X110878240Y-67882730D01*
X110920739Y-67894624D01*
X110937054Y-67910092D01*
X110935540Y-67929600D01*
X110933671Y-67934416D01*
X110765018Y-68417943D01*
X110676123Y-68874122D01*
X110666947Y-69303904D01*
X110737451Y-69708242D01*
X110848741Y-70008750D01*
X110951771Y-70231000D01*
X110951771Y-70231000D01*
G36*
X111494154Y-70176598D02*
X111487717Y-70217327D01*
X111414656Y-70230099D01*
X111343903Y-70231000D01*
X111245784Y-70225009D01*
X111183624Y-70193721D01*
X111132321Y-70117159D01*
X111091220Y-70029916D01*
X110990226Y-69771208D01*
X110930275Y-69521294D01*
X110904446Y-69244889D01*
X110902293Y-69066833D01*
X110922453Y-68739239D01*
X110980267Y-68451912D01*
X110998838Y-68389500D01*
X111070420Y-68171375D01*
X111129375Y-68022361D01*
X111184518Y-67929663D01*
X111244665Y-67880486D01*
X111318634Y-67862035D01*
X111363449Y-67860333D01*
X111461908Y-67866567D01*
X111493881Y-67892548D01*
X111483696Y-67934416D01*
X111416617Y-68104483D01*
X111349107Y-68295019D01*
X111288149Y-68483866D01*
X111240723Y-68648867D01*
X111213813Y-68767866D01*
X111210233Y-68802250D01*
X111221599Y-68884961D01*
X111274420Y-68915396D01*
X111336666Y-68918666D01*
X111426620Y-68929156D01*
X111459775Y-68978636D01*
X111463666Y-69045666D01*
X111453177Y-69135620D01*
X111403696Y-69168775D01*
X111336666Y-69172666D01*
X111251605Y-69180811D01*
X111216516Y-69222299D01*
X111209666Y-69322168D01*
X111226236Y-69457134D01*
X111269280Y-69635889D01*
X111328796Y-69825812D01*
X111394785Y-69994286D01*
X111445661Y-70091927D01*
X111494154Y-70176598D01*
X111494154Y-70176598D01*
X111494154Y-70176598D01*
G37*
X111494154Y-70176598D02*
X111487717Y-70217327D01*
X111414656Y-70230099D01*
X111343903Y-70231000D01*
X111245784Y-70225009D01*
X111183624Y-70193721D01*
X111132321Y-70117159D01*
X111091220Y-70029916D01*
X110990226Y-69771208D01*
X110930275Y-69521294D01*
X110904446Y-69244889D01*
X110902293Y-69066833D01*
X110922453Y-68739239D01*
X110980267Y-68451912D01*
X110998838Y-68389500D01*
X111070420Y-68171375D01*
X111129375Y-68022361D01*
X111184518Y-67929663D01*
X111244665Y-67880486D01*
X111318634Y-67862035D01*
X111363449Y-67860333D01*
X111461908Y-67866567D01*
X111493881Y-67892548D01*
X111483696Y-67934416D01*
X111416617Y-68104483D01*
X111349107Y-68295019D01*
X111288149Y-68483866D01*
X111240723Y-68648867D01*
X111213813Y-68767866D01*
X111210233Y-68802250D01*
X111221599Y-68884961D01*
X111274420Y-68915396D01*
X111336666Y-68918666D01*
X111426620Y-68929156D01*
X111459775Y-68978636D01*
X111463666Y-69045666D01*
X111453177Y-69135620D01*
X111403696Y-69168775D01*
X111336666Y-69172666D01*
X111251605Y-69180811D01*
X111216516Y-69222299D01*
X111209666Y-69322168D01*
X111226236Y-69457134D01*
X111269280Y-69635889D01*
X111328796Y-69825812D01*
X111394785Y-69994286D01*
X111445661Y-70091927D01*
X111494154Y-70176598D01*
X111494154Y-70176598D01*
G36*
X111971666Y-70231000D02*
X111823500Y-70231000D01*
X111675333Y-70231000D01*
X111675333Y-69045666D01*
X111675333Y-67860333D01*
X111823500Y-67860333D01*
X111971666Y-67860333D01*
X111971666Y-69045666D01*
X111971666Y-70231000D01*
X111971666Y-70231000D01*
X111971666Y-70231000D01*
G37*
X111971666Y-70231000D02*
X111823500Y-70231000D01*
X111675333Y-70231000D01*
X111675333Y-69045666D01*
X111675333Y-67860333D01*
X111823500Y-67860333D01*
X111971666Y-67860333D01*
X111971666Y-69045666D01*
X111971666Y-70231000D01*
X111971666Y-70231000D01*
G36*
X113157000Y-69045666D02*
X113148740Y-69130993D01*
X113106845Y-69165990D01*
X113008833Y-69172666D01*
X112860666Y-69172666D01*
X112860666Y-69701833D01*
X112860666Y-70231000D01*
X112712500Y-70231000D01*
X112564333Y-70231000D01*
X112564959Y-69500750D01*
X112569495Y-69143027D01*
X112584081Y-68852308D01*
X112611205Y-68611264D01*
X112653354Y-68402572D01*
X112713014Y-68208903D01*
X112771621Y-68061049D01*
X112827805Y-67942115D01*
X112878999Y-67882576D01*
X112948971Y-67862191D01*
X113007328Y-67860333D01*
X113105877Y-67869531D01*
X113155564Y-67892176D01*
X113157000Y-67897285D01*
X113141028Y-67954214D01*
X113100079Y-68060187D01*
X113065767Y-68140483D01*
X112997691Y-68312663D01*
X112935743Y-68501095D01*
X112888135Y-68677509D01*
X112863084Y-68813634D01*
X112861169Y-68844583D01*
X112882543Y-68896762D01*
X112960289Y-68917225D01*
X113008833Y-68918666D01*
X113108380Y-68925746D01*
X113149211Y-68961656D01*
X113157000Y-69045666D01*
X113157000Y-69045666D01*
X113157000Y-69045666D01*
G37*
X113157000Y-69045666D02*
X113148740Y-69130993D01*
X113106845Y-69165990D01*
X113008833Y-69172666D01*
X112860666Y-69172666D01*
X112860666Y-69701833D01*
X112860666Y-70231000D01*
X112712500Y-70231000D01*
X112564333Y-70231000D01*
X112564959Y-69500750D01*
X112569495Y-69143027D01*
X112584081Y-68852308D01*
X112611205Y-68611264D01*
X112653354Y-68402572D01*
X112713014Y-68208903D01*
X112771621Y-68061049D01*
X112827805Y-67942115D01*
X112878999Y-67882576D01*
X112948971Y-67862191D01*
X113007328Y-67860333D01*
X113105877Y-67869531D01*
X113155564Y-67892176D01*
X113157000Y-67897285D01*
X113141028Y-67954214D01*
X113100079Y-68060187D01*
X113065767Y-68140483D01*
X112997691Y-68312663D01*
X112935743Y-68501095D01*
X112888135Y-68677509D01*
X112863084Y-68813634D01*
X112861169Y-68844583D01*
X112882543Y-68896762D01*
X112960289Y-68917225D01*
X113008833Y-68918666D01*
X113108380Y-68925746D01*
X113149211Y-68961656D01*
X113157000Y-69045666D01*
X113157000Y-69045666D01*
G36*
X113862421Y-70178083D02*
X113849275Y-70215855D01*
X113761441Y-70230588D01*
X113734005Y-70231000D01*
X113605915Y-70210903D01*
X113525783Y-70142024D01*
X113521675Y-70135750D01*
X113453453Y-70016714D01*
X113400677Y-69891748D01*
X113361179Y-69747596D01*
X113332786Y-69571001D01*
X113313330Y-69348708D01*
X113300640Y-69067461D01*
X113292963Y-68738750D01*
X113277869Y-67860333D01*
X113425981Y-67860333D01*
X113574092Y-67860333D01*
X113587867Y-68717583D01*
X113592353Y-69004907D01*
X113597452Y-69224725D01*
X113606385Y-69394155D01*
X113622368Y-69530318D01*
X113648621Y-69650333D01*
X113688360Y-69771320D01*
X113744806Y-69910399D01*
X113821176Y-70084689D01*
X113862421Y-70178083D01*
X113862421Y-70178083D01*
X113862421Y-70178083D01*
G37*
X113862421Y-70178083D02*
X113849275Y-70215855D01*
X113761441Y-70230588D01*
X113734005Y-70231000D01*
X113605915Y-70210903D01*
X113525783Y-70142024D01*
X113521675Y-70135750D01*
X113453453Y-70016714D01*
X113400677Y-69891748D01*
X113361179Y-69747596D01*
X113332786Y-69571001D01*
X113313330Y-69348708D01*
X113300640Y-69067461D01*
X113292963Y-68738750D01*
X113277869Y-67860333D01*
X113425981Y-67860333D01*
X113574092Y-67860333D01*
X113587867Y-68717583D01*
X113592353Y-69004907D01*
X113597452Y-69224725D01*
X113606385Y-69394155D01*
X113622368Y-69530318D01*
X113648621Y-69650333D01*
X113688360Y-69771320D01*
X113744806Y-69910399D01*
X113821176Y-70084689D01*
X113862421Y-70178083D01*
X113862421Y-70178083D01*
G36*
X116543666Y-70231000D02*
X115337879Y-70231000D01*
X114132092Y-70231000D01*
X114022282Y-70014298D01*
X113937797Y-69819940D01*
X113875014Y-69606328D01*
X113831617Y-69358689D01*
X113805296Y-69062250D01*
X113793736Y-68702239D01*
X113792735Y-68548250D01*
X113792000Y-67860333D01*
X115167833Y-67860333D01*
X116543666Y-67860333D01*
X116543666Y-69045666D01*
X116543666Y-70231000D01*
X116543666Y-70231000D01*
X116543666Y-70231000D01*
G37*
X116543666Y-70231000D02*
X115337879Y-70231000D01*
X114132092Y-70231000D01*
X114022282Y-70014298D01*
X113937797Y-69819940D01*
X113875014Y-69606328D01*
X113831617Y-69358689D01*
X113805296Y-69062250D01*
X113793736Y-68702239D01*
X113792735Y-68548250D01*
X113792000Y-67860333D01*
X115167833Y-67860333D01*
X116543666Y-67860333D01*
X116543666Y-69045666D01*
X116543666Y-70231000D01*
X116543666Y-70231000D01*
G36*
X112488407Y-68532073D02*
X112439898Y-68792293D01*
X112404078Y-68886916D01*
X112346232Y-69005821D01*
X112294109Y-69065513D01*
X112223776Y-69086080D01*
X112164547Y-69088000D01*
X112065606Y-69083899D01*
X112015515Y-69073799D01*
X112014000Y-69071456D01*
X112029956Y-69026605D01*
X112070511Y-68931275D01*
X112097736Y-68870372D01*
X112153764Y-68695042D01*
X112180792Y-68504019D01*
X112181473Y-68474166D01*
X112160959Y-68287331D01*
X112108952Y-68104400D01*
X112097736Y-68077960D01*
X112048714Y-67966771D01*
X112018570Y-67892328D01*
X112014000Y-67876877D01*
X112051258Y-67865909D01*
X112142788Y-67860464D01*
X112161306Y-67860333D01*
X112257839Y-67869783D01*
X112322617Y-67912079D01*
X112383776Y-68008140D01*
X112398641Y-68036805D01*
X112474591Y-68270378D01*
X112488407Y-68532073D01*
X112488407Y-68532073D01*
X112488407Y-68532073D01*
G37*
X112488407Y-68532073D02*
X112439898Y-68792293D01*
X112404078Y-68886916D01*
X112346232Y-69005821D01*
X112294109Y-69065513D01*
X112223776Y-69086080D01*
X112164547Y-69088000D01*
X112065606Y-69083899D01*
X112015515Y-69073799D01*
X112014000Y-69071456D01*
X112029956Y-69026605D01*
X112070511Y-68931275D01*
X112097736Y-68870372D01*
X112153764Y-68695042D01*
X112180792Y-68504019D01*
X112181473Y-68474166D01*
X112160959Y-68287331D01*
X112108952Y-68104400D01*
X112097736Y-68077960D01*
X112048714Y-67966771D01*
X112018570Y-67892328D01*
X112014000Y-67876877D01*
X112051258Y-67865909D01*
X112142788Y-67860464D01*
X112161306Y-67860333D01*
X112257839Y-67869783D01*
X112322617Y-67912079D01*
X112383776Y-68008140D01*
X112398641Y-68036805D01*
X112474591Y-68270378D01*
X112488407Y-68532073D01*
X112488407Y-68532073D01*
D13*
X173736000Y-88900000D02*
G75*
G03X173736000Y-88900000I-2286000J0D01*
G74*
G01*
D17*
X151681604Y-90983707D02*
X151657776Y-91007535D01*
X151586293Y-91031362D01*
X151538638Y-91031362D01*
X151467155Y-91007535D01*
X151419500Y-90959880D01*
X151395672Y-90912224D01*
X151371844Y-90816914D01*
X151371844Y-90745431D01*
X151395672Y-90650120D01*
X151419500Y-90602465D01*
X151467155Y-90554810D01*
X151538638Y-90530982D01*
X151586293Y-90530982D01*
X151657776Y-90554810D01*
X151681604Y-90578638D01*
X152158156Y-91031362D02*
X151872224Y-91031362D01*
X152015190Y-91031362D02*
X152015190Y-90530982D01*
X151967535Y-90602465D01*
X151919880Y-90650120D01*
X151872224Y-90673948D01*
X146601604Y-90983707D02*
X146577776Y-91007535D01*
X146506293Y-91031362D01*
X146458638Y-91031362D01*
X146387155Y-91007535D01*
X146339500Y-90959880D01*
X146315672Y-90912224D01*
X146291844Y-90816914D01*
X146291844Y-90745431D01*
X146315672Y-90650120D01*
X146339500Y-90602465D01*
X146387155Y-90554810D01*
X146458638Y-90530982D01*
X146506293Y-90530982D01*
X146577776Y-90554810D01*
X146601604Y-90578638D01*
X146792224Y-90578638D02*
X146816052Y-90554810D01*
X146863707Y-90530982D01*
X146982845Y-90530982D01*
X147030501Y-90554810D01*
X147054328Y-90578638D01*
X147078156Y-90626293D01*
X147078156Y-90673948D01*
X147054328Y-90745431D01*
X146768397Y-91031362D01*
X147078156Y-91031362D01*
X151681604Y-84633707D02*
X151657776Y-84657535D01*
X151586293Y-84681362D01*
X151538638Y-84681362D01*
X151467155Y-84657535D01*
X151419500Y-84609880D01*
X151395672Y-84562224D01*
X151371844Y-84466914D01*
X151371844Y-84395431D01*
X151395672Y-84300120D01*
X151419500Y-84252465D01*
X151467155Y-84204810D01*
X151538638Y-84180982D01*
X151586293Y-84180982D01*
X151657776Y-84204810D01*
X151681604Y-84228638D01*
X151848397Y-84180982D02*
X152158156Y-84180982D01*
X151991363Y-84371603D01*
X152062845Y-84371603D01*
X152110501Y-84395431D01*
X152134328Y-84419259D01*
X152158156Y-84466914D01*
X152158156Y-84586052D01*
X152134328Y-84633707D01*
X152110501Y-84657535D01*
X152062845Y-84681362D01*
X151919880Y-84681362D01*
X151872224Y-84657535D01*
X151848397Y-84633707D01*
X151681604Y-87808707D02*
X151657776Y-87832535D01*
X151586293Y-87856362D01*
X151538638Y-87856362D01*
X151467155Y-87832535D01*
X151419500Y-87784880D01*
X151395672Y-87737224D01*
X151371844Y-87641914D01*
X151371844Y-87570431D01*
X151395672Y-87475120D01*
X151419500Y-87427465D01*
X151467155Y-87379810D01*
X151538638Y-87355982D01*
X151586293Y-87355982D01*
X151657776Y-87379810D01*
X151681604Y-87403638D01*
X152110501Y-87522776D02*
X152110501Y-87856362D01*
X151991363Y-87332155D02*
X151872224Y-87689569D01*
X152181984Y-87689569D01*
X177343707Y-76918396D02*
X177367535Y-76942224D01*
X177391362Y-77013707D01*
X177391362Y-77061362D01*
X177367535Y-77132845D01*
X177319880Y-77180500D01*
X177272224Y-77204328D01*
X177176914Y-77228156D01*
X177105431Y-77228156D01*
X177010120Y-77204328D01*
X176962465Y-77180500D01*
X176914810Y-77132845D01*
X176890982Y-77061362D01*
X176890982Y-77013707D01*
X176914810Y-76942224D01*
X176938638Y-76918396D01*
X176890982Y-76465672D02*
X176890982Y-76703948D01*
X177129259Y-76727776D01*
X177105431Y-76703948D01*
X177081603Y-76656293D01*
X177081603Y-76537155D01*
X177105431Y-76489499D01*
X177129259Y-76465672D01*
X177176914Y-76441844D01*
X177296052Y-76441844D01*
X177343707Y-76465672D01*
X177367535Y-76489499D01*
X177391362Y-76537155D01*
X177391362Y-76656293D01*
X177367535Y-76703948D01*
X177343707Y-76727776D01*
X122471604Y-103683707D02*
X122447776Y-103707535D01*
X122376293Y-103731362D01*
X122328638Y-103731362D01*
X122257155Y-103707535D01*
X122209500Y-103659880D01*
X122185672Y-103612224D01*
X122161844Y-103516914D01*
X122161844Y-103445431D01*
X122185672Y-103350120D01*
X122209500Y-103302465D01*
X122257155Y-103254810D01*
X122328638Y-103230982D01*
X122376293Y-103230982D01*
X122447776Y-103254810D01*
X122471604Y-103278638D01*
X122900501Y-103230982D02*
X122805190Y-103230982D01*
X122757535Y-103254810D01*
X122733707Y-103278638D01*
X122686052Y-103350120D01*
X122662224Y-103445431D01*
X122662224Y-103636052D01*
X122686052Y-103683707D01*
X122709880Y-103707535D01*
X122757535Y-103731362D01*
X122852845Y-103731362D01*
X122900501Y-103707535D01*
X122924328Y-103683707D01*
X122948156Y-103636052D01*
X122948156Y-103516914D01*
X122924328Y-103469259D01*
X122900501Y-103445431D01*
X122852845Y-103421603D01*
X122757535Y-103421603D01*
X122709880Y-103445431D01*
X122686052Y-103469259D01*
X122662224Y-103516914D01*
X149403707Y-102699396D02*
X149427535Y-102723224D01*
X149451362Y-102794707D01*
X149451362Y-102842362D01*
X149427535Y-102913845D01*
X149379880Y-102961500D01*
X149332224Y-102985328D01*
X149236914Y-103009156D01*
X149165431Y-103009156D01*
X149070120Y-102985328D01*
X149022465Y-102961500D01*
X148974810Y-102913845D01*
X148950982Y-102842362D01*
X148950982Y-102794707D01*
X148974810Y-102723224D01*
X148998638Y-102699396D01*
X148950982Y-102532603D02*
X148950982Y-102199016D01*
X149451362Y-102413465D01*
X111621207Y-75965896D02*
X111645035Y-75989724D01*
X111668862Y-76061207D01*
X111668862Y-76108862D01*
X111645035Y-76180345D01*
X111597380Y-76228000D01*
X111549724Y-76251828D01*
X111454414Y-76275656D01*
X111382931Y-76275656D01*
X111287620Y-76251828D01*
X111239965Y-76228000D01*
X111192310Y-76180345D01*
X111168482Y-76108862D01*
X111168482Y-76061207D01*
X111192310Y-75989724D01*
X111216138Y-75965896D01*
X111382931Y-75679965D02*
X111359103Y-75727620D01*
X111335276Y-75751448D01*
X111287620Y-75775276D01*
X111263793Y-75775276D01*
X111216138Y-75751448D01*
X111192310Y-75727620D01*
X111168482Y-75679965D01*
X111168482Y-75584655D01*
X111192310Y-75536999D01*
X111216138Y-75513172D01*
X111263793Y-75489344D01*
X111287620Y-75489344D01*
X111335276Y-75513172D01*
X111359103Y-75536999D01*
X111382931Y-75584655D01*
X111382931Y-75679965D01*
X111406759Y-75727620D01*
X111430586Y-75751448D01*
X111478241Y-75775276D01*
X111573552Y-75775276D01*
X111621207Y-75751448D01*
X111645035Y-75727620D01*
X111668862Y-75679965D01*
X111668862Y-75584655D01*
X111645035Y-75536999D01*
X111621207Y-75513172D01*
X111573552Y-75489344D01*
X111478241Y-75489344D01*
X111430586Y-75513172D01*
X111406759Y-75536999D01*
X111382931Y-75584655D01*
X114161207Y-75965896D02*
X114185035Y-75989724D01*
X114208862Y-76061207D01*
X114208862Y-76108862D01*
X114185035Y-76180345D01*
X114137380Y-76228000D01*
X114089724Y-76251828D01*
X113994414Y-76275656D01*
X113922931Y-76275656D01*
X113827620Y-76251828D01*
X113779965Y-76228000D01*
X113732310Y-76180345D01*
X113708482Y-76108862D01*
X113708482Y-76061207D01*
X113732310Y-75989724D01*
X113756138Y-75965896D01*
X114208862Y-75727620D02*
X114208862Y-75632310D01*
X114185035Y-75584655D01*
X114161207Y-75560827D01*
X114089724Y-75513172D01*
X113994414Y-75489344D01*
X113803793Y-75489344D01*
X113756138Y-75513172D01*
X113732310Y-75536999D01*
X113708482Y-75584655D01*
X113708482Y-75679965D01*
X113732310Y-75727620D01*
X113756138Y-75751448D01*
X113803793Y-75775276D01*
X113922931Y-75775276D01*
X113970586Y-75751448D01*
X113994414Y-75727620D01*
X114018241Y-75679965D01*
X114018241Y-75584655D01*
X113994414Y-75536999D01*
X113970586Y-75513172D01*
X113922931Y-75489344D01*
X116701207Y-76204172D02*
X116725035Y-76228000D01*
X116748862Y-76299483D01*
X116748862Y-76347138D01*
X116725035Y-76418621D01*
X116677380Y-76466276D01*
X116629724Y-76490104D01*
X116534414Y-76513932D01*
X116462931Y-76513932D01*
X116367620Y-76490104D01*
X116319965Y-76466276D01*
X116272310Y-76418621D01*
X116248482Y-76347138D01*
X116248482Y-76299483D01*
X116272310Y-76228000D01*
X116296138Y-76204172D01*
X116748862Y-75727620D02*
X116748862Y-76013552D01*
X116748862Y-75870586D02*
X116248482Y-75870586D01*
X116319965Y-75918241D01*
X116367620Y-75965896D01*
X116391448Y-76013552D01*
X116248482Y-75417861D02*
X116248482Y-75370206D01*
X116272310Y-75322551D01*
X116296138Y-75298723D01*
X116343793Y-75274896D01*
X116439103Y-75251068D01*
X116558241Y-75251068D01*
X116653552Y-75274896D01*
X116701207Y-75298723D01*
X116725035Y-75322551D01*
X116748862Y-75370206D01*
X116748862Y-75417861D01*
X116725035Y-75465517D01*
X116701207Y-75489344D01*
X116653552Y-75513172D01*
X116558241Y-75537000D01*
X116439103Y-75537000D01*
X116343793Y-75513172D01*
X116296138Y-75489344D01*
X116272310Y-75465517D01*
X116248482Y-75417861D01*
X119241207Y-76204172D02*
X119265035Y-76228000D01*
X119288862Y-76299483D01*
X119288862Y-76347138D01*
X119265035Y-76418621D01*
X119217380Y-76466276D01*
X119169724Y-76490104D01*
X119074414Y-76513932D01*
X119002931Y-76513932D01*
X118907620Y-76490104D01*
X118859965Y-76466276D01*
X118812310Y-76418621D01*
X118788482Y-76347138D01*
X118788482Y-76299483D01*
X118812310Y-76228000D01*
X118836138Y-76204172D01*
X119288862Y-75727620D02*
X119288862Y-76013552D01*
X119288862Y-75870586D02*
X118788482Y-75870586D01*
X118859965Y-75918241D01*
X118907620Y-75965896D01*
X118931448Y-76013552D01*
X119288862Y-75251068D02*
X119288862Y-75537000D01*
X119288862Y-75394034D02*
X118788482Y-75394034D01*
X118859965Y-75441689D01*
X118907620Y-75489344D01*
X118931448Y-75537000D01*
X121781207Y-76204172D02*
X121805035Y-76228000D01*
X121828862Y-76299483D01*
X121828862Y-76347138D01*
X121805035Y-76418621D01*
X121757380Y-76466276D01*
X121709724Y-76490104D01*
X121614414Y-76513932D01*
X121542931Y-76513932D01*
X121447620Y-76490104D01*
X121399965Y-76466276D01*
X121352310Y-76418621D01*
X121328482Y-76347138D01*
X121328482Y-76299483D01*
X121352310Y-76228000D01*
X121376138Y-76204172D01*
X121828862Y-75727620D02*
X121828862Y-76013552D01*
X121828862Y-75870586D02*
X121328482Y-75870586D01*
X121399965Y-75918241D01*
X121447620Y-75965896D01*
X121471448Y-76013552D01*
X121376138Y-75537000D02*
X121352310Y-75513172D01*
X121328482Y-75465517D01*
X121328482Y-75346379D01*
X121352310Y-75298723D01*
X121376138Y-75274896D01*
X121423793Y-75251068D01*
X121471448Y-75251068D01*
X121542931Y-75274896D01*
X121828862Y-75560827D01*
X121828862Y-75251068D01*
X124321207Y-76204172D02*
X124345035Y-76228000D01*
X124368862Y-76299483D01*
X124368862Y-76347138D01*
X124345035Y-76418621D01*
X124297380Y-76466276D01*
X124249724Y-76490104D01*
X124154414Y-76513932D01*
X124082931Y-76513932D01*
X123987620Y-76490104D01*
X123939965Y-76466276D01*
X123892310Y-76418621D01*
X123868482Y-76347138D01*
X123868482Y-76299483D01*
X123892310Y-76228000D01*
X123916138Y-76204172D01*
X124368862Y-75727620D02*
X124368862Y-76013552D01*
X124368862Y-75870586D02*
X123868482Y-75870586D01*
X123939965Y-75918241D01*
X123987620Y-75965896D01*
X124011448Y-76013552D01*
X123868482Y-75560827D02*
X123868482Y-75251068D01*
X124059103Y-75417861D01*
X124059103Y-75346379D01*
X124082931Y-75298723D01*
X124106759Y-75274896D01*
X124154414Y-75251068D01*
X124273552Y-75251068D01*
X124321207Y-75274896D01*
X124345035Y-75298723D01*
X124368862Y-75346379D01*
X124368862Y-75489344D01*
X124345035Y-75537000D01*
X124321207Y-75560827D01*
D18*
X125941667Y-112334524D02*
X125941667Y-113241667D01*
X125881191Y-113423095D01*
X125760239Y-113544048D01*
X125578810Y-113604524D01*
X125457858Y-113604524D01*
X126546429Y-113604524D02*
X126546429Y-112334524D01*
X127030238Y-112334524D01*
X127151191Y-112395000D01*
X127211667Y-112455476D01*
X127272143Y-112576429D01*
X127272143Y-112757857D01*
X127211667Y-112878810D01*
X127151191Y-112939286D01*
X127030238Y-112999762D01*
X126546429Y-112999762D01*
X128481667Y-113604524D02*
X127755953Y-113604524D01*
X128118810Y-113604524D02*
X128118810Y-112334524D01*
X127997858Y-112515952D01*
X127876905Y-112636905D01*
X127755953Y-112697381D01*
X180037619Y-71059524D02*
X180037619Y-69789524D01*
X180521428Y-69789524D01*
X180642381Y-69850000D01*
X180702857Y-69910476D01*
X180763333Y-70031429D01*
X180763333Y-70212857D01*
X180702857Y-70333810D01*
X180642381Y-70394286D01*
X180521428Y-70454762D01*
X180037619Y-70454762D01*
X181489048Y-70333810D02*
X181368095Y-70273333D01*
X181307619Y-70212857D01*
X181247143Y-70091905D01*
X181247143Y-70031429D01*
X181307619Y-69910476D01*
X181368095Y-69850000D01*
X181489048Y-69789524D01*
X181730952Y-69789524D01*
X181851905Y-69850000D01*
X181912381Y-69910476D01*
X181972857Y-70031429D01*
X181972857Y-70091905D01*
X181912381Y-70212857D01*
X181851905Y-70273333D01*
X181730952Y-70333810D01*
X181489048Y-70333810D01*
X181368095Y-70394286D01*
X181307619Y-70454762D01*
X181247143Y-70575714D01*
X181247143Y-70817619D01*
X181307619Y-70938571D01*
X181368095Y-70999048D01*
X181489048Y-71059524D01*
X181730952Y-71059524D01*
X181851905Y-70999048D01*
X181912381Y-70938571D01*
X181972857Y-70817619D01*
X181972857Y-70575714D01*
X181912381Y-70454762D01*
X181851905Y-70394286D01*
X181730952Y-70333810D01*
X180037619Y-119319524D02*
X180037619Y-118049524D01*
X180521428Y-118049524D01*
X180642381Y-118110000D01*
X180702857Y-118170476D01*
X180763333Y-118291429D01*
X180763333Y-118472857D01*
X180702857Y-118593810D01*
X180642381Y-118654286D01*
X180521428Y-118714762D01*
X180037619Y-118714762D01*
X181368095Y-119319524D02*
X181610000Y-119319524D01*
X181730952Y-119259048D01*
X181791428Y-119198571D01*
X181912381Y-119017143D01*
X181972857Y-118775238D01*
X181972857Y-118291429D01*
X181912381Y-118170476D01*
X181851905Y-118110000D01*
X181730952Y-118049524D01*
X181489048Y-118049524D01*
X181368095Y-118110000D01*
X181307619Y-118170476D01*
X181247143Y-118291429D01*
X181247143Y-118593810D01*
X181307619Y-118714762D01*
X181368095Y-118775238D01*
X181489048Y-118835714D01*
X181730952Y-118835714D01*
X181851905Y-118775238D01*
X181912381Y-118714762D01*
X181972857Y-118593810D01*
D17*
X174216362Y-76918396D02*
X173978086Y-77085190D01*
X174216362Y-77204328D02*
X173715982Y-77204328D01*
X173715982Y-77013707D01*
X173739810Y-76966052D01*
X173763638Y-76942224D01*
X173811293Y-76918396D01*
X173882776Y-76918396D01*
X173930431Y-76942224D01*
X173954259Y-76966052D01*
X173978086Y-77013707D01*
X173978086Y-77204328D01*
X174216362Y-76441844D02*
X174216362Y-76727776D01*
X174216362Y-76584810D02*
X173715982Y-76584810D01*
X173787465Y-76632465D01*
X173835120Y-76680120D01*
X173858948Y-76727776D01*
X162476604Y-75791362D02*
X162309810Y-75553086D01*
X162190672Y-75791362D02*
X162190672Y-75290982D01*
X162381293Y-75290982D01*
X162428948Y-75314810D01*
X162452776Y-75338638D01*
X162476604Y-75386293D01*
X162476604Y-75457776D01*
X162452776Y-75505431D01*
X162428948Y-75529259D01*
X162381293Y-75553086D01*
X162190672Y-75553086D01*
X162667224Y-75338638D02*
X162691052Y-75314810D01*
X162738707Y-75290982D01*
X162857845Y-75290982D01*
X162905501Y-75314810D01*
X162929328Y-75338638D01*
X162953156Y-75386293D01*
X162953156Y-75433948D01*
X162929328Y-75505431D01*
X162643397Y-75791362D01*
X162953156Y-75791362D01*
X162476604Y-78331362D02*
X162309810Y-78093086D01*
X162190672Y-78331362D02*
X162190672Y-77830982D01*
X162381293Y-77830982D01*
X162428948Y-77854810D01*
X162452776Y-77878638D01*
X162476604Y-77926293D01*
X162476604Y-77997776D01*
X162452776Y-78045431D01*
X162428948Y-78069259D01*
X162381293Y-78093086D01*
X162190672Y-78093086D01*
X162643397Y-77830982D02*
X162953156Y-77830982D01*
X162786363Y-78021603D01*
X162857845Y-78021603D01*
X162905501Y-78045431D01*
X162929328Y-78069259D01*
X162953156Y-78116914D01*
X162953156Y-78236052D01*
X162929328Y-78283707D01*
X162905501Y-78307535D01*
X162857845Y-78331362D01*
X162714880Y-78331362D01*
X162667224Y-78307535D01*
X162643397Y-78283707D01*
X114851604Y-105001362D02*
X114684810Y-104763086D01*
X114565672Y-105001362D02*
X114565672Y-104500982D01*
X114756293Y-104500982D01*
X114803948Y-104524810D01*
X114827776Y-104548638D01*
X114851604Y-104596293D01*
X114851604Y-104667776D01*
X114827776Y-104715431D01*
X114803948Y-104739259D01*
X114756293Y-104763086D01*
X114565672Y-104763086D01*
X115280501Y-104667776D02*
X115280501Y-105001362D01*
X115161363Y-104477155D02*
X115042224Y-104834569D01*
X115351984Y-104834569D01*
X114851604Y-108176362D02*
X114684810Y-107938086D01*
X114565672Y-108176362D02*
X114565672Y-107675982D01*
X114756293Y-107675982D01*
X114803948Y-107699810D01*
X114827776Y-107723638D01*
X114851604Y-107771293D01*
X114851604Y-107842776D01*
X114827776Y-107890431D01*
X114803948Y-107914259D01*
X114756293Y-107938086D01*
X114565672Y-107938086D01*
X115304328Y-107675982D02*
X115066052Y-107675982D01*
X115042224Y-107914259D01*
X115066052Y-107890431D01*
X115113707Y-107866603D01*
X115232845Y-107866603D01*
X115280501Y-107890431D01*
X115304328Y-107914259D01*
X115328156Y-107961914D01*
X115328156Y-108081052D01*
X115304328Y-108128707D01*
X115280501Y-108152535D01*
X115232845Y-108176362D01*
X115113707Y-108176362D01*
X115066052Y-108152535D01*
X115042224Y-108128707D01*
X114851604Y-111351362D02*
X114684810Y-111113086D01*
X114565672Y-111351362D02*
X114565672Y-110850982D01*
X114756293Y-110850982D01*
X114803948Y-110874810D01*
X114827776Y-110898638D01*
X114851604Y-110946293D01*
X114851604Y-111017776D01*
X114827776Y-111065431D01*
X114803948Y-111089259D01*
X114756293Y-111113086D01*
X114565672Y-111113086D01*
X115280501Y-110850982D02*
X115185190Y-110850982D01*
X115137535Y-110874810D01*
X115113707Y-110898638D01*
X115066052Y-110970120D01*
X115042224Y-111065431D01*
X115042224Y-111256052D01*
X115066052Y-111303707D01*
X115089880Y-111327535D01*
X115137535Y-111351362D01*
X115232845Y-111351362D01*
X115280501Y-111327535D01*
X115304328Y-111303707D01*
X115328156Y-111256052D01*
X115328156Y-111136914D01*
X115304328Y-111089259D01*
X115280501Y-111065431D01*
X115232845Y-111041603D01*
X115137535Y-111041603D01*
X115089880Y-111065431D01*
X115066052Y-111089259D01*
X115042224Y-111136914D01*
X152626362Y-102699396D02*
X152388086Y-102866190D01*
X152626362Y-102985328D02*
X152125982Y-102985328D01*
X152125982Y-102794707D01*
X152149810Y-102747052D01*
X152173638Y-102723224D01*
X152221293Y-102699396D01*
X152292776Y-102699396D01*
X152340431Y-102723224D01*
X152364259Y-102747052D01*
X152388086Y-102794707D01*
X152388086Y-102985328D01*
X152125982Y-102532603D02*
X152125982Y-102199016D01*
X152626362Y-102413465D01*
X114851604Y-114526362D02*
X114684810Y-114288086D01*
X114565672Y-114526362D02*
X114565672Y-114025982D01*
X114756293Y-114025982D01*
X114803948Y-114049810D01*
X114827776Y-114073638D01*
X114851604Y-114121293D01*
X114851604Y-114192776D01*
X114827776Y-114240431D01*
X114803948Y-114264259D01*
X114756293Y-114288086D01*
X114565672Y-114288086D01*
X115137535Y-114240431D02*
X115089880Y-114216603D01*
X115066052Y-114192776D01*
X115042224Y-114145120D01*
X115042224Y-114121293D01*
X115066052Y-114073638D01*
X115089880Y-114049810D01*
X115137535Y-114025982D01*
X115232845Y-114025982D01*
X115280501Y-114049810D01*
X115304328Y-114073638D01*
X115328156Y-114121293D01*
X115328156Y-114145120D01*
X115304328Y-114192776D01*
X115280501Y-114216603D01*
X115232845Y-114240431D01*
X115137535Y-114240431D01*
X115089880Y-114264259D01*
X115066052Y-114288086D01*
X115042224Y-114335741D01*
X115042224Y-114431052D01*
X115066052Y-114478707D01*
X115089880Y-114502535D01*
X115137535Y-114526362D01*
X115232845Y-114526362D01*
X115280501Y-114502535D01*
X115304328Y-114478707D01*
X115328156Y-114431052D01*
X115328156Y-114335741D01*
X115304328Y-114288086D01*
X115280501Y-114264259D01*
X115232845Y-114240431D01*
X129766362Y-107398396D02*
X129528086Y-107565190D01*
X129766362Y-107684328D02*
X129265982Y-107684328D01*
X129265982Y-107493707D01*
X129289810Y-107446052D01*
X129313638Y-107422224D01*
X129361293Y-107398396D01*
X129432776Y-107398396D01*
X129480431Y-107422224D01*
X129504259Y-107446052D01*
X129528086Y-107493707D01*
X129528086Y-107684328D01*
X129766362Y-107160120D02*
X129766362Y-107064810D01*
X129742535Y-107017155D01*
X129718707Y-106993327D01*
X129647224Y-106945672D01*
X129551914Y-106921844D01*
X129361293Y-106921844D01*
X129313638Y-106945672D01*
X129289810Y-106969499D01*
X129265982Y-107017155D01*
X129265982Y-107112465D01*
X129289810Y-107160120D01*
X129313638Y-107183948D01*
X129361293Y-107207776D01*
X129480431Y-107207776D01*
X129528086Y-107183948D01*
X129551914Y-107160120D01*
X129575741Y-107112465D01*
X129575741Y-107017155D01*
X129551914Y-106969499D01*
X129528086Y-106945672D01*
X129480431Y-106921844D01*
X132941362Y-107636672D02*
X132703086Y-107803466D01*
X132941362Y-107922604D02*
X132440982Y-107922604D01*
X132440982Y-107731983D01*
X132464810Y-107684328D01*
X132488638Y-107660500D01*
X132536293Y-107636672D01*
X132607776Y-107636672D01*
X132655431Y-107660500D01*
X132679259Y-107684328D01*
X132703086Y-107731983D01*
X132703086Y-107922604D01*
X132941362Y-107160120D02*
X132941362Y-107446052D01*
X132941362Y-107303086D02*
X132440982Y-107303086D01*
X132512465Y-107350741D01*
X132560120Y-107398396D01*
X132583948Y-107446052D01*
X132440982Y-106850361D02*
X132440982Y-106802706D01*
X132464810Y-106755051D01*
X132488638Y-106731223D01*
X132536293Y-106707396D01*
X132631603Y-106683568D01*
X132750741Y-106683568D01*
X132846052Y-106707396D01*
X132893707Y-106731223D01*
X132917535Y-106755051D01*
X132941362Y-106802706D01*
X132941362Y-106850361D01*
X132917535Y-106898017D01*
X132893707Y-106921844D01*
X132846052Y-106945672D01*
X132750741Y-106969500D01*
X132631603Y-106969500D01*
X132536293Y-106945672D01*
X132488638Y-106921844D01*
X132464810Y-106898017D01*
X132440982Y-106850361D01*
D19*
X106553000Y-109836857D02*
X106770714Y-109909429D01*
X107133571Y-109909429D01*
X107278714Y-109836857D01*
X107351285Y-109764286D01*
X107423857Y-109619143D01*
X107423857Y-109474000D01*
X107351285Y-109328857D01*
X107278714Y-109256286D01*
X107133571Y-109183714D01*
X106843285Y-109111143D01*
X106698143Y-109038571D01*
X106625571Y-108966000D01*
X106553000Y-108820857D01*
X106553000Y-108675714D01*
X106625571Y-108530571D01*
X106698143Y-108458000D01*
X106843285Y-108385429D01*
X107206143Y-108385429D01*
X107423857Y-108458000D01*
X107931857Y-108385429D02*
X108294714Y-109909429D01*
X108585000Y-108820857D01*
X108875286Y-109909429D01*
X109238143Y-108385429D01*
X110617000Y-109909429D02*
X109746143Y-109909429D01*
X110181571Y-109909429D02*
X110181571Y-108385429D01*
X110036428Y-108603143D01*
X109891286Y-108748286D01*
X109746143Y-108820857D01*
D14*
X145542143Y-85538571D02*
X145542143Y-86752857D01*
X145613571Y-86895714D01*
X145685000Y-86967143D01*
X145827857Y-87038571D01*
X146113571Y-87038571D01*
X146256429Y-86967143D01*
X146327857Y-86895714D01*
X146399286Y-86752857D01*
X146399286Y-85538571D01*
X147899286Y-87038571D02*
X147042143Y-87038571D01*
X147470715Y-87038571D02*
X147470715Y-85538571D01*
X147327858Y-85752857D01*
X147185000Y-85895714D01*
X147042143Y-85967143D01*
X162941143Y-93793571D02*
X162941143Y-95007857D01*
X163012571Y-95150714D01*
X163084000Y-95222143D01*
X163226857Y-95293571D01*
X163512571Y-95293571D01*
X163655429Y-95222143D01*
X163726857Y-95150714D01*
X163798286Y-95007857D01*
X163798286Y-93793571D01*
X164441143Y-93936429D02*
X164512572Y-93865000D01*
X164655429Y-93793571D01*
X165012572Y-93793571D01*
X165155429Y-93865000D01*
X165226858Y-93936429D01*
X165298286Y-94079286D01*
X165298286Y-94222143D01*
X165226858Y-94436429D01*
X164369715Y-95293571D01*
X165298286Y-95293571D01*
X144018095Y-102068381D02*
X144018095Y-102877905D01*
X144065714Y-102973143D01*
X144113333Y-103020762D01*
X144208571Y-103068381D01*
X144399048Y-103068381D01*
X144494286Y-103020762D01*
X144541905Y-102973143D01*
X144589524Y-102877905D01*
X144589524Y-102068381D01*
X144970476Y-102068381D02*
X145589524Y-102068381D01*
X145256190Y-102449333D01*
X145399048Y-102449333D01*
X145494286Y-102496952D01*
X145541905Y-102544571D01*
X145589524Y-102639810D01*
X145589524Y-102877905D01*
X145541905Y-102973143D01*
X145494286Y-103020762D01*
X145399048Y-103068381D01*
X145113333Y-103068381D01*
X145018095Y-103020762D01*
X144970476Y-102973143D01*
D16*
X121780905Y-107324071D02*
X121780905Y-108249357D01*
X121829286Y-108358214D01*
X121877667Y-108412643D01*
X121974429Y-108467071D01*
X122167952Y-108467071D01*
X122264714Y-108412643D01*
X122313095Y-108358214D01*
X122361476Y-108249357D01*
X122361476Y-107324071D01*
X123280714Y-107705071D02*
X123280714Y-108467071D01*
X123038810Y-107269643D02*
X122796905Y-108086071D01*
X123425857Y-108086071D01*
X168347572Y-77179714D02*
X168347572Y-76417714D01*
X168529000Y-76417714D01*
X168637857Y-76454000D01*
X168710429Y-76526571D01*
X168746714Y-76599143D01*
X168783000Y-76744286D01*
X168783000Y-76853143D01*
X168746714Y-76998286D01*
X168710429Y-77070857D01*
X168637857Y-77143429D01*
X168529000Y-77179714D01*
X168347572Y-77179714D01*
X169508714Y-77179714D02*
X169073286Y-77179714D01*
X169291000Y-77179714D02*
X169291000Y-76417714D01*
X169218429Y-76526571D01*
X169145857Y-76599143D01*
X169073286Y-76635429D01*
M02*
